%TF.GenerationSoftware,KiCad,Pcbnew,4.0.1-stable*%
%TF.CreationDate,2016-02-04T12:17:51-06:00*%
%TF.ProjectId,GMCounter,474D436F756E7465722E6B696361645F,rev?*%
%TF.FileFunction,Legend,Bot*%
%FSLAX46Y46*%
G04 Gerber Fmt 4.6, Leading zero omitted, Abs format (unit mm)*
G04 Created by KiCad (PCBNEW 4.0.1-stable) date 4/02/2016 12:17:51*
%MOMM*%
G01*
G04 APERTURE LIST*
%ADD10C,0.100000*%
%ADD11C,0.200000*%
%ADD12C,0.300000*%
%ADD13C,0.150000*%
G04 APERTURE END LIST*
D10*
D11*
X150368000Y-53086000D02*
X150368000Y-50292000D01*
X150368000Y-100203000D02*
X150368000Y-53086000D01*
X150368000Y-50292000D02*
X93853000Y-50292000D01*
X93853000Y-100203000D02*
X94107000Y-100203000D01*
X93853000Y-50292000D02*
X93853000Y-100203000D01*
X94107000Y-100203000D02*
X150368000Y-100203000D01*
D12*
X119391428Y-86156071D02*
X119391428Y-84656071D01*
X119391428Y-85370357D02*
X118534285Y-85370357D01*
X118534285Y-86156071D02*
X118534285Y-84656071D01*
X118034285Y-84656071D02*
X117534285Y-86156071D01*
X117034285Y-84656071D01*
X115462857Y-85727500D02*
X114748571Y-85727500D01*
X115605714Y-86156071D02*
X115105714Y-84656071D01*
X114605714Y-86156071D01*
X114105714Y-86156071D02*
X114105714Y-84656071D01*
X113248571Y-86156071D01*
X113248571Y-84656071D01*
X112534285Y-86156071D02*
X112534285Y-84656071D01*
X112177142Y-84656071D01*
X111962857Y-84727500D01*
X111819999Y-84870357D01*
X111748571Y-85013214D01*
X111677142Y-85298929D01*
X111677142Y-85513214D01*
X111748571Y-85798929D01*
X111819999Y-85941786D01*
X111962857Y-86084643D01*
X112177142Y-86156071D01*
X112534285Y-86156071D01*
X120748571Y-88556071D02*
X120748571Y-87056071D01*
X120391428Y-87056071D01*
X120177143Y-87127500D01*
X120034285Y-87270357D01*
X119962857Y-87413214D01*
X119891428Y-87698929D01*
X119891428Y-87913214D01*
X119962857Y-88198929D01*
X120034285Y-88341786D01*
X120177143Y-88484643D01*
X120391428Y-88556071D01*
X120748571Y-88556071D01*
X119248571Y-87770357D02*
X118748571Y-87770357D01*
X118534285Y-88556071D02*
X119248571Y-88556071D01*
X119248571Y-87056071D01*
X118534285Y-87056071D01*
X118105714Y-87056071D02*
X117248571Y-87056071D01*
X117677142Y-88556071D02*
X117677142Y-87056071D01*
X116748571Y-87770357D02*
X116248571Y-87770357D01*
X116034285Y-88556071D02*
X116748571Y-88556071D01*
X116748571Y-87056071D01*
X116034285Y-87056071D01*
X114534285Y-88413214D02*
X114605714Y-88484643D01*
X114820000Y-88556071D01*
X114962857Y-88556071D01*
X115177142Y-88484643D01*
X115320000Y-88341786D01*
X115391428Y-88198929D01*
X115462857Y-87913214D01*
X115462857Y-87698929D01*
X115391428Y-87413214D01*
X115320000Y-87270357D01*
X115177142Y-87127500D01*
X114962857Y-87056071D01*
X114820000Y-87056071D01*
X114605714Y-87127500D01*
X114534285Y-87198929D01*
X114105714Y-87056071D02*
X113248571Y-87056071D01*
X113677142Y-88556071D02*
X113677142Y-87056071D01*
X112462857Y-87056071D02*
X112177143Y-87056071D01*
X112034285Y-87127500D01*
X111891428Y-87270357D01*
X111820000Y-87556071D01*
X111820000Y-88056071D01*
X111891428Y-88341786D01*
X112034285Y-88484643D01*
X112177143Y-88556071D01*
X112462857Y-88556071D01*
X112605714Y-88484643D01*
X112748571Y-88341786D01*
X112820000Y-88056071D01*
X112820000Y-87556071D01*
X112748571Y-87270357D01*
X112605714Y-87127500D01*
X112462857Y-87056071D01*
X110319999Y-88556071D02*
X110819999Y-87841786D01*
X111177142Y-88556071D02*
X111177142Y-87056071D01*
X110605714Y-87056071D01*
X110462856Y-87127500D01*
X110391428Y-87198929D01*
X110319999Y-87341786D01*
X110319999Y-87556071D01*
X110391428Y-87698929D01*
X110462856Y-87770357D01*
X110605714Y-87841786D01*
X111177142Y-87841786D01*
X145691786Y-123792500D02*
X145620357Y-123863929D01*
X145548929Y-124078215D01*
X145548929Y-124221072D01*
X145620357Y-124435357D01*
X145763214Y-124578215D01*
X145906071Y-124649643D01*
X146191786Y-124721072D01*
X146406071Y-124721072D01*
X146691786Y-124649643D01*
X146834643Y-124578215D01*
X146977500Y-124435357D01*
X147048929Y-124221072D01*
X147048929Y-124078215D01*
X146977500Y-123863929D01*
X146906071Y-123792500D01*
X145548929Y-122935357D02*
X145620357Y-123078215D01*
X145691786Y-123149643D01*
X145834643Y-123221072D01*
X146263214Y-123221072D01*
X146406071Y-123149643D01*
X146477500Y-123078215D01*
X146548929Y-122935357D01*
X146548929Y-122721072D01*
X146477500Y-122578215D01*
X146406071Y-122506786D01*
X146263214Y-122435357D01*
X145834643Y-122435357D01*
X145691786Y-122506786D01*
X145620357Y-122578215D01*
X145548929Y-122721072D01*
X145548929Y-122935357D01*
X146548929Y-121792500D02*
X145548929Y-121792500D01*
X146406071Y-121792500D02*
X146477500Y-121721072D01*
X146548929Y-121578214D01*
X146548929Y-121363929D01*
X146477500Y-121221072D01*
X146334643Y-121149643D01*
X145548929Y-121149643D01*
X146548929Y-120649643D02*
X146548929Y-120078214D01*
X147048929Y-120435357D02*
X145763214Y-120435357D01*
X145620357Y-120363929D01*
X145548929Y-120221071D01*
X145548929Y-120078214D01*
X145548929Y-118935357D02*
X146334643Y-118935357D01*
X146477500Y-119006786D01*
X146548929Y-119149643D01*
X146548929Y-119435357D01*
X146477500Y-119578214D01*
X145620357Y-118935357D02*
X145548929Y-119078214D01*
X145548929Y-119435357D01*
X145620357Y-119578214D01*
X145763214Y-119649643D01*
X145906071Y-119649643D01*
X146048929Y-119578214D01*
X146120357Y-119435357D01*
X146120357Y-119078214D01*
X146191786Y-118935357D01*
X145548929Y-117578214D02*
X147048929Y-117578214D01*
X145620357Y-117578214D02*
X145548929Y-117721071D01*
X145548929Y-118006785D01*
X145620357Y-118149643D01*
X145691786Y-118221071D01*
X145834643Y-118292500D01*
X146263214Y-118292500D01*
X146406071Y-118221071D01*
X146477500Y-118149643D01*
X146548929Y-118006785D01*
X146548929Y-117721071D01*
X146477500Y-117578214D01*
X145548929Y-116649642D02*
X145620357Y-116792500D01*
X145691786Y-116863928D01*
X145834643Y-116935357D01*
X146263214Y-116935357D01*
X146406071Y-116863928D01*
X146477500Y-116792500D01*
X146548929Y-116649642D01*
X146548929Y-116435357D01*
X146477500Y-116292500D01*
X146406071Y-116221071D01*
X146263214Y-116149642D01*
X145834643Y-116149642D01*
X145691786Y-116221071D01*
X145620357Y-116292500D01*
X145548929Y-116435357D01*
X145548929Y-116649642D01*
X145548929Y-115506785D02*
X146548929Y-115506785D01*
X146263214Y-115506785D02*
X146406071Y-115435357D01*
X146477500Y-115363928D01*
X146548929Y-115221071D01*
X146548929Y-115078214D01*
X146977500Y-112649643D02*
X147048929Y-112792500D01*
X147048929Y-113006786D01*
X146977500Y-113221071D01*
X146834643Y-113363929D01*
X146691786Y-113435357D01*
X146406071Y-113506786D01*
X146191786Y-113506786D01*
X145906071Y-113435357D01*
X145763214Y-113363929D01*
X145620357Y-113221071D01*
X145548929Y-113006786D01*
X145548929Y-112863929D01*
X145620357Y-112649643D01*
X145691786Y-112578214D01*
X146191786Y-112578214D01*
X146191786Y-112863929D01*
X145548929Y-111935357D02*
X147048929Y-111935357D01*
X145977500Y-111435357D01*
X147048929Y-110935357D01*
X145548929Y-110935357D01*
X143148929Y-132578214D02*
X144648929Y-132578214D01*
X144648929Y-132006786D01*
X144577500Y-131863928D01*
X144506071Y-131792500D01*
X144363214Y-131721071D01*
X144148929Y-131721071D01*
X144006071Y-131792500D01*
X143934643Y-131863928D01*
X143863214Y-132006786D01*
X143863214Y-132578214D01*
X143148929Y-131078214D02*
X144148929Y-131078214D01*
X143863214Y-131078214D02*
X144006071Y-131006786D01*
X144077500Y-130935357D01*
X144148929Y-130792500D01*
X144148929Y-130649643D01*
X143148929Y-129935357D02*
X143220357Y-130078215D01*
X143291786Y-130149643D01*
X143434643Y-130221072D01*
X143863214Y-130221072D01*
X144006071Y-130149643D01*
X144077500Y-130078215D01*
X144148929Y-129935357D01*
X144148929Y-129721072D01*
X144077500Y-129578215D01*
X144006071Y-129506786D01*
X143863214Y-129435357D01*
X143434643Y-129435357D01*
X143291786Y-129506786D01*
X143220357Y-129578215D01*
X143148929Y-129721072D01*
X143148929Y-129935357D01*
X144148929Y-129006786D02*
X144148929Y-128435357D01*
X144648929Y-128792500D02*
X143363214Y-128792500D01*
X143220357Y-128721072D01*
X143148929Y-128578214D01*
X143148929Y-128435357D01*
X143148929Y-127721071D02*
X143220357Y-127863929D01*
X143291786Y-127935357D01*
X143434643Y-128006786D01*
X143863214Y-128006786D01*
X144006071Y-127935357D01*
X144077500Y-127863929D01*
X144148929Y-127721071D01*
X144148929Y-127506786D01*
X144077500Y-127363929D01*
X144006071Y-127292500D01*
X143863214Y-127221071D01*
X143434643Y-127221071D01*
X143291786Y-127292500D01*
X143220357Y-127363929D01*
X143148929Y-127506786D01*
X143148929Y-127721071D01*
X144148929Y-126792500D02*
X144148929Y-126221071D01*
X144648929Y-126578214D02*
X143363214Y-126578214D01*
X143220357Y-126506786D01*
X143148929Y-126363928D01*
X143148929Y-126221071D01*
X143148929Y-125721071D02*
X144148929Y-125721071D01*
X144648929Y-125721071D02*
X144577500Y-125792500D01*
X144506071Y-125721071D01*
X144577500Y-125649643D01*
X144648929Y-125721071D01*
X144506071Y-125721071D01*
X144148929Y-125006785D02*
X142648929Y-125006785D01*
X144077500Y-125006785D02*
X144148929Y-124863928D01*
X144148929Y-124578214D01*
X144077500Y-124435357D01*
X144006071Y-124363928D01*
X143863214Y-124292499D01*
X143434643Y-124292499D01*
X143291786Y-124363928D01*
X143220357Y-124435357D01*
X143148929Y-124578214D01*
X143148929Y-124863928D01*
X143220357Y-125006785D01*
X143148929Y-123435356D02*
X143220357Y-123578214D01*
X143291786Y-123649642D01*
X143434643Y-123721071D01*
X143863214Y-123721071D01*
X144006071Y-123649642D01*
X144077500Y-123578214D01*
X144148929Y-123435356D01*
X144148929Y-123221071D01*
X144077500Y-123078214D01*
X144006071Y-123006785D01*
X143863214Y-122935356D01*
X143434643Y-122935356D01*
X143291786Y-123006785D01*
X143220357Y-123078214D01*
X143148929Y-123221071D01*
X143148929Y-123435356D01*
X144148929Y-121149642D02*
X142648929Y-121149642D01*
X144077500Y-121149642D02*
X144148929Y-121006785D01*
X144148929Y-120721071D01*
X144077500Y-120578214D01*
X144006071Y-120506785D01*
X143863214Y-120435356D01*
X143434643Y-120435356D01*
X143291786Y-120506785D01*
X143220357Y-120578214D01*
X143148929Y-120721071D01*
X143148929Y-121006785D01*
X143220357Y-121149642D01*
X143148929Y-119149642D02*
X143934643Y-119149642D01*
X144077500Y-119221071D01*
X144148929Y-119363928D01*
X144148929Y-119649642D01*
X144077500Y-119792499D01*
X143220357Y-119149642D02*
X143148929Y-119292499D01*
X143148929Y-119649642D01*
X143220357Y-119792499D01*
X143363214Y-119863928D01*
X143506071Y-119863928D01*
X143648929Y-119792499D01*
X143720357Y-119649642D01*
X143720357Y-119292499D01*
X143791786Y-119149642D01*
X143148929Y-118435356D02*
X144148929Y-118435356D01*
X143863214Y-118435356D02*
X144006071Y-118363928D01*
X144077500Y-118292499D01*
X144148929Y-118149642D01*
X144148929Y-118006785D01*
X143148929Y-116863928D02*
X143934643Y-116863928D01*
X144077500Y-116935357D01*
X144148929Y-117078214D01*
X144148929Y-117363928D01*
X144077500Y-117506785D01*
X143220357Y-116863928D02*
X143148929Y-117006785D01*
X143148929Y-117363928D01*
X143220357Y-117506785D01*
X143363214Y-117578214D01*
X143506071Y-117578214D01*
X143648929Y-117506785D01*
X143720357Y-117363928D01*
X143720357Y-117006785D01*
X143791786Y-116863928D01*
X143291786Y-114149642D02*
X143220357Y-114221071D01*
X143148929Y-114435357D01*
X143148929Y-114578214D01*
X143220357Y-114792499D01*
X143363214Y-114935357D01*
X143506071Y-115006785D01*
X143791786Y-115078214D01*
X144006071Y-115078214D01*
X144291786Y-115006785D01*
X144434643Y-114935357D01*
X144577500Y-114792499D01*
X144648929Y-114578214D01*
X144648929Y-114435357D01*
X144577500Y-114221071D01*
X144506071Y-114149642D01*
X143148929Y-112863928D02*
X143934643Y-112863928D01*
X144077500Y-112935357D01*
X144148929Y-113078214D01*
X144148929Y-113363928D01*
X144077500Y-113506785D01*
X143220357Y-112863928D02*
X143148929Y-113006785D01*
X143148929Y-113363928D01*
X143220357Y-113506785D01*
X143363214Y-113578214D01*
X143506071Y-113578214D01*
X143648929Y-113506785D01*
X143720357Y-113363928D01*
X143720357Y-113006785D01*
X143791786Y-112863928D01*
X143148929Y-111935356D02*
X143220357Y-112078214D01*
X143363214Y-112149642D01*
X144648929Y-112149642D01*
X143148929Y-111363928D02*
X144148929Y-111363928D01*
X144648929Y-111363928D02*
X144577500Y-111435357D01*
X144506071Y-111363928D01*
X144577500Y-111292500D01*
X144648929Y-111363928D01*
X144506071Y-111363928D01*
X143148929Y-110649642D02*
X144648929Y-110649642D01*
X144077500Y-110649642D02*
X144148929Y-110506785D01*
X144148929Y-110221071D01*
X144077500Y-110078214D01*
X144006071Y-110006785D01*
X143863214Y-109935356D01*
X143434643Y-109935356D01*
X143291786Y-110006785D01*
X143220357Y-110078214D01*
X143148929Y-110221071D01*
X143148929Y-110506785D01*
X143220357Y-110649642D01*
X143148929Y-109292499D02*
X144148929Y-109292499D01*
X143863214Y-109292499D02*
X144006071Y-109221071D01*
X144077500Y-109149642D01*
X144148929Y-109006785D01*
X144148929Y-108863928D01*
X143148929Y-107721071D02*
X143934643Y-107721071D01*
X144077500Y-107792500D01*
X144148929Y-107935357D01*
X144148929Y-108221071D01*
X144077500Y-108363928D01*
X143220357Y-107721071D02*
X143148929Y-107863928D01*
X143148929Y-108221071D01*
X143220357Y-108363928D01*
X143363214Y-108435357D01*
X143506071Y-108435357D01*
X143648929Y-108363928D01*
X143720357Y-108221071D01*
X143720357Y-107863928D01*
X143791786Y-107721071D01*
X143220357Y-106363928D02*
X143148929Y-106506785D01*
X143148929Y-106792499D01*
X143220357Y-106935357D01*
X143291786Y-107006785D01*
X143434643Y-107078214D01*
X143863214Y-107078214D01*
X144006071Y-107006785D01*
X144077500Y-106935357D01*
X144148929Y-106792499D01*
X144148929Y-106506785D01*
X144077500Y-106363928D01*
X143148929Y-105721071D02*
X144148929Y-105721071D01*
X144648929Y-105721071D02*
X144577500Y-105792500D01*
X144506071Y-105721071D01*
X144577500Y-105649643D01*
X144648929Y-105721071D01*
X144506071Y-105721071D01*
X143148929Y-104792499D02*
X143220357Y-104935357D01*
X143291786Y-105006785D01*
X143434643Y-105078214D01*
X143863214Y-105078214D01*
X144006071Y-105006785D01*
X144077500Y-104935357D01*
X144148929Y-104792499D01*
X144148929Y-104578214D01*
X144077500Y-104435357D01*
X144006071Y-104363928D01*
X143863214Y-104292499D01*
X143434643Y-104292499D01*
X143291786Y-104363928D01*
X143220357Y-104435357D01*
X143148929Y-104578214D01*
X143148929Y-104792499D01*
X144720357Y-104506785D02*
X144506071Y-104721071D01*
X144148929Y-103649642D02*
X143148929Y-103649642D01*
X144006071Y-103649642D02*
X144077500Y-103578214D01*
X144148929Y-103435356D01*
X144148929Y-103221071D01*
X144077500Y-103078214D01*
X143934643Y-103006785D01*
X143148929Y-103006785D01*
X141748929Y-120506785D02*
X140748929Y-120149642D01*
X141748929Y-119792500D01*
X142248929Y-117792500D02*
X142248929Y-117649643D01*
X142177500Y-117506786D01*
X142106071Y-117435357D01*
X141963214Y-117363928D01*
X141677500Y-117292500D01*
X141320357Y-117292500D01*
X141034643Y-117363928D01*
X140891786Y-117435357D01*
X140820357Y-117506786D01*
X140748929Y-117649643D01*
X140748929Y-117792500D01*
X140820357Y-117935357D01*
X140891786Y-118006786D01*
X141034643Y-118078214D01*
X141320357Y-118149643D01*
X141677500Y-118149643D01*
X141963214Y-118078214D01*
X142106071Y-118006786D01*
X142177500Y-117935357D01*
X142248929Y-117792500D01*
X140891786Y-116649643D02*
X140820357Y-116578215D01*
X140748929Y-116649643D01*
X140820357Y-116721072D01*
X140891786Y-116649643D01*
X140748929Y-116649643D01*
X142248929Y-116078214D02*
X142248929Y-115149643D01*
X141677500Y-115649643D01*
X141677500Y-115435357D01*
X141606071Y-115292500D01*
X141534643Y-115221071D01*
X141391786Y-115149643D01*
X141034643Y-115149643D01*
X140891786Y-115221071D01*
X140820357Y-115292500D01*
X140748929Y-115435357D01*
X140748929Y-115863929D01*
X140820357Y-116006786D01*
X140891786Y-116078214D01*
X85038685Y-51288371D02*
X85038685Y-49788371D01*
X84538685Y-50859800D01*
X84038685Y-49788371D01*
X84038685Y-51288371D01*
X83110113Y-51288371D02*
X83252971Y-51216943D01*
X83324399Y-51145514D01*
X83395828Y-51002657D01*
X83395828Y-50574086D01*
X83324399Y-50431229D01*
X83252971Y-50359800D01*
X83110113Y-50288371D01*
X82895828Y-50288371D01*
X82752971Y-50359800D01*
X82681542Y-50431229D01*
X82610113Y-50574086D01*
X82610113Y-51002657D01*
X82681542Y-51145514D01*
X82752971Y-51216943D01*
X82895828Y-51288371D01*
X83110113Y-51288371D01*
X81967256Y-50288371D02*
X81967256Y-51288371D01*
X81967256Y-50431229D02*
X81895828Y-50359800D01*
X81752970Y-50288371D01*
X81538685Y-50288371D01*
X81395828Y-50359800D01*
X81324399Y-50502657D01*
X81324399Y-51288371D01*
X80824399Y-50288371D02*
X80252970Y-50288371D01*
X80610113Y-49788371D02*
X80610113Y-51074086D01*
X80538685Y-51216943D01*
X80395827Y-51288371D01*
X80252970Y-51288371D01*
X79181542Y-51216943D02*
X79324399Y-51288371D01*
X79610113Y-51288371D01*
X79752970Y-51216943D01*
X79824399Y-51074086D01*
X79824399Y-50502657D01*
X79752970Y-50359800D01*
X79610113Y-50288371D01*
X79324399Y-50288371D01*
X79181542Y-50359800D01*
X79110113Y-50502657D01*
X79110113Y-50645514D01*
X79824399Y-50788371D01*
X78467256Y-51288371D02*
X78467256Y-50288371D01*
X78467256Y-50574086D02*
X78395828Y-50431229D01*
X78324399Y-50359800D01*
X78181542Y-50288371D01*
X78038685Y-50288371D01*
X77538685Y-51288371D02*
X77538685Y-50288371D01*
X77538685Y-50574086D02*
X77467257Y-50431229D01*
X77395828Y-50359800D01*
X77252971Y-50288371D01*
X77110114Y-50288371D01*
X76395828Y-51288371D02*
X76538686Y-51216943D01*
X76610114Y-51145514D01*
X76681543Y-51002657D01*
X76681543Y-50574086D01*
X76610114Y-50431229D01*
X76538686Y-50359800D01*
X76395828Y-50288371D01*
X76181543Y-50288371D01*
X76038686Y-50359800D01*
X75967257Y-50431229D01*
X75895828Y-50574086D01*
X75895828Y-51002657D01*
X75967257Y-51145514D01*
X76038686Y-51216943D01*
X76181543Y-51288371D01*
X76395828Y-51288371D01*
X75324400Y-51216943D02*
X75181543Y-51288371D01*
X74895828Y-51288371D01*
X74752971Y-51216943D01*
X74681543Y-51074086D01*
X74681543Y-51002657D01*
X74752971Y-50859800D01*
X74895828Y-50788371D01*
X75110114Y-50788371D01*
X75252971Y-50716943D01*
X75324400Y-50574086D01*
X75324400Y-50502657D01*
X75252971Y-50359800D01*
X75110114Y-50288371D01*
X74895828Y-50288371D01*
X74752971Y-50359800D01*
X73824399Y-51288371D02*
X73967257Y-51216943D01*
X74038685Y-51145514D01*
X74110114Y-51002657D01*
X74110114Y-50574086D01*
X74038685Y-50431229D01*
X73967257Y-50359800D01*
X73824399Y-50288371D01*
X73610114Y-50288371D01*
X73467257Y-50359800D01*
X73395828Y-50431229D01*
X73324399Y-50574086D01*
X73324399Y-51002657D01*
X73395828Y-51145514D01*
X73467257Y-51216943D01*
X73610114Y-51288371D01*
X73824399Y-51288371D01*
X72610114Y-51216943D02*
X72610114Y-51288371D01*
X72681542Y-51431229D01*
X72752971Y-51502657D01*
X70895828Y-50859800D02*
X70181542Y-50859800D01*
X71038685Y-51288371D02*
X70538685Y-49788371D01*
X70038685Y-51288371D01*
X69538685Y-50288371D02*
X69538685Y-51288371D01*
X69538685Y-50431229D02*
X69467257Y-50359800D01*
X69324399Y-50288371D01*
X69110114Y-50288371D01*
X68967257Y-50359800D01*
X68895828Y-50502657D01*
X68895828Y-51288371D01*
X67538685Y-51288371D02*
X67538685Y-49788371D01*
X67538685Y-51216943D02*
X67681542Y-51288371D01*
X67967256Y-51288371D01*
X68110114Y-51216943D01*
X68181542Y-51145514D01*
X68252971Y-51002657D01*
X68252971Y-50574086D01*
X68181542Y-50431229D01*
X68110114Y-50359800D01*
X67967256Y-50288371D01*
X67681542Y-50288371D01*
X67538685Y-50359800D01*
X66824399Y-51288371D02*
X66824399Y-50288371D01*
X66824399Y-50574086D02*
X66752971Y-50431229D01*
X66681542Y-50359800D01*
X66538685Y-50288371D01*
X66395828Y-50288371D01*
X65324400Y-51216943D02*
X65467257Y-51288371D01*
X65752971Y-51288371D01*
X65895828Y-51216943D01*
X65967257Y-51074086D01*
X65967257Y-50502657D01*
X65895828Y-50359800D01*
X65752971Y-50288371D01*
X65467257Y-50288371D01*
X65324400Y-50359800D01*
X65252971Y-50502657D01*
X65252971Y-50645514D01*
X65967257Y-50788371D01*
X65467257Y-49716943D02*
X65681542Y-49931229D01*
X64681543Y-51216943D02*
X64538686Y-51288371D01*
X64252971Y-51288371D01*
X64110114Y-51216943D01*
X64038686Y-51074086D01*
X64038686Y-51002657D01*
X64110114Y-50859800D01*
X64252971Y-50788371D01*
X64467257Y-50788371D01*
X64610114Y-50716943D01*
X64681543Y-50574086D01*
X64681543Y-50502657D01*
X64610114Y-50359800D01*
X64467257Y-50288371D01*
X64252971Y-50288371D01*
X64110114Y-50359800D01*
X81752971Y-53688371D02*
X81752971Y-52188371D01*
X81252971Y-53259800D01*
X80752971Y-52188371D01*
X80752971Y-53688371D01*
X79824399Y-53688371D02*
X79967257Y-53616943D01*
X80038685Y-53545514D01*
X80110114Y-53402657D01*
X80110114Y-52974086D01*
X80038685Y-52831229D01*
X79967257Y-52759800D01*
X79824399Y-52688371D01*
X79610114Y-52688371D01*
X79467257Y-52759800D01*
X79395828Y-52831229D01*
X79324399Y-52974086D01*
X79324399Y-53402657D01*
X79395828Y-53545514D01*
X79467257Y-53616943D01*
X79610114Y-53688371D01*
X79824399Y-53688371D01*
X78681542Y-53688371D02*
X78681542Y-52688371D01*
X78681542Y-52974086D02*
X78610114Y-52831229D01*
X78538685Y-52759800D01*
X78395828Y-52688371D01*
X78252971Y-52688371D01*
X77110114Y-53688371D02*
X77110114Y-52902657D01*
X77181543Y-52759800D01*
X77324400Y-52688371D01*
X77610114Y-52688371D01*
X77752971Y-52759800D01*
X77110114Y-53616943D02*
X77252971Y-53688371D01*
X77610114Y-53688371D01*
X77752971Y-53616943D01*
X77824400Y-53474086D01*
X77824400Y-53331229D01*
X77752971Y-53188371D01*
X77610114Y-53116943D01*
X77252971Y-53116943D01*
X77110114Y-53045514D01*
X76181542Y-53688371D02*
X76324400Y-53616943D01*
X76395828Y-53474086D01*
X76395828Y-52188371D01*
X75038686Y-53616943D02*
X75181543Y-53688371D01*
X75467257Y-53688371D01*
X75610114Y-53616943D01*
X75681543Y-53474086D01*
X75681543Y-52902657D01*
X75610114Y-52759800D01*
X75467257Y-52688371D01*
X75181543Y-52688371D01*
X75038686Y-52759800D01*
X74967257Y-52902657D01*
X74967257Y-53045514D01*
X75681543Y-53188371D01*
X74395829Y-53616943D02*
X74252972Y-53688371D01*
X73967257Y-53688371D01*
X73824400Y-53616943D01*
X73752972Y-53474086D01*
X73752972Y-53402657D01*
X73824400Y-53259800D01*
X73967257Y-53188371D01*
X74181543Y-53188371D01*
X74324400Y-53116943D01*
X74395829Y-52974086D01*
X74395829Y-52902657D01*
X74324400Y-52759800D01*
X74181543Y-52688371D01*
X73967257Y-52688371D01*
X73824400Y-52759800D01*
X73038686Y-53616943D02*
X73038686Y-53688371D01*
X73110114Y-53831229D01*
X73181543Y-53902657D01*
X71252971Y-53688371D02*
X71252971Y-52188371D01*
X70681542Y-52688371D02*
X70324399Y-53688371D01*
X69967257Y-52688371D01*
X68752971Y-53688371D02*
X68752971Y-52902657D01*
X68824400Y-52759800D01*
X68967257Y-52688371D01*
X69252971Y-52688371D01*
X69395828Y-52759800D01*
X68752971Y-53616943D02*
X68895828Y-53688371D01*
X69252971Y-53688371D01*
X69395828Y-53616943D01*
X69467257Y-53474086D01*
X69467257Y-53331229D01*
X69395828Y-53188371D01*
X69252971Y-53116943D01*
X68895828Y-53116943D01*
X68752971Y-53045514D01*
X68967257Y-52116943D02*
X69181542Y-52331229D01*
X68038685Y-52688371D02*
X68038685Y-53688371D01*
X68038685Y-52831229D02*
X67967257Y-52759800D01*
X67824399Y-52688371D01*
X67610114Y-52688371D01*
X67467257Y-52759800D01*
X67395828Y-52902657D01*
X67395828Y-53688371D01*
X81574400Y-54588371D02*
X81574400Y-55802657D01*
X81502972Y-55945514D01*
X81431543Y-56016943D01*
X81288686Y-56088371D01*
X81002972Y-56088371D01*
X80860114Y-56016943D01*
X80788686Y-55945514D01*
X80717257Y-55802657D01*
X80717257Y-54588371D01*
X80002971Y-56088371D02*
X80002971Y-55088371D01*
X80002971Y-55374086D02*
X79931543Y-55231229D01*
X79860114Y-55159800D01*
X79717257Y-55088371D01*
X79574400Y-55088371D01*
X79074400Y-56088371D02*
X79074400Y-55088371D01*
X79074400Y-54588371D02*
X79145829Y-54659800D01*
X79074400Y-54731229D01*
X79002972Y-54659800D01*
X79074400Y-54588371D01*
X79074400Y-54731229D01*
X78502971Y-55088371D02*
X77717257Y-55088371D01*
X78502971Y-56088371D01*
X77717257Y-56088371D01*
X76502971Y-56088371D02*
X76502971Y-55302657D01*
X76574400Y-55159800D01*
X76717257Y-55088371D01*
X77002971Y-55088371D01*
X77145828Y-55159800D01*
X76502971Y-56016943D02*
X76645828Y-56088371D01*
X77002971Y-56088371D01*
X77145828Y-56016943D01*
X77217257Y-55874086D01*
X77217257Y-55731229D01*
X77145828Y-55588371D01*
X77002971Y-55516943D01*
X76645828Y-55516943D01*
X76502971Y-55445514D01*
X75788685Y-56088371D02*
X75788685Y-55088371D01*
X75788685Y-55374086D02*
X75717257Y-55231229D01*
X75645828Y-55159800D01*
X75502971Y-55088371D01*
X75360114Y-55088371D01*
X74788686Y-56016943D02*
X74788686Y-56088371D01*
X74860114Y-56231229D01*
X74931543Y-56302657D01*
X73074400Y-56016943D02*
X72860114Y-56088371D01*
X72502971Y-56088371D01*
X72360114Y-56016943D01*
X72288685Y-55945514D01*
X72217257Y-55802657D01*
X72217257Y-55659800D01*
X72288685Y-55516943D01*
X72360114Y-55445514D01*
X72502971Y-55374086D01*
X72788685Y-55302657D01*
X72931543Y-55231229D01*
X73002971Y-55159800D01*
X73074400Y-55016943D01*
X73074400Y-54874086D01*
X73002971Y-54731229D01*
X72931543Y-54659800D01*
X72788685Y-54588371D01*
X72431543Y-54588371D01*
X72217257Y-54659800D01*
X71574400Y-56088371D02*
X71574400Y-55088371D01*
X71574400Y-54588371D02*
X71645829Y-54659800D01*
X71574400Y-54731229D01*
X71502972Y-54659800D01*
X71574400Y-54588371D01*
X71574400Y-54731229D01*
X70645828Y-56088371D02*
X70788686Y-56016943D01*
X70860114Y-55874086D01*
X70860114Y-54588371D01*
X70217257Y-55088371D02*
X69860114Y-56088371D01*
X69502972Y-55088371D01*
X68931543Y-56088371D02*
X68931543Y-55088371D01*
X68931543Y-54588371D02*
X69002972Y-54659800D01*
X68931543Y-54731229D01*
X68860115Y-54659800D01*
X68931543Y-54588371D01*
X68931543Y-54731229D01*
X68002971Y-56088371D02*
X68145829Y-56016943D01*
X68217257Y-55945514D01*
X68288686Y-55802657D01*
X68288686Y-55374086D01*
X68217257Y-55231229D01*
X68145829Y-55159800D01*
X68002971Y-55088371D01*
X67788686Y-55088371D01*
X67645829Y-55159800D01*
X67574400Y-55231229D01*
X67502971Y-55374086D01*
X67502971Y-55802657D01*
X67574400Y-55945514D01*
X67645829Y-56016943D01*
X67788686Y-56088371D01*
X68002971Y-56088371D01*
X137992400Y-122922657D02*
X138063829Y-123065514D01*
X138063829Y-123279800D01*
X137992400Y-123494085D01*
X137849543Y-123636943D01*
X137706686Y-123708371D01*
X137420971Y-123779800D01*
X137206686Y-123779800D01*
X136920971Y-123708371D01*
X136778114Y-123636943D01*
X136635257Y-123494085D01*
X136563829Y-123279800D01*
X136563829Y-123136943D01*
X136635257Y-122922657D01*
X136706686Y-122851228D01*
X137206686Y-122851228D01*
X137206686Y-123136943D01*
X137563829Y-121565514D02*
X136563829Y-121565514D01*
X137563829Y-122208371D02*
X136778114Y-122208371D01*
X136635257Y-122136943D01*
X136563829Y-121994085D01*
X136563829Y-121779800D01*
X136635257Y-121636943D01*
X136706686Y-121565514D01*
X136563829Y-120208371D02*
X137349543Y-120208371D01*
X137492400Y-120279800D01*
X137563829Y-120422657D01*
X137563829Y-120708371D01*
X137492400Y-120851228D01*
X136635257Y-120208371D02*
X136563829Y-120351228D01*
X136563829Y-120708371D01*
X136635257Y-120851228D01*
X136778114Y-120922657D01*
X136920971Y-120922657D01*
X137063829Y-120851228D01*
X137135257Y-120708371D01*
X137135257Y-120351228D01*
X137206686Y-120208371D01*
X137563829Y-119708371D02*
X137563829Y-119136942D01*
X138063829Y-119494085D02*
X136778114Y-119494085D01*
X136635257Y-119422657D01*
X136563829Y-119279799D01*
X136563829Y-119136942D01*
X136635257Y-118065514D02*
X136563829Y-118208371D01*
X136563829Y-118494085D01*
X136635257Y-118636942D01*
X136778114Y-118708371D01*
X137349543Y-118708371D01*
X137492400Y-118636942D01*
X137563829Y-118494085D01*
X137563829Y-118208371D01*
X137492400Y-118065514D01*
X137349543Y-117994085D01*
X137206686Y-117994085D01*
X137063829Y-118708371D01*
X136563829Y-117351228D02*
X137563829Y-117351228D01*
X137420971Y-117351228D02*
X137492400Y-117279800D01*
X137563829Y-117136942D01*
X137563829Y-116922657D01*
X137492400Y-116779800D01*
X137349543Y-116708371D01*
X136563829Y-116708371D01*
X137349543Y-116708371D02*
X137492400Y-116636942D01*
X137563829Y-116494085D01*
X137563829Y-116279800D01*
X137492400Y-116136942D01*
X137349543Y-116065514D01*
X136563829Y-116065514D01*
X136563829Y-114708371D02*
X137349543Y-114708371D01*
X137492400Y-114779800D01*
X137563829Y-114922657D01*
X137563829Y-115208371D01*
X137492400Y-115351228D01*
X136635257Y-114708371D02*
X136563829Y-114851228D01*
X136563829Y-115208371D01*
X136635257Y-115351228D01*
X136778114Y-115422657D01*
X136920971Y-115422657D01*
X137063829Y-115351228D01*
X137135257Y-115208371D01*
X137135257Y-114851228D01*
X137206686Y-114708371D01*
X136563829Y-113779799D02*
X136635257Y-113922657D01*
X136778114Y-113994085D01*
X138063829Y-113994085D01*
X136563829Y-112565514D02*
X137349543Y-112565514D01*
X137492400Y-112636943D01*
X137563829Y-112779800D01*
X137563829Y-113065514D01*
X137492400Y-113208371D01*
X136635257Y-112565514D02*
X136563829Y-112708371D01*
X136563829Y-113065514D01*
X136635257Y-113208371D01*
X136778114Y-113279800D01*
X136920971Y-113279800D01*
X137063829Y-113208371D01*
X137135257Y-113065514D01*
X137135257Y-112708371D01*
X137206686Y-112565514D01*
X136635257Y-111779800D02*
X136563829Y-111779800D01*
X136420971Y-111851228D01*
X136349543Y-111922657D01*
X134949543Y-123994084D02*
X134949543Y-123494084D01*
X134163829Y-123279798D02*
X134163829Y-123994084D01*
X135663829Y-123994084D01*
X135663829Y-123279798D01*
X135163829Y-122636941D02*
X134163829Y-122636941D01*
X135020971Y-122636941D02*
X135092400Y-122565513D01*
X135163829Y-122422655D01*
X135163829Y-122208370D01*
X135092400Y-122065513D01*
X134949543Y-121994084D01*
X134163829Y-121994084D01*
X134235257Y-120708370D02*
X134163829Y-120851227D01*
X134163829Y-121136941D01*
X134235257Y-121279798D01*
X134378114Y-121351227D01*
X134949543Y-121351227D01*
X135092400Y-121279798D01*
X135163829Y-121136941D01*
X135163829Y-120851227D01*
X135092400Y-120708370D01*
X134949543Y-120636941D01*
X134806686Y-120636941D01*
X134663829Y-121351227D01*
X134163829Y-119994084D02*
X135163829Y-119994084D01*
X134878114Y-119994084D02*
X135020971Y-119922656D01*
X135092400Y-119851227D01*
X135163829Y-119708370D01*
X135163829Y-119565513D01*
X134163829Y-118851227D02*
X134235257Y-118994085D01*
X134306686Y-119065513D01*
X134449543Y-119136942D01*
X134878114Y-119136942D01*
X135020971Y-119065513D01*
X135092400Y-118994085D01*
X135163829Y-118851227D01*
X135163829Y-118636942D01*
X135092400Y-118494085D01*
X135020971Y-118422656D01*
X134878114Y-118351227D01*
X134449543Y-118351227D01*
X134306686Y-118422656D01*
X134235257Y-118494085D01*
X134163829Y-118636942D01*
X134163829Y-118851227D01*
X135520971Y-116636942D02*
X135592400Y-116565513D01*
X135663829Y-116422656D01*
X135663829Y-116065513D01*
X135592400Y-115922656D01*
X135520971Y-115851227D01*
X135378114Y-115779799D01*
X135235257Y-115779799D01*
X135020971Y-115851227D01*
X134163829Y-116708370D01*
X134163829Y-115779799D01*
X135663829Y-114851228D02*
X135663829Y-114708371D01*
X135592400Y-114565514D01*
X135520971Y-114494085D01*
X135378114Y-114422656D01*
X135092400Y-114351228D01*
X134735257Y-114351228D01*
X134449543Y-114422656D01*
X134306686Y-114494085D01*
X134235257Y-114565514D01*
X134163829Y-114708371D01*
X134163829Y-114851228D01*
X134235257Y-114994085D01*
X134306686Y-115065514D01*
X134449543Y-115136942D01*
X134735257Y-115208371D01*
X135092400Y-115208371D01*
X135378114Y-115136942D01*
X135520971Y-115065514D01*
X135592400Y-114994085D01*
X135663829Y-114851228D01*
X134163829Y-112922657D02*
X134163829Y-113779800D01*
X134163829Y-113351228D02*
X135663829Y-113351228D01*
X135449543Y-113494085D01*
X135306686Y-113636943D01*
X135235257Y-113779800D01*
X135663829Y-111636943D02*
X135663829Y-111922657D01*
X135592400Y-112065514D01*
X135520971Y-112136943D01*
X135306686Y-112279800D01*
X135020971Y-112351229D01*
X134449543Y-112351229D01*
X134306686Y-112279800D01*
X134235257Y-112208372D01*
X134163829Y-112065514D01*
X134163829Y-111779800D01*
X134235257Y-111636943D01*
X134306686Y-111565514D01*
X134449543Y-111494086D01*
X134806686Y-111494086D01*
X134949543Y-111565514D01*
X135020971Y-111636943D01*
X135092400Y-111779800D01*
X135092400Y-112065514D01*
X135020971Y-112208372D01*
X134949543Y-112279800D01*
X134806686Y-112351229D01*
D10*
X152844500Y-42862500D02*
X152844500Y-136842500D01*
X53784500Y-42862500D02*
X152844500Y-42862500D01*
X53784500Y-136842500D02*
X53784500Y-42862500D01*
X152844500Y-136842500D02*
X53784500Y-136842500D01*
D13*
X106275990Y-63897058D02*
X107475990Y-63897058D01*
X107475990Y-62147058D02*
X106275990Y-62147058D01*
X104603990Y-58532058D02*
X104603990Y-59732058D01*
X106353990Y-59732058D02*
X106353990Y-58532058D01*
X95962500Y-77458000D02*
X95962500Y-78658000D01*
X97712500Y-78658000D02*
X97712500Y-77458000D01*
X97712500Y-73164000D02*
X97712500Y-71964000D01*
X95962500Y-71964000D02*
X95962500Y-73164000D01*
X115852500Y-74563000D02*
X114652500Y-74563000D01*
X114652500Y-76313000D02*
X115852500Y-76313000D01*
X130885500Y-71769000D02*
X129685500Y-71769000D01*
X129685500Y-73519000D02*
X130885500Y-73519000D01*
X120367500Y-76313000D02*
X121567500Y-76313000D01*
X121567500Y-74563000D02*
X120367500Y-74563000D01*
X129591500Y-69328000D02*
X130791500Y-69328000D01*
X130791500Y-67578000D02*
X129591500Y-67578000D01*
X130758500Y-61863000D02*
X129558500Y-61863000D01*
X129558500Y-63613000D02*
X130758500Y-63613000D01*
X104795500Y-78648000D02*
X104795500Y-78503000D01*
X108945500Y-78648000D02*
X108945500Y-78503000D01*
X108945500Y-73498000D02*
X108945500Y-73643000D01*
X104795500Y-73498000D02*
X104795500Y-73643000D01*
X104795500Y-78648000D02*
X108945500Y-78648000D01*
X104795500Y-73498000D02*
X108945500Y-73498000D01*
X104795500Y-78503000D02*
X103395500Y-78503000D01*
X111789990Y-61272058D02*
X111789990Y-62272058D01*
X110089990Y-62272058D02*
X110089990Y-61272058D01*
X107037166Y-65603381D02*
X107370500Y-65127190D01*
X107608595Y-65603381D02*
X107608595Y-64603381D01*
X107227642Y-64603381D01*
X107132404Y-64651000D01*
X107084785Y-64698619D01*
X107037166Y-64793857D01*
X107037166Y-64936714D01*
X107084785Y-65031952D01*
X107132404Y-65079571D01*
X107227642Y-65127190D01*
X107608595Y-65127190D01*
X106656214Y-64698619D02*
X106608595Y-64651000D01*
X106513357Y-64603381D01*
X106275261Y-64603381D01*
X106180023Y-64651000D01*
X106132404Y-64698619D01*
X106084785Y-64793857D01*
X106084785Y-64889095D01*
X106132404Y-65031952D01*
X106703833Y-65603381D01*
X106084785Y-65603381D01*
X108031371Y-58965392D02*
X107555180Y-58632058D01*
X108031371Y-58393963D02*
X107031371Y-58393963D01*
X107031371Y-58774916D01*
X107078990Y-58870154D01*
X107126609Y-58917773D01*
X107221847Y-58965392D01*
X107364704Y-58965392D01*
X107459942Y-58917773D01*
X107507561Y-58870154D01*
X107555180Y-58774916D01*
X107555180Y-58393963D01*
X107031371Y-59298725D02*
X107031371Y-59917773D01*
X107412323Y-59584439D01*
X107412323Y-59727297D01*
X107459942Y-59822535D01*
X107507561Y-59870154D01*
X107602800Y-59917773D01*
X107840895Y-59917773D01*
X107936133Y-59870154D01*
X107983752Y-59822535D01*
X108031371Y-59727297D01*
X108031371Y-59441582D01*
X107983752Y-59346344D01*
X107936133Y-59298725D01*
X99389881Y-77891334D02*
X98913690Y-77558000D01*
X99389881Y-77319905D02*
X98389881Y-77319905D01*
X98389881Y-77700858D01*
X98437500Y-77796096D01*
X98485119Y-77843715D01*
X98580357Y-77891334D01*
X98723214Y-77891334D01*
X98818452Y-77843715D01*
X98866071Y-77796096D01*
X98913690Y-77700858D01*
X98913690Y-77319905D01*
X98723214Y-78748477D02*
X99389881Y-78748477D01*
X98342262Y-78510381D02*
X99056548Y-78272286D01*
X99056548Y-78891334D01*
X95511881Y-72731334D02*
X95035690Y-72398000D01*
X95511881Y-72159905D02*
X94511881Y-72159905D01*
X94511881Y-72540858D01*
X94559500Y-72636096D01*
X94607119Y-72683715D01*
X94702357Y-72731334D01*
X94845214Y-72731334D01*
X94940452Y-72683715D01*
X94988071Y-72636096D01*
X95035690Y-72540858D01*
X95035690Y-72159905D01*
X94511881Y-73636096D02*
X94511881Y-73159905D01*
X94988071Y-73112286D01*
X94940452Y-73159905D01*
X94892833Y-73255143D01*
X94892833Y-73493239D01*
X94940452Y-73588477D01*
X94988071Y-73636096D01*
X95083310Y-73683715D01*
X95321405Y-73683715D01*
X95416643Y-73636096D01*
X95464262Y-73588477D01*
X95511881Y-73493239D01*
X95511881Y-73255143D01*
X95464262Y-73159905D01*
X95416643Y-73112286D01*
X115038166Y-73858381D02*
X115371500Y-73382190D01*
X115609595Y-73858381D02*
X115609595Y-72858381D01*
X115228642Y-72858381D01*
X115133404Y-72906000D01*
X115085785Y-72953619D01*
X115038166Y-73048857D01*
X115038166Y-73191714D01*
X115085785Y-73286952D01*
X115133404Y-73334571D01*
X115228642Y-73382190D01*
X115609595Y-73382190D01*
X114704833Y-72858381D02*
X114038166Y-72858381D01*
X114466738Y-73858381D01*
X130452166Y-75196381D02*
X130785500Y-74720190D01*
X131023595Y-75196381D02*
X131023595Y-74196381D01*
X130642642Y-74196381D01*
X130547404Y-74244000D01*
X130499785Y-74291619D01*
X130452166Y-74386857D01*
X130452166Y-74529714D01*
X130499785Y-74624952D01*
X130547404Y-74672571D01*
X130642642Y-74720190D01*
X131023595Y-74720190D01*
X129975976Y-75196381D02*
X129785500Y-75196381D01*
X129690261Y-75148762D01*
X129642642Y-75101143D01*
X129547404Y-74958286D01*
X129499785Y-74767810D01*
X129499785Y-74386857D01*
X129547404Y-74291619D01*
X129595023Y-74244000D01*
X129690261Y-74196381D01*
X129880738Y-74196381D01*
X129975976Y-74244000D01*
X130023595Y-74291619D01*
X130071214Y-74386857D01*
X130071214Y-74624952D01*
X130023595Y-74720190D01*
X129975976Y-74767810D01*
X129880738Y-74815429D01*
X129690261Y-74815429D01*
X129595023Y-74767810D01*
X129547404Y-74720190D01*
X129499785Y-74624952D01*
X121610357Y-73790381D02*
X121943691Y-73314190D01*
X122181786Y-73790381D02*
X122181786Y-72790381D01*
X121800833Y-72790381D01*
X121705595Y-72838000D01*
X121657976Y-72885619D01*
X121610357Y-72980857D01*
X121610357Y-73123714D01*
X121657976Y-73218952D01*
X121705595Y-73266571D01*
X121800833Y-73314190D01*
X122181786Y-73314190D01*
X120657976Y-73790381D02*
X121229405Y-73790381D01*
X120943691Y-73790381D02*
X120943691Y-72790381D01*
X121038929Y-72933238D01*
X121134167Y-73028476D01*
X121229405Y-73076095D01*
X120038929Y-72790381D02*
X119943690Y-72790381D01*
X119848452Y-72838000D01*
X119800833Y-72885619D01*
X119753214Y-72980857D01*
X119705595Y-73171333D01*
X119705595Y-73409429D01*
X119753214Y-73599905D01*
X119800833Y-73695143D01*
X119848452Y-73742762D01*
X119943690Y-73790381D01*
X120038929Y-73790381D01*
X120134167Y-73742762D01*
X120181786Y-73695143D01*
X120229405Y-73599905D01*
X120277024Y-73409429D01*
X120277024Y-73171333D01*
X120229405Y-72980857D01*
X120181786Y-72885619D01*
X120134167Y-72838000D01*
X120038929Y-72790381D01*
X128976357Y-67190881D02*
X129309691Y-66714690D01*
X129547786Y-67190881D02*
X129547786Y-66190881D01*
X129166833Y-66190881D01*
X129071595Y-66238500D01*
X129023976Y-66286119D01*
X128976357Y-66381357D01*
X128976357Y-66524214D01*
X129023976Y-66619452D01*
X129071595Y-66667071D01*
X129166833Y-66714690D01*
X129547786Y-66714690D01*
X128023976Y-67190881D02*
X128595405Y-67190881D01*
X128309691Y-67190881D02*
X128309691Y-66190881D01*
X128404929Y-66333738D01*
X128500167Y-66428976D01*
X128595405Y-66476595D01*
X127071595Y-67190881D02*
X127643024Y-67190881D01*
X127357310Y-67190881D02*
X127357310Y-66190881D01*
X127452548Y-66333738D01*
X127547786Y-66428976D01*
X127643024Y-66476595D01*
X130881357Y-64968381D02*
X131214691Y-64492190D01*
X131452786Y-64968381D02*
X131452786Y-63968381D01*
X131071833Y-63968381D01*
X130976595Y-64016000D01*
X130928976Y-64063619D01*
X130881357Y-64158857D01*
X130881357Y-64301714D01*
X130928976Y-64396952D01*
X130976595Y-64444571D01*
X131071833Y-64492190D01*
X131452786Y-64492190D01*
X129928976Y-64968381D02*
X130500405Y-64968381D01*
X130214691Y-64968381D02*
X130214691Y-63968381D01*
X130309929Y-64111238D01*
X130405167Y-64206476D01*
X130500405Y-64254095D01*
X129548024Y-64063619D02*
X129500405Y-64016000D01*
X129405167Y-63968381D01*
X129167071Y-63968381D01*
X129071833Y-64016000D01*
X129024214Y-64063619D01*
X128976595Y-64158857D01*
X128976595Y-64254095D01*
X129024214Y-64396952D01*
X129595643Y-64968381D01*
X128976595Y-64968381D01*
X107632405Y-79025381D02*
X107632405Y-79834905D01*
X107584786Y-79930143D01*
X107537167Y-79977762D01*
X107441929Y-80025381D01*
X107251452Y-80025381D01*
X107156214Y-79977762D01*
X107108595Y-79930143D01*
X107060976Y-79834905D01*
X107060976Y-79025381D01*
X106632405Y-79120619D02*
X106584786Y-79073000D01*
X106489548Y-79025381D01*
X106251452Y-79025381D01*
X106156214Y-79073000D01*
X106108595Y-79120619D01*
X106060976Y-79215857D01*
X106060976Y-79311095D01*
X106108595Y-79453952D01*
X106680024Y-80025381D01*
X106060976Y-80025381D01*
X113260143Y-60920334D02*
X113307762Y-60872715D01*
X113355381Y-60729858D01*
X113355381Y-60634620D01*
X113307762Y-60491762D01*
X113212524Y-60396524D01*
X113117286Y-60348905D01*
X112926810Y-60301286D01*
X112783952Y-60301286D01*
X112593476Y-60348905D01*
X112498238Y-60396524D01*
X112403000Y-60491762D01*
X112355381Y-60634620D01*
X112355381Y-60729858D01*
X112403000Y-60872715D01*
X112450619Y-60920334D01*
X113355381Y-61872715D02*
X113355381Y-61301286D01*
X113355381Y-61587000D02*
X112355381Y-61587000D01*
X112498238Y-61491762D01*
X112593476Y-61396524D01*
X112641095Y-61301286D01*
M02*
