%TF.GenerationSoftware,KiCad,Pcbnew,4.0.1-stable*%
%TF.CreationDate,2016-02-04T12:17:51-06:00*%
%TF.ProjectId,GMCounter,474D436F756E7465722E6B696361645F,rev?*%
%TF.FileFunction,Legend,Top*%
%FSLAX46Y46*%
G04 Gerber Fmt 4.6, Leading zero omitted, Abs format (unit mm)*
G04 Created by KiCad (PCBNEW 4.0.1-stable) date 4/02/2016 12:17:51*
%MOMM*%
G01*
G04 APERTURE LIST*
%ADD10C,0.100000*%
%ADD11C,0.200000*%
%ADD12C,0.500000*%
%ADD13C,1.000000*%
%ADD14C,0.300000*%
%ADD15C,0.600000*%
%ADD16C,0.150000*%
G04 APERTURE END LIST*
D10*
D11*
X106133924Y-133014981D02*
X105562495Y-133014981D01*
X105848209Y-133014981D02*
X105848209Y-132014981D01*
X105752971Y-132157838D01*
X105657733Y-132253076D01*
X105562495Y-132300695D01*
X106991067Y-132014981D02*
X106800590Y-132014981D01*
X106705352Y-132062600D01*
X106657733Y-132110219D01*
X106562495Y-132253076D01*
X106514876Y-132443552D01*
X106514876Y-132824505D01*
X106562495Y-132919743D01*
X106610114Y-132967362D01*
X106705352Y-133014981D01*
X106895829Y-133014981D01*
X106991067Y-132967362D01*
X107038686Y-132919743D01*
X107086305Y-132824505D01*
X107086305Y-132586410D01*
X107038686Y-132491171D01*
X106991067Y-132443552D01*
X106895829Y-132395933D01*
X106705352Y-132395933D01*
X106610114Y-132443552D01*
X106562495Y-132491171D01*
X106514876Y-132586410D01*
X63531715Y-132760981D02*
X62960286Y-132760981D01*
X63246000Y-132760981D02*
X63246000Y-131760981D01*
X63150762Y-131903838D01*
X63055524Y-131999076D01*
X62960286Y-132046695D01*
X79654496Y-64346200D02*
X79559258Y-64298581D01*
X79416401Y-64298581D01*
X79273543Y-64346200D01*
X79178305Y-64441438D01*
X79130686Y-64536676D01*
X79083067Y-64727152D01*
X79083067Y-64870010D01*
X79130686Y-65060486D01*
X79178305Y-65155724D01*
X79273543Y-65250962D01*
X79416401Y-65298581D01*
X79511639Y-65298581D01*
X79654496Y-65250962D01*
X79702115Y-65203343D01*
X79702115Y-64870010D01*
X79511639Y-64870010D01*
X80130686Y-65298581D02*
X80130686Y-64298581D01*
X80702115Y-65298581D01*
X80702115Y-64298581D01*
X81178305Y-65298581D02*
X81178305Y-64298581D01*
X81416400Y-64298581D01*
X81559258Y-64346200D01*
X81654496Y-64441438D01*
X81702115Y-64536676D01*
X81749734Y-64727152D01*
X81749734Y-64870010D01*
X81702115Y-65060486D01*
X81654496Y-65155724D01*
X81559258Y-65250962D01*
X81416400Y-65298581D01*
X81178305Y-65298581D01*
D12*
X101574791Y-96028000D02*
X101384314Y-95932762D01*
X101098600Y-95932762D01*
X100812886Y-96028000D01*
X100622410Y-96218476D01*
X100527171Y-96408952D01*
X100431933Y-96789905D01*
X100431933Y-97075619D01*
X100527171Y-97456571D01*
X100622410Y-97647048D01*
X100812886Y-97837524D01*
X101098600Y-97932762D01*
X101289076Y-97932762D01*
X101574791Y-97837524D01*
X101670029Y-97742286D01*
X101670029Y-97075619D01*
X101289076Y-97075619D01*
X102527171Y-97932762D02*
X102527171Y-95932762D01*
X103670029Y-97932762D01*
X103670029Y-95932762D01*
X104622409Y-97932762D02*
X104622409Y-95932762D01*
X105098600Y-95932762D01*
X105384314Y-96028000D01*
X105574790Y-96218476D01*
X105670029Y-96408952D01*
X105765267Y-96789905D01*
X105765267Y-97075619D01*
X105670029Y-97456571D01*
X105574790Y-97647048D01*
X105384314Y-97837524D01*
X105098600Y-97932762D01*
X104622409Y-97932762D01*
D11*
X70847200Y-65806629D02*
X71609105Y-65806629D01*
X71228153Y-66187581D02*
X71228153Y-65425676D01*
X71990057Y-65187581D02*
X72609105Y-65187581D01*
X72275771Y-65568533D01*
X72418629Y-65568533D01*
X72513867Y-65616152D01*
X72561486Y-65663771D01*
X72609105Y-65759010D01*
X72609105Y-65997105D01*
X72561486Y-66092343D01*
X72513867Y-66139962D01*
X72418629Y-66187581D01*
X72132914Y-66187581D01*
X72037676Y-66139962D01*
X71990057Y-66092343D01*
X73037676Y-66092343D02*
X73085295Y-66139962D01*
X73037676Y-66187581D01*
X72990057Y-66139962D01*
X73037676Y-66092343D01*
X73037676Y-66187581D01*
X73418628Y-65187581D02*
X74037676Y-65187581D01*
X73704342Y-65568533D01*
X73847200Y-65568533D01*
X73942438Y-65616152D01*
X73990057Y-65663771D01*
X74037676Y-65759010D01*
X74037676Y-65997105D01*
X73990057Y-66092343D01*
X73942438Y-66139962D01*
X73847200Y-66187581D01*
X73561485Y-66187581D01*
X73466247Y-66139962D01*
X73418628Y-66092343D01*
X74323390Y-65187581D02*
X74656723Y-66187581D01*
X74990057Y-65187581D01*
X86268086Y-73274229D02*
X87029991Y-73274229D01*
X86649039Y-73655181D02*
X86649039Y-72893276D01*
X87982372Y-72655181D02*
X87506181Y-72655181D01*
X87458562Y-73131371D01*
X87506181Y-73083752D01*
X87601419Y-73036133D01*
X87839515Y-73036133D01*
X87934753Y-73083752D01*
X87982372Y-73131371D01*
X88029991Y-73226610D01*
X88029991Y-73464705D01*
X87982372Y-73559943D01*
X87934753Y-73607562D01*
X87839515Y-73655181D01*
X87601419Y-73655181D01*
X87506181Y-73607562D01*
X87458562Y-73559943D01*
X88315705Y-72655181D02*
X88649038Y-73655181D01*
X88982372Y-72655181D01*
D13*
X143793413Y-107569000D02*
G75*
G03X143793413Y-107569000I-588936J0D01*
G01*
D14*
X144335572Y-110025643D02*
X145478429Y-110025643D01*
X144145072Y-105326643D02*
X145287929Y-105326643D01*
X144716500Y-105898071D02*
X144716500Y-104755214D01*
D11*
X143655743Y-104351482D02*
X143065500Y-105727500D01*
X143637000Y-104330500D02*
X142176500Y-103949500D01*
X143655743Y-104351481D02*
G75*
G03X143764000Y-110807500I679757J-3217519D01*
G01*
X60118357Y-124228142D02*
X59546929Y-124628142D01*
X60118357Y-124913857D02*
X58918357Y-124913857D01*
X58918357Y-124456714D01*
X58975500Y-124342428D01*
X59032643Y-124285285D01*
X59146929Y-124228142D01*
X59318357Y-124228142D01*
X59432643Y-124285285D01*
X59489786Y-124342428D01*
X59546929Y-124456714D01*
X59546929Y-124913857D01*
X60061214Y-123771000D02*
X60118357Y-123599571D01*
X60118357Y-123313857D01*
X60061214Y-123199571D01*
X60004071Y-123142428D01*
X59889786Y-123085285D01*
X59775500Y-123085285D01*
X59661214Y-123142428D01*
X59604071Y-123199571D01*
X59546929Y-123313857D01*
X59489786Y-123542428D01*
X59432643Y-123656714D01*
X59375500Y-123713857D01*
X59261214Y-123771000D01*
X59146929Y-123771000D01*
X59032643Y-123713857D01*
X58975500Y-123656714D01*
X58918357Y-123542428D01*
X58918357Y-123256714D01*
X58975500Y-123085285D01*
X58918357Y-122742428D02*
X58918357Y-122056714D01*
X60118357Y-122399571D02*
X58918357Y-122399571D01*
X61369786Y-124571000D02*
X61426929Y-124399571D01*
X61484071Y-124342428D01*
X61598357Y-124285285D01*
X61769786Y-124285285D01*
X61884071Y-124342428D01*
X61941214Y-124399571D01*
X61998357Y-124513857D01*
X61998357Y-124971000D01*
X60798357Y-124971000D01*
X60798357Y-124571000D01*
X60855500Y-124456714D01*
X60912643Y-124399571D01*
X61026929Y-124342428D01*
X61141214Y-124342428D01*
X61255500Y-124399571D01*
X61312643Y-124456714D01*
X61369786Y-124571000D01*
X61369786Y-124971000D01*
X60798357Y-123942428D02*
X60798357Y-123256714D01*
X61998357Y-123599571D02*
X60798357Y-123599571D01*
X61998357Y-122856714D02*
X60798357Y-122856714D01*
X61998357Y-122170999D01*
X60798357Y-122170999D01*
X58918357Y-110480286D02*
X59889786Y-110480286D01*
X60004071Y-110423143D01*
X60061214Y-110366000D01*
X60118357Y-110251714D01*
X60118357Y-110023143D01*
X60061214Y-109908857D01*
X60004071Y-109851714D01*
X59889786Y-109794571D01*
X58918357Y-109794571D01*
X60061214Y-109280286D02*
X60118357Y-109108857D01*
X60118357Y-108823143D01*
X60061214Y-108708857D01*
X60004071Y-108651714D01*
X59889786Y-108594571D01*
X59775500Y-108594571D01*
X59661214Y-108651714D01*
X59604071Y-108708857D01*
X59546929Y-108823143D01*
X59489786Y-109051714D01*
X59432643Y-109166000D01*
X59375500Y-109223143D01*
X59261214Y-109280286D01*
X59146929Y-109280286D01*
X59032643Y-109223143D01*
X58975500Y-109166000D01*
X58918357Y-109051714D01*
X58918357Y-108766000D01*
X58975500Y-108594571D01*
X60118357Y-107394571D02*
X59546929Y-107794571D01*
X60118357Y-108080286D02*
X58918357Y-108080286D01*
X58918357Y-107623143D01*
X58975500Y-107508857D01*
X59032643Y-107451714D01*
X59146929Y-107394571D01*
X59318357Y-107394571D01*
X59432643Y-107451714D01*
X59489786Y-107508857D01*
X59546929Y-107623143D01*
X59546929Y-108080286D01*
X61369786Y-109966000D02*
X61426929Y-109794571D01*
X61484071Y-109737428D01*
X61598357Y-109680285D01*
X61769786Y-109680285D01*
X61884071Y-109737428D01*
X61941214Y-109794571D01*
X61998357Y-109908857D01*
X61998357Y-110366000D01*
X60798357Y-110366000D01*
X60798357Y-109966000D01*
X60855500Y-109851714D01*
X60912643Y-109794571D01*
X61026929Y-109737428D01*
X61141214Y-109737428D01*
X61255500Y-109794571D01*
X61312643Y-109851714D01*
X61369786Y-109966000D01*
X61369786Y-110366000D01*
X60798357Y-109337428D02*
X60798357Y-108651714D01*
X61998357Y-108994571D02*
X60798357Y-108994571D01*
X61998357Y-108251714D02*
X60798357Y-108251714D01*
X61998357Y-107565999D01*
X60798357Y-107565999D01*
X104784572Y-52359000D02*
X104670286Y-52301857D01*
X104498857Y-52301857D01*
X104327429Y-52359000D01*
X104213143Y-52473286D01*
X104156000Y-52587571D01*
X104098857Y-52816143D01*
X104098857Y-52987571D01*
X104156000Y-53216143D01*
X104213143Y-53330429D01*
X104327429Y-53444714D01*
X104498857Y-53501857D01*
X104613143Y-53501857D01*
X104784572Y-53444714D01*
X104841715Y-53387571D01*
X104841715Y-52987571D01*
X104613143Y-52987571D01*
X105356000Y-53501857D02*
X105356000Y-52301857D01*
X105756000Y-53159000D01*
X106156000Y-52301857D01*
X106156000Y-53501857D01*
X106511857Y-56295857D02*
X106511857Y-55095857D01*
X107197572Y-56295857D02*
X106683286Y-55610143D01*
X107197572Y-55095857D02*
X106511857Y-55781571D01*
X107711857Y-55838714D02*
X108626143Y-55838714D01*
X110794929Y-56016500D02*
X111366358Y-56016500D01*
X110680644Y-56359357D02*
X111080644Y-55159357D01*
X111480644Y-56359357D01*
X111880643Y-55902214D02*
X112794929Y-55902214D01*
X112337786Y-56359357D02*
X112337786Y-55445071D01*
D14*
X135580572Y-108000071D02*
X135580572Y-106500071D01*
X135580572Y-107214357D02*
X136437715Y-107214357D01*
X136437715Y-108000071D02*
X136437715Y-106500071D01*
X136937715Y-106500071D02*
X137437715Y-108000071D01*
X137937715Y-106500071D01*
X134973429Y-109971500D02*
X135687715Y-109971500D01*
X134830572Y-110400071D02*
X135330572Y-108900071D01*
X135830572Y-110400071D01*
X136330572Y-110400071D02*
X136330572Y-108900071D01*
X136687715Y-108900071D01*
X136902000Y-108971500D01*
X137044858Y-109114357D01*
X137116286Y-109257214D01*
X137187715Y-109542929D01*
X137187715Y-109757214D01*
X137116286Y-110042929D01*
X137044858Y-110185786D01*
X136902000Y-110328643D01*
X136687715Y-110400071D01*
X136330572Y-110400071D01*
X138259143Y-108900071D02*
X138259143Y-109971500D01*
X138187715Y-110185786D01*
X138044858Y-110328643D01*
X137830572Y-110400071D01*
X137687715Y-110400071D01*
D11*
X66532071Y-62914381D02*
X66722548Y-62914381D01*
X66817786Y-62962000D01*
X66913024Y-63057238D01*
X66960643Y-63247714D01*
X66960643Y-63581048D01*
X66913024Y-63771524D01*
X66817786Y-63866762D01*
X66722548Y-63914381D01*
X66532071Y-63914381D01*
X66436833Y-63866762D01*
X66341595Y-63771524D01*
X66293976Y-63581048D01*
X66293976Y-63247714D01*
X66341595Y-63057238D01*
X66436833Y-62962000D01*
X66532071Y-62914381D01*
X67389214Y-63914381D02*
X67389214Y-62914381D01*
X67960643Y-63914381D01*
X67960643Y-62914381D01*
X69151119Y-62866762D02*
X68293976Y-64152476D01*
X69674928Y-62914381D02*
X69865405Y-62914381D01*
X69960643Y-62962000D01*
X70055881Y-63057238D01*
X70103500Y-63247714D01*
X70103500Y-63581048D01*
X70055881Y-63771524D01*
X69960643Y-63866762D01*
X69865405Y-63914381D01*
X69674928Y-63914381D01*
X69579690Y-63866762D01*
X69484452Y-63771524D01*
X69436833Y-63581048D01*
X69436833Y-63247714D01*
X69484452Y-63057238D01*
X69579690Y-62962000D01*
X69674928Y-62914381D01*
X70865405Y-63390571D02*
X70532071Y-63390571D01*
X70532071Y-63914381D02*
X70532071Y-62914381D01*
X71008262Y-62914381D01*
X71722548Y-63390571D02*
X71389214Y-63390571D01*
X71389214Y-63914381D02*
X71389214Y-62914381D01*
X71865405Y-62914381D01*
X66293976Y-65466762D02*
X66436833Y-65514381D01*
X66674929Y-65514381D01*
X66770167Y-65466762D01*
X66817786Y-65419143D01*
X66865405Y-65323905D01*
X66865405Y-65228667D01*
X66817786Y-65133429D01*
X66770167Y-65085810D01*
X66674929Y-65038190D01*
X66484452Y-64990571D01*
X66389214Y-64942952D01*
X66341595Y-64895333D01*
X66293976Y-64800095D01*
X66293976Y-64704857D01*
X66341595Y-64609619D01*
X66389214Y-64562000D01*
X66484452Y-64514381D01*
X66722548Y-64514381D01*
X66865405Y-64562000D01*
X67198738Y-64514381D02*
X67436833Y-65514381D01*
X67627310Y-64800095D01*
X67817786Y-65514381D01*
X68055881Y-64514381D01*
D14*
X99660429Y-102690071D02*
X99660429Y-103904357D01*
X99731857Y-104047214D01*
X99803286Y-104118643D01*
X99946143Y-104190071D01*
X100231857Y-104190071D01*
X100374715Y-104118643D01*
X100446143Y-104047214D01*
X100517572Y-103904357D01*
X100517572Y-102690071D01*
X101160429Y-104118643D02*
X101303286Y-104190071D01*
X101589001Y-104190071D01*
X101731858Y-104118643D01*
X101803286Y-103975786D01*
X101803286Y-103904357D01*
X101731858Y-103761500D01*
X101589001Y-103690071D01*
X101374715Y-103690071D01*
X101231858Y-103618643D01*
X101160429Y-103475786D01*
X101160429Y-103404357D01*
X101231858Y-103261500D01*
X101374715Y-103190071D01*
X101589001Y-103190071D01*
X101731858Y-103261500D01*
X103017572Y-104118643D02*
X102874715Y-104190071D01*
X102589001Y-104190071D01*
X102446144Y-104118643D01*
X102374715Y-103975786D01*
X102374715Y-103404357D01*
X102446144Y-103261500D01*
X102589001Y-103190071D01*
X102874715Y-103190071D01*
X103017572Y-103261500D01*
X103089001Y-103404357D01*
X103089001Y-103547214D01*
X102374715Y-103690071D01*
X103731858Y-104190071D02*
X103731858Y-103190071D01*
X103731858Y-103475786D02*
X103803286Y-103332929D01*
X103874715Y-103261500D01*
X104017572Y-103190071D01*
X104160429Y-103190071D01*
X105803286Y-104190071D02*
X105803286Y-102690071D01*
X106517572Y-103190071D02*
X106517572Y-104190071D01*
X106517572Y-103332929D02*
X106589000Y-103261500D01*
X106731858Y-103190071D01*
X106946143Y-103190071D01*
X107089000Y-103261500D01*
X107160429Y-103404357D01*
X107160429Y-104190071D01*
X107660429Y-103190071D02*
X108231858Y-103190071D01*
X107874715Y-102690071D02*
X107874715Y-103975786D01*
X107946143Y-104118643D01*
X108089001Y-104190071D01*
X108231858Y-104190071D01*
X109303286Y-104118643D02*
X109160429Y-104190071D01*
X108874715Y-104190071D01*
X108731858Y-104118643D01*
X108660429Y-103975786D01*
X108660429Y-103404357D01*
X108731858Y-103261500D01*
X108874715Y-103190071D01*
X109160429Y-103190071D01*
X109303286Y-103261500D01*
X109374715Y-103404357D01*
X109374715Y-103547214D01*
X108660429Y-103690071D01*
X110017572Y-104190071D02*
X110017572Y-103190071D01*
X110017572Y-103475786D02*
X110089000Y-103332929D01*
X110160429Y-103261500D01*
X110303286Y-103190071D01*
X110446143Y-103190071D01*
X110731857Y-103190071D02*
X111303286Y-103190071D01*
X110946143Y-104190071D02*
X110946143Y-102904357D01*
X111017571Y-102761500D01*
X111160429Y-102690071D01*
X111303286Y-102690071D01*
X112446143Y-104190071D02*
X112446143Y-103404357D01*
X112374714Y-103261500D01*
X112231857Y-103190071D01*
X111946143Y-103190071D01*
X111803286Y-103261500D01*
X112446143Y-104118643D02*
X112303286Y-104190071D01*
X111946143Y-104190071D01*
X111803286Y-104118643D01*
X111731857Y-103975786D01*
X111731857Y-103832929D01*
X111803286Y-103690071D01*
X111946143Y-103618643D01*
X112303286Y-103618643D01*
X112446143Y-103547214D01*
X113803286Y-104118643D02*
X113660429Y-104190071D01*
X113374715Y-104190071D01*
X113231857Y-104118643D01*
X113160429Y-104047214D01*
X113089000Y-103904357D01*
X113089000Y-103475786D01*
X113160429Y-103332929D01*
X113231857Y-103261500D01*
X113374715Y-103190071D01*
X113660429Y-103190071D01*
X113803286Y-103261500D01*
X115017571Y-104118643D02*
X114874714Y-104190071D01*
X114589000Y-104190071D01*
X114446143Y-104118643D01*
X114374714Y-103975786D01*
X114374714Y-103404357D01*
X114446143Y-103261500D01*
X114589000Y-103190071D01*
X114874714Y-103190071D01*
X115017571Y-103261500D01*
X115089000Y-103404357D01*
X115089000Y-103547214D01*
X114374714Y-103690071D01*
X118089000Y-104190071D02*
X118017571Y-104190071D01*
X117874714Y-104118643D01*
X117660428Y-103904357D01*
X117303285Y-103475786D01*
X117160428Y-103261500D01*
X117089000Y-103047214D01*
X117089000Y-102904357D01*
X117160428Y-102761500D01*
X117303285Y-102690071D01*
X117374714Y-102690071D01*
X117517571Y-102761500D01*
X117589000Y-102904357D01*
X117589000Y-102975786D01*
X117517571Y-103118643D01*
X117446142Y-103190071D01*
X117017571Y-103475786D01*
X116946142Y-103547214D01*
X116874714Y-103690071D01*
X116874714Y-103904357D01*
X116946142Y-104047214D01*
X117017571Y-104118643D01*
X117160428Y-104190071D01*
X117374714Y-104190071D01*
X117517571Y-104118643D01*
X117589000Y-104047214D01*
X117803285Y-103761500D01*
X117874714Y-103547214D01*
X117874714Y-103404357D01*
X100731858Y-106590071D02*
X100731858Y-105090071D01*
X101231858Y-106161500D01*
X101731858Y-105090071D01*
X101731858Y-106590071D01*
X102446144Y-106590071D02*
X102446144Y-105590071D01*
X102446144Y-105090071D02*
X102374715Y-105161500D01*
X102446144Y-105232929D01*
X102517572Y-105161500D01*
X102446144Y-105090071D01*
X102446144Y-105232929D01*
X103803287Y-106518643D02*
X103660430Y-106590071D01*
X103374716Y-106590071D01*
X103231858Y-106518643D01*
X103160430Y-106447214D01*
X103089001Y-106304357D01*
X103089001Y-105875786D01*
X103160430Y-105732929D01*
X103231858Y-105661500D01*
X103374716Y-105590071D01*
X103660430Y-105590071D01*
X103803287Y-105661500D01*
X104446144Y-106590071D02*
X104446144Y-105590071D01*
X104446144Y-105875786D02*
X104517572Y-105732929D01*
X104589001Y-105661500D01*
X104731858Y-105590071D01*
X104874715Y-105590071D01*
X105589001Y-106590071D02*
X105446143Y-106518643D01*
X105374715Y-106447214D01*
X105303286Y-106304357D01*
X105303286Y-105875786D01*
X105374715Y-105732929D01*
X105446143Y-105661500D01*
X105589001Y-105590071D01*
X105803286Y-105590071D01*
X105946143Y-105661500D01*
X106017572Y-105732929D01*
X106089001Y-105875786D01*
X106089001Y-106304357D01*
X106017572Y-106447214D01*
X105946143Y-106518643D01*
X105803286Y-106590071D01*
X105589001Y-106590071D01*
X107374715Y-106518643D02*
X107231858Y-106590071D01*
X106946144Y-106590071D01*
X106803286Y-106518643D01*
X106731858Y-106447214D01*
X106660429Y-106304357D01*
X106660429Y-105875786D01*
X106731858Y-105732929D01*
X106803286Y-105661500D01*
X106946144Y-105590071D01*
X107231858Y-105590071D01*
X107374715Y-105661500D01*
X108231858Y-106590071D02*
X108089000Y-106518643D01*
X108017572Y-106447214D01*
X107946143Y-106304357D01*
X107946143Y-105875786D01*
X108017572Y-105732929D01*
X108089000Y-105661500D01*
X108231858Y-105590071D01*
X108446143Y-105590071D01*
X108589000Y-105661500D01*
X108660429Y-105732929D01*
X108731858Y-105875786D01*
X108731858Y-106304357D01*
X108660429Y-106447214D01*
X108589000Y-106518643D01*
X108446143Y-106590071D01*
X108231858Y-106590071D01*
X109374715Y-105590071D02*
X109374715Y-106590071D01*
X109374715Y-105732929D02*
X109446143Y-105661500D01*
X109589001Y-105590071D01*
X109803286Y-105590071D01*
X109946143Y-105661500D01*
X110017572Y-105804357D01*
X110017572Y-106590071D01*
X110517572Y-105590071D02*
X111089001Y-105590071D01*
X110731858Y-105090071D02*
X110731858Y-106375786D01*
X110803286Y-106518643D01*
X110946144Y-106590071D01*
X111089001Y-106590071D01*
X111589001Y-106590071D02*
X111589001Y-105590071D01*
X111589001Y-105875786D02*
X111660429Y-105732929D01*
X111731858Y-105661500D01*
X111874715Y-105590071D01*
X112017572Y-105590071D01*
X112731858Y-106590071D02*
X112589000Y-106518643D01*
X112517572Y-106447214D01*
X112446143Y-106304357D01*
X112446143Y-105875786D01*
X112517572Y-105732929D01*
X112589000Y-105661500D01*
X112731858Y-105590071D01*
X112946143Y-105590071D01*
X113089000Y-105661500D01*
X113160429Y-105732929D01*
X113231858Y-105875786D01*
X113231858Y-106304357D01*
X113160429Y-106447214D01*
X113089000Y-106518643D01*
X112946143Y-106590071D01*
X112731858Y-106590071D01*
X114089001Y-106590071D02*
X113946143Y-106518643D01*
X113874715Y-106375786D01*
X113874715Y-105090071D01*
X114874715Y-106590071D02*
X114731857Y-106518643D01*
X114660429Y-106375786D01*
X114660429Y-105090071D01*
X116017571Y-106518643D02*
X115874714Y-106590071D01*
X115589000Y-106590071D01*
X115446143Y-106518643D01*
X115374714Y-106375786D01*
X115374714Y-105804357D01*
X115446143Y-105661500D01*
X115589000Y-105590071D01*
X115874714Y-105590071D01*
X116017571Y-105661500D01*
X116089000Y-105804357D01*
X116089000Y-105947214D01*
X115374714Y-106090071D01*
X116731857Y-106590071D02*
X116731857Y-105590071D01*
X116731857Y-105875786D02*
X116803285Y-105732929D01*
X116874714Y-105661500D01*
X117017571Y-105590071D01*
X117160428Y-105590071D01*
D11*
X56642000Y-100711000D02*
X57023000Y-100711000D01*
X56642000Y-135826500D02*
X56642000Y-100711000D01*
X150495000Y-135826500D02*
X56642000Y-135826500D01*
X150495000Y-100711000D02*
X150495000Y-135826500D01*
X57023000Y-100711000D02*
X150495000Y-100711000D01*
D14*
X99747072Y-63232571D02*
X99747072Y-61732571D01*
X99747072Y-62446857D02*
X100604215Y-62446857D01*
X100604215Y-63232571D02*
X100604215Y-61732571D01*
X101104215Y-61732571D02*
X101604215Y-63232571D01*
X102104215Y-61732571D01*
X103675643Y-62804000D02*
X104389929Y-62804000D01*
X103532786Y-63232571D02*
X104032786Y-61732571D01*
X104532786Y-63232571D01*
X105032786Y-63232571D02*
X105032786Y-61732571D01*
X105889929Y-63232571D01*
X105889929Y-61732571D01*
X106604215Y-63232571D02*
X106604215Y-61732571D01*
X106961358Y-61732571D01*
X107175643Y-61804000D01*
X107318501Y-61946857D01*
X107389929Y-62089714D01*
X107461358Y-62375429D01*
X107461358Y-62589714D01*
X107389929Y-62875429D01*
X107318501Y-63018286D01*
X107175643Y-63161143D01*
X106961358Y-63232571D01*
X106604215Y-63232571D01*
X98389929Y-65632571D02*
X98389929Y-64132571D01*
X98747072Y-64132571D01*
X98961357Y-64204000D01*
X99104215Y-64346857D01*
X99175643Y-64489714D01*
X99247072Y-64775429D01*
X99247072Y-64989714D01*
X99175643Y-65275429D01*
X99104215Y-65418286D01*
X98961357Y-65561143D01*
X98747072Y-65632571D01*
X98389929Y-65632571D01*
X99889929Y-64846857D02*
X100389929Y-64846857D01*
X100604215Y-65632571D02*
X99889929Y-65632571D01*
X99889929Y-64132571D01*
X100604215Y-64132571D01*
X101032786Y-64132571D02*
X101889929Y-64132571D01*
X101461358Y-65632571D02*
X101461358Y-64132571D01*
X102389929Y-64846857D02*
X102889929Y-64846857D01*
X103104215Y-65632571D02*
X102389929Y-65632571D01*
X102389929Y-64132571D01*
X103104215Y-64132571D01*
X104604215Y-65489714D02*
X104532786Y-65561143D01*
X104318500Y-65632571D01*
X104175643Y-65632571D01*
X103961358Y-65561143D01*
X103818500Y-65418286D01*
X103747072Y-65275429D01*
X103675643Y-64989714D01*
X103675643Y-64775429D01*
X103747072Y-64489714D01*
X103818500Y-64346857D01*
X103961358Y-64204000D01*
X104175643Y-64132571D01*
X104318500Y-64132571D01*
X104532786Y-64204000D01*
X104604215Y-64275429D01*
X105032786Y-64132571D02*
X105889929Y-64132571D01*
X105461358Y-65632571D02*
X105461358Y-64132571D01*
X106675643Y-64132571D02*
X106961357Y-64132571D01*
X107104215Y-64204000D01*
X107247072Y-64346857D01*
X107318500Y-64632571D01*
X107318500Y-65132571D01*
X107247072Y-65418286D01*
X107104215Y-65561143D01*
X106961357Y-65632571D01*
X106675643Y-65632571D01*
X106532786Y-65561143D01*
X106389929Y-65418286D01*
X106318500Y-65132571D01*
X106318500Y-64632571D01*
X106389929Y-64346857D01*
X106532786Y-64204000D01*
X106675643Y-64132571D01*
X108818501Y-65632571D02*
X108318501Y-64918286D01*
X107961358Y-65632571D02*
X107961358Y-64132571D01*
X108532786Y-64132571D01*
X108675644Y-64204000D01*
X108747072Y-64275429D01*
X108818501Y-64418286D01*
X108818501Y-64632571D01*
X108747072Y-64775429D01*
X108675644Y-64846857D01*
X108532786Y-64918286D01*
X107961358Y-64918286D01*
D11*
X93853000Y-100203000D02*
X93853000Y-50292000D01*
X150368000Y-100203000D02*
X93853000Y-100203000D01*
X150368000Y-97409000D02*
X150368000Y-100203000D01*
X150368000Y-50292000D02*
X150368000Y-97409000D01*
X93853000Y-50292000D02*
X150368000Y-50292000D01*
D14*
X85130914Y-63283371D02*
X85130914Y-61783371D01*
X85702342Y-61783371D01*
X85845200Y-61854800D01*
X85916628Y-61926229D01*
X85988057Y-62069086D01*
X85988057Y-62283371D01*
X85916628Y-62426229D01*
X85845200Y-62497657D01*
X85702342Y-62569086D01*
X85130914Y-62569086D01*
X86916628Y-61783371D02*
X87202342Y-61783371D01*
X87345200Y-61854800D01*
X87488057Y-61997657D01*
X87559485Y-62283371D01*
X87559485Y-62783371D01*
X87488057Y-63069086D01*
X87345200Y-63211943D01*
X87202342Y-63283371D01*
X86916628Y-63283371D01*
X86773771Y-63211943D01*
X86630914Y-63069086D01*
X86559485Y-62783371D01*
X86559485Y-62283371D01*
X86630914Y-61997657D01*
X86773771Y-61854800D01*
X86916628Y-61783371D01*
X88059486Y-61783371D02*
X88416629Y-63283371D01*
X88702343Y-62211943D01*
X88988057Y-63283371D01*
X89345200Y-61783371D01*
X89916629Y-62497657D02*
X90416629Y-62497657D01*
X90630915Y-63283371D02*
X89916629Y-63283371D01*
X89916629Y-61783371D01*
X90630915Y-61783371D01*
X92130915Y-63283371D02*
X91630915Y-62569086D01*
X91273772Y-63283371D02*
X91273772Y-61783371D01*
X91845200Y-61783371D01*
X91988058Y-61854800D01*
X92059486Y-61926229D01*
X92130915Y-62069086D01*
X92130915Y-62283371D01*
X92059486Y-62426229D01*
X91988058Y-62497657D01*
X91845200Y-62569086D01*
X91273772Y-62569086D01*
X84630914Y-65611943D02*
X84845200Y-65683371D01*
X85202343Y-65683371D01*
X85345200Y-65611943D01*
X85416629Y-65540514D01*
X85488057Y-65397657D01*
X85488057Y-65254800D01*
X85416629Y-65111943D01*
X85345200Y-65040514D01*
X85202343Y-64969086D01*
X84916629Y-64897657D01*
X84773771Y-64826229D01*
X84702343Y-64754800D01*
X84630914Y-64611943D01*
X84630914Y-64469086D01*
X84702343Y-64326229D01*
X84773771Y-64254800D01*
X84916629Y-64183371D01*
X85273771Y-64183371D01*
X85488057Y-64254800D01*
X86130914Y-64183371D02*
X86130914Y-65397657D01*
X86202342Y-65540514D01*
X86273771Y-65611943D01*
X86416628Y-65683371D01*
X86702342Y-65683371D01*
X86845200Y-65611943D01*
X86916628Y-65540514D01*
X86988057Y-65397657D01*
X86988057Y-64183371D01*
X87702343Y-65683371D02*
X87702343Y-64183371D01*
X88273771Y-64183371D01*
X88416629Y-64254800D01*
X88488057Y-64326229D01*
X88559486Y-64469086D01*
X88559486Y-64683371D01*
X88488057Y-64826229D01*
X88416629Y-64897657D01*
X88273771Y-64969086D01*
X87702343Y-64969086D01*
X89202343Y-65683371D02*
X89202343Y-64183371D01*
X89773771Y-64183371D01*
X89916629Y-64254800D01*
X89988057Y-64326229D01*
X90059486Y-64469086D01*
X90059486Y-64683371D01*
X89988057Y-64826229D01*
X89916629Y-64897657D01*
X89773771Y-64969086D01*
X89202343Y-64969086D01*
X91416629Y-65683371D02*
X90702343Y-65683371D01*
X90702343Y-64183371D01*
X92202343Y-64969086D02*
X92202343Y-65683371D01*
X91702343Y-64183371D02*
X92202343Y-64969086D01*
X92702343Y-64183371D01*
D11*
X56388000Y-95250000D02*
X56388000Y-60960000D01*
X93218000Y-95250000D02*
X56388000Y-95250000D01*
X93218000Y-93345000D02*
X93218000Y-95250000D01*
X93218000Y-60960000D02*
X93218000Y-93345000D01*
X56388000Y-60960000D02*
X93218000Y-60960000D01*
D14*
X58210144Y-88910571D02*
X57495858Y-88910571D01*
X57424429Y-89624857D01*
X57495858Y-89553429D01*
X57638715Y-89482000D01*
X57995858Y-89482000D01*
X58138715Y-89553429D01*
X58210144Y-89624857D01*
X58281572Y-89767714D01*
X58281572Y-90124857D01*
X58210144Y-90267714D01*
X58138715Y-90339143D01*
X57995858Y-90410571D01*
X57638715Y-90410571D01*
X57495858Y-90339143D01*
X57424429Y-90267714D01*
X58710143Y-88910571D02*
X59210143Y-90410571D01*
X59710143Y-88910571D01*
X61138714Y-89410571D02*
X61710143Y-89410571D01*
X61353000Y-88910571D02*
X61353000Y-90196286D01*
X61424428Y-90339143D01*
X61567286Y-90410571D01*
X61710143Y-90410571D01*
X62424429Y-90410571D02*
X62281571Y-90339143D01*
X62210143Y-90267714D01*
X62138714Y-90124857D01*
X62138714Y-89696286D01*
X62210143Y-89553429D01*
X62281571Y-89482000D01*
X62424429Y-89410571D01*
X62638714Y-89410571D01*
X62781571Y-89482000D01*
X62853000Y-89553429D01*
X62924429Y-89696286D01*
X62924429Y-90124857D01*
X62853000Y-90267714D01*
X62781571Y-90339143D01*
X62638714Y-90410571D01*
X62424429Y-90410571D01*
X64781571Y-90410571D02*
X65067286Y-90410571D01*
X65210143Y-90339143D01*
X65281571Y-90267714D01*
X65424429Y-90053429D01*
X65495857Y-89767714D01*
X65495857Y-89196286D01*
X65424429Y-89053429D01*
X65353000Y-88982000D01*
X65210143Y-88910571D01*
X64924429Y-88910571D01*
X64781571Y-88982000D01*
X64710143Y-89053429D01*
X64638714Y-89196286D01*
X64638714Y-89553429D01*
X64710143Y-89696286D01*
X64781571Y-89767714D01*
X64924429Y-89839143D01*
X65210143Y-89839143D01*
X65353000Y-89767714D01*
X65424429Y-89696286D01*
X65495857Y-89553429D01*
X65924428Y-88910571D02*
X66424428Y-90410571D01*
X66924428Y-88910571D01*
X57138714Y-92810571D02*
X57138714Y-91310571D01*
X57495857Y-91310571D01*
X57710142Y-91382000D01*
X57853000Y-91524857D01*
X57924428Y-91667714D01*
X57995857Y-91953429D01*
X57995857Y-92167714D01*
X57924428Y-92453429D01*
X57853000Y-92596286D01*
X57710142Y-92739143D01*
X57495857Y-92810571D01*
X57138714Y-92810571D01*
X59495857Y-92667714D02*
X59424428Y-92739143D01*
X59210142Y-92810571D01*
X59067285Y-92810571D01*
X58853000Y-92739143D01*
X58710142Y-92596286D01*
X58638714Y-92453429D01*
X58567285Y-92167714D01*
X58567285Y-91953429D01*
X58638714Y-91667714D01*
X58710142Y-91524857D01*
X58853000Y-91382000D01*
X59067285Y-91310571D01*
X59210142Y-91310571D01*
X59424428Y-91382000D01*
X59495857Y-91453429D01*
X61281571Y-92810571D02*
X61281571Y-91310571D01*
X61995857Y-92810571D02*
X61995857Y-91310571D01*
X62853000Y-92810571D01*
X62853000Y-91310571D01*
X63567286Y-92810571D02*
X63567286Y-91310571D01*
X64138714Y-91310571D01*
X64281572Y-91382000D01*
X64353000Y-91453429D01*
X64424429Y-91596286D01*
X64424429Y-91810571D01*
X64353000Y-91953429D01*
X64281572Y-92024857D01*
X64138714Y-92096286D01*
X63567286Y-92096286D01*
X65067286Y-91310571D02*
X65067286Y-92524857D01*
X65138714Y-92667714D01*
X65210143Y-92739143D01*
X65353000Y-92810571D01*
X65638714Y-92810571D01*
X65781572Y-92739143D01*
X65853000Y-92667714D01*
X65924429Y-92524857D01*
X65924429Y-91310571D01*
X66424429Y-91310571D02*
X67281572Y-91310571D01*
X66853001Y-92810571D02*
X66853001Y-91310571D01*
X58039095Y-86502857D02*
X59562905Y-86502857D01*
X58039095Y-83962857D02*
X59562905Y-83962857D01*
X58801000Y-84724762D02*
X58801000Y-83200952D01*
D12*
X110331428Y-97932762D02*
X110331428Y-95932762D01*
X110331428Y-96885143D02*
X111474286Y-96885143D01*
X111474286Y-97932762D02*
X111474286Y-95932762D01*
X112140952Y-95932762D02*
X112807619Y-97932762D01*
X113474286Y-95932762D01*
D15*
X74240072Y-51570143D02*
X74240072Y-53998714D01*
X74382929Y-54284429D01*
X74525786Y-54427286D01*
X74811500Y-54570143D01*
X75382929Y-54570143D01*
X75668643Y-54427286D01*
X75811500Y-54284429D01*
X75954357Y-53998714D01*
X75954357Y-51570143D01*
X77240072Y-54427286D02*
X77668643Y-54570143D01*
X78382929Y-54570143D01*
X78668643Y-54427286D01*
X78811500Y-54284429D01*
X78954357Y-53998714D01*
X78954357Y-53713000D01*
X78811500Y-53427286D01*
X78668643Y-53284429D01*
X78382929Y-53141571D01*
X77811500Y-52998714D01*
X77525786Y-52855857D01*
X77382929Y-52713000D01*
X77240072Y-52427286D01*
X77240072Y-52141571D01*
X77382929Y-51855857D01*
X77525786Y-51713000D01*
X77811500Y-51570143D01*
X78525786Y-51570143D01*
X78954357Y-51713000D01*
X80097215Y-53713000D02*
X81525786Y-53713000D01*
X79811500Y-54570143D02*
X80811500Y-51570143D01*
X81811500Y-54570143D01*
X84525786Y-54284429D02*
X84382929Y-54427286D01*
X83954358Y-54570143D01*
X83668644Y-54570143D01*
X83240072Y-54427286D01*
X82954358Y-54141571D01*
X82811501Y-53855857D01*
X82668644Y-53284429D01*
X82668644Y-52855857D01*
X82811501Y-52284429D01*
X82954358Y-51998714D01*
X83240072Y-51713000D01*
X83668644Y-51570143D01*
X83954358Y-51570143D01*
X84382929Y-51713000D01*
X84525786Y-51855857D01*
D14*
X72478215Y-57708071D02*
X71763929Y-57708071D01*
X71763929Y-56208071D01*
X73621072Y-57708071D02*
X73621072Y-56922357D01*
X73549643Y-56779500D01*
X73406786Y-56708071D01*
X73121072Y-56708071D01*
X72978215Y-56779500D01*
X73621072Y-57636643D02*
X73478215Y-57708071D01*
X73121072Y-57708071D01*
X72978215Y-57636643D01*
X72906786Y-57493786D01*
X72906786Y-57350929D01*
X72978215Y-57208071D01*
X73121072Y-57136643D01*
X73478215Y-57136643D01*
X73621072Y-57065214D01*
X74335358Y-57708071D02*
X74335358Y-56208071D01*
X74335358Y-56779500D02*
X74478215Y-56708071D01*
X74763929Y-56708071D01*
X74906786Y-56779500D01*
X74978215Y-56850929D01*
X75049644Y-56993786D01*
X75049644Y-57422357D01*
X74978215Y-57565214D01*
X74906786Y-57636643D01*
X74763929Y-57708071D01*
X74478215Y-57708071D01*
X74335358Y-57636643D01*
X75906787Y-57708071D02*
X75763929Y-57636643D01*
X75692501Y-57565214D01*
X75621072Y-57422357D01*
X75621072Y-56993786D01*
X75692501Y-56850929D01*
X75763929Y-56779500D01*
X75906787Y-56708071D01*
X76121072Y-56708071D01*
X76263929Y-56779500D01*
X76335358Y-56850929D01*
X76406787Y-56993786D01*
X76406787Y-57422357D01*
X76335358Y-57565214D01*
X76263929Y-57636643D01*
X76121072Y-57708071D01*
X75906787Y-57708071D01*
X77049644Y-57708071D02*
X77049644Y-56708071D01*
X77049644Y-56993786D02*
X77121072Y-56850929D01*
X77192501Y-56779500D01*
X77335358Y-56708071D01*
X77478215Y-56708071D01*
X78621072Y-57708071D02*
X78621072Y-56922357D01*
X78549643Y-56779500D01*
X78406786Y-56708071D01*
X78121072Y-56708071D01*
X77978215Y-56779500D01*
X78621072Y-57636643D02*
X78478215Y-57708071D01*
X78121072Y-57708071D01*
X77978215Y-57636643D01*
X77906786Y-57493786D01*
X77906786Y-57350929D01*
X77978215Y-57208071D01*
X78121072Y-57136643D01*
X78478215Y-57136643D01*
X78621072Y-57065214D01*
X79121072Y-56708071D02*
X79692501Y-56708071D01*
X79335358Y-56208071D02*
X79335358Y-57493786D01*
X79406786Y-57636643D01*
X79549644Y-57708071D01*
X79692501Y-57708071D01*
X80406787Y-57708071D02*
X80263929Y-57636643D01*
X80192501Y-57565214D01*
X80121072Y-57422357D01*
X80121072Y-56993786D01*
X80192501Y-56850929D01*
X80263929Y-56779500D01*
X80406787Y-56708071D01*
X80621072Y-56708071D01*
X80763929Y-56779500D01*
X80835358Y-56850929D01*
X80906787Y-56993786D01*
X80906787Y-57422357D01*
X80835358Y-57565214D01*
X80763929Y-57636643D01*
X80621072Y-57708071D01*
X80406787Y-57708071D01*
X81549644Y-57708071D02*
X81549644Y-56708071D01*
X81549644Y-56993786D02*
X81621072Y-56850929D01*
X81692501Y-56779500D01*
X81835358Y-56708071D01*
X81978215Y-56708071D01*
X82478215Y-57708071D02*
X82478215Y-56708071D01*
X82478215Y-56208071D02*
X82406786Y-56279500D01*
X82478215Y-56350929D01*
X82549643Y-56279500D01*
X82478215Y-56208071D01*
X82478215Y-56350929D01*
X83406787Y-57708071D02*
X83263929Y-57636643D01*
X83192501Y-57565214D01*
X83121072Y-57422357D01*
X83121072Y-56993786D01*
X83192501Y-56850929D01*
X83263929Y-56779500D01*
X83406787Y-56708071D01*
X83621072Y-56708071D01*
X83763929Y-56779500D01*
X83835358Y-56850929D01*
X83906787Y-56993786D01*
X83906787Y-57422357D01*
X83835358Y-57565214D01*
X83763929Y-57636643D01*
X83621072Y-57708071D01*
X83406787Y-57708071D01*
X86335358Y-57708071D02*
X86335358Y-56208071D01*
X86335358Y-57636643D02*
X86192501Y-57708071D01*
X85906787Y-57708071D01*
X85763929Y-57636643D01*
X85692501Y-57565214D01*
X85621072Y-57422357D01*
X85621072Y-56993786D01*
X85692501Y-56850929D01*
X85763929Y-56779500D01*
X85906787Y-56708071D01*
X86192501Y-56708071D01*
X86335358Y-56779500D01*
X87621072Y-57636643D02*
X87478215Y-57708071D01*
X87192501Y-57708071D01*
X87049644Y-57636643D01*
X86978215Y-57493786D01*
X86978215Y-56922357D01*
X87049644Y-56779500D01*
X87192501Y-56708071D01*
X87478215Y-56708071D01*
X87621072Y-56779500D01*
X87692501Y-56922357D01*
X87692501Y-57065214D01*
X86978215Y-57208071D01*
X71049643Y-60108071D02*
X71049643Y-58608071D01*
X71763929Y-59108071D02*
X71763929Y-60108071D01*
X71763929Y-59250929D02*
X71835357Y-59179500D01*
X71978215Y-59108071D01*
X72192500Y-59108071D01*
X72335357Y-59179500D01*
X72406786Y-59322357D01*
X72406786Y-60108071D01*
X73049643Y-60036643D02*
X73192500Y-60108071D01*
X73478215Y-60108071D01*
X73621072Y-60036643D01*
X73692500Y-59893786D01*
X73692500Y-59822357D01*
X73621072Y-59679500D01*
X73478215Y-59608071D01*
X73263929Y-59608071D01*
X73121072Y-59536643D01*
X73049643Y-59393786D01*
X73049643Y-59322357D01*
X73121072Y-59179500D01*
X73263929Y-59108071D01*
X73478215Y-59108071D01*
X73621072Y-59179500D01*
X74121072Y-59108071D02*
X74692501Y-59108071D01*
X74335358Y-58608071D02*
X74335358Y-59893786D01*
X74406786Y-60036643D01*
X74549644Y-60108071D01*
X74692501Y-60108071D01*
X75192501Y-60108071D02*
X75192501Y-59108071D01*
X75192501Y-59393786D02*
X75263929Y-59250929D01*
X75335358Y-59179500D01*
X75478215Y-59108071D01*
X75621072Y-59108071D01*
X76763929Y-59108071D02*
X76763929Y-60108071D01*
X76121072Y-59108071D02*
X76121072Y-59893786D01*
X76192500Y-60036643D01*
X76335358Y-60108071D01*
X76549643Y-60108071D01*
X76692500Y-60036643D01*
X76763929Y-59965214D01*
X77478215Y-60108071D02*
X77478215Y-59108071D01*
X77478215Y-59250929D02*
X77549643Y-59179500D01*
X77692501Y-59108071D01*
X77906786Y-59108071D01*
X78049643Y-59179500D01*
X78121072Y-59322357D01*
X78121072Y-60108071D01*
X78121072Y-59322357D02*
X78192501Y-59179500D01*
X78335358Y-59108071D01*
X78549643Y-59108071D01*
X78692501Y-59179500D01*
X78763929Y-59322357D01*
X78763929Y-60108071D01*
X80049643Y-60036643D02*
X79906786Y-60108071D01*
X79621072Y-60108071D01*
X79478215Y-60036643D01*
X79406786Y-59893786D01*
X79406786Y-59322357D01*
X79478215Y-59179500D01*
X79621072Y-59108071D01*
X79906786Y-59108071D01*
X80049643Y-59179500D01*
X80121072Y-59322357D01*
X80121072Y-59465214D01*
X79406786Y-59608071D01*
X80763929Y-59108071D02*
X80763929Y-60108071D01*
X80763929Y-59250929D02*
X80835357Y-59179500D01*
X80978215Y-59108071D01*
X81192500Y-59108071D01*
X81335357Y-59179500D01*
X81406786Y-59322357D01*
X81406786Y-60108071D01*
X81906786Y-59108071D02*
X82478215Y-59108071D01*
X82121072Y-58608071D02*
X82121072Y-59893786D01*
X82192500Y-60036643D01*
X82335358Y-60108071D01*
X82478215Y-60108071D01*
X83621072Y-60108071D02*
X83621072Y-59322357D01*
X83549643Y-59179500D01*
X83406786Y-59108071D01*
X83121072Y-59108071D01*
X82978215Y-59179500D01*
X83621072Y-60036643D02*
X83478215Y-60108071D01*
X83121072Y-60108071D01*
X82978215Y-60036643D01*
X82906786Y-59893786D01*
X82906786Y-59750929D01*
X82978215Y-59608071D01*
X83121072Y-59536643D01*
X83478215Y-59536643D01*
X83621072Y-59465214D01*
X84978215Y-60036643D02*
X84835358Y-60108071D01*
X84549644Y-60108071D01*
X84406786Y-60036643D01*
X84335358Y-59965214D01*
X84263929Y-59822357D01*
X84263929Y-59393786D01*
X84335358Y-59250929D01*
X84406786Y-59179500D01*
X84549644Y-59108071D01*
X84835358Y-59108071D01*
X84978215Y-59179500D01*
X85621072Y-60108071D02*
X85621072Y-59108071D01*
X85621072Y-58608071D02*
X85549643Y-58679500D01*
X85621072Y-58750929D01*
X85692500Y-58679500D01*
X85621072Y-58608071D01*
X85621072Y-58750929D01*
X86549644Y-60108071D02*
X86406786Y-60036643D01*
X86335358Y-59965214D01*
X86263929Y-59822357D01*
X86263929Y-59393786D01*
X86335358Y-59250929D01*
X86406786Y-59179500D01*
X86549644Y-59108071D01*
X86763929Y-59108071D01*
X86906786Y-59179500D01*
X86978215Y-59250929D01*
X87049644Y-59393786D01*
X87049644Y-59822357D01*
X86978215Y-59965214D01*
X86906786Y-60036643D01*
X86763929Y-60108071D01*
X86549644Y-60108071D01*
X86835358Y-58536643D02*
X86621072Y-58750929D01*
X87692501Y-59108071D02*
X87692501Y-60108071D01*
X87692501Y-59250929D02*
X87763929Y-59179500D01*
X87906787Y-59108071D01*
X88121072Y-59108071D01*
X88263929Y-59179500D01*
X88335358Y-59322357D01*
X88335358Y-60108071D01*
D13*
X70994071Y-46886857D02*
X72660738Y-46886857D01*
X73375024Y-49505905D02*
X70994071Y-49505905D01*
X70994071Y-44505905D01*
X73375024Y-44505905D01*
X78375024Y-49029714D02*
X78136929Y-49267810D01*
X77422643Y-49505905D01*
X76946453Y-49505905D01*
X76232167Y-49267810D01*
X75755976Y-48791619D01*
X75517881Y-48315429D01*
X75279786Y-47363048D01*
X75279786Y-46648762D01*
X75517881Y-45696381D01*
X75755976Y-45220190D01*
X76232167Y-44744000D01*
X76946453Y-44505905D01*
X77422643Y-44505905D01*
X78136929Y-44744000D01*
X78375024Y-44982095D01*
X82184548Y-46886857D02*
X80517881Y-46886857D01*
X80517881Y-49505905D02*
X80517881Y-44505905D01*
X82898834Y-44505905D01*
X84803595Y-49505905D02*
X84803595Y-44505905D01*
X86470262Y-48077333D01*
X88136929Y-44505905D01*
X88136929Y-49505905D01*
D11*
X76802598Y-113948886D02*
X76754979Y-114044124D01*
X76754979Y-114186981D01*
X76802598Y-114329839D01*
X76897836Y-114425077D01*
X76993074Y-114472696D01*
X77183550Y-114520315D01*
X77326408Y-114520315D01*
X77516884Y-114472696D01*
X77612122Y-114425077D01*
X77707360Y-114329839D01*
X77754979Y-114186981D01*
X77754979Y-114091743D01*
X77707360Y-113948886D01*
X77659741Y-113901267D01*
X77326408Y-113901267D01*
X77326408Y-114091743D01*
X77754979Y-113472696D02*
X76754979Y-113472696D01*
X77754979Y-112901267D01*
X76754979Y-112901267D01*
X77754979Y-112425077D02*
X76754979Y-112425077D01*
X76754979Y-112186982D01*
X76802598Y-112044124D01*
X76897836Y-111948886D01*
X76993074Y-111901267D01*
X77183550Y-111853648D01*
X77326408Y-111853648D01*
X77516884Y-111901267D01*
X77612122Y-111948886D01*
X77707360Y-112044124D01*
X77754979Y-112186982D01*
X77754979Y-112425077D01*
X79167979Y-114440958D02*
X79167979Y-113821910D01*
X79548931Y-114155244D01*
X79548931Y-114012386D01*
X79596550Y-113917148D01*
X79644169Y-113869529D01*
X79739408Y-113821910D01*
X79977503Y-113821910D01*
X80072741Y-113869529D01*
X80120360Y-113917148D01*
X80167979Y-114012386D01*
X80167979Y-114298101D01*
X80120360Y-114393339D01*
X80072741Y-114440958D01*
X79501312Y-113488577D02*
X80167979Y-113250482D01*
X79501312Y-113012386D01*
X79167979Y-112726672D02*
X79167979Y-112107624D01*
X79548931Y-112440958D01*
X79548931Y-112298100D01*
X79596550Y-112202862D01*
X79644169Y-112155243D01*
X79739408Y-112107624D01*
X79977503Y-112107624D01*
X80072741Y-112155243D01*
X80120360Y-112202862D01*
X80167979Y-112298100D01*
X80167979Y-112583815D01*
X80120360Y-112679053D01*
X80072741Y-112726672D01*
X81898479Y-114393339D02*
X81898479Y-113821910D01*
X82898479Y-114107625D02*
X81898479Y-114107625D01*
X82850860Y-113536196D02*
X82898479Y-113393339D01*
X82898479Y-113155243D01*
X82850860Y-113060005D01*
X82803241Y-113012386D01*
X82708003Y-112964767D01*
X82612765Y-112964767D01*
X82517527Y-113012386D01*
X82469908Y-113060005D01*
X82422288Y-113155243D01*
X82374669Y-113345720D01*
X82327050Y-113440958D01*
X82279431Y-113488577D01*
X82184193Y-113536196D01*
X82088955Y-113536196D01*
X81993717Y-113488577D01*
X81946098Y-113440958D01*
X81898479Y-113345720D01*
X81898479Y-113107624D01*
X81946098Y-112964767D01*
X81898479Y-112679053D02*
X81898479Y-112107624D01*
X82898479Y-112393339D02*
X81898479Y-112393339D01*
X85565479Y-113798101D02*
X85089288Y-114131435D01*
X85565479Y-114369530D02*
X84565479Y-114369530D01*
X84565479Y-113988577D01*
X84613098Y-113893339D01*
X84660717Y-113845720D01*
X84755955Y-113798101D01*
X84898812Y-113798101D01*
X84994050Y-113845720D01*
X85041669Y-113893339D01*
X85089288Y-113988577D01*
X85089288Y-114369530D01*
X85517860Y-113417149D02*
X85565479Y-113274292D01*
X85565479Y-113036196D01*
X85517860Y-112940958D01*
X85470241Y-112893339D01*
X85375003Y-112845720D01*
X85279765Y-112845720D01*
X85184527Y-112893339D01*
X85136908Y-112940958D01*
X85089288Y-113036196D01*
X85041669Y-113226673D01*
X84994050Y-113321911D01*
X84946431Y-113369530D01*
X84851193Y-113417149D01*
X84755955Y-113417149D01*
X84660717Y-113369530D01*
X84613098Y-113321911D01*
X84565479Y-113226673D01*
X84565479Y-112988577D01*
X84613098Y-112845720D01*
X84565479Y-112560006D02*
X84565479Y-111988577D01*
X85565479Y-112274292D02*
X84565479Y-112274292D01*
X121951786Y-59205762D02*
X122094643Y-59253381D01*
X122332739Y-59253381D01*
X122427977Y-59205762D01*
X122475596Y-59158143D01*
X122523215Y-59062905D01*
X122523215Y-58967667D01*
X122475596Y-58872429D01*
X122427977Y-58824810D01*
X122332739Y-58777190D01*
X122142262Y-58729571D01*
X122047024Y-58681952D01*
X121999405Y-58634333D01*
X121951786Y-58539095D01*
X121951786Y-58443857D01*
X121999405Y-58348619D01*
X122047024Y-58301000D01*
X122142262Y-58253381D01*
X122380358Y-58253381D01*
X122523215Y-58301000D01*
X129849595Y-59253381D02*
X129849595Y-58253381D01*
X130087690Y-58253381D01*
X130230548Y-58301000D01*
X130325786Y-58396238D01*
X130373405Y-58491476D01*
X130421024Y-58681952D01*
X130421024Y-58824810D01*
X130373405Y-59015286D01*
X130325786Y-59110524D01*
X130230548Y-59205762D01*
X130087690Y-59253381D01*
X129849595Y-59253381D01*
X137358405Y-58301000D02*
X137263167Y-58253381D01*
X137120310Y-58253381D01*
X136977452Y-58301000D01*
X136882214Y-58396238D01*
X136834595Y-58491476D01*
X136786976Y-58681952D01*
X136786976Y-58824810D01*
X136834595Y-59015286D01*
X136882214Y-59110524D01*
X136977452Y-59205762D01*
X137120310Y-59253381D01*
X137215548Y-59253381D01*
X137358405Y-59205762D01*
X137406024Y-59158143D01*
X137406024Y-58824810D01*
X137215548Y-58824810D01*
D10*
X152844500Y-42862500D02*
X152844500Y-136842500D01*
X53784500Y-42862500D02*
X152844500Y-42862500D01*
X53784500Y-136842500D02*
X53784500Y-42862500D01*
X152844500Y-136842500D02*
X53784500Y-136842500D01*
D16*
X84406000Y-121969000D02*
X87806000Y-121969000D01*
X84408944Y-121966056D02*
G75*
G02X86106000Y-117869000I1697056J1697056D01*
G01*
X87803056Y-121966056D02*
G75*
G03X86106000Y-117869000I-1697056J1697056D01*
G01*
X130071500Y-92622000D02*
X103071500Y-92622000D01*
X103071500Y-92622000D02*
X103071500Y-81622000D01*
X103071500Y-81622000D02*
X130071500Y-81622000D01*
X130071500Y-81622000D02*
X130071500Y-92622000D01*
X62767500Y-73288000D02*
X62767500Y-76888000D01*
X64867500Y-73288000D02*
X64867500Y-76888000D01*
X64117500Y-75338000D02*
X63517500Y-75338000D01*
X63517500Y-75338000D02*
X63817500Y-75038000D01*
X63817500Y-75038000D02*
X64017500Y-75238000D01*
X64017500Y-75238000D02*
X63767500Y-75238000D01*
X63767500Y-75238000D02*
X63817500Y-75188000D01*
X64317500Y-74938000D02*
X63317500Y-74938000D01*
X63817500Y-75438000D02*
X63817500Y-75938000D01*
X63817500Y-74938000D02*
X64317500Y-75438000D01*
X64317500Y-75438000D02*
X63317500Y-75438000D01*
X63317500Y-75438000D02*
X63817500Y-74938000D01*
X87630000Y-123952000D02*
X86233000Y-123952000D01*
X92075000Y-123952000D02*
X93599000Y-123952000D01*
X91694000Y-124714000D02*
X91694000Y-123190000D01*
X91948000Y-124714000D02*
X91948000Y-123190000D01*
X92202000Y-123952000D02*
X92202000Y-123190000D01*
X92202000Y-123190000D02*
X87630000Y-123190000D01*
X87630000Y-123190000D02*
X87630000Y-124714000D01*
X87630000Y-124714000D02*
X92202000Y-124714000D01*
X92202000Y-124714000D02*
X92202000Y-123952000D01*
X92109000Y-113783000D02*
X92109000Y-110183000D01*
X90009000Y-113783000D02*
X90009000Y-110183000D01*
X90759000Y-111733000D02*
X91359000Y-111733000D01*
X91359000Y-111733000D02*
X91059000Y-112033000D01*
X91059000Y-112033000D02*
X90859000Y-111833000D01*
X90859000Y-111833000D02*
X91109000Y-111833000D01*
X91109000Y-111833000D02*
X91059000Y-111883000D01*
X90559000Y-112133000D02*
X91559000Y-112133000D01*
X91059000Y-111633000D02*
X91059000Y-111133000D01*
X91059000Y-112133000D02*
X90559000Y-111633000D01*
X90559000Y-111633000D02*
X91559000Y-111633000D01*
X91559000Y-111633000D02*
X91059000Y-112133000D01*
X136588500Y-87122000D02*
X135572500Y-87122000D01*
X141414500Y-87122000D02*
X142684500Y-87122000D01*
X141160500Y-88392000D02*
X141160500Y-85852000D01*
X140906500Y-88392000D02*
X140906500Y-85852000D01*
X140652500Y-88392000D02*
X140652500Y-85852000D01*
X141414500Y-88392000D02*
X141414500Y-85852000D01*
X140398500Y-88392000D02*
X141668500Y-85852000D01*
X141668500Y-88392000D02*
X140398500Y-85852000D01*
X140398500Y-88392000D02*
X140398500Y-85852000D01*
X141033500Y-88392000D02*
X141033500Y-85852000D01*
X141668500Y-85852000D02*
X141668500Y-88392000D01*
X141668500Y-88392000D02*
X136588500Y-88392000D01*
X136588500Y-88392000D02*
X136588500Y-85852000D01*
X136588500Y-85852000D02*
X141668500Y-85852000D01*
X144843500Y-73586340D02*
X144843500Y-75618340D01*
X144843500Y-55298340D02*
X144843500Y-53774340D01*
X141033500Y-73332340D02*
X148653500Y-73332340D01*
X148653500Y-73332340D02*
X148653500Y-55552340D01*
X148653500Y-55552340D02*
X141033500Y-55552340D01*
X141033500Y-55552340D02*
X141033500Y-73332340D01*
X109669990Y-51592058D02*
X112209990Y-51592058D01*
X106849990Y-51312058D02*
X108399990Y-51312058D01*
X109669990Y-51592058D02*
X109669990Y-54132058D01*
X108399990Y-54412058D02*
X106849990Y-54412058D01*
X106849990Y-54412058D02*
X106849990Y-51312058D01*
X109669990Y-54132058D02*
X112209990Y-54132058D01*
X112209990Y-54132058D02*
X112209990Y-51592058D01*
X63309500Y-85344000D02*
X63309500Y-87884000D01*
X63589500Y-82524000D02*
X63589500Y-84074000D01*
X63309500Y-85344000D02*
X60769500Y-85344000D01*
X60489500Y-84074000D02*
X60489500Y-82524000D01*
X60489500Y-82524000D02*
X63589500Y-82524000D01*
X60769500Y-85344000D02*
X60769500Y-87884000D01*
X60769500Y-87884000D02*
X63309500Y-87884000D01*
X83716098Y-108741982D02*
X76096098Y-108741982D01*
X83716098Y-111281982D02*
X76096098Y-111281982D01*
X86536098Y-111561982D02*
X84986098Y-111561982D01*
X76096098Y-108741982D02*
X76096098Y-111281982D01*
X83716098Y-111281982D02*
X83716098Y-108741982D01*
X84986098Y-108461982D02*
X86536098Y-108461982D01*
X86536098Y-108461982D02*
X86536098Y-111561982D01*
X124064500Y-66753000D02*
X120664500Y-66753000D01*
X124061556Y-66755944D02*
G75*
G02X122364500Y-70853000I-1697056J-1697056D01*
G01*
X120667444Y-66755944D02*
G75*
G03X122364500Y-70853000I1697056J-1697056D01*
G01*
X137204490Y-71656695D02*
G75*
G03X137907500Y-71169000I-996990J2187695D01*
G01*
X137204490Y-67281305D02*
G75*
G02X137907500Y-67769000I-996990J-2187695D01*
G01*
X137907500Y-71169000D02*
X137907500Y-67769000D01*
X135214373Y-71653879D02*
G75*
G02X133807500Y-69469000I993127J2184879D01*
G01*
X135214373Y-67284121D02*
G75*
G03X133807500Y-69469000I993127J-2184879D01*
G01*
X123253500Y-52197000D02*
X121983500Y-52197000D01*
X128841500Y-52197000D02*
X125793500Y-52197000D01*
X134429500Y-52197000D02*
X131381500Y-52197000D01*
X136969500Y-52197000D02*
X138239500Y-52197000D01*
X123253500Y-57785000D02*
X121983500Y-57785000D01*
X128841500Y-57785000D02*
X125793500Y-57785000D01*
X134429500Y-57785000D02*
X131381500Y-57785000D01*
X136969500Y-57785000D02*
X138239500Y-57785000D01*
X121983500Y-52197000D02*
X121983500Y-57785000D01*
X138239500Y-57785000D02*
X138239500Y-52197000D01*
X68043500Y-72023000D02*
X69243500Y-72023000D01*
X69243500Y-73773000D02*
X68043500Y-73773000D01*
X79031098Y-105992982D02*
X79031098Y-104792982D01*
X80781098Y-104792982D02*
X80781098Y-105992982D01*
X94199000Y-128002000D02*
X92999000Y-128002000D01*
X92999000Y-126252000D02*
X94199000Y-126252000D01*
X89109000Y-106059000D02*
X90309000Y-106059000D01*
X90309000Y-107809000D02*
X89109000Y-107809000D01*
X80553000Y-116473000D02*
X81753000Y-116473000D01*
X81753000Y-118223000D02*
X80553000Y-118223000D01*
X127825500Y-96774000D02*
X122745500Y-96774000D01*
X122745500Y-96774000D02*
X122745500Y-94234000D01*
X122745500Y-94234000D02*
X127825500Y-94234000D01*
X127825500Y-94234000D02*
X127825500Y-96774000D01*
X127825500Y-95504000D02*
X129095500Y-95504000D01*
X122745500Y-95504000D02*
X121475500Y-95504000D01*
X100060760Y-116215160D02*
G75*
G03X100060760Y-116215160I-1000760J0D01*
G01*
X105260140Y-116215160D02*
G75*
G03X105260140Y-116215160I-6200140J0D01*
G01*
X65854580Y-67243960D02*
X60256420Y-67243960D01*
X60454540Y-67741800D02*
X60454540Y-67243960D01*
X65656460Y-67243960D02*
X65656460Y-67741800D01*
X63055500Y-67741800D02*
X63055500Y-67243960D01*
X60256420Y-61942980D02*
X65854580Y-61942980D01*
X60256420Y-67741800D02*
X65854580Y-67741800D01*
X65854580Y-67741800D02*
X65854580Y-61544200D01*
X65854580Y-61544200D02*
X60256420Y-61544200D01*
X60256420Y-61544200D02*
X60256420Y-67741800D01*
X63116460Y-115882420D02*
X63116460Y-121480580D01*
X63614300Y-121282460D02*
X63116460Y-121282460D01*
X63116460Y-116080540D02*
X63614300Y-116080540D01*
X63614300Y-118681500D02*
X63116460Y-118681500D01*
X57815480Y-121480580D02*
X57815480Y-115882420D01*
X63614300Y-121480580D02*
X63614300Y-115882420D01*
X63614300Y-115882420D02*
X57416700Y-115882420D01*
X57416700Y-115882420D02*
X57416700Y-121480580D01*
X57416700Y-121480580D02*
X63614300Y-121480580D01*
X63116460Y-101150420D02*
X63116460Y-106748580D01*
X63614300Y-106550460D02*
X63116460Y-106550460D01*
X63116460Y-101348540D02*
X63614300Y-101348540D01*
X63614300Y-103949500D02*
X63116460Y-103949500D01*
X57815480Y-106748580D02*
X57815480Y-101150420D01*
X63614300Y-106748580D02*
X63614300Y-101150420D01*
X63614300Y-101150420D02*
X57416700Y-101150420D01*
X57416700Y-101150420D02*
X57416700Y-106748580D01*
X57416700Y-106748580D02*
X63614300Y-106748580D01*
X67330500Y-76165000D02*
X67330500Y-76310000D01*
X71480500Y-76165000D02*
X71480500Y-76310000D01*
X71480500Y-81315000D02*
X71480500Y-81170000D01*
X67330500Y-81315000D02*
X67330500Y-81170000D01*
X67330500Y-76165000D02*
X71480500Y-76165000D01*
X67330500Y-81315000D02*
X71480500Y-81315000D01*
X67330500Y-76310000D02*
X65930500Y-76310000D01*
X110002500Y-111661500D02*
X110002500Y-111806500D01*
X114152500Y-111661500D02*
X114152500Y-111806500D01*
X114152500Y-116811500D02*
X114152500Y-116666500D01*
X110002500Y-116811500D02*
X110002500Y-116666500D01*
X110002500Y-111661500D02*
X114152500Y-111661500D01*
X110002500Y-116811500D02*
X114152500Y-116811500D01*
X110002500Y-111806500D02*
X108602500Y-111806500D01*
X72032098Y-116318802D02*
X72032098Y-107718362D01*
X72032098Y-107718362D02*
X68831698Y-107718362D01*
X68831698Y-107718362D02*
X68831698Y-116318802D01*
X69580998Y-116318802D02*
X68831698Y-116318802D01*
X71331058Y-116318802D02*
X72032098Y-116318802D01*
X70132178Y-116318802D02*
X70033118Y-116618522D01*
X70731618Y-116318802D02*
X70830678Y-116618522D01*
X71331058Y-116318802D02*
X69532738Y-116318802D01*
X67401500Y-84162000D02*
X68401500Y-84162000D01*
X68401500Y-82462000D02*
X67401500Y-82462000D01*
X67499600Y-126687200D02*
X67499600Y-125687200D01*
X65799600Y-125687200D02*
X65799600Y-126687200D01*
X78216098Y-105812982D02*
X78216098Y-104812982D01*
X76516098Y-104812982D02*
X76516098Y-105812982D01*
X111895000Y-120357000D02*
X112895000Y-120357000D01*
X112895000Y-118657000D02*
X111895000Y-118657000D01*
X127381000Y-125839220D02*
X120680480Y-125839220D01*
X120680480Y-125839220D02*
X120680480Y-124239020D01*
X131180840Y-109339380D02*
X131180840Y-107840780D01*
X131180840Y-107840780D02*
X120680480Y-107840780D01*
X120680480Y-107840780D02*
X120680480Y-109339380D01*
X131180840Y-122839480D02*
X133179820Y-122839480D01*
X133179820Y-122839480D02*
X133179820Y-125839220D01*
X133179820Y-125839220D02*
X127381000Y-125839220D01*
X127381000Y-125839220D02*
X127381000Y-124340620D01*
X136182100Y-113840260D02*
X146182080Y-113840260D01*
X146182080Y-113840260D02*
X146182080Y-119839740D01*
X146182080Y-119839740D02*
X136182100Y-119839740D01*
X131180840Y-113339880D02*
X136182100Y-113339880D01*
X136182100Y-113339880D02*
X136182100Y-120340120D01*
X136182100Y-120340120D02*
X131180840Y-120340120D01*
X131180840Y-109339380D02*
X120680480Y-109339380D01*
X120680480Y-109339380D02*
X120680480Y-124340620D01*
X120680480Y-124340620D02*
X131180840Y-124340620D01*
X131180840Y-124340620D02*
X131180840Y-109339380D01*
X117247000Y-95097000D02*
X117247000Y-96647000D01*
X114147000Y-96647000D02*
X114147000Y-95097000D01*
X114147000Y-95097000D02*
X117247000Y-95097000D01*
X114427000Y-97917000D02*
X116967000Y-97917000D01*
X73406000Y-84963000D02*
X73406000Y-86233000D01*
X72771000Y-85598000D02*
X74041000Y-85598000D01*
X80518000Y-88646000D02*
G75*
G03X80518000Y-88646000I-5080000J0D01*
G01*
X89916000Y-81280000D02*
X88646000Y-81280000D01*
X89281000Y-80645000D02*
X89281000Y-81915000D01*
X91313000Y-83312000D02*
G75*
G03X91313000Y-83312000I-5080000J0D01*
G01*
X76908000Y-124907000D02*
X76908000Y-120457000D01*
X70158000Y-126432000D02*
X70158000Y-120457000D01*
X75184000Y-73279000D02*
X75184000Y-76327000D01*
X75184000Y-76327000D02*
X82296000Y-76327000D01*
X82296000Y-76327000D02*
X82296000Y-73279000D01*
X75184000Y-70231000D02*
X75184000Y-69469000D01*
X75184000Y-69469000D02*
X76708000Y-67183000D01*
X76708000Y-67183000D02*
X80772000Y-67183000D01*
X80772000Y-67183000D02*
X82296000Y-69469000D01*
X82296000Y-69469000D02*
X82296000Y-70231000D01*
X99848000Y-95452600D02*
X99848000Y-97002600D01*
X96748000Y-97002600D02*
X96748000Y-95452600D01*
X96748000Y-95452600D02*
X99848000Y-95452600D01*
X97028000Y-98272600D02*
X99568000Y-98272600D01*
X66835020Y-131127500D02*
X104935020Y-131127500D01*
X104935020Y-131127500D02*
X104935020Y-133667500D01*
X104935020Y-133667500D02*
X66835020Y-133667500D01*
X64015020Y-133947500D02*
X65565020Y-133947500D01*
X66835020Y-133667500D02*
X66835020Y-131127500D01*
X65565020Y-130847500D02*
X64015020Y-130847500D01*
X64015020Y-130847500D02*
X64015020Y-133947500D01*
X82264262Y-122150119D02*
X82169024Y-122102500D01*
X82073786Y-122007262D01*
X81930929Y-121864405D01*
X81835690Y-121816786D01*
X81740452Y-121816786D01*
X81788071Y-122054881D02*
X81692833Y-122007262D01*
X81597595Y-121912024D01*
X81549976Y-121721548D01*
X81549976Y-121388214D01*
X81597595Y-121197738D01*
X81692833Y-121102500D01*
X81788071Y-121054881D01*
X81978548Y-121054881D01*
X82073786Y-121102500D01*
X82169024Y-121197738D01*
X82216643Y-121388214D01*
X82216643Y-121721548D01*
X82169024Y-121912024D01*
X82073786Y-122007262D01*
X81978548Y-122054881D01*
X81788071Y-122054881D01*
X83073786Y-121388214D02*
X83073786Y-122054881D01*
X82835690Y-121007262D02*
X82597595Y-121721548D01*
X83216643Y-121721548D01*
X68540405Y-68270381D02*
X68540405Y-67270381D01*
X68921358Y-67270381D01*
X69016596Y-67318000D01*
X69064215Y-67365619D01*
X69111834Y-67460857D01*
X69111834Y-67603714D01*
X69064215Y-67698952D01*
X69016596Y-67746571D01*
X68921358Y-67794190D01*
X68540405Y-67794190D01*
X69445167Y-67270381D02*
X70111834Y-67270381D01*
X69683262Y-68270381D01*
X116546334Y-80621143D02*
X116498715Y-80668762D01*
X116355858Y-80716381D01*
X116260620Y-80716381D01*
X116117762Y-80668762D01*
X116022524Y-80573524D01*
X115974905Y-80478286D01*
X115927286Y-80287810D01*
X115927286Y-80144952D01*
X115974905Y-79954476D01*
X116022524Y-79859238D01*
X116117762Y-79764000D01*
X116260620Y-79716381D01*
X116355858Y-79716381D01*
X116498715Y-79764000D01*
X116546334Y-79811619D01*
X116879667Y-79716381D02*
X117546334Y-79716381D01*
X117117762Y-80716381D01*
X64396881Y-72620095D02*
X63396881Y-72620095D01*
X63396881Y-72382000D01*
X63444500Y-72239142D01*
X63539738Y-72143904D01*
X63634976Y-72096285D01*
X63825452Y-72048666D01*
X63968310Y-72048666D01*
X64158786Y-72096285D01*
X64254024Y-72143904D01*
X64349262Y-72239142D01*
X64396881Y-72382000D01*
X64396881Y-72620095D01*
X64396881Y-71096285D02*
X64396881Y-71667714D01*
X64396881Y-71382000D02*
X63396881Y-71382000D01*
X63539738Y-71477238D01*
X63634976Y-71572476D01*
X63682595Y-71667714D01*
X88733405Y-125991881D02*
X88733405Y-124991881D01*
X88971500Y-124991881D01*
X89114358Y-125039500D01*
X89209596Y-125134738D01*
X89257215Y-125229976D01*
X89304834Y-125420452D01*
X89304834Y-125563310D01*
X89257215Y-125753786D01*
X89209596Y-125849024D01*
X89114358Y-125944262D01*
X88971500Y-125991881D01*
X88733405Y-125991881D01*
X89685786Y-125087119D02*
X89733405Y-125039500D01*
X89828643Y-124991881D01*
X90066739Y-124991881D01*
X90161977Y-125039500D01*
X90209596Y-125087119D01*
X90257215Y-125182357D01*
X90257215Y-125277595D01*
X90209596Y-125420452D01*
X89638167Y-125991881D01*
X90257215Y-125991881D01*
X89511381Y-112371095D02*
X88511381Y-112371095D01*
X88511381Y-112133000D01*
X88559000Y-111990142D01*
X88654238Y-111894904D01*
X88749476Y-111847285D01*
X88939952Y-111799666D01*
X89082810Y-111799666D01*
X89273286Y-111847285D01*
X89368524Y-111894904D01*
X89463762Y-111990142D01*
X89511381Y-112133000D01*
X89511381Y-112371095D01*
X88844714Y-110942523D02*
X89511381Y-110942523D01*
X88463762Y-111180619D02*
X89178048Y-111418714D01*
X89178048Y-110799666D01*
X138123705Y-85466181D02*
X138123705Y-84466181D01*
X138361800Y-84466181D01*
X138504658Y-84513800D01*
X138599896Y-84609038D01*
X138647515Y-84704276D01*
X138695134Y-84894752D01*
X138695134Y-85037610D01*
X138647515Y-85228086D01*
X138599896Y-85323324D01*
X138504658Y-85418562D01*
X138361800Y-85466181D01*
X138123705Y-85466181D01*
X139599896Y-84466181D02*
X139123705Y-84466181D01*
X139076086Y-84942371D01*
X139123705Y-84894752D01*
X139218943Y-84847133D01*
X139457039Y-84847133D01*
X139552277Y-84894752D01*
X139599896Y-84942371D01*
X139647515Y-85037610D01*
X139647515Y-85275705D01*
X139599896Y-85370943D01*
X139552277Y-85418562D01*
X139457039Y-85466181D01*
X139218943Y-85466181D01*
X139123705Y-85418562D01*
X139076086Y-85370943D01*
X140634981Y-64708066D02*
X140634981Y-65184257D01*
X139634981Y-65184257D01*
X140634981Y-63850923D02*
X140634981Y-64422352D01*
X140634981Y-64136638D02*
X139634981Y-64136638D01*
X139777838Y-64231876D01*
X139873076Y-64327114D01*
X139920695Y-64422352D01*
X114059371Y-53092153D02*
X113059371Y-53092153D01*
X113059371Y-52711200D01*
X113106990Y-52615962D01*
X113154609Y-52568343D01*
X113249847Y-52520724D01*
X113392704Y-52520724D01*
X113487942Y-52568343D01*
X113535561Y-52615962D01*
X113583180Y-52711200D01*
X113583180Y-53092153D01*
X114059371Y-51568343D02*
X114059371Y-52139772D01*
X114059371Y-51854058D02*
X113059371Y-51854058D01*
X113202228Y-51949296D01*
X113297466Y-52044534D01*
X113345085Y-52139772D01*
X115710371Y-63887153D02*
X114710371Y-63887153D01*
X114710371Y-63506200D01*
X114757990Y-63410962D01*
X114805609Y-63363343D01*
X114900847Y-63315724D01*
X115043704Y-63315724D01*
X115138942Y-63363343D01*
X115186561Y-63410962D01*
X115234180Y-63506200D01*
X115234180Y-63887153D01*
X114805609Y-62934772D02*
X114757990Y-62887153D01*
X114710371Y-62791915D01*
X114710371Y-62553819D01*
X114757990Y-62458581D01*
X114805609Y-62410962D01*
X114900847Y-62363343D01*
X114996085Y-62363343D01*
X115138942Y-62410962D01*
X115710371Y-62982391D01*
X115710371Y-62363343D01*
X85113905Y-70937381D02*
X85113905Y-69937381D01*
X85494858Y-69937381D01*
X85590096Y-69985000D01*
X85637715Y-70032619D01*
X85685334Y-70127857D01*
X85685334Y-70270714D01*
X85637715Y-70365952D01*
X85590096Y-70413571D01*
X85494858Y-70461190D01*
X85113905Y-70461190D01*
X86018667Y-69937381D02*
X86637715Y-69937381D01*
X86304381Y-70318333D01*
X86447239Y-70318333D01*
X86542477Y-70365952D01*
X86590096Y-70413571D01*
X86637715Y-70508810D01*
X86637715Y-70746905D01*
X86590096Y-70842143D01*
X86542477Y-70889762D01*
X86447239Y-70937381D01*
X86161524Y-70937381D01*
X86066286Y-70889762D01*
X86018667Y-70842143D01*
X57554905Y-77668381D02*
X57554905Y-76668381D01*
X57935858Y-76668381D01*
X58031096Y-76716000D01*
X58078715Y-76763619D01*
X58126334Y-76858857D01*
X58126334Y-77001714D01*
X58078715Y-77096952D01*
X58031096Y-77144571D01*
X57935858Y-77192190D01*
X57554905Y-77192190D01*
X58983477Y-77001714D02*
X58983477Y-77668381D01*
X58745381Y-76620762D02*
X58507286Y-77335048D01*
X59126334Y-77335048D01*
X61301405Y-81732381D02*
X61301405Y-80732381D01*
X61682358Y-80732381D01*
X61777596Y-80780000D01*
X61825215Y-80827619D01*
X61872834Y-80922857D01*
X61872834Y-81065714D01*
X61825215Y-81160952D01*
X61777596Y-81208571D01*
X61682358Y-81256190D01*
X61301405Y-81256190D01*
X62777596Y-80732381D02*
X62301405Y-80732381D01*
X62253786Y-81208571D01*
X62301405Y-81160952D01*
X62396643Y-81113333D01*
X62634739Y-81113333D01*
X62729977Y-81160952D01*
X62777596Y-81208571D01*
X62825215Y-81303810D01*
X62825215Y-81541905D01*
X62777596Y-81637143D01*
X62729977Y-81684762D01*
X62634739Y-81732381D01*
X62396643Y-81732381D01*
X62301405Y-81684762D01*
X62253786Y-81637143D01*
X100163405Y-81160881D02*
X100163405Y-80160881D01*
X100544358Y-80160881D01*
X100639596Y-80208500D01*
X100687215Y-80256119D01*
X100734834Y-80351357D01*
X100734834Y-80494214D01*
X100687215Y-80589452D01*
X100639596Y-80637071D01*
X100544358Y-80684690D01*
X100163405Y-80684690D01*
X101591977Y-80160881D02*
X101401500Y-80160881D01*
X101306262Y-80208500D01*
X101258643Y-80256119D01*
X101163405Y-80398976D01*
X101115786Y-80589452D01*
X101115786Y-80970405D01*
X101163405Y-81065643D01*
X101211024Y-81113262D01*
X101306262Y-81160881D01*
X101496739Y-81160881D01*
X101591977Y-81113262D01*
X101639596Y-81065643D01*
X101687215Y-80970405D01*
X101687215Y-80732310D01*
X101639596Y-80637071D01*
X101591977Y-80589452D01*
X101496739Y-80541833D01*
X101306262Y-80541833D01*
X101211024Y-80589452D01*
X101163405Y-80637071D01*
X101115786Y-80732310D01*
X82517479Y-107956077D02*
X81517479Y-107956077D01*
X81517479Y-107575124D01*
X81565098Y-107479886D01*
X81612717Y-107432267D01*
X81707955Y-107384648D01*
X81850812Y-107384648D01*
X81946050Y-107432267D01*
X81993669Y-107479886D01*
X82041288Y-107575124D01*
X82041288Y-107956077D01*
X81946050Y-106813220D02*
X81898431Y-106908458D01*
X81850812Y-106956077D01*
X81755574Y-107003696D01*
X81707955Y-107003696D01*
X81612717Y-106956077D01*
X81565098Y-106908458D01*
X81517479Y-106813220D01*
X81517479Y-106622743D01*
X81565098Y-106527505D01*
X81612717Y-106479886D01*
X81707955Y-106432267D01*
X81755574Y-106432267D01*
X81850812Y-106479886D01*
X81898431Y-106527505D01*
X81946050Y-106622743D01*
X81946050Y-106813220D01*
X81993669Y-106908458D01*
X82041288Y-106956077D01*
X82136527Y-107003696D01*
X82327003Y-107003696D01*
X82422241Y-106956077D01*
X82469860Y-106908458D01*
X82517479Y-106813220D01*
X82517479Y-106622743D01*
X82469860Y-106527505D01*
X82422241Y-106479886D01*
X82327003Y-106432267D01*
X82136527Y-106432267D01*
X82041288Y-106479886D01*
X81993669Y-106527505D01*
X81946050Y-106622743D01*
X111529905Y-72905881D02*
X111529905Y-71905881D01*
X111910858Y-71905881D01*
X112006096Y-71953500D01*
X112053715Y-72001119D01*
X112101334Y-72096357D01*
X112101334Y-72239214D01*
X112053715Y-72334452D01*
X112006096Y-72382071D01*
X111910858Y-72429690D01*
X111529905Y-72429690D01*
X112577524Y-72905881D02*
X112768000Y-72905881D01*
X112863239Y-72858262D01*
X112910858Y-72810643D01*
X113006096Y-72667786D01*
X113053715Y-72477310D01*
X113053715Y-72096357D01*
X113006096Y-72001119D01*
X112958477Y-71953500D01*
X112863239Y-71905881D01*
X112672762Y-71905881D01*
X112577524Y-71953500D01*
X112529905Y-72001119D01*
X112482286Y-72096357D01*
X112482286Y-72334452D01*
X112529905Y-72429690D01*
X112577524Y-72477310D01*
X112672762Y-72524929D01*
X112863239Y-72524929D01*
X112958477Y-72477310D01*
X113006096Y-72429690D01*
X113053715Y-72334452D01*
X105656214Y-110307381D02*
X105656214Y-109307381D01*
X106037167Y-109307381D01*
X106132405Y-109355000D01*
X106180024Y-109402619D01*
X106227643Y-109497857D01*
X106227643Y-109640714D01*
X106180024Y-109735952D01*
X106132405Y-109783571D01*
X106037167Y-109831190D01*
X105656214Y-109831190D01*
X107180024Y-110307381D02*
X106608595Y-110307381D01*
X106894309Y-110307381D02*
X106894309Y-109307381D01*
X106799071Y-109450238D01*
X106703833Y-109545476D01*
X106608595Y-109593095D01*
X107799071Y-109307381D02*
X107894310Y-109307381D01*
X107989548Y-109355000D01*
X108037167Y-109402619D01*
X108084786Y-109497857D01*
X108132405Y-109688333D01*
X108132405Y-109926429D01*
X108084786Y-110116905D01*
X108037167Y-110212143D01*
X107989548Y-110259762D01*
X107894310Y-110307381D01*
X107799071Y-110307381D01*
X107703833Y-110259762D01*
X107656214Y-110212143D01*
X107608595Y-110116905D01*
X107560976Y-109926429D01*
X107560976Y-109688333D01*
X107608595Y-109497857D01*
X107656214Y-109402619D01*
X107703833Y-109355000D01*
X107799071Y-109307381D01*
X135120214Y-62301381D02*
X135120214Y-61301381D01*
X135501167Y-61301381D01*
X135596405Y-61349000D01*
X135644024Y-61396619D01*
X135691643Y-61491857D01*
X135691643Y-61634714D01*
X135644024Y-61729952D01*
X135596405Y-61777571D01*
X135501167Y-61825190D01*
X135120214Y-61825190D01*
X136644024Y-62301381D02*
X136072595Y-62301381D01*
X136358309Y-62301381D02*
X136358309Y-61301381D01*
X136263071Y-61444238D01*
X136167833Y-61539476D01*
X136072595Y-61587095D01*
X137596405Y-62301381D02*
X137024976Y-62301381D01*
X137310690Y-62301381D02*
X137310690Y-61301381D01*
X137215452Y-61444238D01*
X137120214Y-61539476D01*
X137024976Y-61587095D01*
X146804214Y-53093881D02*
X146804214Y-52093881D01*
X147185167Y-52093881D01*
X147280405Y-52141500D01*
X147328024Y-52189119D01*
X147375643Y-52284357D01*
X147375643Y-52427214D01*
X147328024Y-52522452D01*
X147280405Y-52570071D01*
X147185167Y-52617690D01*
X146804214Y-52617690D01*
X148328024Y-53093881D02*
X147756595Y-53093881D01*
X148042309Y-53093881D02*
X148042309Y-52093881D01*
X147947071Y-52236738D01*
X147851833Y-52331976D01*
X147756595Y-52379595D01*
X148708976Y-52189119D02*
X148756595Y-52141500D01*
X148851833Y-52093881D01*
X149089929Y-52093881D01*
X149185167Y-52141500D01*
X149232786Y-52189119D01*
X149280405Y-52284357D01*
X149280405Y-52379595D01*
X149232786Y-52522452D01*
X148661357Y-53093881D01*
X149280405Y-53093881D01*
X135247214Y-93924381D02*
X135247214Y-92924381D01*
X135628167Y-92924381D01*
X135723405Y-92972000D01*
X135771024Y-93019619D01*
X135818643Y-93114857D01*
X135818643Y-93257714D01*
X135771024Y-93352952D01*
X135723405Y-93400571D01*
X135628167Y-93448190D01*
X135247214Y-93448190D01*
X136771024Y-93924381D02*
X136199595Y-93924381D01*
X136485309Y-93924381D02*
X136485309Y-92924381D01*
X136390071Y-93067238D01*
X136294833Y-93162476D01*
X136199595Y-93210095D01*
X137104357Y-92924381D02*
X137723405Y-92924381D01*
X137390071Y-93305333D01*
X137532929Y-93305333D01*
X137628167Y-93352952D01*
X137675786Y-93400571D01*
X137723405Y-93495810D01*
X137723405Y-93733905D01*
X137675786Y-93829143D01*
X137628167Y-93876762D01*
X137532929Y-93924381D01*
X137247214Y-93924381D01*
X137151976Y-93876762D01*
X137104357Y-93829143D01*
X124936262Y-71921619D02*
X124841024Y-71874000D01*
X124745786Y-71778762D01*
X124602929Y-71635905D01*
X124507690Y-71588286D01*
X124412452Y-71588286D01*
X124460071Y-71826381D02*
X124364833Y-71778762D01*
X124269595Y-71683524D01*
X124221976Y-71493048D01*
X124221976Y-71159714D01*
X124269595Y-70969238D01*
X124364833Y-70874000D01*
X124460071Y-70826381D01*
X124650548Y-70826381D01*
X124745786Y-70874000D01*
X124841024Y-70969238D01*
X124888643Y-71159714D01*
X124888643Y-71493048D01*
X124841024Y-71683524D01*
X124745786Y-71778762D01*
X124650548Y-71826381D01*
X124460071Y-71826381D01*
X125841024Y-71826381D02*
X125269595Y-71826381D01*
X125555309Y-71826381D02*
X125555309Y-70826381D01*
X125460071Y-70969238D01*
X125364833Y-71064476D01*
X125269595Y-71112095D01*
X139549119Y-68421238D02*
X139501500Y-68516476D01*
X139406262Y-68611714D01*
X139263405Y-68754571D01*
X139215786Y-68849810D01*
X139215786Y-68945048D01*
X139453881Y-68897429D02*
X139406262Y-68992667D01*
X139311024Y-69087905D01*
X139120548Y-69135524D01*
X138787214Y-69135524D01*
X138596738Y-69087905D01*
X138501500Y-68992667D01*
X138453881Y-68897429D01*
X138453881Y-68706952D01*
X138501500Y-68611714D01*
X138596738Y-68516476D01*
X138787214Y-68468857D01*
X139120548Y-68468857D01*
X139311024Y-68516476D01*
X139406262Y-68611714D01*
X139453881Y-68706952D01*
X139453881Y-68897429D01*
X138549119Y-68087905D02*
X138501500Y-68040286D01*
X138453881Y-67945048D01*
X138453881Y-67706952D01*
X138501500Y-67611714D01*
X138549119Y-67564095D01*
X138644357Y-67516476D01*
X138739595Y-67516476D01*
X138882452Y-67564095D01*
X139453881Y-68135524D01*
X139453881Y-67516476D01*
X126726962Y-60110619D02*
X126631724Y-60063000D01*
X126536486Y-59967762D01*
X126393629Y-59824905D01*
X126298390Y-59777286D01*
X126203152Y-59777286D01*
X126250771Y-60015381D02*
X126155533Y-59967762D01*
X126060295Y-59872524D01*
X126012676Y-59682048D01*
X126012676Y-59348714D01*
X126060295Y-59158238D01*
X126155533Y-59063000D01*
X126250771Y-59015381D01*
X126441248Y-59015381D01*
X126536486Y-59063000D01*
X126631724Y-59158238D01*
X126679343Y-59348714D01*
X126679343Y-59682048D01*
X126631724Y-59872524D01*
X126536486Y-59967762D01*
X126441248Y-60015381D01*
X126250771Y-60015381D01*
X127012676Y-59015381D02*
X127631724Y-59015381D01*
X127298390Y-59396333D01*
X127441248Y-59396333D01*
X127536486Y-59443952D01*
X127584105Y-59491571D01*
X127631724Y-59586810D01*
X127631724Y-59824905D01*
X127584105Y-59920143D01*
X127536486Y-59967762D01*
X127441248Y-60015381D01*
X127155533Y-60015381D01*
X127060295Y-59967762D01*
X127012676Y-59920143D01*
X70936834Y-71572381D02*
X70603500Y-71096190D01*
X70365405Y-71572381D02*
X70365405Y-70572381D01*
X70746358Y-70572381D01*
X70841596Y-70620000D01*
X70889215Y-70667619D01*
X70936834Y-70762857D01*
X70936834Y-70905714D01*
X70889215Y-71000952D01*
X70841596Y-71048571D01*
X70746358Y-71096190D01*
X70365405Y-71096190D01*
X71889215Y-71572381D02*
X71317786Y-71572381D01*
X71603500Y-71572381D02*
X71603500Y-70572381D01*
X71508262Y-70715238D01*
X71413024Y-70810476D01*
X71317786Y-70858095D01*
X80485479Y-101796648D02*
X80009288Y-102129982D01*
X80485479Y-102368077D02*
X79485479Y-102368077D01*
X79485479Y-101987124D01*
X79533098Y-101891886D01*
X79580717Y-101844267D01*
X79675955Y-101796648D01*
X79818812Y-101796648D01*
X79914050Y-101844267D01*
X79961669Y-101891886D01*
X80009288Y-101987124D01*
X80009288Y-102368077D01*
X79485479Y-100939505D02*
X79485479Y-101129982D01*
X79533098Y-101225220D01*
X79580717Y-101272839D01*
X79723574Y-101368077D01*
X79914050Y-101415696D01*
X80295003Y-101415696D01*
X80390241Y-101368077D01*
X80437860Y-101320458D01*
X80485479Y-101225220D01*
X80485479Y-101034743D01*
X80437860Y-100939505D01*
X80390241Y-100891886D01*
X80295003Y-100844267D01*
X80056908Y-100844267D01*
X79961669Y-100891886D01*
X79914050Y-100939505D01*
X79866431Y-101034743D01*
X79866431Y-101225220D01*
X79914050Y-101320458D01*
X79961669Y-101368077D01*
X80056908Y-101415696D01*
X97004834Y-127960381D02*
X96671500Y-127484190D01*
X96433405Y-127960381D02*
X96433405Y-126960381D01*
X96814358Y-126960381D01*
X96909596Y-127008000D01*
X96957215Y-127055619D01*
X97004834Y-127150857D01*
X97004834Y-127293714D01*
X96957215Y-127388952D01*
X96909596Y-127436571D01*
X96814358Y-127484190D01*
X96433405Y-127484190D01*
X97576262Y-127388952D02*
X97481024Y-127341333D01*
X97433405Y-127293714D01*
X97385786Y-127198476D01*
X97385786Y-127150857D01*
X97433405Y-127055619D01*
X97481024Y-127008000D01*
X97576262Y-126960381D01*
X97766739Y-126960381D01*
X97861977Y-127008000D01*
X97909596Y-127055619D01*
X97957215Y-127150857D01*
X97957215Y-127198476D01*
X97909596Y-127293714D01*
X97861977Y-127341333D01*
X97766739Y-127388952D01*
X97576262Y-127388952D01*
X97481024Y-127436571D01*
X97433405Y-127484190D01*
X97385786Y-127579429D01*
X97385786Y-127769905D01*
X97433405Y-127865143D01*
X97481024Y-127912762D01*
X97576262Y-127960381D01*
X97766739Y-127960381D01*
X97861977Y-127912762D01*
X97909596Y-127865143D01*
X97957215Y-127769905D01*
X97957215Y-127579429D01*
X97909596Y-127484190D01*
X97861977Y-127436571D01*
X97766739Y-127388952D01*
X88772545Y-105578399D02*
X88439211Y-105102208D01*
X88201116Y-105578399D02*
X88201116Y-104578399D01*
X88582069Y-104578399D01*
X88677307Y-104626018D01*
X88724926Y-104673637D01*
X88772545Y-104768875D01*
X88772545Y-104911732D01*
X88724926Y-105006970D01*
X88677307Y-105054589D01*
X88582069Y-105102208D01*
X88201116Y-105102208D01*
X89724926Y-105578399D02*
X89153497Y-105578399D01*
X89439211Y-105578399D02*
X89439211Y-104578399D01*
X89343973Y-104721256D01*
X89248735Y-104816494D01*
X89153497Y-104864113D01*
X90582069Y-104911732D02*
X90582069Y-105578399D01*
X90343973Y-104530780D02*
X90105878Y-105245066D01*
X90724926Y-105245066D01*
X80510143Y-119900381D02*
X80176809Y-119424190D01*
X79938714Y-119900381D02*
X79938714Y-118900381D01*
X80319667Y-118900381D01*
X80414905Y-118948000D01*
X80462524Y-118995619D01*
X80510143Y-119090857D01*
X80510143Y-119233714D01*
X80462524Y-119328952D01*
X80414905Y-119376571D01*
X80319667Y-119424190D01*
X79938714Y-119424190D01*
X81462524Y-119900381D02*
X80891095Y-119900381D01*
X81176809Y-119900381D02*
X81176809Y-118900381D01*
X81081571Y-119043238D01*
X80986333Y-119138476D01*
X80891095Y-119186095D01*
X82367286Y-118900381D02*
X81891095Y-118900381D01*
X81843476Y-119376571D01*
X81891095Y-119328952D01*
X81986333Y-119281333D01*
X82224429Y-119281333D01*
X82319667Y-119328952D01*
X82367286Y-119376571D01*
X82414905Y-119471810D01*
X82414905Y-119709905D01*
X82367286Y-119805143D01*
X82319667Y-119852762D01*
X82224429Y-119900381D01*
X81986333Y-119900381D01*
X81891095Y-119852762D01*
X81843476Y-119805143D01*
X124655343Y-98064581D02*
X124322009Y-97588390D01*
X124083914Y-98064581D02*
X124083914Y-97064581D01*
X124464867Y-97064581D01*
X124560105Y-97112200D01*
X124607724Y-97159819D01*
X124655343Y-97255057D01*
X124655343Y-97397914D01*
X124607724Y-97493152D01*
X124560105Y-97540771D01*
X124464867Y-97588390D01*
X124083914Y-97588390D01*
X125607724Y-98064581D02*
X125036295Y-98064581D01*
X125322009Y-98064581D02*
X125322009Y-97064581D01*
X125226771Y-97207438D01*
X125131533Y-97302676D01*
X125036295Y-97350295D01*
X126464867Y-97064581D02*
X126274390Y-97064581D01*
X126179152Y-97112200D01*
X126131533Y-97159819D01*
X126036295Y-97302676D01*
X125988676Y-97493152D01*
X125988676Y-97874105D01*
X126036295Y-97969343D01*
X126083914Y-98016962D01*
X126179152Y-98064581D01*
X126369629Y-98064581D01*
X126464867Y-98016962D01*
X126512486Y-97969343D01*
X126560105Y-97874105D01*
X126560105Y-97636010D01*
X126512486Y-97540771D01*
X126464867Y-97493152D01*
X126369629Y-97445533D01*
X126179152Y-97445533D01*
X126083914Y-97493152D01*
X126036295Y-97540771D01*
X125988676Y-97636010D01*
X101836695Y-124102762D02*
X101979552Y-124150381D01*
X102217648Y-124150381D01*
X102312886Y-124102762D01*
X102360505Y-124055143D01*
X102408124Y-123959905D01*
X102408124Y-123864667D01*
X102360505Y-123769429D01*
X102312886Y-123721810D01*
X102217648Y-123674190D01*
X102027171Y-123626571D01*
X101931933Y-123578952D01*
X101884314Y-123531333D01*
X101836695Y-123436095D01*
X101836695Y-123340857D01*
X101884314Y-123245619D01*
X101931933Y-123198000D01*
X102027171Y-123150381D01*
X102265267Y-123150381D01*
X102408124Y-123198000D01*
X102836695Y-124150381D02*
X102836695Y-123150381D01*
X103217648Y-123150381D01*
X103312886Y-123198000D01*
X103360505Y-123245619D01*
X103408124Y-123340857D01*
X103408124Y-123483714D01*
X103360505Y-123578952D01*
X103312886Y-123626571D01*
X103217648Y-123674190D01*
X102836695Y-123674190D01*
X104360505Y-124150381D02*
X103789076Y-124150381D01*
X104074790Y-124150381D02*
X104074790Y-123150381D01*
X103979552Y-123293238D01*
X103884314Y-123388476D01*
X103789076Y-123436095D01*
X101671429Y-112786112D02*
X101671429Y-112024207D01*
X102052381Y-112405159D02*
X101290476Y-112405159D01*
X61912667Y-69111762D02*
X62055524Y-69159381D01*
X62293620Y-69159381D01*
X62388858Y-69111762D01*
X62436477Y-69064143D01*
X62484096Y-68968905D01*
X62484096Y-68873667D01*
X62436477Y-68778429D01*
X62388858Y-68730810D01*
X62293620Y-68683190D01*
X62103143Y-68635571D01*
X62007905Y-68587952D01*
X61960286Y-68540333D01*
X61912667Y-68445095D01*
X61912667Y-68349857D01*
X61960286Y-68254619D01*
X62007905Y-68207000D01*
X62103143Y-68159381D01*
X62341239Y-68159381D01*
X62484096Y-68207000D01*
X62817429Y-68159381D02*
X63055524Y-69159381D01*
X63246001Y-68445095D01*
X63436477Y-69159381D01*
X63674572Y-68159381D01*
X64579334Y-69159381D02*
X64007905Y-69159381D01*
X64293619Y-69159381D02*
X64293619Y-68159381D01*
X64198381Y-68302238D01*
X64103143Y-68397476D01*
X64007905Y-68445095D01*
X64920762Y-119951333D02*
X64968381Y-119808476D01*
X64968381Y-119570380D01*
X64920762Y-119475142D01*
X64873143Y-119427523D01*
X64777905Y-119379904D01*
X64682667Y-119379904D01*
X64587429Y-119427523D01*
X64539810Y-119475142D01*
X64492190Y-119570380D01*
X64444571Y-119760857D01*
X64396952Y-119856095D01*
X64349333Y-119903714D01*
X64254095Y-119951333D01*
X64158857Y-119951333D01*
X64063619Y-119903714D01*
X64016000Y-119856095D01*
X63968381Y-119760857D01*
X63968381Y-119522761D01*
X64016000Y-119379904D01*
X63968381Y-119046571D02*
X64968381Y-118808476D01*
X64254095Y-118617999D01*
X64968381Y-118427523D01*
X63968381Y-118189428D01*
X64063619Y-117856095D02*
X64016000Y-117808476D01*
X63968381Y-117713238D01*
X63968381Y-117475142D01*
X64016000Y-117379904D01*
X64063619Y-117332285D01*
X64158857Y-117284666D01*
X64254095Y-117284666D01*
X64396952Y-117332285D01*
X64968381Y-117903714D01*
X64968381Y-117284666D01*
X64857262Y-105282833D02*
X64904881Y-105139976D01*
X64904881Y-104901880D01*
X64857262Y-104806642D01*
X64809643Y-104759023D01*
X64714405Y-104711404D01*
X64619167Y-104711404D01*
X64523929Y-104759023D01*
X64476310Y-104806642D01*
X64428690Y-104901880D01*
X64381071Y-105092357D01*
X64333452Y-105187595D01*
X64285833Y-105235214D01*
X64190595Y-105282833D01*
X64095357Y-105282833D01*
X64000119Y-105235214D01*
X63952500Y-105187595D01*
X63904881Y-105092357D01*
X63904881Y-104854261D01*
X63952500Y-104711404D01*
X63904881Y-104378071D02*
X64904881Y-104139976D01*
X64190595Y-103949499D01*
X64904881Y-103759023D01*
X63904881Y-103520928D01*
X63904881Y-103235214D02*
X63904881Y-102616166D01*
X64285833Y-102949500D01*
X64285833Y-102806642D01*
X64333452Y-102711404D01*
X64381071Y-102663785D01*
X64476310Y-102616166D01*
X64714405Y-102616166D01*
X64809643Y-102663785D01*
X64857262Y-102711404D01*
X64904881Y-102806642D01*
X64904881Y-103092357D01*
X64857262Y-103187595D01*
X64809643Y-103235214D01*
X68643595Y-74692381D02*
X68643595Y-75501905D01*
X68691214Y-75597143D01*
X68738833Y-75644762D01*
X68834071Y-75692381D01*
X69024548Y-75692381D01*
X69119786Y-75644762D01*
X69167405Y-75597143D01*
X69215024Y-75501905D01*
X69215024Y-74692381D01*
X70215024Y-75692381D02*
X69643595Y-75692381D01*
X69929309Y-75692381D02*
X69929309Y-74692381D01*
X69834071Y-74835238D01*
X69738833Y-74930476D01*
X69643595Y-74978095D01*
X111315595Y-110188881D02*
X111315595Y-110998405D01*
X111363214Y-111093643D01*
X111410833Y-111141262D01*
X111506071Y-111188881D01*
X111696548Y-111188881D01*
X111791786Y-111141262D01*
X111839405Y-111093643D01*
X111887024Y-110998405D01*
X111887024Y-110188881D01*
X112839405Y-110188881D02*
X112363214Y-110188881D01*
X112315595Y-110665071D01*
X112363214Y-110617452D01*
X112458452Y-110569833D01*
X112696548Y-110569833D01*
X112791786Y-110617452D01*
X112839405Y-110665071D01*
X112887024Y-110760310D01*
X112887024Y-110998405D01*
X112839405Y-111093643D01*
X112791786Y-111141262D01*
X112696548Y-111188881D01*
X112458452Y-111188881D01*
X112363214Y-111141262D01*
X112315595Y-111093643D01*
X70204627Y-105695572D02*
X70204627Y-106171763D01*
X69871294Y-105171763D02*
X70204627Y-105695572D01*
X70537961Y-105171763D01*
X71395104Y-106171763D02*
X70823675Y-106171763D01*
X71109389Y-106171763D02*
X71109389Y-105171763D01*
X71014151Y-105314620D01*
X70918913Y-105409858D01*
X70823675Y-105457477D01*
X67734834Y-85769143D02*
X67687215Y-85816762D01*
X67544358Y-85864381D01*
X67449120Y-85864381D01*
X67306262Y-85816762D01*
X67211024Y-85721524D01*
X67163405Y-85626286D01*
X67115786Y-85435810D01*
X67115786Y-85292952D01*
X67163405Y-85102476D01*
X67211024Y-85007238D01*
X67306262Y-84912000D01*
X67449120Y-84864381D01*
X67544358Y-84864381D01*
X67687215Y-84912000D01*
X67734834Y-84959619D01*
X68115786Y-84959619D02*
X68163405Y-84912000D01*
X68258643Y-84864381D01*
X68496739Y-84864381D01*
X68591977Y-84912000D01*
X68639596Y-84959619D01*
X68687215Y-85054857D01*
X68687215Y-85150095D01*
X68639596Y-85292952D01*
X68068167Y-85864381D01*
X68687215Y-85864381D01*
X67260743Y-123071866D02*
X67308362Y-123119485D01*
X67355981Y-123262342D01*
X67355981Y-123357580D01*
X67308362Y-123500438D01*
X67213124Y-123595676D01*
X67117886Y-123643295D01*
X66927410Y-123690914D01*
X66784552Y-123690914D01*
X66594076Y-123643295D01*
X66498838Y-123595676D01*
X66403600Y-123500438D01*
X66355981Y-123357580D01*
X66355981Y-123262342D01*
X66403600Y-123119485D01*
X66451219Y-123071866D01*
X66355981Y-122167104D02*
X66355981Y-122643295D01*
X66832171Y-122690914D01*
X66784552Y-122643295D01*
X66736933Y-122548057D01*
X66736933Y-122309961D01*
X66784552Y-122214723D01*
X66832171Y-122167104D01*
X66927410Y-122119485D01*
X67165505Y-122119485D01*
X67260743Y-122167104D01*
X67308362Y-122214723D01*
X67355981Y-122309961D01*
X67355981Y-122548057D01*
X67308362Y-122643295D01*
X67260743Y-122690914D01*
X77977241Y-102050648D02*
X78024860Y-102098267D01*
X78072479Y-102241124D01*
X78072479Y-102336362D01*
X78024860Y-102479220D01*
X77929622Y-102574458D01*
X77834384Y-102622077D01*
X77643908Y-102669696D01*
X77501050Y-102669696D01*
X77310574Y-102622077D01*
X77215336Y-102574458D01*
X77120098Y-102479220D01*
X77072479Y-102336362D01*
X77072479Y-102241124D01*
X77120098Y-102098267D01*
X77167717Y-102050648D01*
X77072479Y-101193505D02*
X77072479Y-101383982D01*
X77120098Y-101479220D01*
X77167717Y-101526839D01*
X77310574Y-101622077D01*
X77501050Y-101669696D01*
X77882003Y-101669696D01*
X77977241Y-101622077D01*
X78024860Y-101574458D01*
X78072479Y-101479220D01*
X78072479Y-101288743D01*
X78024860Y-101193505D01*
X77977241Y-101145886D01*
X77882003Y-101098267D01*
X77643908Y-101098267D01*
X77548669Y-101145886D01*
X77501050Y-101193505D01*
X77453431Y-101288743D01*
X77453431Y-101479220D01*
X77501050Y-101574458D01*
X77548669Y-101622077D01*
X77643908Y-101669696D01*
X112228334Y-121964143D02*
X112180715Y-122011762D01*
X112037858Y-122059381D01*
X111942620Y-122059381D01*
X111799762Y-122011762D01*
X111704524Y-121916524D01*
X111656905Y-121821286D01*
X111609286Y-121630810D01*
X111609286Y-121487952D01*
X111656905Y-121297476D01*
X111704524Y-121202238D01*
X111799762Y-121107000D01*
X111942620Y-121059381D01*
X112037858Y-121059381D01*
X112180715Y-121107000D01*
X112228334Y-121154619D01*
X112799762Y-121487952D02*
X112704524Y-121440333D01*
X112656905Y-121392714D01*
X112609286Y-121297476D01*
X112609286Y-121249857D01*
X112656905Y-121154619D01*
X112704524Y-121107000D01*
X112799762Y-121059381D01*
X112990239Y-121059381D01*
X113085477Y-121107000D01*
X113133096Y-121154619D01*
X113180715Y-121249857D01*
X113180715Y-121297476D01*
X113133096Y-121392714D01*
X113085477Y-121440333D01*
X112990239Y-121487952D01*
X112799762Y-121487952D01*
X112704524Y-121535571D01*
X112656905Y-121583190D01*
X112609286Y-121678429D01*
X112609286Y-121868905D01*
X112656905Y-121964143D01*
X112704524Y-122011762D01*
X112799762Y-122059381D01*
X112990239Y-122059381D01*
X113085477Y-122011762D01*
X113133096Y-121964143D01*
X113180715Y-121868905D01*
X113180715Y-121678429D01*
X113133096Y-121583190D01*
X113085477Y-121535571D01*
X112990239Y-121487952D01*
X127420762Y-107180641D02*
X127087428Y-106704450D01*
X126849333Y-107180641D02*
X126849333Y-106180641D01*
X127230286Y-106180641D01*
X127325524Y-106228260D01*
X127373143Y-106275879D01*
X127420762Y-106371117D01*
X127420762Y-106513974D01*
X127373143Y-106609212D01*
X127325524Y-106656831D01*
X127230286Y-106704450D01*
X126849333Y-106704450D01*
X127706476Y-106180641D02*
X128039809Y-107180641D01*
X128373143Y-106180641D01*
X129230286Y-107180641D02*
X128658857Y-107180641D01*
X128944571Y-107180641D02*
X128944571Y-106180641D01*
X128849333Y-106323498D01*
X128754095Y-106418736D01*
X128658857Y-106466355D01*
X117784714Y-98064581D02*
X117784714Y-97064581D01*
X118165667Y-97064581D01*
X118260905Y-97112200D01*
X118308524Y-97159819D01*
X118356143Y-97255057D01*
X118356143Y-97397914D01*
X118308524Y-97493152D01*
X118260905Y-97540771D01*
X118165667Y-97588390D01*
X117784714Y-97588390D01*
X119308524Y-98064581D02*
X118737095Y-98064581D01*
X119022809Y-98064581D02*
X119022809Y-97064581D01*
X118927571Y-97207438D01*
X118832333Y-97302676D01*
X118737095Y-97350295D01*
X120165667Y-97397914D02*
X120165667Y-98064581D01*
X119927571Y-97016962D02*
X119689476Y-97731248D01*
X120308524Y-97731248D01*
X75271334Y-82653143D02*
X75223715Y-82700762D01*
X75080858Y-82748381D01*
X74985620Y-82748381D01*
X74842762Y-82700762D01*
X74747524Y-82605524D01*
X74699905Y-82510286D01*
X74652286Y-82319810D01*
X74652286Y-82176952D01*
X74699905Y-81986476D01*
X74747524Y-81891238D01*
X74842762Y-81796000D01*
X74985620Y-81748381D01*
X75080858Y-81748381D01*
X75223715Y-81796000D01*
X75271334Y-81843619D01*
X75604667Y-81748381D02*
X76223715Y-81748381D01*
X75890381Y-82129333D01*
X76033239Y-82129333D01*
X76128477Y-82176952D01*
X76176096Y-82224571D01*
X76223715Y-82319810D01*
X76223715Y-82557905D01*
X76176096Y-82653143D01*
X76128477Y-82700762D01*
X76033239Y-82748381D01*
X75747524Y-82748381D01*
X75652286Y-82700762D01*
X75604667Y-82653143D01*
X89876334Y-88876143D02*
X89828715Y-88923762D01*
X89685858Y-88971381D01*
X89590620Y-88971381D01*
X89447762Y-88923762D01*
X89352524Y-88828524D01*
X89304905Y-88733286D01*
X89257286Y-88542810D01*
X89257286Y-88399952D01*
X89304905Y-88209476D01*
X89352524Y-88114238D01*
X89447762Y-88019000D01*
X89590620Y-87971381D01*
X89685858Y-87971381D01*
X89828715Y-88019000D01*
X89876334Y-88066619D01*
X90733477Y-88304714D02*
X90733477Y-88971381D01*
X90495381Y-87923762D02*
X90257286Y-88638048D01*
X90876334Y-88638048D01*
X68685381Y-123443905D02*
X69494905Y-123443905D01*
X69590143Y-123396286D01*
X69637762Y-123348667D01*
X69685381Y-123253429D01*
X69685381Y-123062952D01*
X69637762Y-122967714D01*
X69590143Y-122920095D01*
X69494905Y-122872476D01*
X68685381Y-122872476D01*
X68685381Y-122491524D02*
X68685381Y-121872476D01*
X69066333Y-122205810D01*
X69066333Y-122062952D01*
X69113952Y-121967714D01*
X69161571Y-121920095D01*
X69256810Y-121872476D01*
X69494905Y-121872476D01*
X69590143Y-121920095D01*
X69637762Y-121967714D01*
X69685381Y-122062952D01*
X69685381Y-122348667D01*
X69637762Y-122443905D01*
X69590143Y-122491524D01*
X77978095Y-70445381D02*
X77978095Y-71254905D01*
X78025714Y-71350143D01*
X78073333Y-71397762D01*
X78168571Y-71445381D01*
X78359048Y-71445381D01*
X78454286Y-71397762D01*
X78501905Y-71350143D01*
X78549524Y-71254905D01*
X78549524Y-70445381D01*
X79454286Y-70778714D02*
X79454286Y-71445381D01*
X79216190Y-70397762D02*
X78978095Y-71112048D01*
X79597143Y-71112048D01*
X97083714Y-95041981D02*
X97083714Y-94041981D01*
X97464667Y-94041981D01*
X97559905Y-94089600D01*
X97607524Y-94137219D01*
X97655143Y-94232457D01*
X97655143Y-94375314D01*
X97607524Y-94470552D01*
X97559905Y-94518171D01*
X97464667Y-94565790D01*
X97083714Y-94565790D01*
X98607524Y-95041981D02*
X98036095Y-95041981D01*
X98321809Y-95041981D02*
X98321809Y-94041981D01*
X98226571Y-94184838D01*
X98131333Y-94280076D01*
X98036095Y-94327695D01*
X99512286Y-94041981D02*
X99036095Y-94041981D01*
X98988476Y-94518171D01*
X99036095Y-94470552D01*
X99131333Y-94422933D01*
X99369429Y-94422933D01*
X99464667Y-94470552D01*
X99512286Y-94518171D01*
X99559905Y-94613410D01*
X99559905Y-94851505D01*
X99512286Y-94946743D01*
X99464667Y-94994362D01*
X99369429Y-95041981D01*
X99131333Y-95041981D01*
X99036095Y-94994362D01*
X98988476Y-94946743D01*
X75214314Y-63012581D02*
X75214314Y-62012581D01*
X75595267Y-62012581D01*
X75690505Y-62060200D01*
X75738124Y-62107819D01*
X75785743Y-62203057D01*
X75785743Y-62345914D01*
X75738124Y-62441152D01*
X75690505Y-62488771D01*
X75595267Y-62536390D01*
X75214314Y-62536390D01*
X76738124Y-63012581D02*
X76166695Y-63012581D01*
X76452409Y-63012581D02*
X76452409Y-62012581D01*
X76357171Y-62155438D01*
X76261933Y-62250676D01*
X76166695Y-62298295D01*
X77595267Y-62012581D02*
X77404790Y-62012581D01*
X77309552Y-62060200D01*
X77261933Y-62107819D01*
X77166695Y-62250676D01*
X77119076Y-62441152D01*
X77119076Y-62822105D01*
X77166695Y-62917343D01*
X77214314Y-62964962D01*
X77309552Y-63012581D01*
X77500029Y-63012581D01*
X77595267Y-62964962D01*
X77642886Y-62917343D01*
X77690505Y-62822105D01*
X77690505Y-62584010D01*
X77642886Y-62488771D01*
X77595267Y-62441152D01*
X77500029Y-62393533D01*
X77309552Y-62393533D01*
X77214314Y-62441152D01*
X77166695Y-62488771D01*
X77119076Y-62584010D01*
X62565114Y-129535181D02*
X62565114Y-128535181D01*
X62803209Y-128535181D01*
X62946067Y-128582800D01*
X63041305Y-128678038D01*
X63088924Y-128773276D01*
X63136543Y-128963752D01*
X63136543Y-129106610D01*
X63088924Y-129297086D01*
X63041305Y-129392324D01*
X62946067Y-129487562D01*
X62803209Y-129535181D01*
X62565114Y-129535181D01*
X63517495Y-129487562D02*
X63660352Y-129535181D01*
X63898448Y-129535181D01*
X63993686Y-129487562D01*
X64041305Y-129439943D01*
X64088924Y-129344705D01*
X64088924Y-129249467D01*
X64041305Y-129154229D01*
X63993686Y-129106610D01*
X63898448Y-129058990D01*
X63707971Y-129011371D01*
X63612733Y-128963752D01*
X63565114Y-128916133D01*
X63517495Y-128820895D01*
X63517495Y-128725657D01*
X63565114Y-128630419D01*
X63612733Y-128582800D01*
X63707971Y-128535181D01*
X63946067Y-128535181D01*
X64088924Y-128582800D01*
X65041305Y-129535181D02*
X64469876Y-129535181D01*
X64755590Y-129535181D02*
X64755590Y-128535181D01*
X64660352Y-128678038D01*
X64565114Y-128773276D01*
X64469876Y-128820895D01*
M02*
