%TF.GenerationSoftware,KiCad,Pcbnew,4.0.1-stable*%
%TF.CreationDate,2016-02-04T12:17:51-06:00*%
%TF.ProjectId,GMCounter,474D436F756E7465722E6B696361645F,rev?*%
%TF.FileFunction,Soldermask,Bot*%
%FSLAX46Y46*%
G04 Gerber Fmt 4.6, Leading zero omitted, Abs format (unit mm)*
G04 Created by KiCad (PCBNEW 4.0.1-stable) date 4/02/2016 12:17:51*
%MOMM*%
G01*
G04 APERTURE LIST*
%ADD10C,0.100000*%
%ADD11C,1.000760*%
%ADD12C,1.501140*%
%ADD13R,1.600000X1.600000*%
%ADD14C,1.600000*%
%ADD15C,1.699260*%
%ADD16R,1.699260X1.699260*%
%ADD17C,1.998980*%
%ADD18R,1.998980X1.998980*%
%ADD19C,2.301240*%
%ADD20R,2.032000X2.032000*%
%ADD21O,2.032000X2.032000*%
%ADD22R,1.727200X2.032000*%
%ADD23O,1.727200X2.032000*%
%ADD24C,1.524000*%
%ADD25O,3.500120X5.501640*%
%ADD26R,1.500000X1.300000*%
%ADD27R,1.300000X1.500000*%
%ADD28C,2.000000*%
%ADD29O,1.998980X1.998980*%
%ADD30R,1.550000X0.600000*%
%ADD31C,1.000760*%
%ADD32R,1.250000X1.500000*%
%ADD33O,4.000500X2.999740*%
%ADD34R,2.235200X2.235200*%
G04 APERTURE END LIST*
D10*
X152844500Y-42862500D02*
X152844500Y-136842500D01*
X53784500Y-42862500D02*
X152844500Y-42862500D01*
X53784500Y-136842500D02*
X53784500Y-42862500D01*
X152844500Y-136842500D02*
X53784500Y-136842500D01*
D11*
X86106000Y-118999000D03*
X87376000Y-120269000D03*
X84836000Y-120269000D03*
D12*
X71183500Y-67691000D03*
D13*
X127571500Y-87122000D03*
D14*
X105219500Y-87122000D03*
D15*
X84836000Y-123952000D03*
D16*
X94996000Y-123952000D03*
D17*
X134048500Y-87122000D03*
D18*
X144208500Y-87122000D03*
D17*
X144843500Y-77142340D03*
D19*
X144843500Y-52141120D03*
D20*
X108399990Y-52862058D03*
D21*
X110939990Y-52862058D03*
D12*
X113987990Y-63022058D03*
X85344000Y-71755000D03*
X58547000Y-78740000D03*
D20*
X62039500Y-84074000D03*
D21*
X62039500Y-86614000D03*
D12*
X101600000Y-79057500D03*
D22*
X84986098Y-110011982D03*
D23*
X82446098Y-110011982D03*
X79906098Y-110011982D03*
X77366098Y-110011982D03*
D12*
X110299500Y-72517000D03*
X106172000Y-111379000D03*
X136207500Y-63246000D03*
X147955000Y-54165500D03*
X134048500Y-92583000D03*
D11*
X122364500Y-69723000D03*
X121094500Y-68453000D03*
X123634500Y-68453000D03*
D24*
X136207500Y-69469000D03*
X136207500Y-66929000D03*
X136207500Y-72009000D03*
D25*
X130111500Y-54991000D03*
X135699500Y-54991000D03*
X124523500Y-54991000D03*
D26*
X108225990Y-63022058D03*
X105525990Y-63022058D03*
D27*
X105478990Y-60482058D03*
X105478990Y-57782058D03*
X96837500Y-79408000D03*
X96837500Y-76708000D03*
X96837500Y-71214000D03*
X96837500Y-73914000D03*
D26*
X113902500Y-75438000D03*
X116602500Y-75438000D03*
X128935500Y-72644000D03*
X131635500Y-72644000D03*
X122317500Y-75438000D03*
X119617500Y-75438000D03*
X131541500Y-68453000D03*
X128841500Y-68453000D03*
X128808500Y-62738000D03*
X131508500Y-62738000D03*
D17*
X130365500Y-95504000D03*
X120205500Y-95504000D03*
D28*
X99060000Y-112415320D03*
X99060000Y-120015000D03*
D29*
X64325500Y-64643000D03*
D18*
X61785500Y-64643000D03*
D29*
X60515500Y-117411500D03*
D18*
X60515500Y-119951500D03*
D29*
X60515500Y-102679500D03*
D18*
X60515500Y-105219500D03*
D30*
X104170500Y-77978000D03*
X104170500Y-76708000D03*
X104170500Y-75438000D03*
X104170500Y-74168000D03*
X109570500Y-74168000D03*
X109570500Y-75438000D03*
X109570500Y-76708000D03*
X109570500Y-77978000D03*
D31*
X69293753Y-117957327D02*
X69647575Y-117603505D01*
X71216221Y-117603505D02*
X71570043Y-117957327D01*
D32*
X110939990Y-63022058D03*
X110939990Y-60522058D03*
D33*
X127381000Y-116840000D03*
X127381000Y-121841260D03*
X127381000Y-111838740D03*
D34*
X115697000Y-96647000D03*
D17*
X74168000Y-88646000D03*
X73439020Y-90147140D03*
X76708000Y-88646000D03*
X77436980Y-87144860D03*
X86233000Y-82042000D03*
X84731860Y-81313020D03*
X86233000Y-84582000D03*
X87734140Y-85310980D03*
D34*
X98298000Y-97002600D03*
D12*
X78308200Y-63779400D03*
D22*
X65565020Y-132397500D03*
D23*
X68105020Y-132397500D03*
X70645020Y-132397500D03*
X73185020Y-132397500D03*
X75725020Y-132397500D03*
X78265020Y-132397500D03*
X80805020Y-132397500D03*
X83345020Y-132397500D03*
X85885020Y-132397500D03*
X88425020Y-132397500D03*
X90965020Y-132397500D03*
X93505020Y-132397500D03*
X96045020Y-132397500D03*
X98585020Y-132397500D03*
X101125020Y-132397500D03*
X103665020Y-132397500D03*
M02*
