%TF.GenerationSoftware,KiCad,Pcbnew,4.0.1-stable*%
%TF.CreationDate,2016-02-04T12:17:51-06:00*%
%TF.ProjectId,GMCounter,474D436F756E7465722E6B696361645F,rev?*%
%TF.FileFunction,Soldermask,Top*%
%FSLAX46Y46*%
G04 Gerber Fmt 4.6, Leading zero omitted, Abs format (unit mm)*
G04 Created by KiCad (PCBNEW 4.0.1-stable) date 4/02/2016 12:17:51*
%MOMM*%
G01*
G04 APERTURE LIST*
%ADD10C,0.100000*%
%ADD11C,0.010000*%
%ADD12C,1.000760*%
%ADD13C,1.501140*%
%ADD14R,1.600000X1.600000*%
%ADD15C,1.600000*%
%ADD16R,1.800860X1.597660*%
%ADD17C,1.699260*%
%ADD18R,1.699260X1.699260*%
%ADD19C,1.998980*%
%ADD20R,1.998980X1.998980*%
%ADD21C,2.301240*%
%ADD22R,2.032000X2.032000*%
%ADD23O,2.032000X2.032000*%
%ADD24R,1.727200X2.032000*%
%ADD25O,1.727200X2.032000*%
%ADD26C,1.524000*%
%ADD27O,3.500120X5.501640*%
%ADD28R,1.500000X1.300000*%
%ADD29R,1.300000X1.500000*%
%ADD30C,2.000000*%
%ADD31O,1.998980X1.998980*%
%ADD32R,1.550000X0.600000*%
%ADD33C,1.000760*%
%ADD34R,1.500000X1.250000*%
%ADD35R,1.250000X1.500000*%
%ADD36O,4.000500X2.999740*%
%ADD37R,2.235200X2.235200*%
%ADD38R,0.450000X1.450000*%
%ADD39R,3.657600X2.032000*%
%ADD40R,1.016000X2.032000*%
%ADD41C,0.254000*%
G04 APERTURE END LIST*
D10*
X152844500Y-42862500D02*
X152844500Y-136842500D01*
X53784500Y-42862500D02*
X152844500Y-42862500D01*
X53784500Y-136842500D02*
X53784500Y-42862500D01*
X152844500Y-136842500D02*
X53784500Y-136842500D01*
D11*
G36*
X63964332Y-45709365D02*
X64094264Y-45740978D01*
X64144661Y-45761886D01*
X64227493Y-45813662D01*
X64323563Y-45892147D01*
X64423528Y-45988242D01*
X64518048Y-46092846D01*
X64597783Y-46196859D01*
X64610325Y-46215552D01*
X64741989Y-46438542D01*
X64870665Y-46698628D01*
X64994493Y-46990588D01*
X65111614Y-47309198D01*
X65220169Y-47649237D01*
X65318297Y-48005482D01*
X65404139Y-48372711D01*
X65438531Y-48541529D01*
X65458844Y-48635722D01*
X65476444Y-48692452D01*
X65493032Y-48716357D01*
X65502949Y-48716976D01*
X65531528Y-48701194D01*
X65586392Y-48667140D01*
X65658806Y-48620329D01*
X65716798Y-48581897D01*
X66060096Y-48361243D01*
X66400172Y-48160501D01*
X66732534Y-47981909D01*
X67052687Y-47827705D01*
X67356136Y-47700126D01*
X67638389Y-47601410D01*
X67752824Y-47568203D01*
X67866336Y-47540658D01*
X67971222Y-47523384D01*
X68084985Y-47514187D01*
X68209583Y-47511002D01*
X68319992Y-47510640D01*
X68399369Y-47513169D01*
X68458998Y-47520308D01*
X68510166Y-47533778D01*
X68564158Y-47555296D01*
X68596445Y-47569937D01*
X68730135Y-47649818D01*
X68832286Y-47753977D01*
X68904310Y-47876821D01*
X68923052Y-47922657D01*
X68935744Y-47970548D01*
X68943458Y-48029864D01*
X68947266Y-48109977D01*
X68948240Y-48220258D01*
X68948142Y-48260000D01*
X68946276Y-48390453D01*
X68940760Y-48492706D01*
X68929930Y-48580843D01*
X68912125Y-48668950D01*
X68889427Y-48757416D01*
X68798969Y-49042933D01*
X68676897Y-49352104D01*
X68524596Y-49682069D01*
X68343452Y-50029965D01*
X68134850Y-50392931D01*
X67963446Y-50669823D01*
X67904584Y-50763069D01*
X67854856Y-50843555D01*
X67818290Y-50904626D01*
X67798916Y-50939624D01*
X67796873Y-50944990D01*
X67816256Y-50954500D01*
X67868456Y-50969085D01*
X67944600Y-50986453D01*
X68003248Y-50998250D01*
X68096423Y-51017483D01*
X68217916Y-51044591D01*
X68355114Y-51076654D01*
X68495400Y-51110750D01*
X68569417Y-51129341D01*
X68972691Y-51240393D01*
X69337981Y-51358485D01*
X69664747Y-51483333D01*
X69952450Y-51614651D01*
X70200549Y-51752154D01*
X70408504Y-51895556D01*
X70575775Y-52044572D01*
X70701824Y-52198916D01*
X70751744Y-52282808D01*
X70800600Y-52419412D01*
X70814591Y-52566362D01*
X70793499Y-52711035D01*
X70760614Y-52798410D01*
X70679518Y-52926876D01*
X70561577Y-53058977D01*
X70411578Y-53190691D01*
X70234312Y-53317996D01*
X70034568Y-53436870D01*
X69945250Y-53483252D01*
X69710177Y-53590512D01*
X69439959Y-53696630D01*
X69141769Y-53799422D01*
X68822782Y-53896704D01*
X68490174Y-53986291D01*
X68151119Y-54065999D01*
X67812790Y-54133645D01*
X67802757Y-54135460D01*
X67717432Y-54150284D01*
X67661497Y-54163088D01*
X67633407Y-54180754D01*
X67631614Y-54210159D01*
X67654572Y-54258185D01*
X67700734Y-54331710D01*
X67743664Y-54398333D01*
X67873383Y-54610575D01*
X68007472Y-54846577D01*
X68140281Y-55095349D01*
X68266158Y-55345898D01*
X68379452Y-55587233D01*
X68474512Y-55808365D01*
X68494768Y-55859208D01*
X68581914Y-56097825D01*
X68646173Y-56311978D01*
X68689830Y-56511243D01*
X68715167Y-56705195D01*
X68722102Y-56812624D01*
X68724556Y-56981248D01*
X68714814Y-57117185D01*
X68691357Y-57228712D01*
X68652666Y-57324106D01*
X68617360Y-57383270D01*
X68542936Y-57468467D01*
X68445061Y-57546466D01*
X68340913Y-57604500D01*
X68298651Y-57620087D01*
X68202998Y-57637941D01*
X68078469Y-57645413D01*
X67937127Y-57642900D01*
X67791036Y-57630796D01*
X67652259Y-57609495D01*
X67595750Y-57597097D01*
X67352282Y-57525024D01*
X67084397Y-57422529D01*
X66795354Y-57291221D01*
X66488410Y-57132713D01*
X66166825Y-56948615D01*
X65833856Y-56740539D01*
X65743846Y-56681399D01*
X65655428Y-56623127D01*
X65580744Y-56574692D01*
X65526261Y-56540228D01*
X65498447Y-56523870D01*
X65496242Y-56523129D01*
X65490529Y-56543840D01*
X65477284Y-56598952D01*
X65458121Y-56681533D01*
X65434655Y-56784651D01*
X65416670Y-56864729D01*
X65316722Y-57278968D01*
X65209728Y-57659451D01*
X65096157Y-58005365D01*
X64976478Y-58315897D01*
X64851159Y-58590235D01*
X64720670Y-58827565D01*
X64585480Y-59027074D01*
X64446057Y-59187949D01*
X64302872Y-59309377D01*
X64156392Y-59390545D01*
X64007087Y-59430640D01*
X63933917Y-59435054D01*
X63849759Y-59429899D01*
X63770341Y-59417647D01*
X63731833Y-59407290D01*
X63590551Y-59335832D01*
X63450303Y-59223908D01*
X63311994Y-59073383D01*
X63176530Y-58886125D01*
X63044817Y-58664000D01*
X62917760Y-58408873D01*
X62796266Y-58122612D01*
X62681239Y-57807084D01*
X62573586Y-57464154D01*
X62474212Y-57095689D01*
X62384023Y-56703556D01*
X62357617Y-56575213D01*
X62333664Y-56455510D01*
X62011957Y-56662884D01*
X61620805Y-56905254D01*
X61252946Y-57113093D01*
X60908495Y-57286351D01*
X60587569Y-57424981D01*
X60290283Y-57528936D01*
X60016753Y-57598168D01*
X59767094Y-57632628D01*
X59653752Y-57636805D01*
X59459291Y-57623082D01*
X59296166Y-57581299D01*
X59163292Y-57510617D01*
X59059583Y-57410197D01*
X58983954Y-57279199D01*
X58935319Y-57116785D01*
X58927952Y-57075617D01*
X58916043Y-56892349D01*
X58933703Y-56681979D01*
X58980044Y-56446804D01*
X59054178Y-56189125D01*
X59155216Y-55911239D01*
X59282270Y-55615445D01*
X59425135Y-55323105D01*
X60677890Y-55323105D01*
X60680157Y-55485862D01*
X60713411Y-55620693D01*
X60777569Y-55727289D01*
X60872545Y-55805342D01*
X60998258Y-55854544D01*
X61023500Y-55860183D01*
X61085451Y-55871607D01*
X61134870Y-55876115D01*
X61187646Y-55873561D01*
X61259664Y-55863796D01*
X61298667Y-55857639D01*
X61384067Y-55842384D01*
X61464129Y-55825479D01*
X61510333Y-55813701D01*
X61584417Y-55791803D01*
X61585947Y-55491943D01*
X61595523Y-55252961D01*
X61623576Y-55030400D01*
X61672959Y-54807632D01*
X61742489Y-54579902D01*
X61769262Y-54497308D01*
X61776971Y-54470734D01*
X62780333Y-54470734D01*
X62784696Y-54520310D01*
X62796824Y-54603660D01*
X62815277Y-54713234D01*
X62838612Y-54841485D01*
X62865390Y-54980866D01*
X62894169Y-55123830D01*
X62923508Y-55262829D01*
X62951967Y-55390314D01*
X62971788Y-55473517D01*
X63053669Y-55782446D01*
X63137414Y-56052003D01*
X63224332Y-56285147D01*
X63315733Y-56484835D01*
X63412927Y-56654025D01*
X63517224Y-56795675D01*
X63594333Y-56879216D01*
X63710967Y-56972236D01*
X63829290Y-57023094D01*
X63950122Y-57031955D01*
X64074285Y-56998980D01*
X64110484Y-56981899D01*
X64211269Y-56910979D01*
X64315892Y-56801365D01*
X64421427Y-56656152D01*
X64427811Y-56646239D01*
X64513118Y-56512895D01*
X64317447Y-56318155D01*
X64130292Y-56108491D01*
X63952686Y-55863166D01*
X63788474Y-55588469D01*
X63641503Y-55290685D01*
X63544242Y-55054229D01*
X63511491Y-54969063D01*
X63483420Y-54905055D01*
X63453392Y-54852856D01*
X63414772Y-54803117D01*
X63360922Y-54746491D01*
X63285206Y-54673629D01*
X63251346Y-54641651D01*
X63071948Y-54472416D01*
X64094416Y-54472416D01*
X64235426Y-54588833D01*
X64501156Y-54800277D01*
X64774364Y-55002756D01*
X65048467Y-55191948D01*
X65316879Y-55363533D01*
X65573016Y-55513187D01*
X65810294Y-55636590D01*
X65885176Y-55671651D01*
X66077792Y-55747812D01*
X66266613Y-55801263D01*
X66444561Y-55830837D01*
X66604555Y-55835367D01*
X66739515Y-55813686D01*
X66742109Y-55812917D01*
X66826118Y-55769492D01*
X66904803Y-55697430D01*
X66965840Y-55609848D01*
X66990973Y-55548123D01*
X67008482Y-55443413D01*
X67012289Y-55316969D01*
X67002404Y-55187107D01*
X66990746Y-55119041D01*
X66967825Y-55012166D01*
X66755946Y-55012166D01*
X66509538Y-54996421D01*
X66241634Y-54948890D01*
X65949908Y-54869128D01*
X65867357Y-54842211D01*
X65724583Y-54790736D01*
X65572092Y-54729874D01*
X65420508Y-54664345D01*
X65280457Y-54598868D01*
X65162566Y-54538163D01*
X65098083Y-54500511D01*
X65013417Y-54447042D01*
X64553916Y-54459729D01*
X64094416Y-54472416D01*
X63071948Y-54472416D01*
X63038291Y-54440666D01*
X62909312Y-54440666D01*
X62833759Y-54443306D01*
X62793152Y-54452331D01*
X62780371Y-54469403D01*
X62780333Y-54470734D01*
X61776971Y-54470734D01*
X61788500Y-54431000D01*
X61797638Y-54390228D01*
X61797408Y-54382019D01*
X61775380Y-54377518D01*
X61719542Y-54369403D01*
X61638167Y-54358666D01*
X61539525Y-54346293D01*
X61431890Y-54333274D01*
X61323533Y-54320598D01*
X61222728Y-54309255D01*
X61137745Y-54300232D01*
X61076858Y-54294520D01*
X61053004Y-54293021D01*
X61033807Y-54311348D01*
X61002918Y-54362094D01*
X60963638Y-54438089D01*
X60919268Y-54532163D01*
X60873109Y-54637145D01*
X60828462Y-54745866D01*
X60788627Y-54851153D01*
X60766652Y-54915047D01*
X60706694Y-55132730D01*
X60677890Y-55323105D01*
X59425135Y-55323105D01*
X59434452Y-55304042D01*
X59610873Y-54979329D01*
X59810646Y-54643604D01*
X59955974Y-54415399D01*
X60131515Y-54146715D01*
X60011299Y-54122718D01*
X59577640Y-54029026D01*
X59174059Y-53927301D01*
X58801828Y-53818122D01*
X58462222Y-53702071D01*
X58156515Y-53579727D01*
X57885981Y-53451672D01*
X57651893Y-53318487D01*
X57455526Y-53180752D01*
X57298152Y-53039047D01*
X57181047Y-52893954D01*
X57133235Y-52810833D01*
X57098831Y-52729792D01*
X57081469Y-52652854D01*
X57076484Y-52558269D01*
X57076489Y-52546250D01*
X57081076Y-52488166D01*
X59479519Y-52488166D01*
X59480869Y-52607122D01*
X59522434Y-52724778D01*
X59603157Y-52840314D01*
X59721979Y-52952909D01*
X59877841Y-53061742D01*
X60069686Y-53165993D01*
X60296455Y-53264841D01*
X60557089Y-53357465D01*
X60850532Y-53443043D01*
X60931465Y-53463887D01*
X61430295Y-53573701D01*
X61965069Y-53661808D01*
X62535355Y-53728153D01*
X63140720Y-53772685D01*
X63605833Y-53791423D01*
X63695282Y-53794177D01*
X63769137Y-53797058D01*
X63816875Y-53799625D01*
X63828083Y-53800725D01*
X63854133Y-53801021D01*
X63916708Y-53799890D01*
X64010028Y-53797491D01*
X64128314Y-53793986D01*
X64265787Y-53789535D01*
X64410167Y-53784531D01*
X64778411Y-53768853D01*
X65112203Y-53749000D01*
X65419293Y-53724155D01*
X65707428Y-53693501D01*
X65984358Y-53656220D01*
X66257830Y-53611496D01*
X66516250Y-53562425D01*
X66879954Y-53482469D01*
X67202818Y-53397277D01*
X67486066Y-53306382D01*
X67730921Y-53209314D01*
X67938608Y-53105606D01*
X68110351Y-52994789D01*
X68206566Y-52915741D01*
X68316662Y-52796192D01*
X68384467Y-52677237D01*
X68410013Y-52558536D01*
X68393332Y-52439752D01*
X68334455Y-52320548D01*
X68270611Y-52239383D01*
X68214472Y-52184880D01*
X68139877Y-52122420D01*
X68058628Y-52060868D01*
X67982527Y-52009093D01*
X67923376Y-51975961D01*
X67915721Y-51972769D01*
X67887288Y-51982498D01*
X67834582Y-52021472D01*
X67761035Y-52086929D01*
X67698115Y-52147897D01*
X67458121Y-52358817D01*
X67181032Y-52550953D01*
X66867941Y-52723787D01*
X66519943Y-52876803D01*
X66138132Y-53009483D01*
X65723602Y-53121311D01*
X65562320Y-53157263D01*
X64995831Y-53255256D01*
X64420156Y-53312331D01*
X63837206Y-53328422D01*
X63248895Y-53303464D01*
X62769793Y-53253118D01*
X62339272Y-53183168D01*
X61930028Y-53091190D01*
X61544765Y-52978282D01*
X61186187Y-52845541D01*
X60957820Y-52740457D01*
X63902167Y-52740457D01*
X63921710Y-52744274D01*
X63973947Y-52746207D01*
X64049292Y-52746447D01*
X64138154Y-52745186D01*
X64230948Y-52742614D01*
X64318084Y-52738925D01*
X64389975Y-52734308D01*
X64431333Y-52729889D01*
X64526583Y-52715583D01*
X64572292Y-52601053D01*
X65002685Y-52601053D01*
X65007490Y-52628734D01*
X65033863Y-52638360D01*
X65087025Y-52632383D01*
X65172194Y-52613254D01*
X65267417Y-52590001D01*
X65584731Y-52499469D01*
X65880040Y-52388211D01*
X66148727Y-52258470D01*
X66386173Y-52112489D01*
X66587761Y-51952510D01*
X66596509Y-51944468D01*
X66674877Y-51866515D01*
X66743407Y-51788330D01*
X66797652Y-51716218D01*
X66833161Y-51656485D01*
X66845487Y-51615434D01*
X66838511Y-51601495D01*
X66795252Y-51585830D01*
X66717913Y-51566653D01*
X66612003Y-51544753D01*
X66483029Y-51520922D01*
X66336499Y-51495947D01*
X66177922Y-51470621D01*
X66012805Y-51445732D01*
X65846657Y-51422070D01*
X65684986Y-51400427D01*
X65533299Y-51381590D01*
X65397104Y-51366351D01*
X65281911Y-51355500D01*
X65193226Y-51349826D01*
X65136558Y-51350119D01*
X65118326Y-51354785D01*
X65115584Y-51380002D01*
X65119652Y-51434634D01*
X65128786Y-51501151D01*
X65149350Y-51739219D01*
X65138255Y-51994669D01*
X65096406Y-52257834D01*
X65036903Y-52481718D01*
X65014229Y-52552865D01*
X65002685Y-52601053D01*
X64572292Y-52601053D01*
X64596771Y-52539721D01*
X64662073Y-52356479D01*
X64702758Y-52189856D01*
X64721596Y-52024190D01*
X64721357Y-51843821D01*
X64721042Y-51837166D01*
X64706715Y-51671815D01*
X64680082Y-51534186D01*
X64659829Y-51466750D01*
X64609398Y-51318583D01*
X64320826Y-51312704D01*
X64032255Y-51306825D01*
X64056610Y-51386787D01*
X64065584Y-51437600D01*
X64073067Y-51521095D01*
X64078458Y-51627630D01*
X64081156Y-51747566D01*
X64081350Y-51784250D01*
X64078094Y-51966710D01*
X64066230Y-52122333D01*
X64043347Y-52266157D01*
X64007037Y-52413222D01*
X63954888Y-52578567D01*
X63953294Y-52583261D01*
X63928754Y-52656259D01*
X63910649Y-52711735D01*
X63902357Y-52739301D01*
X63902167Y-52740457D01*
X60957820Y-52740457D01*
X60856998Y-52694064D01*
X60768531Y-52643706D01*
X62892678Y-52643706D01*
X62894466Y-52661393D01*
X62916537Y-52674711D01*
X62966002Y-52686012D01*
X63049972Y-52697645D01*
X63059130Y-52698749D01*
X63159091Y-52709406D01*
X63259329Y-52717967D01*
X63339936Y-52722757D01*
X63347427Y-52723001D01*
X63459437Y-52726166D01*
X63519415Y-52592487D01*
X63573673Y-52465142D01*
X63611897Y-52355925D01*
X63636758Y-52251708D01*
X63650928Y-52139360D01*
X63657077Y-52005752D01*
X63658025Y-51911250D01*
X63657463Y-51787113D01*
X63654388Y-51694649D01*
X63647550Y-51623216D01*
X63635697Y-51562172D01*
X63617578Y-51500876D01*
X63605756Y-51466750D01*
X63552917Y-51318583D01*
X63425917Y-51311690D01*
X63334673Y-51310148D01*
X63227784Y-51313188D01*
X63148040Y-51318546D01*
X62997163Y-51332294D01*
X63015057Y-51410105D01*
X63043414Y-51598211D01*
X63049721Y-51810139D01*
X63034651Y-52033994D01*
X62998880Y-52257883D01*
X62957590Y-52423034D01*
X62932087Y-52509555D01*
X62910444Y-52583100D01*
X62895974Y-52632402D01*
X62892678Y-52643706D01*
X60768531Y-52643706D01*
X60559904Y-52524951D01*
X60297609Y-52339299D01*
X60106988Y-52172188D01*
X59933752Y-52003546D01*
X59869143Y-52034356D01*
X59802878Y-52075970D01*
X59724002Y-52139989D01*
X59643907Y-52215519D01*
X59573986Y-52291666D01*
X59525631Y-52357538D01*
X59519442Y-52368732D01*
X59479519Y-52488166D01*
X57081076Y-52488166D01*
X57086258Y-52422553D01*
X57117677Y-52313333D01*
X57175473Y-52208349D01*
X57264375Y-52097364D01*
X57302754Y-52056206D01*
X57475333Y-51901252D01*
X57689234Y-51752821D01*
X57876864Y-51648470D01*
X60947618Y-51648470D01*
X60961906Y-51688231D01*
X61003868Y-51748117D01*
X61075330Y-51830954D01*
X61127823Y-51887273D01*
X61261440Y-52013732D01*
X61412305Y-52127641D01*
X61589922Y-52235702D01*
X61715215Y-52301486D01*
X61807328Y-52344743D01*
X61915365Y-52390976D01*
X62031535Y-52437359D01*
X62148045Y-52481064D01*
X62257106Y-52519266D01*
X62350925Y-52549137D01*
X62421711Y-52567851D01*
X62461673Y-52572581D01*
X62462235Y-52572491D01*
X62487236Y-52550922D01*
X62515847Y-52502144D01*
X62529566Y-52469628D01*
X62573257Y-52324914D01*
X62607273Y-52159541D01*
X62627821Y-51994773D01*
X62632167Y-51894361D01*
X62627589Y-51811124D01*
X62615320Y-51713495D01*
X62597555Y-51612156D01*
X62576490Y-51517791D01*
X62554318Y-51441081D01*
X62533237Y-51392709D01*
X62527582Y-51385449D01*
X62497381Y-51378955D01*
X62431417Y-51379662D01*
X62335483Y-51386682D01*
X62215369Y-51399126D01*
X62076866Y-51416106D01*
X61925766Y-51436734D01*
X61767860Y-51460121D01*
X61608940Y-51485380D01*
X61454796Y-51511621D01*
X61311220Y-51537958D01*
X61184002Y-51563501D01*
X61078935Y-51587363D01*
X61001809Y-51608654D01*
X60959179Y-51626007D01*
X60947618Y-51648470D01*
X57876864Y-51648470D01*
X57943908Y-51611184D01*
X58238808Y-51476613D01*
X58573387Y-51349378D01*
X58947096Y-51229751D01*
X59007789Y-51212109D01*
X59115307Y-51182326D01*
X59240647Y-51149348D01*
X59376748Y-51114850D01*
X59516552Y-51080504D01*
X59652999Y-51047985D01*
X59779030Y-51018966D01*
X59887586Y-50995122D01*
X59971607Y-50978125D01*
X60024034Y-50969649D01*
X60033096Y-50969009D01*
X60072100Y-50964094D01*
X60090841Y-50947183D01*
X60088319Y-50913286D01*
X60063531Y-50857412D01*
X60015477Y-50774573D01*
X59983902Y-50723844D01*
X59730314Y-50305859D01*
X59509486Y-49908756D01*
X59401295Y-49692366D01*
X60623927Y-49692366D01*
X60651018Y-49881990D01*
X60706474Y-50093920D01*
X60756514Y-50239392D01*
X60808104Y-50370624D01*
X60861549Y-50494394D01*
X60913824Y-50604776D01*
X60961901Y-50695839D01*
X61002753Y-50761655D01*
X61033352Y-50796295D01*
X61042835Y-50800133D01*
X61074917Y-50798029D01*
X61140773Y-50792146D01*
X61232093Y-50783279D01*
X61340565Y-50772220D01*
X61393917Y-50766617D01*
X61506844Y-50754300D01*
X61605770Y-50742854D01*
X61682591Y-50733268D01*
X61729203Y-50726529D01*
X61738359Y-50724629D01*
X61752508Y-50710335D01*
X61746915Y-50675615D01*
X61731943Y-50636453D01*
X61706027Y-50563841D01*
X61675084Y-50460955D01*
X61642003Y-50339111D01*
X61609674Y-50209621D01*
X61580987Y-50083799D01*
X61580019Y-50078953D01*
X62436862Y-50078953D01*
X62439200Y-50228001D01*
X62450959Y-50374629D01*
X62471897Y-50504329D01*
X62472615Y-50507588D01*
X62508753Y-50670018D01*
X62692168Y-50659032D01*
X62774712Y-50654642D01*
X62888391Y-50649370D01*
X63022031Y-50643695D01*
X63164455Y-50638095D01*
X63275103Y-50634064D01*
X63674622Y-50620083D01*
X63476186Y-50449957D01*
X63377509Y-50367237D01*
X63265897Y-50276821D01*
X63146315Y-50182414D01*
X63136087Y-50174513D01*
X64217721Y-50174513D01*
X64454757Y-50397298D01*
X64540227Y-50475865D01*
X64618057Y-50544155D01*
X64681718Y-50596679D01*
X64724678Y-50627949D01*
X64736188Y-50633848D01*
X64781634Y-50641849D01*
X64851231Y-50647767D01*
X64903251Y-50649723D01*
X65025918Y-50651833D01*
X65014053Y-50583041D01*
X64981022Y-50395728D01*
X64947143Y-50211209D01*
X64914199Y-50038767D01*
X64883969Y-49887685D01*
X64858234Y-49767244D01*
X64853714Y-49747348D01*
X64830051Y-49644583D01*
X65632747Y-49644583D01*
X65644303Y-49761916D01*
X65662384Y-49942156D01*
X65677549Y-50084322D01*
X65690467Y-50192519D01*
X65701808Y-50270856D01*
X65712241Y-50323440D01*
X65722435Y-50354376D01*
X65733058Y-50367773D01*
X65743098Y-50368380D01*
X65775793Y-50357261D01*
X65838503Y-50335747D01*
X65921232Y-50307273D01*
X65987083Y-50284561D01*
X66263207Y-50200391D01*
X66523777Y-50145185D01*
X66781608Y-50116484D01*
X66886667Y-50111879D01*
X67151250Y-50105049D01*
X67175676Y-50002732D01*
X67194311Y-49889195D01*
X67201194Y-49765097D01*
X67196079Y-49648229D01*
X67181727Y-49566463D01*
X67130931Y-49453253D01*
X67050312Y-49368629D01*
X66941315Y-49312636D01*
X66805387Y-49285322D01*
X66643971Y-49286734D01*
X66458515Y-49316918D01*
X66250462Y-49375922D01*
X66021258Y-49463791D01*
X65886665Y-49524459D01*
X65632747Y-49644583D01*
X64830051Y-49644583D01*
X64808720Y-49551947D01*
X64741735Y-49586518D01*
X64681141Y-49628019D01*
X64604208Y-49695561D01*
X64519091Y-49780656D01*
X64433946Y-49874818D01*
X64356930Y-49969561D01*
X64308366Y-50037465D01*
X64217721Y-50174513D01*
X63136087Y-50174513D01*
X63023730Y-50087725D01*
X62903107Y-49996460D01*
X62789414Y-49912327D01*
X62687616Y-49839034D01*
X62602680Y-49780288D01*
X62539571Y-49739797D01*
X62503256Y-49721267D01*
X62499056Y-49720500D01*
X62488554Y-49739184D01*
X62473015Y-49787277D01*
X62461409Y-49831625D01*
X62444185Y-49941992D01*
X62436862Y-50078953D01*
X61580019Y-50078953D01*
X61558831Y-49972959D01*
X61551770Y-49931036D01*
X61542669Y-49845670D01*
X61536402Y-49732986D01*
X61533554Y-49607939D01*
X61534559Y-49490872D01*
X61542083Y-49210588D01*
X61425667Y-49174502D01*
X61348491Y-49158816D01*
X63071581Y-49158816D01*
X63184168Y-49254450D01*
X63249767Y-49310235D01*
X63334365Y-49382265D01*
X63424762Y-49459298D01*
X63475730Y-49502764D01*
X63654706Y-49655444D01*
X63704345Y-49548305D01*
X63736851Y-49483309D01*
X63783799Y-49395862D01*
X63837700Y-49299723D01*
X63869955Y-49244112D01*
X63945605Y-49124489D01*
X64034095Y-48998805D01*
X64128315Y-48876034D01*
X64221152Y-48765148D01*
X64305495Y-48675121D01*
X64360031Y-48625776D01*
X64439433Y-48562078D01*
X64369843Y-48453631D01*
X64315650Y-48380325D01*
X64245506Y-48299958D01*
X64187317Y-48241968D01*
X64068212Y-48154423D01*
X63949031Y-48108816D01*
X63830351Y-48104755D01*
X63712751Y-48141849D01*
X63596810Y-48219708D01*
X63483106Y-48337940D01*
X63372218Y-48496153D01*
X63264726Y-48693959D01*
X63161206Y-48930964D01*
X63158847Y-48936950D01*
X63071581Y-49158816D01*
X61348491Y-49158816D01*
X61303619Y-49149696D01*
X61143638Y-49138900D01*
X61096037Y-49138416D01*
X60996089Y-49139354D01*
X60927171Y-49143589D01*
X60877998Y-49153250D01*
X60837284Y-49170469D01*
X60797720Y-49194736D01*
X60712097Y-49276233D01*
X60654541Y-49387597D01*
X60625126Y-49526938D01*
X60623927Y-49692366D01*
X59401295Y-49692366D01*
X59321704Y-49533181D01*
X59167256Y-49179783D01*
X59046429Y-48849208D01*
X58959510Y-48542103D01*
X58914453Y-48312916D01*
X58894513Y-48091862D01*
X58905820Y-47895033D01*
X58947859Y-47723793D01*
X59020116Y-47579502D01*
X59122076Y-47463522D01*
X59253224Y-47377216D01*
X59271335Y-47368721D01*
X59380739Y-47335677D01*
X59519776Y-47318895D01*
X59679045Y-47318248D01*
X59849147Y-47333610D01*
X60020681Y-47364856D01*
X60079320Y-47379522D01*
X60349924Y-47464794D01*
X60636815Y-47579481D01*
X60941771Y-47724493D01*
X61266575Y-47900741D01*
X61613008Y-48109133D01*
X61982850Y-48350581D01*
X61992749Y-48357277D01*
X62109423Y-48434627D01*
X62204243Y-48494112D01*
X62273866Y-48533788D01*
X62314950Y-48551709D01*
X62324874Y-48550494D01*
X62333176Y-48516860D01*
X62346048Y-48456159D01*
X62357602Y-48397583D01*
X62381394Y-48284248D01*
X62414574Y-48141517D01*
X62454266Y-47980512D01*
X62497596Y-47812354D01*
X62541688Y-47648166D01*
X62583669Y-47499071D01*
X62620663Y-47376189D01*
X62625633Y-47360615D01*
X62737822Y-47039074D01*
X62856941Y-46748130D01*
X62981938Y-46489381D01*
X63111764Y-46264425D01*
X63245367Y-46074858D01*
X63381697Y-45922278D01*
X63519702Y-45808282D01*
X63658332Y-45734468D01*
X63705788Y-45718706D01*
X63828461Y-45701313D01*
X63964332Y-45709365D01*
X63964332Y-45709365D01*
G37*
X63964332Y-45709365D02*
X64094264Y-45740978D01*
X64144661Y-45761886D01*
X64227493Y-45813662D01*
X64323563Y-45892147D01*
X64423528Y-45988242D01*
X64518048Y-46092846D01*
X64597783Y-46196859D01*
X64610325Y-46215552D01*
X64741989Y-46438542D01*
X64870665Y-46698628D01*
X64994493Y-46990588D01*
X65111614Y-47309198D01*
X65220169Y-47649237D01*
X65318297Y-48005482D01*
X65404139Y-48372711D01*
X65438531Y-48541529D01*
X65458844Y-48635722D01*
X65476444Y-48692452D01*
X65493032Y-48716357D01*
X65502949Y-48716976D01*
X65531528Y-48701194D01*
X65586392Y-48667140D01*
X65658806Y-48620329D01*
X65716798Y-48581897D01*
X66060096Y-48361243D01*
X66400172Y-48160501D01*
X66732534Y-47981909D01*
X67052687Y-47827705D01*
X67356136Y-47700126D01*
X67638389Y-47601410D01*
X67752824Y-47568203D01*
X67866336Y-47540658D01*
X67971222Y-47523384D01*
X68084985Y-47514187D01*
X68209583Y-47511002D01*
X68319992Y-47510640D01*
X68399369Y-47513169D01*
X68458998Y-47520308D01*
X68510166Y-47533778D01*
X68564158Y-47555296D01*
X68596445Y-47569937D01*
X68730135Y-47649818D01*
X68832286Y-47753977D01*
X68904310Y-47876821D01*
X68923052Y-47922657D01*
X68935744Y-47970548D01*
X68943458Y-48029864D01*
X68947266Y-48109977D01*
X68948240Y-48220258D01*
X68948142Y-48260000D01*
X68946276Y-48390453D01*
X68940760Y-48492706D01*
X68929930Y-48580843D01*
X68912125Y-48668950D01*
X68889427Y-48757416D01*
X68798969Y-49042933D01*
X68676897Y-49352104D01*
X68524596Y-49682069D01*
X68343452Y-50029965D01*
X68134850Y-50392931D01*
X67963446Y-50669823D01*
X67904584Y-50763069D01*
X67854856Y-50843555D01*
X67818290Y-50904626D01*
X67798916Y-50939624D01*
X67796873Y-50944990D01*
X67816256Y-50954500D01*
X67868456Y-50969085D01*
X67944600Y-50986453D01*
X68003248Y-50998250D01*
X68096423Y-51017483D01*
X68217916Y-51044591D01*
X68355114Y-51076654D01*
X68495400Y-51110750D01*
X68569417Y-51129341D01*
X68972691Y-51240393D01*
X69337981Y-51358485D01*
X69664747Y-51483333D01*
X69952450Y-51614651D01*
X70200549Y-51752154D01*
X70408504Y-51895556D01*
X70575775Y-52044572D01*
X70701824Y-52198916D01*
X70751744Y-52282808D01*
X70800600Y-52419412D01*
X70814591Y-52566362D01*
X70793499Y-52711035D01*
X70760614Y-52798410D01*
X70679518Y-52926876D01*
X70561577Y-53058977D01*
X70411578Y-53190691D01*
X70234312Y-53317996D01*
X70034568Y-53436870D01*
X69945250Y-53483252D01*
X69710177Y-53590512D01*
X69439959Y-53696630D01*
X69141769Y-53799422D01*
X68822782Y-53896704D01*
X68490174Y-53986291D01*
X68151119Y-54065999D01*
X67812790Y-54133645D01*
X67802757Y-54135460D01*
X67717432Y-54150284D01*
X67661497Y-54163088D01*
X67633407Y-54180754D01*
X67631614Y-54210159D01*
X67654572Y-54258185D01*
X67700734Y-54331710D01*
X67743664Y-54398333D01*
X67873383Y-54610575D01*
X68007472Y-54846577D01*
X68140281Y-55095349D01*
X68266158Y-55345898D01*
X68379452Y-55587233D01*
X68474512Y-55808365D01*
X68494768Y-55859208D01*
X68581914Y-56097825D01*
X68646173Y-56311978D01*
X68689830Y-56511243D01*
X68715167Y-56705195D01*
X68722102Y-56812624D01*
X68724556Y-56981248D01*
X68714814Y-57117185D01*
X68691357Y-57228712D01*
X68652666Y-57324106D01*
X68617360Y-57383270D01*
X68542936Y-57468467D01*
X68445061Y-57546466D01*
X68340913Y-57604500D01*
X68298651Y-57620087D01*
X68202998Y-57637941D01*
X68078469Y-57645413D01*
X67937127Y-57642900D01*
X67791036Y-57630796D01*
X67652259Y-57609495D01*
X67595750Y-57597097D01*
X67352282Y-57525024D01*
X67084397Y-57422529D01*
X66795354Y-57291221D01*
X66488410Y-57132713D01*
X66166825Y-56948615D01*
X65833856Y-56740539D01*
X65743846Y-56681399D01*
X65655428Y-56623127D01*
X65580744Y-56574692D01*
X65526261Y-56540228D01*
X65498447Y-56523870D01*
X65496242Y-56523129D01*
X65490529Y-56543840D01*
X65477284Y-56598952D01*
X65458121Y-56681533D01*
X65434655Y-56784651D01*
X65416670Y-56864729D01*
X65316722Y-57278968D01*
X65209728Y-57659451D01*
X65096157Y-58005365D01*
X64976478Y-58315897D01*
X64851159Y-58590235D01*
X64720670Y-58827565D01*
X64585480Y-59027074D01*
X64446057Y-59187949D01*
X64302872Y-59309377D01*
X64156392Y-59390545D01*
X64007087Y-59430640D01*
X63933917Y-59435054D01*
X63849759Y-59429899D01*
X63770341Y-59417647D01*
X63731833Y-59407290D01*
X63590551Y-59335832D01*
X63450303Y-59223908D01*
X63311994Y-59073383D01*
X63176530Y-58886125D01*
X63044817Y-58664000D01*
X62917760Y-58408873D01*
X62796266Y-58122612D01*
X62681239Y-57807084D01*
X62573586Y-57464154D01*
X62474212Y-57095689D01*
X62384023Y-56703556D01*
X62357617Y-56575213D01*
X62333664Y-56455510D01*
X62011957Y-56662884D01*
X61620805Y-56905254D01*
X61252946Y-57113093D01*
X60908495Y-57286351D01*
X60587569Y-57424981D01*
X60290283Y-57528936D01*
X60016753Y-57598168D01*
X59767094Y-57632628D01*
X59653752Y-57636805D01*
X59459291Y-57623082D01*
X59296166Y-57581299D01*
X59163292Y-57510617D01*
X59059583Y-57410197D01*
X58983954Y-57279199D01*
X58935319Y-57116785D01*
X58927952Y-57075617D01*
X58916043Y-56892349D01*
X58933703Y-56681979D01*
X58980044Y-56446804D01*
X59054178Y-56189125D01*
X59155216Y-55911239D01*
X59282270Y-55615445D01*
X59425135Y-55323105D01*
X60677890Y-55323105D01*
X60680157Y-55485862D01*
X60713411Y-55620693D01*
X60777569Y-55727289D01*
X60872545Y-55805342D01*
X60998258Y-55854544D01*
X61023500Y-55860183D01*
X61085451Y-55871607D01*
X61134870Y-55876115D01*
X61187646Y-55873561D01*
X61259664Y-55863796D01*
X61298667Y-55857639D01*
X61384067Y-55842384D01*
X61464129Y-55825479D01*
X61510333Y-55813701D01*
X61584417Y-55791803D01*
X61585947Y-55491943D01*
X61595523Y-55252961D01*
X61623576Y-55030400D01*
X61672959Y-54807632D01*
X61742489Y-54579902D01*
X61769262Y-54497308D01*
X61776971Y-54470734D01*
X62780333Y-54470734D01*
X62784696Y-54520310D01*
X62796824Y-54603660D01*
X62815277Y-54713234D01*
X62838612Y-54841485D01*
X62865390Y-54980866D01*
X62894169Y-55123830D01*
X62923508Y-55262829D01*
X62951967Y-55390314D01*
X62971788Y-55473517D01*
X63053669Y-55782446D01*
X63137414Y-56052003D01*
X63224332Y-56285147D01*
X63315733Y-56484835D01*
X63412927Y-56654025D01*
X63517224Y-56795675D01*
X63594333Y-56879216D01*
X63710967Y-56972236D01*
X63829290Y-57023094D01*
X63950122Y-57031955D01*
X64074285Y-56998980D01*
X64110484Y-56981899D01*
X64211269Y-56910979D01*
X64315892Y-56801365D01*
X64421427Y-56656152D01*
X64427811Y-56646239D01*
X64513118Y-56512895D01*
X64317447Y-56318155D01*
X64130292Y-56108491D01*
X63952686Y-55863166D01*
X63788474Y-55588469D01*
X63641503Y-55290685D01*
X63544242Y-55054229D01*
X63511491Y-54969063D01*
X63483420Y-54905055D01*
X63453392Y-54852856D01*
X63414772Y-54803117D01*
X63360922Y-54746491D01*
X63285206Y-54673629D01*
X63251346Y-54641651D01*
X63071948Y-54472416D01*
X64094416Y-54472416D01*
X64235426Y-54588833D01*
X64501156Y-54800277D01*
X64774364Y-55002756D01*
X65048467Y-55191948D01*
X65316879Y-55363533D01*
X65573016Y-55513187D01*
X65810294Y-55636590D01*
X65885176Y-55671651D01*
X66077792Y-55747812D01*
X66266613Y-55801263D01*
X66444561Y-55830837D01*
X66604555Y-55835367D01*
X66739515Y-55813686D01*
X66742109Y-55812917D01*
X66826118Y-55769492D01*
X66904803Y-55697430D01*
X66965840Y-55609848D01*
X66990973Y-55548123D01*
X67008482Y-55443413D01*
X67012289Y-55316969D01*
X67002404Y-55187107D01*
X66990746Y-55119041D01*
X66967825Y-55012166D01*
X66755946Y-55012166D01*
X66509538Y-54996421D01*
X66241634Y-54948890D01*
X65949908Y-54869128D01*
X65867357Y-54842211D01*
X65724583Y-54790736D01*
X65572092Y-54729874D01*
X65420508Y-54664345D01*
X65280457Y-54598868D01*
X65162566Y-54538163D01*
X65098083Y-54500511D01*
X65013417Y-54447042D01*
X64553916Y-54459729D01*
X64094416Y-54472416D01*
X63071948Y-54472416D01*
X63038291Y-54440666D01*
X62909312Y-54440666D01*
X62833759Y-54443306D01*
X62793152Y-54452331D01*
X62780371Y-54469403D01*
X62780333Y-54470734D01*
X61776971Y-54470734D01*
X61788500Y-54431000D01*
X61797638Y-54390228D01*
X61797408Y-54382019D01*
X61775380Y-54377518D01*
X61719542Y-54369403D01*
X61638167Y-54358666D01*
X61539525Y-54346293D01*
X61431890Y-54333274D01*
X61323533Y-54320598D01*
X61222728Y-54309255D01*
X61137745Y-54300232D01*
X61076858Y-54294520D01*
X61053004Y-54293021D01*
X61033807Y-54311348D01*
X61002918Y-54362094D01*
X60963638Y-54438089D01*
X60919268Y-54532163D01*
X60873109Y-54637145D01*
X60828462Y-54745866D01*
X60788627Y-54851153D01*
X60766652Y-54915047D01*
X60706694Y-55132730D01*
X60677890Y-55323105D01*
X59425135Y-55323105D01*
X59434452Y-55304042D01*
X59610873Y-54979329D01*
X59810646Y-54643604D01*
X59955974Y-54415399D01*
X60131515Y-54146715D01*
X60011299Y-54122718D01*
X59577640Y-54029026D01*
X59174059Y-53927301D01*
X58801828Y-53818122D01*
X58462222Y-53702071D01*
X58156515Y-53579727D01*
X57885981Y-53451672D01*
X57651893Y-53318487D01*
X57455526Y-53180752D01*
X57298152Y-53039047D01*
X57181047Y-52893954D01*
X57133235Y-52810833D01*
X57098831Y-52729792D01*
X57081469Y-52652854D01*
X57076484Y-52558269D01*
X57076489Y-52546250D01*
X57081076Y-52488166D01*
X59479519Y-52488166D01*
X59480869Y-52607122D01*
X59522434Y-52724778D01*
X59603157Y-52840314D01*
X59721979Y-52952909D01*
X59877841Y-53061742D01*
X60069686Y-53165993D01*
X60296455Y-53264841D01*
X60557089Y-53357465D01*
X60850532Y-53443043D01*
X60931465Y-53463887D01*
X61430295Y-53573701D01*
X61965069Y-53661808D01*
X62535355Y-53728153D01*
X63140720Y-53772685D01*
X63605833Y-53791423D01*
X63695282Y-53794177D01*
X63769137Y-53797058D01*
X63816875Y-53799625D01*
X63828083Y-53800725D01*
X63854133Y-53801021D01*
X63916708Y-53799890D01*
X64010028Y-53797491D01*
X64128314Y-53793986D01*
X64265787Y-53789535D01*
X64410167Y-53784531D01*
X64778411Y-53768853D01*
X65112203Y-53749000D01*
X65419293Y-53724155D01*
X65707428Y-53693501D01*
X65984358Y-53656220D01*
X66257830Y-53611496D01*
X66516250Y-53562425D01*
X66879954Y-53482469D01*
X67202818Y-53397277D01*
X67486066Y-53306382D01*
X67730921Y-53209314D01*
X67938608Y-53105606D01*
X68110351Y-52994789D01*
X68206566Y-52915741D01*
X68316662Y-52796192D01*
X68384467Y-52677237D01*
X68410013Y-52558536D01*
X68393332Y-52439752D01*
X68334455Y-52320548D01*
X68270611Y-52239383D01*
X68214472Y-52184880D01*
X68139877Y-52122420D01*
X68058628Y-52060868D01*
X67982527Y-52009093D01*
X67923376Y-51975961D01*
X67915721Y-51972769D01*
X67887288Y-51982498D01*
X67834582Y-52021472D01*
X67761035Y-52086929D01*
X67698115Y-52147897D01*
X67458121Y-52358817D01*
X67181032Y-52550953D01*
X66867941Y-52723787D01*
X66519943Y-52876803D01*
X66138132Y-53009483D01*
X65723602Y-53121311D01*
X65562320Y-53157263D01*
X64995831Y-53255256D01*
X64420156Y-53312331D01*
X63837206Y-53328422D01*
X63248895Y-53303464D01*
X62769793Y-53253118D01*
X62339272Y-53183168D01*
X61930028Y-53091190D01*
X61544765Y-52978282D01*
X61186187Y-52845541D01*
X60957820Y-52740457D01*
X63902167Y-52740457D01*
X63921710Y-52744274D01*
X63973947Y-52746207D01*
X64049292Y-52746447D01*
X64138154Y-52745186D01*
X64230948Y-52742614D01*
X64318084Y-52738925D01*
X64389975Y-52734308D01*
X64431333Y-52729889D01*
X64526583Y-52715583D01*
X64572292Y-52601053D01*
X65002685Y-52601053D01*
X65007490Y-52628734D01*
X65033863Y-52638360D01*
X65087025Y-52632383D01*
X65172194Y-52613254D01*
X65267417Y-52590001D01*
X65584731Y-52499469D01*
X65880040Y-52388211D01*
X66148727Y-52258470D01*
X66386173Y-52112489D01*
X66587761Y-51952510D01*
X66596509Y-51944468D01*
X66674877Y-51866515D01*
X66743407Y-51788330D01*
X66797652Y-51716218D01*
X66833161Y-51656485D01*
X66845487Y-51615434D01*
X66838511Y-51601495D01*
X66795252Y-51585830D01*
X66717913Y-51566653D01*
X66612003Y-51544753D01*
X66483029Y-51520922D01*
X66336499Y-51495947D01*
X66177922Y-51470621D01*
X66012805Y-51445732D01*
X65846657Y-51422070D01*
X65684986Y-51400427D01*
X65533299Y-51381590D01*
X65397104Y-51366351D01*
X65281911Y-51355500D01*
X65193226Y-51349826D01*
X65136558Y-51350119D01*
X65118326Y-51354785D01*
X65115584Y-51380002D01*
X65119652Y-51434634D01*
X65128786Y-51501151D01*
X65149350Y-51739219D01*
X65138255Y-51994669D01*
X65096406Y-52257834D01*
X65036903Y-52481718D01*
X65014229Y-52552865D01*
X65002685Y-52601053D01*
X64572292Y-52601053D01*
X64596771Y-52539721D01*
X64662073Y-52356479D01*
X64702758Y-52189856D01*
X64721596Y-52024190D01*
X64721357Y-51843821D01*
X64721042Y-51837166D01*
X64706715Y-51671815D01*
X64680082Y-51534186D01*
X64659829Y-51466750D01*
X64609398Y-51318583D01*
X64320826Y-51312704D01*
X64032255Y-51306825D01*
X64056610Y-51386787D01*
X64065584Y-51437600D01*
X64073067Y-51521095D01*
X64078458Y-51627630D01*
X64081156Y-51747566D01*
X64081350Y-51784250D01*
X64078094Y-51966710D01*
X64066230Y-52122333D01*
X64043347Y-52266157D01*
X64007037Y-52413222D01*
X63954888Y-52578567D01*
X63953294Y-52583261D01*
X63928754Y-52656259D01*
X63910649Y-52711735D01*
X63902357Y-52739301D01*
X63902167Y-52740457D01*
X60957820Y-52740457D01*
X60856998Y-52694064D01*
X60768531Y-52643706D01*
X62892678Y-52643706D01*
X62894466Y-52661393D01*
X62916537Y-52674711D01*
X62966002Y-52686012D01*
X63049972Y-52697645D01*
X63059130Y-52698749D01*
X63159091Y-52709406D01*
X63259329Y-52717967D01*
X63339936Y-52722757D01*
X63347427Y-52723001D01*
X63459437Y-52726166D01*
X63519415Y-52592487D01*
X63573673Y-52465142D01*
X63611897Y-52355925D01*
X63636758Y-52251708D01*
X63650928Y-52139360D01*
X63657077Y-52005752D01*
X63658025Y-51911250D01*
X63657463Y-51787113D01*
X63654388Y-51694649D01*
X63647550Y-51623216D01*
X63635697Y-51562172D01*
X63617578Y-51500876D01*
X63605756Y-51466750D01*
X63552917Y-51318583D01*
X63425917Y-51311690D01*
X63334673Y-51310148D01*
X63227784Y-51313188D01*
X63148040Y-51318546D01*
X62997163Y-51332294D01*
X63015057Y-51410105D01*
X63043414Y-51598211D01*
X63049721Y-51810139D01*
X63034651Y-52033994D01*
X62998880Y-52257883D01*
X62957590Y-52423034D01*
X62932087Y-52509555D01*
X62910444Y-52583100D01*
X62895974Y-52632402D01*
X62892678Y-52643706D01*
X60768531Y-52643706D01*
X60559904Y-52524951D01*
X60297609Y-52339299D01*
X60106988Y-52172188D01*
X59933752Y-52003546D01*
X59869143Y-52034356D01*
X59802878Y-52075970D01*
X59724002Y-52139989D01*
X59643907Y-52215519D01*
X59573986Y-52291666D01*
X59525631Y-52357538D01*
X59519442Y-52368732D01*
X59479519Y-52488166D01*
X57081076Y-52488166D01*
X57086258Y-52422553D01*
X57117677Y-52313333D01*
X57175473Y-52208349D01*
X57264375Y-52097364D01*
X57302754Y-52056206D01*
X57475333Y-51901252D01*
X57689234Y-51752821D01*
X57876864Y-51648470D01*
X60947618Y-51648470D01*
X60961906Y-51688231D01*
X61003868Y-51748117D01*
X61075330Y-51830954D01*
X61127823Y-51887273D01*
X61261440Y-52013732D01*
X61412305Y-52127641D01*
X61589922Y-52235702D01*
X61715215Y-52301486D01*
X61807328Y-52344743D01*
X61915365Y-52390976D01*
X62031535Y-52437359D01*
X62148045Y-52481064D01*
X62257106Y-52519266D01*
X62350925Y-52549137D01*
X62421711Y-52567851D01*
X62461673Y-52572581D01*
X62462235Y-52572491D01*
X62487236Y-52550922D01*
X62515847Y-52502144D01*
X62529566Y-52469628D01*
X62573257Y-52324914D01*
X62607273Y-52159541D01*
X62627821Y-51994773D01*
X62632167Y-51894361D01*
X62627589Y-51811124D01*
X62615320Y-51713495D01*
X62597555Y-51612156D01*
X62576490Y-51517791D01*
X62554318Y-51441081D01*
X62533237Y-51392709D01*
X62527582Y-51385449D01*
X62497381Y-51378955D01*
X62431417Y-51379662D01*
X62335483Y-51386682D01*
X62215369Y-51399126D01*
X62076866Y-51416106D01*
X61925766Y-51436734D01*
X61767860Y-51460121D01*
X61608940Y-51485380D01*
X61454796Y-51511621D01*
X61311220Y-51537958D01*
X61184002Y-51563501D01*
X61078935Y-51587363D01*
X61001809Y-51608654D01*
X60959179Y-51626007D01*
X60947618Y-51648470D01*
X57876864Y-51648470D01*
X57943908Y-51611184D01*
X58238808Y-51476613D01*
X58573387Y-51349378D01*
X58947096Y-51229751D01*
X59007789Y-51212109D01*
X59115307Y-51182326D01*
X59240647Y-51149348D01*
X59376748Y-51114850D01*
X59516552Y-51080504D01*
X59652999Y-51047985D01*
X59779030Y-51018966D01*
X59887586Y-50995122D01*
X59971607Y-50978125D01*
X60024034Y-50969649D01*
X60033096Y-50969009D01*
X60072100Y-50964094D01*
X60090841Y-50947183D01*
X60088319Y-50913286D01*
X60063531Y-50857412D01*
X60015477Y-50774573D01*
X59983902Y-50723844D01*
X59730314Y-50305859D01*
X59509486Y-49908756D01*
X59401295Y-49692366D01*
X60623927Y-49692366D01*
X60651018Y-49881990D01*
X60706474Y-50093920D01*
X60756514Y-50239392D01*
X60808104Y-50370624D01*
X60861549Y-50494394D01*
X60913824Y-50604776D01*
X60961901Y-50695839D01*
X61002753Y-50761655D01*
X61033352Y-50796295D01*
X61042835Y-50800133D01*
X61074917Y-50798029D01*
X61140773Y-50792146D01*
X61232093Y-50783279D01*
X61340565Y-50772220D01*
X61393917Y-50766617D01*
X61506844Y-50754300D01*
X61605770Y-50742854D01*
X61682591Y-50733268D01*
X61729203Y-50726529D01*
X61738359Y-50724629D01*
X61752508Y-50710335D01*
X61746915Y-50675615D01*
X61731943Y-50636453D01*
X61706027Y-50563841D01*
X61675084Y-50460955D01*
X61642003Y-50339111D01*
X61609674Y-50209621D01*
X61580987Y-50083799D01*
X61580019Y-50078953D01*
X62436862Y-50078953D01*
X62439200Y-50228001D01*
X62450959Y-50374629D01*
X62471897Y-50504329D01*
X62472615Y-50507588D01*
X62508753Y-50670018D01*
X62692168Y-50659032D01*
X62774712Y-50654642D01*
X62888391Y-50649370D01*
X63022031Y-50643695D01*
X63164455Y-50638095D01*
X63275103Y-50634064D01*
X63674622Y-50620083D01*
X63476186Y-50449957D01*
X63377509Y-50367237D01*
X63265897Y-50276821D01*
X63146315Y-50182414D01*
X63136087Y-50174513D01*
X64217721Y-50174513D01*
X64454757Y-50397298D01*
X64540227Y-50475865D01*
X64618057Y-50544155D01*
X64681718Y-50596679D01*
X64724678Y-50627949D01*
X64736188Y-50633848D01*
X64781634Y-50641849D01*
X64851231Y-50647767D01*
X64903251Y-50649723D01*
X65025918Y-50651833D01*
X65014053Y-50583041D01*
X64981022Y-50395728D01*
X64947143Y-50211209D01*
X64914199Y-50038767D01*
X64883969Y-49887685D01*
X64858234Y-49767244D01*
X64853714Y-49747348D01*
X64830051Y-49644583D01*
X65632747Y-49644583D01*
X65644303Y-49761916D01*
X65662384Y-49942156D01*
X65677549Y-50084322D01*
X65690467Y-50192519D01*
X65701808Y-50270856D01*
X65712241Y-50323440D01*
X65722435Y-50354376D01*
X65733058Y-50367773D01*
X65743098Y-50368380D01*
X65775793Y-50357261D01*
X65838503Y-50335747D01*
X65921232Y-50307273D01*
X65987083Y-50284561D01*
X66263207Y-50200391D01*
X66523777Y-50145185D01*
X66781608Y-50116484D01*
X66886667Y-50111879D01*
X67151250Y-50105049D01*
X67175676Y-50002732D01*
X67194311Y-49889195D01*
X67201194Y-49765097D01*
X67196079Y-49648229D01*
X67181727Y-49566463D01*
X67130931Y-49453253D01*
X67050312Y-49368629D01*
X66941315Y-49312636D01*
X66805387Y-49285322D01*
X66643971Y-49286734D01*
X66458515Y-49316918D01*
X66250462Y-49375922D01*
X66021258Y-49463791D01*
X65886665Y-49524459D01*
X65632747Y-49644583D01*
X64830051Y-49644583D01*
X64808720Y-49551947D01*
X64741735Y-49586518D01*
X64681141Y-49628019D01*
X64604208Y-49695561D01*
X64519091Y-49780656D01*
X64433946Y-49874818D01*
X64356930Y-49969561D01*
X64308366Y-50037465D01*
X64217721Y-50174513D01*
X63136087Y-50174513D01*
X63023730Y-50087725D01*
X62903107Y-49996460D01*
X62789414Y-49912327D01*
X62687616Y-49839034D01*
X62602680Y-49780288D01*
X62539571Y-49739797D01*
X62503256Y-49721267D01*
X62499056Y-49720500D01*
X62488554Y-49739184D01*
X62473015Y-49787277D01*
X62461409Y-49831625D01*
X62444185Y-49941992D01*
X62436862Y-50078953D01*
X61580019Y-50078953D01*
X61558831Y-49972959D01*
X61551770Y-49931036D01*
X61542669Y-49845670D01*
X61536402Y-49732986D01*
X61533554Y-49607939D01*
X61534559Y-49490872D01*
X61542083Y-49210588D01*
X61425667Y-49174502D01*
X61348491Y-49158816D01*
X63071581Y-49158816D01*
X63184168Y-49254450D01*
X63249767Y-49310235D01*
X63334365Y-49382265D01*
X63424762Y-49459298D01*
X63475730Y-49502764D01*
X63654706Y-49655444D01*
X63704345Y-49548305D01*
X63736851Y-49483309D01*
X63783799Y-49395862D01*
X63837700Y-49299723D01*
X63869955Y-49244112D01*
X63945605Y-49124489D01*
X64034095Y-48998805D01*
X64128315Y-48876034D01*
X64221152Y-48765148D01*
X64305495Y-48675121D01*
X64360031Y-48625776D01*
X64439433Y-48562078D01*
X64369843Y-48453631D01*
X64315650Y-48380325D01*
X64245506Y-48299958D01*
X64187317Y-48241968D01*
X64068212Y-48154423D01*
X63949031Y-48108816D01*
X63830351Y-48104755D01*
X63712751Y-48141849D01*
X63596810Y-48219708D01*
X63483106Y-48337940D01*
X63372218Y-48496153D01*
X63264726Y-48693959D01*
X63161206Y-48930964D01*
X63158847Y-48936950D01*
X63071581Y-49158816D01*
X61348491Y-49158816D01*
X61303619Y-49149696D01*
X61143638Y-49138900D01*
X61096037Y-49138416D01*
X60996089Y-49139354D01*
X60927171Y-49143589D01*
X60877998Y-49153250D01*
X60837284Y-49170469D01*
X60797720Y-49194736D01*
X60712097Y-49276233D01*
X60654541Y-49387597D01*
X60625126Y-49526938D01*
X60623927Y-49692366D01*
X59401295Y-49692366D01*
X59321704Y-49533181D01*
X59167256Y-49179783D01*
X59046429Y-48849208D01*
X58959510Y-48542103D01*
X58914453Y-48312916D01*
X58894513Y-48091862D01*
X58905820Y-47895033D01*
X58947859Y-47723793D01*
X59020116Y-47579502D01*
X59122076Y-47463522D01*
X59253224Y-47377216D01*
X59271335Y-47368721D01*
X59380739Y-47335677D01*
X59519776Y-47318895D01*
X59679045Y-47318248D01*
X59849147Y-47333610D01*
X60020681Y-47364856D01*
X60079320Y-47379522D01*
X60349924Y-47464794D01*
X60636815Y-47579481D01*
X60941771Y-47724493D01*
X61266575Y-47900741D01*
X61613008Y-48109133D01*
X61982850Y-48350581D01*
X61992749Y-48357277D01*
X62109423Y-48434627D01*
X62204243Y-48494112D01*
X62273866Y-48533788D01*
X62314950Y-48551709D01*
X62324874Y-48550494D01*
X62333176Y-48516860D01*
X62346048Y-48456159D01*
X62357602Y-48397583D01*
X62381394Y-48284248D01*
X62414574Y-48141517D01*
X62454266Y-47980512D01*
X62497596Y-47812354D01*
X62541688Y-47648166D01*
X62583669Y-47499071D01*
X62620663Y-47376189D01*
X62625633Y-47360615D01*
X62737822Y-47039074D01*
X62856941Y-46748130D01*
X62981938Y-46489381D01*
X63111764Y-46264425D01*
X63245367Y-46074858D01*
X63381697Y-45922278D01*
X63519702Y-45808282D01*
X63658332Y-45734468D01*
X63705788Y-45718706D01*
X63828461Y-45701313D01*
X63964332Y-45709365D01*
D12*
X86106000Y-118999000D03*
X87376000Y-120269000D03*
X84836000Y-120269000D03*
D13*
X71183500Y-67691000D03*
D14*
X127571500Y-87122000D03*
D15*
X105219500Y-87122000D03*
D16*
X63817500Y-76857860D03*
X63817500Y-74018140D03*
D17*
X84836000Y-123952000D03*
D18*
X94996000Y-123952000D03*
D16*
X91059000Y-110213140D03*
X91059000Y-113052860D03*
D19*
X134048500Y-87122000D03*
D20*
X144208500Y-87122000D03*
D19*
X144843500Y-77142340D03*
D21*
X144843500Y-52141120D03*
D22*
X108399990Y-52862058D03*
D23*
X110939990Y-52862058D03*
D13*
X113987990Y-63022058D03*
X85344000Y-71755000D03*
X58547000Y-78740000D03*
D22*
X62039500Y-84074000D03*
D23*
X62039500Y-86614000D03*
D13*
X101600000Y-79057500D03*
D24*
X84986098Y-110011982D03*
D25*
X82446098Y-110011982D03*
X79906098Y-110011982D03*
X77366098Y-110011982D03*
D13*
X110299500Y-72517000D03*
X106172000Y-111379000D03*
X136207500Y-63246000D03*
X147955000Y-54165500D03*
X134048500Y-92583000D03*
D12*
X122364500Y-69723000D03*
X121094500Y-68453000D03*
X123634500Y-68453000D03*
D26*
X136207500Y-69469000D03*
X136207500Y-66929000D03*
X136207500Y-72009000D03*
D27*
X130111500Y-54991000D03*
X135699500Y-54991000D03*
X124523500Y-54991000D03*
D28*
X69993500Y-72898000D03*
X67293500Y-72898000D03*
D29*
X79906098Y-104042982D03*
X79906098Y-106742982D03*
D28*
X92249000Y-127127000D03*
X94949000Y-127127000D03*
X91059000Y-106934000D03*
X88359000Y-106934000D03*
X82503000Y-117348000D03*
X79803000Y-117348000D03*
D19*
X130365500Y-95504000D03*
X120205500Y-95504000D03*
D30*
X99060000Y-112415320D03*
X99060000Y-120015000D03*
D31*
X64325500Y-64643000D03*
D20*
X61785500Y-64643000D03*
D31*
X60515500Y-117411500D03*
D20*
X60515500Y-119951500D03*
D31*
X60515500Y-102679500D03*
D20*
X60515500Y-105219500D03*
D32*
X66705500Y-76835000D03*
X66705500Y-78105000D03*
X66705500Y-79375000D03*
X66705500Y-80645000D03*
X72105500Y-80645000D03*
X72105500Y-79375000D03*
X72105500Y-78105000D03*
X72105500Y-76835000D03*
X109377500Y-112331500D03*
X109377500Y-113601500D03*
X109377500Y-114871500D03*
X109377500Y-116141500D03*
X114777500Y-116141500D03*
X114777500Y-114871500D03*
X114777500Y-113601500D03*
X114777500Y-112331500D03*
D33*
X69293753Y-117957327D02*
X69647575Y-117603505D01*
X71216221Y-117603505D02*
X71570043Y-117957327D01*
D34*
X69151500Y-83312000D03*
X66651500Y-83312000D03*
D35*
X66649600Y-124937200D03*
X66649600Y-127437200D03*
X77366098Y-104062982D03*
X77366098Y-106562982D03*
D34*
X113645000Y-119507000D03*
X111145000Y-119507000D03*
D36*
X127381000Y-116840000D03*
X127381000Y-121841260D03*
X127381000Y-111838740D03*
D37*
X115697000Y-96647000D03*
D19*
X74168000Y-88646000D03*
X73439020Y-90147140D03*
X76708000Y-88646000D03*
X77436980Y-87144860D03*
X86233000Y-82042000D03*
X84731860Y-81313020D03*
X86233000Y-84582000D03*
X87734140Y-85310980D03*
D38*
X70608000Y-125632000D03*
X71258000Y-125632000D03*
X71908000Y-125632000D03*
X72558000Y-125632000D03*
X73208000Y-125632000D03*
X73858000Y-125632000D03*
X74508000Y-125632000D03*
X75158000Y-125632000D03*
X75808000Y-125632000D03*
X76458000Y-125632000D03*
X76458000Y-119732000D03*
X75808000Y-119732000D03*
X75158000Y-119732000D03*
X74508000Y-119732000D03*
X73858000Y-119732000D03*
X73208000Y-119732000D03*
X72558000Y-119732000D03*
X71908000Y-119732000D03*
X71258000Y-119732000D03*
X70608000Y-119732000D03*
D39*
X78740000Y-68453000D03*
D40*
X78740000Y-75057000D03*
X81026000Y-75057000D03*
X76454000Y-75057000D03*
D37*
X98298000Y-97002600D03*
D13*
X78308200Y-63779400D03*
D24*
X65565020Y-132397500D03*
D25*
X68105020Y-132397500D03*
X70645020Y-132397500D03*
X73185020Y-132397500D03*
X75725020Y-132397500D03*
X78265020Y-132397500D03*
X80805020Y-132397500D03*
X83345020Y-132397500D03*
X85885020Y-132397500D03*
X88425020Y-132397500D03*
X90965020Y-132397500D03*
X93505020Y-132397500D03*
X96045020Y-132397500D03*
X98585020Y-132397500D03*
X101125020Y-132397500D03*
X103665020Y-132397500D03*
D41*
G36*
X72009000Y-115887500D02*
X68834000Y-115887500D01*
X68834000Y-107759500D01*
X72009000Y-107759500D01*
X72009000Y-115887500D01*
X72009000Y-115887500D01*
G37*
X72009000Y-115887500D02*
X68834000Y-115887500D01*
X68834000Y-107759500D01*
X72009000Y-107759500D01*
X72009000Y-115887500D01*
M02*
