%TF.GenerationSoftware,KiCad,Pcbnew,4.0.0-rc2-stable*%
%TF.CreationDate,2016-01-15T11:30:49-06:00*%
%TF.ProjectId,GMCounter,474D436F756E7465722E6B696361645F,rev?*%
%TF.FileFunction,Legend,Bot*%
%FSLAX46Y46*%
G04 Gerber Fmt 4.6, Leading zero omitted, Abs format (unit mm)*
G04 Created by KiCad (PCBNEW 4.0.0-rc2-stable) date 15/01/2016 11:30:49*
%MOMM*%
G01*
G04 APERTURE LIST*
%ADD10C,0.100000*%
%ADD11C,0.400000*%
%ADD12C,0.150000*%
G04 APERTURE END LIST*
D10*
D11*
X87534191Y-57343762D02*
X87534191Y-55343762D01*
X87058000Y-55343762D01*
X86772286Y-55439000D01*
X86581810Y-55629476D01*
X86486571Y-55819952D01*
X86391333Y-56200905D01*
X86391333Y-56486619D01*
X86486571Y-56867571D01*
X86581810Y-57058048D01*
X86772286Y-57248524D01*
X87058000Y-57343762D01*
X87534191Y-57343762D01*
X85534191Y-57343762D02*
X85534191Y-56010429D01*
X85534191Y-55343762D02*
X85629429Y-55439000D01*
X85534191Y-55534238D01*
X85438952Y-55439000D01*
X85534191Y-55343762D01*
X85534191Y-55534238D01*
X84677048Y-57248524D02*
X84486571Y-57343762D01*
X84105619Y-57343762D01*
X83915143Y-57248524D01*
X83819905Y-57058048D01*
X83819905Y-56962810D01*
X83915143Y-56772333D01*
X84105619Y-56677095D01*
X84391333Y-56677095D01*
X84581810Y-56581857D01*
X84677048Y-56391381D01*
X84677048Y-56296143D01*
X84581810Y-56105667D01*
X84391333Y-56010429D01*
X84105619Y-56010429D01*
X83915143Y-56105667D01*
X82200857Y-57248524D02*
X82391333Y-57343762D01*
X82772285Y-57343762D01*
X82962762Y-57248524D01*
X83058000Y-57058048D01*
X83058000Y-56296143D01*
X82962762Y-56105667D01*
X82772285Y-56010429D01*
X82391333Y-56010429D01*
X82200857Y-56105667D01*
X82105619Y-56296143D01*
X82105619Y-56486619D01*
X83058000Y-56677095D01*
X81248476Y-56010429D02*
X81248476Y-57343762D01*
X81248476Y-56200905D02*
X81153237Y-56105667D01*
X80962761Y-56010429D01*
X80677047Y-56010429D01*
X80486571Y-56105667D01*
X80391333Y-56296143D01*
X80391333Y-57343762D01*
X81343714Y-55534238D02*
X81248476Y-55439000D01*
X81057999Y-55343762D01*
X80677047Y-55534238D01*
X80486571Y-55439000D01*
X80391333Y-55343762D01*
X79153237Y-57343762D02*
X79343713Y-57248524D01*
X79438952Y-57153286D01*
X79534190Y-56962810D01*
X79534190Y-56391381D01*
X79438952Y-56200905D01*
X79343713Y-56105667D01*
X79153237Y-56010429D01*
X78867523Y-56010429D01*
X78677047Y-56105667D01*
X78581809Y-56200905D01*
X78486571Y-56391381D01*
X78486571Y-56962810D01*
X78581809Y-57153286D01*
X78677047Y-57248524D01*
X78867523Y-57343762D01*
X79153237Y-57343762D01*
X95677049Y-60543762D02*
X95677049Y-58543762D01*
X94724668Y-59210429D02*
X94724668Y-60543762D01*
X94724668Y-59400905D02*
X94629429Y-59305667D01*
X94438953Y-59210429D01*
X94153239Y-59210429D01*
X93962763Y-59305667D01*
X93867525Y-59496143D01*
X93867525Y-60543762D01*
X92058001Y-59210429D02*
X92058001Y-60829476D01*
X92153239Y-61019952D01*
X92248477Y-61115190D01*
X92438953Y-61210429D01*
X92724667Y-61210429D01*
X92915144Y-61115190D01*
X92058001Y-60448524D02*
X92248477Y-60543762D01*
X92629429Y-60543762D01*
X92819905Y-60448524D01*
X92915144Y-60353286D01*
X93010382Y-60162810D01*
X93010382Y-59591381D01*
X92915144Y-59400905D01*
X92819905Y-59305667D01*
X92629429Y-59210429D01*
X92248477Y-59210429D01*
X92058001Y-59305667D01*
X91105620Y-60353286D02*
X91010381Y-60448524D01*
X91105620Y-60543762D01*
X91200858Y-60448524D01*
X91105620Y-60353286D01*
X91105620Y-60543762D01*
X88629429Y-60543762D02*
X88629429Y-58543762D01*
X87867524Y-59210429D02*
X87391333Y-60543762D01*
X86915143Y-59210429D01*
X85296095Y-60543762D02*
X85296095Y-59496143D01*
X85391333Y-59305667D01*
X85581809Y-59210429D01*
X85962761Y-59210429D01*
X86153238Y-59305667D01*
X85296095Y-60448524D02*
X85486571Y-60543762D01*
X85962761Y-60543762D01*
X86153238Y-60448524D01*
X86248476Y-60258048D01*
X86248476Y-60067571D01*
X86153238Y-59877095D01*
X85962761Y-59781857D01*
X85486571Y-59781857D01*
X85296095Y-59686619D01*
X85581809Y-58448524D02*
X85867523Y-58734238D01*
X84343714Y-59210429D02*
X84343714Y-60543762D01*
X84343714Y-59400905D02*
X84248475Y-59305667D01*
X84057999Y-59210429D01*
X83772285Y-59210429D01*
X83581809Y-59305667D01*
X83486571Y-59496143D01*
X83486571Y-60543762D01*
X81010380Y-60543762D02*
X81010380Y-58543762D01*
X80343713Y-59972333D01*
X79677046Y-58543762D01*
X79677046Y-60543762D01*
X78438951Y-60543762D02*
X78629427Y-60448524D01*
X78724666Y-60353286D01*
X78819904Y-60162810D01*
X78819904Y-59591381D01*
X78724666Y-59400905D01*
X78629427Y-59305667D01*
X78438951Y-59210429D01*
X78153237Y-59210429D01*
X77962761Y-59305667D01*
X77867523Y-59400905D01*
X77772285Y-59591381D01*
X77772285Y-60162810D01*
X77867523Y-60353286D01*
X77962761Y-60448524D01*
X78153237Y-60543762D01*
X78438951Y-60543762D01*
X76915142Y-60543762D02*
X76915142Y-59210429D01*
X76915142Y-59591381D02*
X76819903Y-59400905D01*
X76724665Y-59305667D01*
X76534189Y-59210429D01*
X76343713Y-59210429D01*
X74819904Y-60543762D02*
X74819904Y-59496143D01*
X74915142Y-59305667D01*
X75105618Y-59210429D01*
X75486570Y-59210429D01*
X75677047Y-59305667D01*
X74819904Y-60448524D02*
X75010380Y-60543762D01*
X75486570Y-60543762D01*
X75677047Y-60448524D01*
X75772285Y-60258048D01*
X75772285Y-60067571D01*
X75677047Y-59877095D01*
X75486570Y-59781857D01*
X75010380Y-59781857D01*
X74819904Y-59686619D01*
X73581808Y-60543762D02*
X73772284Y-60448524D01*
X73867523Y-60258048D01*
X73867523Y-58543762D01*
X72057999Y-60448524D02*
X72248475Y-60543762D01*
X72629427Y-60543762D01*
X72819904Y-60448524D01*
X72915142Y-60258048D01*
X72915142Y-59496143D01*
X72819904Y-59305667D01*
X72629427Y-59210429D01*
X72248475Y-59210429D01*
X72057999Y-59305667D01*
X71962761Y-59496143D01*
X71962761Y-59686619D01*
X72915142Y-59877095D01*
X71200856Y-60448524D02*
X71010379Y-60543762D01*
X70629427Y-60543762D01*
X70438951Y-60448524D01*
X70343713Y-60258048D01*
X70343713Y-60162810D01*
X70438951Y-59972333D01*
X70629427Y-59877095D01*
X70915141Y-59877095D01*
X71105618Y-59781857D01*
X71200856Y-59591381D01*
X71200856Y-59496143D01*
X71105618Y-59305667D01*
X70915141Y-59210429D01*
X70629427Y-59210429D01*
X70438951Y-59305667D01*
D10*
X152844500Y-42862500D02*
X152844500Y-136842500D01*
X53784500Y-42862500D02*
X152844500Y-42862500D01*
X53784500Y-136842500D02*
X53784500Y-42862500D01*
X152844500Y-136842500D02*
X53784500Y-136842500D01*
D12*
X104751990Y-62373058D02*
X105951990Y-62373058D01*
X105951990Y-60623058D02*
X104751990Y-60623058D01*
X103079990Y-57008058D02*
X103079990Y-58208058D01*
X104829990Y-58208058D02*
X104829990Y-57008058D01*
X94438500Y-75934000D02*
X94438500Y-77134000D01*
X96188500Y-77134000D02*
X96188500Y-75934000D01*
X96188500Y-71640000D02*
X96188500Y-70440000D01*
X94438500Y-70440000D02*
X94438500Y-71640000D01*
X114328500Y-73039000D02*
X113128500Y-73039000D01*
X113128500Y-74789000D02*
X114328500Y-74789000D01*
X129361500Y-70245000D02*
X128161500Y-70245000D01*
X128161500Y-71995000D02*
X129361500Y-71995000D01*
X118843500Y-74789000D02*
X120043500Y-74789000D01*
X120043500Y-73039000D02*
X118843500Y-73039000D01*
X128067500Y-67804000D02*
X129267500Y-67804000D01*
X129267500Y-66054000D02*
X128067500Y-66054000D01*
X129234500Y-60339000D02*
X128034500Y-60339000D01*
X128034500Y-62089000D02*
X129234500Y-62089000D01*
X103271500Y-77124000D02*
X103271500Y-76979000D01*
X107421500Y-77124000D02*
X107421500Y-76979000D01*
X107421500Y-71974000D02*
X107421500Y-72119000D01*
X103271500Y-71974000D02*
X103271500Y-72119000D01*
X103271500Y-77124000D02*
X107421500Y-77124000D01*
X103271500Y-71974000D02*
X107421500Y-71974000D01*
X103271500Y-76979000D02*
X101871500Y-76979000D01*
X110265990Y-59748058D02*
X110265990Y-60748058D01*
X108565990Y-60748058D02*
X108565990Y-59748058D01*
X105513166Y-64079381D02*
X105846500Y-63603190D01*
X106084595Y-64079381D02*
X106084595Y-63079381D01*
X105703642Y-63079381D01*
X105608404Y-63127000D01*
X105560785Y-63174619D01*
X105513166Y-63269857D01*
X105513166Y-63412714D01*
X105560785Y-63507952D01*
X105608404Y-63555571D01*
X105703642Y-63603190D01*
X106084595Y-63603190D01*
X105132214Y-63174619D02*
X105084595Y-63127000D01*
X104989357Y-63079381D01*
X104751261Y-63079381D01*
X104656023Y-63127000D01*
X104608404Y-63174619D01*
X104560785Y-63269857D01*
X104560785Y-63365095D01*
X104608404Y-63507952D01*
X105179833Y-64079381D01*
X104560785Y-64079381D01*
X106507371Y-57441392D02*
X106031180Y-57108058D01*
X106507371Y-56869963D02*
X105507371Y-56869963D01*
X105507371Y-57250916D01*
X105554990Y-57346154D01*
X105602609Y-57393773D01*
X105697847Y-57441392D01*
X105840704Y-57441392D01*
X105935942Y-57393773D01*
X105983561Y-57346154D01*
X106031180Y-57250916D01*
X106031180Y-56869963D01*
X105507371Y-57774725D02*
X105507371Y-58393773D01*
X105888323Y-58060439D01*
X105888323Y-58203297D01*
X105935942Y-58298535D01*
X105983561Y-58346154D01*
X106078800Y-58393773D01*
X106316895Y-58393773D01*
X106412133Y-58346154D01*
X106459752Y-58298535D01*
X106507371Y-58203297D01*
X106507371Y-57917582D01*
X106459752Y-57822344D01*
X106412133Y-57774725D01*
X97865881Y-76367334D02*
X97389690Y-76034000D01*
X97865881Y-75795905D02*
X96865881Y-75795905D01*
X96865881Y-76176858D01*
X96913500Y-76272096D01*
X96961119Y-76319715D01*
X97056357Y-76367334D01*
X97199214Y-76367334D01*
X97294452Y-76319715D01*
X97342071Y-76272096D01*
X97389690Y-76176858D01*
X97389690Y-75795905D01*
X97199214Y-77224477D02*
X97865881Y-77224477D01*
X96818262Y-76986381D02*
X97532548Y-76748286D01*
X97532548Y-77367334D01*
X93987881Y-71207334D02*
X93511690Y-70874000D01*
X93987881Y-70635905D02*
X92987881Y-70635905D01*
X92987881Y-71016858D01*
X93035500Y-71112096D01*
X93083119Y-71159715D01*
X93178357Y-71207334D01*
X93321214Y-71207334D01*
X93416452Y-71159715D01*
X93464071Y-71112096D01*
X93511690Y-71016858D01*
X93511690Y-70635905D01*
X92987881Y-72112096D02*
X92987881Y-71635905D01*
X93464071Y-71588286D01*
X93416452Y-71635905D01*
X93368833Y-71731143D01*
X93368833Y-71969239D01*
X93416452Y-72064477D01*
X93464071Y-72112096D01*
X93559310Y-72159715D01*
X93797405Y-72159715D01*
X93892643Y-72112096D01*
X93940262Y-72064477D01*
X93987881Y-71969239D01*
X93987881Y-71731143D01*
X93940262Y-71635905D01*
X93892643Y-71588286D01*
X113514166Y-72334381D02*
X113847500Y-71858190D01*
X114085595Y-72334381D02*
X114085595Y-71334381D01*
X113704642Y-71334381D01*
X113609404Y-71382000D01*
X113561785Y-71429619D01*
X113514166Y-71524857D01*
X113514166Y-71667714D01*
X113561785Y-71762952D01*
X113609404Y-71810571D01*
X113704642Y-71858190D01*
X114085595Y-71858190D01*
X113180833Y-71334381D02*
X112514166Y-71334381D01*
X112942738Y-72334381D01*
X128928166Y-73672381D02*
X129261500Y-73196190D01*
X129499595Y-73672381D02*
X129499595Y-72672381D01*
X129118642Y-72672381D01*
X129023404Y-72720000D01*
X128975785Y-72767619D01*
X128928166Y-72862857D01*
X128928166Y-73005714D01*
X128975785Y-73100952D01*
X129023404Y-73148571D01*
X129118642Y-73196190D01*
X129499595Y-73196190D01*
X128451976Y-73672381D02*
X128261500Y-73672381D01*
X128166261Y-73624762D01*
X128118642Y-73577143D01*
X128023404Y-73434286D01*
X127975785Y-73243810D01*
X127975785Y-72862857D01*
X128023404Y-72767619D01*
X128071023Y-72720000D01*
X128166261Y-72672381D01*
X128356738Y-72672381D01*
X128451976Y-72720000D01*
X128499595Y-72767619D01*
X128547214Y-72862857D01*
X128547214Y-73100952D01*
X128499595Y-73196190D01*
X128451976Y-73243810D01*
X128356738Y-73291429D01*
X128166261Y-73291429D01*
X128071023Y-73243810D01*
X128023404Y-73196190D01*
X127975785Y-73100952D01*
X120086357Y-72266381D02*
X120419691Y-71790190D01*
X120657786Y-72266381D02*
X120657786Y-71266381D01*
X120276833Y-71266381D01*
X120181595Y-71314000D01*
X120133976Y-71361619D01*
X120086357Y-71456857D01*
X120086357Y-71599714D01*
X120133976Y-71694952D01*
X120181595Y-71742571D01*
X120276833Y-71790190D01*
X120657786Y-71790190D01*
X119133976Y-72266381D02*
X119705405Y-72266381D01*
X119419691Y-72266381D02*
X119419691Y-71266381D01*
X119514929Y-71409238D01*
X119610167Y-71504476D01*
X119705405Y-71552095D01*
X118514929Y-71266381D02*
X118419690Y-71266381D01*
X118324452Y-71314000D01*
X118276833Y-71361619D01*
X118229214Y-71456857D01*
X118181595Y-71647333D01*
X118181595Y-71885429D01*
X118229214Y-72075905D01*
X118276833Y-72171143D01*
X118324452Y-72218762D01*
X118419690Y-72266381D01*
X118514929Y-72266381D01*
X118610167Y-72218762D01*
X118657786Y-72171143D01*
X118705405Y-72075905D01*
X118753024Y-71885429D01*
X118753024Y-71647333D01*
X118705405Y-71456857D01*
X118657786Y-71361619D01*
X118610167Y-71314000D01*
X118514929Y-71266381D01*
X127452357Y-65666881D02*
X127785691Y-65190690D01*
X128023786Y-65666881D02*
X128023786Y-64666881D01*
X127642833Y-64666881D01*
X127547595Y-64714500D01*
X127499976Y-64762119D01*
X127452357Y-64857357D01*
X127452357Y-65000214D01*
X127499976Y-65095452D01*
X127547595Y-65143071D01*
X127642833Y-65190690D01*
X128023786Y-65190690D01*
X126499976Y-65666881D02*
X127071405Y-65666881D01*
X126785691Y-65666881D02*
X126785691Y-64666881D01*
X126880929Y-64809738D01*
X126976167Y-64904976D01*
X127071405Y-64952595D01*
X125547595Y-65666881D02*
X126119024Y-65666881D01*
X125833310Y-65666881D02*
X125833310Y-64666881D01*
X125928548Y-64809738D01*
X126023786Y-64904976D01*
X126119024Y-64952595D01*
X129357357Y-63444381D02*
X129690691Y-62968190D01*
X129928786Y-63444381D02*
X129928786Y-62444381D01*
X129547833Y-62444381D01*
X129452595Y-62492000D01*
X129404976Y-62539619D01*
X129357357Y-62634857D01*
X129357357Y-62777714D01*
X129404976Y-62872952D01*
X129452595Y-62920571D01*
X129547833Y-62968190D01*
X129928786Y-62968190D01*
X128404976Y-63444381D02*
X128976405Y-63444381D01*
X128690691Y-63444381D02*
X128690691Y-62444381D01*
X128785929Y-62587238D01*
X128881167Y-62682476D01*
X128976405Y-62730095D01*
X128024024Y-62539619D02*
X127976405Y-62492000D01*
X127881167Y-62444381D01*
X127643071Y-62444381D01*
X127547833Y-62492000D01*
X127500214Y-62539619D01*
X127452595Y-62634857D01*
X127452595Y-62730095D01*
X127500214Y-62872952D01*
X128071643Y-63444381D01*
X127452595Y-63444381D01*
X106108405Y-77501381D02*
X106108405Y-78310905D01*
X106060786Y-78406143D01*
X106013167Y-78453762D01*
X105917929Y-78501381D01*
X105727452Y-78501381D01*
X105632214Y-78453762D01*
X105584595Y-78406143D01*
X105536976Y-78310905D01*
X105536976Y-77501381D01*
X105108405Y-77596619D02*
X105060786Y-77549000D01*
X104965548Y-77501381D01*
X104727452Y-77501381D01*
X104632214Y-77549000D01*
X104584595Y-77596619D01*
X104536976Y-77691857D01*
X104536976Y-77787095D01*
X104584595Y-77929952D01*
X105156024Y-78501381D01*
X104536976Y-78501381D01*
X111736143Y-59396334D02*
X111783762Y-59348715D01*
X111831381Y-59205858D01*
X111831381Y-59110620D01*
X111783762Y-58967762D01*
X111688524Y-58872524D01*
X111593286Y-58824905D01*
X111402810Y-58777286D01*
X111259952Y-58777286D01*
X111069476Y-58824905D01*
X110974238Y-58872524D01*
X110879000Y-58967762D01*
X110831381Y-59110620D01*
X110831381Y-59205858D01*
X110879000Y-59348715D01*
X110926619Y-59396334D01*
X111831381Y-60348715D02*
X111831381Y-59777286D01*
X111831381Y-60063000D02*
X110831381Y-60063000D01*
X110974238Y-59967762D01*
X111069476Y-59872524D01*
X111117095Y-59777286D01*
M02*
