%TF.GenerationSoftware,KiCad,Pcbnew,4.0.0-rc2-stable*%
%TF.CreationDate,2016-01-15T11:30:49-06:00*%
%TF.ProjectId,GMCounter,474D436F756E7465722E6B696361645F,rev?*%
%TF.FileFunction,Soldermask,Top*%
%FSLAX46Y46*%
G04 Gerber Fmt 4.6, Leading zero omitted, Abs format (unit mm)*
G04 Created by KiCad (PCBNEW 4.0.0-rc2-stable) date 15/01/2016 11:30:49*
%MOMM*%
G01*
G04 APERTURE LIST*
%ADD10C,0.100000*%
%ADD11C,0.600000*%
%ADD12C,2.600000*%
%ADD13C,0.010000*%
%ADD14C,1.501140*%
%ADD15R,1.600000X1.600000*%
%ADD16C,1.600000*%
%ADD17R,1.800860X1.597660*%
%ADD18C,1.699260*%
%ADD19R,1.699260X1.699260*%
%ADD20C,1.998980*%
%ADD21R,1.998980X1.998980*%
%ADD22O,1.800000X2.600000*%
%ADD23C,3.000000*%
%ADD24C,2.301240*%
%ADD25R,2.032000X2.032000*%
%ADD26O,2.032000X2.032000*%
%ADD27R,1.727200X2.032000*%
%ADD28O,1.727200X2.032000*%
%ADD29C,1.000760*%
%ADD30C,1.524000*%
%ADD31O,3.500120X5.501640*%
%ADD32R,1.500000X1.300000*%
%ADD33R,1.300000X1.500000*%
%ADD34C,2.000000*%
%ADD35O,1.998980X1.998980*%
%ADD36R,1.550000X0.600000*%
%ADD37O,1.600000X2.300000*%
%ADD38C,1.000760*%
%ADD39R,1.500000X1.250000*%
%ADD40R,1.250000X1.500000*%
G04 APERTURE END LIST*
D10*
D11*
X77859572Y-59317143D02*
X77859572Y-61745714D01*
X78002429Y-62031429D01*
X78145286Y-62174286D01*
X78431000Y-62317143D01*
X79002429Y-62317143D01*
X79288143Y-62174286D01*
X79431000Y-62031429D01*
X79573857Y-61745714D01*
X79573857Y-59317143D01*
X80859572Y-62174286D02*
X81288143Y-62317143D01*
X82002429Y-62317143D01*
X82288143Y-62174286D01*
X82431000Y-62031429D01*
X82573857Y-61745714D01*
X82573857Y-61460000D01*
X82431000Y-61174286D01*
X82288143Y-61031429D01*
X82002429Y-60888571D01*
X81431000Y-60745714D01*
X81145286Y-60602857D01*
X81002429Y-60460000D01*
X80859572Y-60174286D01*
X80859572Y-59888571D01*
X81002429Y-59602857D01*
X81145286Y-59460000D01*
X81431000Y-59317143D01*
X82145286Y-59317143D01*
X82573857Y-59460000D01*
X83716715Y-61460000D02*
X85145286Y-61460000D01*
X83431000Y-62317143D02*
X84431000Y-59317143D01*
X85431000Y-62317143D01*
X88145286Y-62031429D02*
X88002429Y-62174286D01*
X87573858Y-62317143D01*
X87288144Y-62317143D01*
X86859572Y-62174286D01*
X86573858Y-61888571D01*
X86431001Y-61602857D01*
X86288144Y-61031429D01*
X86288144Y-60602857D01*
X86431001Y-60031429D01*
X86573858Y-59745714D01*
X86859572Y-59460000D01*
X87288144Y-59317143D01*
X87573858Y-59317143D01*
X88002429Y-59460000D01*
X88145286Y-59602857D01*
D12*
X72898001Y-100076000D02*
G75*
G03X72898001Y-100076000I-1350029J0D01*
G01*
D10*
X152844500Y-42862500D02*
X152844500Y-136842500D01*
X53784500Y-42862500D02*
X152844500Y-42862500D01*
X53784500Y-136842500D02*
X53784500Y-42862500D01*
X152844500Y-136842500D02*
X53784500Y-136842500D01*
D13*
G36*
X63583332Y-45201365D02*
X63713264Y-45232978D01*
X63763661Y-45253886D01*
X63846493Y-45305662D01*
X63942563Y-45384147D01*
X64042528Y-45480242D01*
X64137048Y-45584846D01*
X64216783Y-45688859D01*
X64229325Y-45707552D01*
X64360989Y-45930542D01*
X64489665Y-46190628D01*
X64613493Y-46482588D01*
X64730614Y-46801198D01*
X64839169Y-47141237D01*
X64937297Y-47497482D01*
X65023139Y-47864711D01*
X65057531Y-48033529D01*
X65077844Y-48127722D01*
X65095444Y-48184452D01*
X65112032Y-48208357D01*
X65121949Y-48208976D01*
X65150528Y-48193194D01*
X65205392Y-48159140D01*
X65277806Y-48112329D01*
X65335798Y-48073897D01*
X65679096Y-47853243D01*
X66019172Y-47652501D01*
X66351534Y-47473909D01*
X66671687Y-47319705D01*
X66975136Y-47192126D01*
X67257389Y-47093410D01*
X67371824Y-47060203D01*
X67485336Y-47032658D01*
X67590222Y-47015384D01*
X67703985Y-47006187D01*
X67828583Y-47003002D01*
X67938992Y-47002640D01*
X68018369Y-47005169D01*
X68077998Y-47012308D01*
X68129166Y-47025778D01*
X68183158Y-47047296D01*
X68215445Y-47061937D01*
X68349135Y-47141818D01*
X68451286Y-47245977D01*
X68523310Y-47368821D01*
X68542052Y-47414657D01*
X68554744Y-47462548D01*
X68562458Y-47521864D01*
X68566266Y-47601977D01*
X68567240Y-47712258D01*
X68567142Y-47752000D01*
X68565276Y-47882453D01*
X68559760Y-47984706D01*
X68548930Y-48072843D01*
X68531125Y-48160950D01*
X68508427Y-48249416D01*
X68417969Y-48534933D01*
X68295897Y-48844104D01*
X68143596Y-49174069D01*
X67962452Y-49521965D01*
X67753850Y-49884931D01*
X67582446Y-50161823D01*
X67523584Y-50255069D01*
X67473856Y-50335555D01*
X67437290Y-50396626D01*
X67417916Y-50431624D01*
X67415873Y-50436990D01*
X67435256Y-50446500D01*
X67487456Y-50461085D01*
X67563600Y-50478453D01*
X67622248Y-50490250D01*
X67715423Y-50509483D01*
X67836916Y-50536591D01*
X67974114Y-50568654D01*
X68114400Y-50602750D01*
X68188417Y-50621341D01*
X68591691Y-50732393D01*
X68956981Y-50850485D01*
X69283747Y-50975333D01*
X69571450Y-51106651D01*
X69819549Y-51244154D01*
X70027504Y-51387556D01*
X70194775Y-51536572D01*
X70320824Y-51690916D01*
X70370744Y-51774808D01*
X70419600Y-51911412D01*
X70433591Y-52058362D01*
X70412499Y-52203035D01*
X70379614Y-52290410D01*
X70298518Y-52418876D01*
X70180577Y-52550977D01*
X70030578Y-52682691D01*
X69853312Y-52809996D01*
X69653568Y-52928870D01*
X69564250Y-52975252D01*
X69329177Y-53082512D01*
X69058959Y-53188630D01*
X68760769Y-53291422D01*
X68441782Y-53388704D01*
X68109174Y-53478291D01*
X67770119Y-53557999D01*
X67431790Y-53625645D01*
X67421757Y-53627460D01*
X67336432Y-53642284D01*
X67280497Y-53655088D01*
X67252407Y-53672754D01*
X67250614Y-53702159D01*
X67273572Y-53750185D01*
X67319734Y-53823710D01*
X67362664Y-53890333D01*
X67492383Y-54102575D01*
X67626472Y-54338577D01*
X67759281Y-54587349D01*
X67885158Y-54837898D01*
X67998452Y-55079233D01*
X68093512Y-55300365D01*
X68113768Y-55351208D01*
X68200914Y-55589825D01*
X68265173Y-55803978D01*
X68308830Y-56003243D01*
X68334167Y-56197195D01*
X68341102Y-56304624D01*
X68343556Y-56473248D01*
X68333814Y-56609185D01*
X68310357Y-56720712D01*
X68271666Y-56816106D01*
X68236360Y-56875270D01*
X68161936Y-56960467D01*
X68064061Y-57038466D01*
X67959913Y-57096500D01*
X67917651Y-57112087D01*
X67821998Y-57129941D01*
X67697469Y-57137413D01*
X67556127Y-57134900D01*
X67410036Y-57122796D01*
X67271259Y-57101495D01*
X67214750Y-57089097D01*
X66971282Y-57017024D01*
X66703397Y-56914529D01*
X66414354Y-56783221D01*
X66107410Y-56624713D01*
X65785825Y-56440615D01*
X65452856Y-56232539D01*
X65362846Y-56173399D01*
X65274428Y-56115127D01*
X65199744Y-56066692D01*
X65145261Y-56032228D01*
X65117447Y-56015870D01*
X65115242Y-56015129D01*
X65109529Y-56035840D01*
X65096284Y-56090952D01*
X65077121Y-56173533D01*
X65053655Y-56276651D01*
X65035670Y-56356729D01*
X64935722Y-56770968D01*
X64828728Y-57151451D01*
X64715157Y-57497365D01*
X64595478Y-57807897D01*
X64470159Y-58082235D01*
X64339670Y-58319565D01*
X64204480Y-58519074D01*
X64065057Y-58679949D01*
X63921872Y-58801377D01*
X63775392Y-58882545D01*
X63626087Y-58922640D01*
X63552917Y-58927054D01*
X63468759Y-58921899D01*
X63389341Y-58909647D01*
X63350833Y-58899290D01*
X63209551Y-58827832D01*
X63069303Y-58715908D01*
X62930994Y-58565383D01*
X62795530Y-58378125D01*
X62663817Y-58156000D01*
X62536760Y-57900873D01*
X62415266Y-57614612D01*
X62300239Y-57299084D01*
X62192586Y-56956154D01*
X62093212Y-56587689D01*
X62003023Y-56195556D01*
X61976617Y-56067213D01*
X61952664Y-55947510D01*
X61630957Y-56154884D01*
X61239805Y-56397254D01*
X60871946Y-56605093D01*
X60527495Y-56778351D01*
X60206569Y-56916981D01*
X59909283Y-57020936D01*
X59635753Y-57090168D01*
X59386094Y-57124628D01*
X59272752Y-57128805D01*
X59078291Y-57115082D01*
X58915166Y-57073299D01*
X58782292Y-57002617D01*
X58678583Y-56902197D01*
X58602954Y-56771199D01*
X58554319Y-56608785D01*
X58546952Y-56567617D01*
X58535043Y-56384349D01*
X58552703Y-56173979D01*
X58599044Y-55938804D01*
X58673178Y-55681125D01*
X58774216Y-55403239D01*
X58901270Y-55107445D01*
X59044135Y-54815105D01*
X60296890Y-54815105D01*
X60299157Y-54977862D01*
X60332411Y-55112693D01*
X60396569Y-55219289D01*
X60491545Y-55297342D01*
X60617258Y-55346544D01*
X60642500Y-55352183D01*
X60704451Y-55363607D01*
X60753870Y-55368115D01*
X60806646Y-55365561D01*
X60878664Y-55355796D01*
X60917667Y-55349639D01*
X61003067Y-55334384D01*
X61083129Y-55317479D01*
X61129333Y-55305701D01*
X61203417Y-55283803D01*
X61204947Y-54983943D01*
X61214523Y-54744961D01*
X61242576Y-54522400D01*
X61291959Y-54299632D01*
X61361489Y-54071902D01*
X61388262Y-53989308D01*
X61395971Y-53962734D01*
X62399333Y-53962734D01*
X62403696Y-54012310D01*
X62415824Y-54095660D01*
X62434277Y-54205234D01*
X62457612Y-54333485D01*
X62484390Y-54472866D01*
X62513169Y-54615830D01*
X62542508Y-54754829D01*
X62570967Y-54882314D01*
X62590788Y-54965517D01*
X62672669Y-55274446D01*
X62756414Y-55544003D01*
X62843332Y-55777147D01*
X62934733Y-55976835D01*
X63031927Y-56146025D01*
X63136224Y-56287675D01*
X63213333Y-56371216D01*
X63329967Y-56464236D01*
X63448290Y-56515094D01*
X63569122Y-56523955D01*
X63693285Y-56490980D01*
X63729484Y-56473899D01*
X63830269Y-56402979D01*
X63934892Y-56293365D01*
X64040427Y-56148152D01*
X64046811Y-56138239D01*
X64132118Y-56004895D01*
X63936447Y-55810155D01*
X63749292Y-55600491D01*
X63571686Y-55355166D01*
X63407474Y-55080469D01*
X63260503Y-54782685D01*
X63163242Y-54546229D01*
X63130491Y-54461063D01*
X63102420Y-54397055D01*
X63072392Y-54344856D01*
X63033772Y-54295117D01*
X62979922Y-54238491D01*
X62904206Y-54165629D01*
X62870346Y-54133651D01*
X62690948Y-53964416D01*
X63713416Y-53964416D01*
X63854426Y-54080833D01*
X64120156Y-54292277D01*
X64393364Y-54494756D01*
X64667467Y-54683948D01*
X64935879Y-54855533D01*
X65192016Y-55005187D01*
X65429294Y-55128590D01*
X65504176Y-55163651D01*
X65696792Y-55239812D01*
X65885613Y-55293263D01*
X66063561Y-55322837D01*
X66223555Y-55327367D01*
X66358515Y-55305686D01*
X66361109Y-55304917D01*
X66445118Y-55261492D01*
X66523803Y-55189430D01*
X66584840Y-55101848D01*
X66609973Y-55040123D01*
X66627482Y-54935413D01*
X66631289Y-54808969D01*
X66621404Y-54679107D01*
X66609746Y-54611041D01*
X66586825Y-54504166D01*
X66374946Y-54504166D01*
X66128538Y-54488421D01*
X65860634Y-54440890D01*
X65568908Y-54361128D01*
X65486357Y-54334211D01*
X65343583Y-54282736D01*
X65191092Y-54221874D01*
X65039508Y-54156345D01*
X64899457Y-54090868D01*
X64781566Y-54030163D01*
X64717083Y-53992511D01*
X64632417Y-53939042D01*
X64172916Y-53951729D01*
X63713416Y-53964416D01*
X62690948Y-53964416D01*
X62657291Y-53932666D01*
X62528312Y-53932666D01*
X62452759Y-53935306D01*
X62412152Y-53944331D01*
X62399371Y-53961403D01*
X62399333Y-53962734D01*
X61395971Y-53962734D01*
X61407500Y-53923000D01*
X61416638Y-53882228D01*
X61416408Y-53874019D01*
X61394380Y-53869518D01*
X61338542Y-53861403D01*
X61257167Y-53850666D01*
X61158525Y-53838293D01*
X61050890Y-53825274D01*
X60942533Y-53812598D01*
X60841728Y-53801255D01*
X60756745Y-53792232D01*
X60695858Y-53786520D01*
X60672004Y-53785021D01*
X60652807Y-53803348D01*
X60621918Y-53854094D01*
X60582638Y-53930089D01*
X60538268Y-54024163D01*
X60492109Y-54129145D01*
X60447462Y-54237866D01*
X60407627Y-54343153D01*
X60385652Y-54407047D01*
X60325694Y-54624730D01*
X60296890Y-54815105D01*
X59044135Y-54815105D01*
X59053452Y-54796042D01*
X59229873Y-54471329D01*
X59429646Y-54135604D01*
X59574974Y-53907399D01*
X59750515Y-53638715D01*
X59630299Y-53614718D01*
X59196640Y-53521026D01*
X58793059Y-53419301D01*
X58420828Y-53310122D01*
X58081222Y-53194071D01*
X57775515Y-53071727D01*
X57504981Y-52943672D01*
X57270893Y-52810487D01*
X57074526Y-52672752D01*
X56917152Y-52531047D01*
X56800047Y-52385954D01*
X56752235Y-52302833D01*
X56717831Y-52221792D01*
X56700469Y-52144854D01*
X56695484Y-52050269D01*
X56695489Y-52038250D01*
X56700076Y-51980166D01*
X59098519Y-51980166D01*
X59099869Y-52099122D01*
X59141434Y-52216778D01*
X59222157Y-52332314D01*
X59340979Y-52444909D01*
X59496841Y-52553742D01*
X59688686Y-52657993D01*
X59915455Y-52756841D01*
X60176089Y-52849465D01*
X60469532Y-52935043D01*
X60550465Y-52955887D01*
X61049295Y-53065701D01*
X61584069Y-53153808D01*
X62154355Y-53220153D01*
X62759720Y-53264685D01*
X63224833Y-53283423D01*
X63314282Y-53286177D01*
X63388137Y-53289058D01*
X63435875Y-53291625D01*
X63447083Y-53292725D01*
X63473133Y-53293021D01*
X63535708Y-53291890D01*
X63629028Y-53289491D01*
X63747314Y-53285986D01*
X63884787Y-53281535D01*
X64029167Y-53276531D01*
X64397411Y-53260853D01*
X64731203Y-53241000D01*
X65038293Y-53216155D01*
X65326428Y-53185501D01*
X65603358Y-53148220D01*
X65876830Y-53103496D01*
X66135250Y-53054425D01*
X66498954Y-52974469D01*
X66821818Y-52889277D01*
X67105066Y-52798382D01*
X67349921Y-52701314D01*
X67557608Y-52597606D01*
X67729351Y-52486789D01*
X67825566Y-52407741D01*
X67935662Y-52288192D01*
X68003467Y-52169237D01*
X68029013Y-52050536D01*
X68012332Y-51931752D01*
X67953455Y-51812548D01*
X67889611Y-51731383D01*
X67833472Y-51676880D01*
X67758877Y-51614420D01*
X67677628Y-51552868D01*
X67601527Y-51501093D01*
X67542376Y-51467961D01*
X67534721Y-51464769D01*
X67506288Y-51474498D01*
X67453582Y-51513472D01*
X67380035Y-51578929D01*
X67317115Y-51639897D01*
X67077121Y-51850817D01*
X66800032Y-52042953D01*
X66486941Y-52215787D01*
X66138943Y-52368803D01*
X65757132Y-52501483D01*
X65342602Y-52613311D01*
X65181320Y-52649263D01*
X64614831Y-52747256D01*
X64039156Y-52804331D01*
X63456206Y-52820422D01*
X62867895Y-52795464D01*
X62388793Y-52745118D01*
X61958272Y-52675168D01*
X61549028Y-52583190D01*
X61163765Y-52470282D01*
X60805187Y-52337541D01*
X60576820Y-52232457D01*
X63521167Y-52232457D01*
X63540710Y-52236274D01*
X63592947Y-52238207D01*
X63668292Y-52238447D01*
X63757154Y-52237186D01*
X63849948Y-52234614D01*
X63937084Y-52230925D01*
X64008975Y-52226308D01*
X64050333Y-52221889D01*
X64145583Y-52207583D01*
X64191292Y-52093053D01*
X64621685Y-52093053D01*
X64626490Y-52120734D01*
X64652863Y-52130360D01*
X64706025Y-52124383D01*
X64791194Y-52105254D01*
X64886417Y-52082001D01*
X65203731Y-51991469D01*
X65499040Y-51880211D01*
X65767727Y-51750470D01*
X66005173Y-51604489D01*
X66206761Y-51444510D01*
X66215509Y-51436468D01*
X66293877Y-51358515D01*
X66362407Y-51280330D01*
X66416652Y-51208218D01*
X66452161Y-51148485D01*
X66464487Y-51107434D01*
X66457511Y-51093495D01*
X66414252Y-51077830D01*
X66336913Y-51058653D01*
X66231003Y-51036753D01*
X66102029Y-51012922D01*
X65955499Y-50987947D01*
X65796922Y-50962621D01*
X65631805Y-50937732D01*
X65465657Y-50914070D01*
X65303986Y-50892427D01*
X65152299Y-50873590D01*
X65016104Y-50858351D01*
X64900911Y-50847500D01*
X64812226Y-50841826D01*
X64755558Y-50842119D01*
X64737326Y-50846785D01*
X64734584Y-50872002D01*
X64738652Y-50926634D01*
X64747786Y-50993151D01*
X64768350Y-51231219D01*
X64757255Y-51486669D01*
X64715406Y-51749834D01*
X64655903Y-51973718D01*
X64633229Y-52044865D01*
X64621685Y-52093053D01*
X64191292Y-52093053D01*
X64215771Y-52031721D01*
X64281073Y-51848479D01*
X64321758Y-51681856D01*
X64340596Y-51516190D01*
X64340357Y-51335821D01*
X64340042Y-51329166D01*
X64325715Y-51163815D01*
X64299082Y-51026186D01*
X64278829Y-50958750D01*
X64228398Y-50810583D01*
X63939826Y-50804704D01*
X63651255Y-50798825D01*
X63675610Y-50878787D01*
X63684584Y-50929600D01*
X63692067Y-51013095D01*
X63697458Y-51119630D01*
X63700156Y-51239566D01*
X63700350Y-51276250D01*
X63697094Y-51458710D01*
X63685230Y-51614333D01*
X63662347Y-51758157D01*
X63626037Y-51905222D01*
X63573888Y-52070567D01*
X63572294Y-52075261D01*
X63547754Y-52148259D01*
X63529649Y-52203735D01*
X63521357Y-52231301D01*
X63521167Y-52232457D01*
X60576820Y-52232457D01*
X60475998Y-52186064D01*
X60387531Y-52135706D01*
X62511678Y-52135706D01*
X62513466Y-52153393D01*
X62535537Y-52166711D01*
X62585002Y-52178012D01*
X62668972Y-52189645D01*
X62678130Y-52190749D01*
X62778091Y-52201406D01*
X62878329Y-52209967D01*
X62958936Y-52214757D01*
X62966427Y-52215001D01*
X63078437Y-52218166D01*
X63138415Y-52084487D01*
X63192673Y-51957142D01*
X63230897Y-51847925D01*
X63255758Y-51743708D01*
X63269928Y-51631360D01*
X63276077Y-51497752D01*
X63277025Y-51403250D01*
X63276463Y-51279113D01*
X63273388Y-51186649D01*
X63266550Y-51115216D01*
X63254697Y-51054172D01*
X63236578Y-50992876D01*
X63224756Y-50958750D01*
X63171917Y-50810583D01*
X63044917Y-50803690D01*
X62953673Y-50802148D01*
X62846784Y-50805188D01*
X62767040Y-50810546D01*
X62616163Y-50824294D01*
X62634057Y-50902105D01*
X62662414Y-51090211D01*
X62668721Y-51302139D01*
X62653651Y-51525994D01*
X62617880Y-51749883D01*
X62576590Y-51915034D01*
X62551087Y-52001555D01*
X62529444Y-52075100D01*
X62514974Y-52124402D01*
X62511678Y-52135706D01*
X60387531Y-52135706D01*
X60178904Y-52016951D01*
X59916609Y-51831299D01*
X59725988Y-51664188D01*
X59552752Y-51495546D01*
X59488143Y-51526356D01*
X59421878Y-51567970D01*
X59343002Y-51631989D01*
X59262907Y-51707519D01*
X59192986Y-51783666D01*
X59144631Y-51849538D01*
X59138442Y-51860732D01*
X59098519Y-51980166D01*
X56700076Y-51980166D01*
X56705258Y-51914553D01*
X56736677Y-51805333D01*
X56794473Y-51700349D01*
X56883375Y-51589364D01*
X56921754Y-51548206D01*
X57094333Y-51393252D01*
X57308234Y-51244821D01*
X57495864Y-51140470D01*
X60566618Y-51140470D01*
X60580906Y-51180231D01*
X60622868Y-51240117D01*
X60694330Y-51322954D01*
X60746823Y-51379273D01*
X60880440Y-51505732D01*
X61031305Y-51619641D01*
X61208922Y-51727702D01*
X61334215Y-51793486D01*
X61426328Y-51836743D01*
X61534365Y-51882976D01*
X61650535Y-51929359D01*
X61767045Y-51973064D01*
X61876106Y-52011266D01*
X61969925Y-52041137D01*
X62040711Y-52059851D01*
X62080673Y-52064581D01*
X62081235Y-52064491D01*
X62106236Y-52042922D01*
X62134847Y-51994144D01*
X62148566Y-51961628D01*
X62192257Y-51816914D01*
X62226273Y-51651541D01*
X62246821Y-51486773D01*
X62251167Y-51386361D01*
X62246589Y-51303124D01*
X62234320Y-51205495D01*
X62216555Y-51104156D01*
X62195490Y-51009791D01*
X62173318Y-50933081D01*
X62152237Y-50884709D01*
X62146582Y-50877449D01*
X62116381Y-50870955D01*
X62050417Y-50871662D01*
X61954483Y-50878682D01*
X61834369Y-50891126D01*
X61695866Y-50908106D01*
X61544766Y-50928734D01*
X61386860Y-50952121D01*
X61227940Y-50977380D01*
X61073796Y-51003621D01*
X60930220Y-51029958D01*
X60803002Y-51055501D01*
X60697935Y-51079363D01*
X60620809Y-51100654D01*
X60578179Y-51118007D01*
X60566618Y-51140470D01*
X57495864Y-51140470D01*
X57562908Y-51103184D01*
X57857808Y-50968613D01*
X58192387Y-50841378D01*
X58566096Y-50721751D01*
X58626789Y-50704109D01*
X58734307Y-50674326D01*
X58859647Y-50641348D01*
X58995748Y-50606850D01*
X59135552Y-50572504D01*
X59271999Y-50539985D01*
X59398030Y-50510966D01*
X59506586Y-50487122D01*
X59590607Y-50470125D01*
X59643034Y-50461649D01*
X59652096Y-50461009D01*
X59691100Y-50456094D01*
X59709841Y-50439183D01*
X59707319Y-50405286D01*
X59682531Y-50349412D01*
X59634477Y-50266573D01*
X59602902Y-50215844D01*
X59349314Y-49797859D01*
X59128486Y-49400756D01*
X59020295Y-49184366D01*
X60242927Y-49184366D01*
X60270018Y-49373990D01*
X60325474Y-49585920D01*
X60375514Y-49731392D01*
X60427104Y-49862624D01*
X60480549Y-49986394D01*
X60532824Y-50096776D01*
X60580901Y-50187839D01*
X60621753Y-50253655D01*
X60652352Y-50288295D01*
X60661835Y-50292133D01*
X60693917Y-50290029D01*
X60759773Y-50284146D01*
X60851093Y-50275279D01*
X60959565Y-50264220D01*
X61012917Y-50258617D01*
X61125844Y-50246300D01*
X61224770Y-50234854D01*
X61301591Y-50225268D01*
X61348203Y-50218529D01*
X61357359Y-50216629D01*
X61371508Y-50202335D01*
X61365915Y-50167615D01*
X61350943Y-50128453D01*
X61325027Y-50055841D01*
X61294084Y-49952955D01*
X61261003Y-49831111D01*
X61228674Y-49701621D01*
X61199987Y-49575799D01*
X61199019Y-49570953D01*
X62055862Y-49570953D01*
X62058200Y-49720001D01*
X62069959Y-49866629D01*
X62090897Y-49996329D01*
X62091615Y-49999588D01*
X62127753Y-50162018D01*
X62311168Y-50151032D01*
X62393712Y-50146642D01*
X62507391Y-50141370D01*
X62641031Y-50135695D01*
X62783455Y-50130095D01*
X62894103Y-50126064D01*
X63293622Y-50112083D01*
X63095186Y-49941957D01*
X62996509Y-49859237D01*
X62884897Y-49768821D01*
X62765315Y-49674414D01*
X62755087Y-49666513D01*
X63836721Y-49666513D01*
X64073757Y-49889298D01*
X64159227Y-49967865D01*
X64237057Y-50036155D01*
X64300718Y-50088679D01*
X64343678Y-50119949D01*
X64355188Y-50125848D01*
X64400634Y-50133849D01*
X64470231Y-50139767D01*
X64522251Y-50141723D01*
X64644918Y-50143833D01*
X64633053Y-50075041D01*
X64600022Y-49887728D01*
X64566143Y-49703209D01*
X64533199Y-49530767D01*
X64502969Y-49379685D01*
X64477234Y-49259244D01*
X64472714Y-49239348D01*
X64449051Y-49136583D01*
X65251747Y-49136583D01*
X65263303Y-49253916D01*
X65281384Y-49434156D01*
X65296549Y-49576322D01*
X65309467Y-49684519D01*
X65320808Y-49762856D01*
X65331241Y-49815440D01*
X65341435Y-49846376D01*
X65352058Y-49859773D01*
X65362098Y-49860380D01*
X65394793Y-49849261D01*
X65457503Y-49827747D01*
X65540232Y-49799273D01*
X65606083Y-49776561D01*
X65882207Y-49692391D01*
X66142777Y-49637185D01*
X66400608Y-49608484D01*
X66505667Y-49603879D01*
X66770250Y-49597049D01*
X66794676Y-49494732D01*
X66813311Y-49381195D01*
X66820194Y-49257097D01*
X66815079Y-49140229D01*
X66800727Y-49058463D01*
X66749931Y-48945253D01*
X66669312Y-48860629D01*
X66560315Y-48804636D01*
X66424387Y-48777322D01*
X66262971Y-48778734D01*
X66077515Y-48808918D01*
X65869462Y-48867922D01*
X65640258Y-48955791D01*
X65505665Y-49016459D01*
X65251747Y-49136583D01*
X64449051Y-49136583D01*
X64427720Y-49043947D01*
X64360735Y-49078518D01*
X64300141Y-49120019D01*
X64223208Y-49187561D01*
X64138091Y-49272656D01*
X64052946Y-49366818D01*
X63975930Y-49461561D01*
X63927366Y-49529465D01*
X63836721Y-49666513D01*
X62755087Y-49666513D01*
X62642730Y-49579725D01*
X62522107Y-49488460D01*
X62408414Y-49404327D01*
X62306616Y-49331034D01*
X62221680Y-49272288D01*
X62158571Y-49231797D01*
X62122256Y-49213267D01*
X62118056Y-49212500D01*
X62107554Y-49231184D01*
X62092015Y-49279277D01*
X62080409Y-49323625D01*
X62063185Y-49433992D01*
X62055862Y-49570953D01*
X61199019Y-49570953D01*
X61177831Y-49464959D01*
X61170770Y-49423036D01*
X61161669Y-49337670D01*
X61155402Y-49224986D01*
X61152554Y-49099939D01*
X61153559Y-48982872D01*
X61161083Y-48702588D01*
X61044667Y-48666502D01*
X60967491Y-48650816D01*
X62690581Y-48650816D01*
X62803168Y-48746450D01*
X62868767Y-48802235D01*
X62953365Y-48874265D01*
X63043762Y-48951298D01*
X63094730Y-48994764D01*
X63273706Y-49147444D01*
X63323345Y-49040305D01*
X63355851Y-48975309D01*
X63402799Y-48887862D01*
X63456700Y-48791723D01*
X63488955Y-48736112D01*
X63564605Y-48616489D01*
X63653095Y-48490805D01*
X63747315Y-48368034D01*
X63840152Y-48257148D01*
X63924495Y-48167121D01*
X63979031Y-48117776D01*
X64058433Y-48054078D01*
X63988843Y-47945631D01*
X63934650Y-47872325D01*
X63864506Y-47791958D01*
X63806317Y-47733968D01*
X63687212Y-47646423D01*
X63568031Y-47600816D01*
X63449351Y-47596755D01*
X63331751Y-47633849D01*
X63215810Y-47711708D01*
X63102106Y-47829940D01*
X62991218Y-47988153D01*
X62883726Y-48185959D01*
X62780206Y-48422964D01*
X62777847Y-48428950D01*
X62690581Y-48650816D01*
X60967491Y-48650816D01*
X60922619Y-48641696D01*
X60762638Y-48630900D01*
X60715037Y-48630416D01*
X60615089Y-48631354D01*
X60546171Y-48635589D01*
X60496998Y-48645250D01*
X60456284Y-48662469D01*
X60416720Y-48686736D01*
X60331097Y-48768233D01*
X60273541Y-48879597D01*
X60244126Y-49018938D01*
X60242927Y-49184366D01*
X59020295Y-49184366D01*
X58940704Y-49025181D01*
X58786256Y-48671783D01*
X58665429Y-48341208D01*
X58578510Y-48034103D01*
X58533453Y-47804916D01*
X58513513Y-47583862D01*
X58524820Y-47387033D01*
X58566859Y-47215793D01*
X58639116Y-47071502D01*
X58741076Y-46955522D01*
X58872224Y-46869216D01*
X58890335Y-46860721D01*
X58999739Y-46827677D01*
X59138776Y-46810895D01*
X59298045Y-46810248D01*
X59468147Y-46825610D01*
X59639681Y-46856856D01*
X59698320Y-46871522D01*
X59968924Y-46956794D01*
X60255815Y-47071481D01*
X60560771Y-47216493D01*
X60885575Y-47392741D01*
X61232008Y-47601133D01*
X61601850Y-47842581D01*
X61611749Y-47849277D01*
X61728423Y-47926627D01*
X61823243Y-47986112D01*
X61892866Y-48025788D01*
X61933950Y-48043709D01*
X61943874Y-48042494D01*
X61952176Y-48008860D01*
X61965048Y-47948159D01*
X61976602Y-47889583D01*
X62000394Y-47776248D01*
X62033574Y-47633517D01*
X62073266Y-47472512D01*
X62116596Y-47304354D01*
X62160688Y-47140166D01*
X62202669Y-46991071D01*
X62239663Y-46868189D01*
X62244633Y-46852615D01*
X62356822Y-46531074D01*
X62475941Y-46240130D01*
X62600938Y-45981381D01*
X62730764Y-45756425D01*
X62864367Y-45566858D01*
X63000697Y-45414278D01*
X63138702Y-45300282D01*
X63277332Y-45226468D01*
X63324788Y-45210706D01*
X63447461Y-45193313D01*
X63583332Y-45201365D01*
X63583332Y-45201365D01*
G37*
X63583332Y-45201365D02*
X63713264Y-45232978D01*
X63763661Y-45253886D01*
X63846493Y-45305662D01*
X63942563Y-45384147D01*
X64042528Y-45480242D01*
X64137048Y-45584846D01*
X64216783Y-45688859D01*
X64229325Y-45707552D01*
X64360989Y-45930542D01*
X64489665Y-46190628D01*
X64613493Y-46482588D01*
X64730614Y-46801198D01*
X64839169Y-47141237D01*
X64937297Y-47497482D01*
X65023139Y-47864711D01*
X65057531Y-48033529D01*
X65077844Y-48127722D01*
X65095444Y-48184452D01*
X65112032Y-48208357D01*
X65121949Y-48208976D01*
X65150528Y-48193194D01*
X65205392Y-48159140D01*
X65277806Y-48112329D01*
X65335798Y-48073897D01*
X65679096Y-47853243D01*
X66019172Y-47652501D01*
X66351534Y-47473909D01*
X66671687Y-47319705D01*
X66975136Y-47192126D01*
X67257389Y-47093410D01*
X67371824Y-47060203D01*
X67485336Y-47032658D01*
X67590222Y-47015384D01*
X67703985Y-47006187D01*
X67828583Y-47003002D01*
X67938992Y-47002640D01*
X68018369Y-47005169D01*
X68077998Y-47012308D01*
X68129166Y-47025778D01*
X68183158Y-47047296D01*
X68215445Y-47061937D01*
X68349135Y-47141818D01*
X68451286Y-47245977D01*
X68523310Y-47368821D01*
X68542052Y-47414657D01*
X68554744Y-47462548D01*
X68562458Y-47521864D01*
X68566266Y-47601977D01*
X68567240Y-47712258D01*
X68567142Y-47752000D01*
X68565276Y-47882453D01*
X68559760Y-47984706D01*
X68548930Y-48072843D01*
X68531125Y-48160950D01*
X68508427Y-48249416D01*
X68417969Y-48534933D01*
X68295897Y-48844104D01*
X68143596Y-49174069D01*
X67962452Y-49521965D01*
X67753850Y-49884931D01*
X67582446Y-50161823D01*
X67523584Y-50255069D01*
X67473856Y-50335555D01*
X67437290Y-50396626D01*
X67417916Y-50431624D01*
X67415873Y-50436990D01*
X67435256Y-50446500D01*
X67487456Y-50461085D01*
X67563600Y-50478453D01*
X67622248Y-50490250D01*
X67715423Y-50509483D01*
X67836916Y-50536591D01*
X67974114Y-50568654D01*
X68114400Y-50602750D01*
X68188417Y-50621341D01*
X68591691Y-50732393D01*
X68956981Y-50850485D01*
X69283747Y-50975333D01*
X69571450Y-51106651D01*
X69819549Y-51244154D01*
X70027504Y-51387556D01*
X70194775Y-51536572D01*
X70320824Y-51690916D01*
X70370744Y-51774808D01*
X70419600Y-51911412D01*
X70433591Y-52058362D01*
X70412499Y-52203035D01*
X70379614Y-52290410D01*
X70298518Y-52418876D01*
X70180577Y-52550977D01*
X70030578Y-52682691D01*
X69853312Y-52809996D01*
X69653568Y-52928870D01*
X69564250Y-52975252D01*
X69329177Y-53082512D01*
X69058959Y-53188630D01*
X68760769Y-53291422D01*
X68441782Y-53388704D01*
X68109174Y-53478291D01*
X67770119Y-53557999D01*
X67431790Y-53625645D01*
X67421757Y-53627460D01*
X67336432Y-53642284D01*
X67280497Y-53655088D01*
X67252407Y-53672754D01*
X67250614Y-53702159D01*
X67273572Y-53750185D01*
X67319734Y-53823710D01*
X67362664Y-53890333D01*
X67492383Y-54102575D01*
X67626472Y-54338577D01*
X67759281Y-54587349D01*
X67885158Y-54837898D01*
X67998452Y-55079233D01*
X68093512Y-55300365D01*
X68113768Y-55351208D01*
X68200914Y-55589825D01*
X68265173Y-55803978D01*
X68308830Y-56003243D01*
X68334167Y-56197195D01*
X68341102Y-56304624D01*
X68343556Y-56473248D01*
X68333814Y-56609185D01*
X68310357Y-56720712D01*
X68271666Y-56816106D01*
X68236360Y-56875270D01*
X68161936Y-56960467D01*
X68064061Y-57038466D01*
X67959913Y-57096500D01*
X67917651Y-57112087D01*
X67821998Y-57129941D01*
X67697469Y-57137413D01*
X67556127Y-57134900D01*
X67410036Y-57122796D01*
X67271259Y-57101495D01*
X67214750Y-57089097D01*
X66971282Y-57017024D01*
X66703397Y-56914529D01*
X66414354Y-56783221D01*
X66107410Y-56624713D01*
X65785825Y-56440615D01*
X65452856Y-56232539D01*
X65362846Y-56173399D01*
X65274428Y-56115127D01*
X65199744Y-56066692D01*
X65145261Y-56032228D01*
X65117447Y-56015870D01*
X65115242Y-56015129D01*
X65109529Y-56035840D01*
X65096284Y-56090952D01*
X65077121Y-56173533D01*
X65053655Y-56276651D01*
X65035670Y-56356729D01*
X64935722Y-56770968D01*
X64828728Y-57151451D01*
X64715157Y-57497365D01*
X64595478Y-57807897D01*
X64470159Y-58082235D01*
X64339670Y-58319565D01*
X64204480Y-58519074D01*
X64065057Y-58679949D01*
X63921872Y-58801377D01*
X63775392Y-58882545D01*
X63626087Y-58922640D01*
X63552917Y-58927054D01*
X63468759Y-58921899D01*
X63389341Y-58909647D01*
X63350833Y-58899290D01*
X63209551Y-58827832D01*
X63069303Y-58715908D01*
X62930994Y-58565383D01*
X62795530Y-58378125D01*
X62663817Y-58156000D01*
X62536760Y-57900873D01*
X62415266Y-57614612D01*
X62300239Y-57299084D01*
X62192586Y-56956154D01*
X62093212Y-56587689D01*
X62003023Y-56195556D01*
X61976617Y-56067213D01*
X61952664Y-55947510D01*
X61630957Y-56154884D01*
X61239805Y-56397254D01*
X60871946Y-56605093D01*
X60527495Y-56778351D01*
X60206569Y-56916981D01*
X59909283Y-57020936D01*
X59635753Y-57090168D01*
X59386094Y-57124628D01*
X59272752Y-57128805D01*
X59078291Y-57115082D01*
X58915166Y-57073299D01*
X58782292Y-57002617D01*
X58678583Y-56902197D01*
X58602954Y-56771199D01*
X58554319Y-56608785D01*
X58546952Y-56567617D01*
X58535043Y-56384349D01*
X58552703Y-56173979D01*
X58599044Y-55938804D01*
X58673178Y-55681125D01*
X58774216Y-55403239D01*
X58901270Y-55107445D01*
X59044135Y-54815105D01*
X60296890Y-54815105D01*
X60299157Y-54977862D01*
X60332411Y-55112693D01*
X60396569Y-55219289D01*
X60491545Y-55297342D01*
X60617258Y-55346544D01*
X60642500Y-55352183D01*
X60704451Y-55363607D01*
X60753870Y-55368115D01*
X60806646Y-55365561D01*
X60878664Y-55355796D01*
X60917667Y-55349639D01*
X61003067Y-55334384D01*
X61083129Y-55317479D01*
X61129333Y-55305701D01*
X61203417Y-55283803D01*
X61204947Y-54983943D01*
X61214523Y-54744961D01*
X61242576Y-54522400D01*
X61291959Y-54299632D01*
X61361489Y-54071902D01*
X61388262Y-53989308D01*
X61395971Y-53962734D01*
X62399333Y-53962734D01*
X62403696Y-54012310D01*
X62415824Y-54095660D01*
X62434277Y-54205234D01*
X62457612Y-54333485D01*
X62484390Y-54472866D01*
X62513169Y-54615830D01*
X62542508Y-54754829D01*
X62570967Y-54882314D01*
X62590788Y-54965517D01*
X62672669Y-55274446D01*
X62756414Y-55544003D01*
X62843332Y-55777147D01*
X62934733Y-55976835D01*
X63031927Y-56146025D01*
X63136224Y-56287675D01*
X63213333Y-56371216D01*
X63329967Y-56464236D01*
X63448290Y-56515094D01*
X63569122Y-56523955D01*
X63693285Y-56490980D01*
X63729484Y-56473899D01*
X63830269Y-56402979D01*
X63934892Y-56293365D01*
X64040427Y-56148152D01*
X64046811Y-56138239D01*
X64132118Y-56004895D01*
X63936447Y-55810155D01*
X63749292Y-55600491D01*
X63571686Y-55355166D01*
X63407474Y-55080469D01*
X63260503Y-54782685D01*
X63163242Y-54546229D01*
X63130491Y-54461063D01*
X63102420Y-54397055D01*
X63072392Y-54344856D01*
X63033772Y-54295117D01*
X62979922Y-54238491D01*
X62904206Y-54165629D01*
X62870346Y-54133651D01*
X62690948Y-53964416D01*
X63713416Y-53964416D01*
X63854426Y-54080833D01*
X64120156Y-54292277D01*
X64393364Y-54494756D01*
X64667467Y-54683948D01*
X64935879Y-54855533D01*
X65192016Y-55005187D01*
X65429294Y-55128590D01*
X65504176Y-55163651D01*
X65696792Y-55239812D01*
X65885613Y-55293263D01*
X66063561Y-55322837D01*
X66223555Y-55327367D01*
X66358515Y-55305686D01*
X66361109Y-55304917D01*
X66445118Y-55261492D01*
X66523803Y-55189430D01*
X66584840Y-55101848D01*
X66609973Y-55040123D01*
X66627482Y-54935413D01*
X66631289Y-54808969D01*
X66621404Y-54679107D01*
X66609746Y-54611041D01*
X66586825Y-54504166D01*
X66374946Y-54504166D01*
X66128538Y-54488421D01*
X65860634Y-54440890D01*
X65568908Y-54361128D01*
X65486357Y-54334211D01*
X65343583Y-54282736D01*
X65191092Y-54221874D01*
X65039508Y-54156345D01*
X64899457Y-54090868D01*
X64781566Y-54030163D01*
X64717083Y-53992511D01*
X64632417Y-53939042D01*
X64172916Y-53951729D01*
X63713416Y-53964416D01*
X62690948Y-53964416D01*
X62657291Y-53932666D01*
X62528312Y-53932666D01*
X62452759Y-53935306D01*
X62412152Y-53944331D01*
X62399371Y-53961403D01*
X62399333Y-53962734D01*
X61395971Y-53962734D01*
X61407500Y-53923000D01*
X61416638Y-53882228D01*
X61416408Y-53874019D01*
X61394380Y-53869518D01*
X61338542Y-53861403D01*
X61257167Y-53850666D01*
X61158525Y-53838293D01*
X61050890Y-53825274D01*
X60942533Y-53812598D01*
X60841728Y-53801255D01*
X60756745Y-53792232D01*
X60695858Y-53786520D01*
X60672004Y-53785021D01*
X60652807Y-53803348D01*
X60621918Y-53854094D01*
X60582638Y-53930089D01*
X60538268Y-54024163D01*
X60492109Y-54129145D01*
X60447462Y-54237866D01*
X60407627Y-54343153D01*
X60385652Y-54407047D01*
X60325694Y-54624730D01*
X60296890Y-54815105D01*
X59044135Y-54815105D01*
X59053452Y-54796042D01*
X59229873Y-54471329D01*
X59429646Y-54135604D01*
X59574974Y-53907399D01*
X59750515Y-53638715D01*
X59630299Y-53614718D01*
X59196640Y-53521026D01*
X58793059Y-53419301D01*
X58420828Y-53310122D01*
X58081222Y-53194071D01*
X57775515Y-53071727D01*
X57504981Y-52943672D01*
X57270893Y-52810487D01*
X57074526Y-52672752D01*
X56917152Y-52531047D01*
X56800047Y-52385954D01*
X56752235Y-52302833D01*
X56717831Y-52221792D01*
X56700469Y-52144854D01*
X56695484Y-52050269D01*
X56695489Y-52038250D01*
X56700076Y-51980166D01*
X59098519Y-51980166D01*
X59099869Y-52099122D01*
X59141434Y-52216778D01*
X59222157Y-52332314D01*
X59340979Y-52444909D01*
X59496841Y-52553742D01*
X59688686Y-52657993D01*
X59915455Y-52756841D01*
X60176089Y-52849465D01*
X60469532Y-52935043D01*
X60550465Y-52955887D01*
X61049295Y-53065701D01*
X61584069Y-53153808D01*
X62154355Y-53220153D01*
X62759720Y-53264685D01*
X63224833Y-53283423D01*
X63314282Y-53286177D01*
X63388137Y-53289058D01*
X63435875Y-53291625D01*
X63447083Y-53292725D01*
X63473133Y-53293021D01*
X63535708Y-53291890D01*
X63629028Y-53289491D01*
X63747314Y-53285986D01*
X63884787Y-53281535D01*
X64029167Y-53276531D01*
X64397411Y-53260853D01*
X64731203Y-53241000D01*
X65038293Y-53216155D01*
X65326428Y-53185501D01*
X65603358Y-53148220D01*
X65876830Y-53103496D01*
X66135250Y-53054425D01*
X66498954Y-52974469D01*
X66821818Y-52889277D01*
X67105066Y-52798382D01*
X67349921Y-52701314D01*
X67557608Y-52597606D01*
X67729351Y-52486789D01*
X67825566Y-52407741D01*
X67935662Y-52288192D01*
X68003467Y-52169237D01*
X68029013Y-52050536D01*
X68012332Y-51931752D01*
X67953455Y-51812548D01*
X67889611Y-51731383D01*
X67833472Y-51676880D01*
X67758877Y-51614420D01*
X67677628Y-51552868D01*
X67601527Y-51501093D01*
X67542376Y-51467961D01*
X67534721Y-51464769D01*
X67506288Y-51474498D01*
X67453582Y-51513472D01*
X67380035Y-51578929D01*
X67317115Y-51639897D01*
X67077121Y-51850817D01*
X66800032Y-52042953D01*
X66486941Y-52215787D01*
X66138943Y-52368803D01*
X65757132Y-52501483D01*
X65342602Y-52613311D01*
X65181320Y-52649263D01*
X64614831Y-52747256D01*
X64039156Y-52804331D01*
X63456206Y-52820422D01*
X62867895Y-52795464D01*
X62388793Y-52745118D01*
X61958272Y-52675168D01*
X61549028Y-52583190D01*
X61163765Y-52470282D01*
X60805187Y-52337541D01*
X60576820Y-52232457D01*
X63521167Y-52232457D01*
X63540710Y-52236274D01*
X63592947Y-52238207D01*
X63668292Y-52238447D01*
X63757154Y-52237186D01*
X63849948Y-52234614D01*
X63937084Y-52230925D01*
X64008975Y-52226308D01*
X64050333Y-52221889D01*
X64145583Y-52207583D01*
X64191292Y-52093053D01*
X64621685Y-52093053D01*
X64626490Y-52120734D01*
X64652863Y-52130360D01*
X64706025Y-52124383D01*
X64791194Y-52105254D01*
X64886417Y-52082001D01*
X65203731Y-51991469D01*
X65499040Y-51880211D01*
X65767727Y-51750470D01*
X66005173Y-51604489D01*
X66206761Y-51444510D01*
X66215509Y-51436468D01*
X66293877Y-51358515D01*
X66362407Y-51280330D01*
X66416652Y-51208218D01*
X66452161Y-51148485D01*
X66464487Y-51107434D01*
X66457511Y-51093495D01*
X66414252Y-51077830D01*
X66336913Y-51058653D01*
X66231003Y-51036753D01*
X66102029Y-51012922D01*
X65955499Y-50987947D01*
X65796922Y-50962621D01*
X65631805Y-50937732D01*
X65465657Y-50914070D01*
X65303986Y-50892427D01*
X65152299Y-50873590D01*
X65016104Y-50858351D01*
X64900911Y-50847500D01*
X64812226Y-50841826D01*
X64755558Y-50842119D01*
X64737326Y-50846785D01*
X64734584Y-50872002D01*
X64738652Y-50926634D01*
X64747786Y-50993151D01*
X64768350Y-51231219D01*
X64757255Y-51486669D01*
X64715406Y-51749834D01*
X64655903Y-51973718D01*
X64633229Y-52044865D01*
X64621685Y-52093053D01*
X64191292Y-52093053D01*
X64215771Y-52031721D01*
X64281073Y-51848479D01*
X64321758Y-51681856D01*
X64340596Y-51516190D01*
X64340357Y-51335821D01*
X64340042Y-51329166D01*
X64325715Y-51163815D01*
X64299082Y-51026186D01*
X64278829Y-50958750D01*
X64228398Y-50810583D01*
X63939826Y-50804704D01*
X63651255Y-50798825D01*
X63675610Y-50878787D01*
X63684584Y-50929600D01*
X63692067Y-51013095D01*
X63697458Y-51119630D01*
X63700156Y-51239566D01*
X63700350Y-51276250D01*
X63697094Y-51458710D01*
X63685230Y-51614333D01*
X63662347Y-51758157D01*
X63626037Y-51905222D01*
X63573888Y-52070567D01*
X63572294Y-52075261D01*
X63547754Y-52148259D01*
X63529649Y-52203735D01*
X63521357Y-52231301D01*
X63521167Y-52232457D01*
X60576820Y-52232457D01*
X60475998Y-52186064D01*
X60387531Y-52135706D01*
X62511678Y-52135706D01*
X62513466Y-52153393D01*
X62535537Y-52166711D01*
X62585002Y-52178012D01*
X62668972Y-52189645D01*
X62678130Y-52190749D01*
X62778091Y-52201406D01*
X62878329Y-52209967D01*
X62958936Y-52214757D01*
X62966427Y-52215001D01*
X63078437Y-52218166D01*
X63138415Y-52084487D01*
X63192673Y-51957142D01*
X63230897Y-51847925D01*
X63255758Y-51743708D01*
X63269928Y-51631360D01*
X63276077Y-51497752D01*
X63277025Y-51403250D01*
X63276463Y-51279113D01*
X63273388Y-51186649D01*
X63266550Y-51115216D01*
X63254697Y-51054172D01*
X63236578Y-50992876D01*
X63224756Y-50958750D01*
X63171917Y-50810583D01*
X63044917Y-50803690D01*
X62953673Y-50802148D01*
X62846784Y-50805188D01*
X62767040Y-50810546D01*
X62616163Y-50824294D01*
X62634057Y-50902105D01*
X62662414Y-51090211D01*
X62668721Y-51302139D01*
X62653651Y-51525994D01*
X62617880Y-51749883D01*
X62576590Y-51915034D01*
X62551087Y-52001555D01*
X62529444Y-52075100D01*
X62514974Y-52124402D01*
X62511678Y-52135706D01*
X60387531Y-52135706D01*
X60178904Y-52016951D01*
X59916609Y-51831299D01*
X59725988Y-51664188D01*
X59552752Y-51495546D01*
X59488143Y-51526356D01*
X59421878Y-51567970D01*
X59343002Y-51631989D01*
X59262907Y-51707519D01*
X59192986Y-51783666D01*
X59144631Y-51849538D01*
X59138442Y-51860732D01*
X59098519Y-51980166D01*
X56700076Y-51980166D01*
X56705258Y-51914553D01*
X56736677Y-51805333D01*
X56794473Y-51700349D01*
X56883375Y-51589364D01*
X56921754Y-51548206D01*
X57094333Y-51393252D01*
X57308234Y-51244821D01*
X57495864Y-51140470D01*
X60566618Y-51140470D01*
X60580906Y-51180231D01*
X60622868Y-51240117D01*
X60694330Y-51322954D01*
X60746823Y-51379273D01*
X60880440Y-51505732D01*
X61031305Y-51619641D01*
X61208922Y-51727702D01*
X61334215Y-51793486D01*
X61426328Y-51836743D01*
X61534365Y-51882976D01*
X61650535Y-51929359D01*
X61767045Y-51973064D01*
X61876106Y-52011266D01*
X61969925Y-52041137D01*
X62040711Y-52059851D01*
X62080673Y-52064581D01*
X62081235Y-52064491D01*
X62106236Y-52042922D01*
X62134847Y-51994144D01*
X62148566Y-51961628D01*
X62192257Y-51816914D01*
X62226273Y-51651541D01*
X62246821Y-51486773D01*
X62251167Y-51386361D01*
X62246589Y-51303124D01*
X62234320Y-51205495D01*
X62216555Y-51104156D01*
X62195490Y-51009791D01*
X62173318Y-50933081D01*
X62152237Y-50884709D01*
X62146582Y-50877449D01*
X62116381Y-50870955D01*
X62050417Y-50871662D01*
X61954483Y-50878682D01*
X61834369Y-50891126D01*
X61695866Y-50908106D01*
X61544766Y-50928734D01*
X61386860Y-50952121D01*
X61227940Y-50977380D01*
X61073796Y-51003621D01*
X60930220Y-51029958D01*
X60803002Y-51055501D01*
X60697935Y-51079363D01*
X60620809Y-51100654D01*
X60578179Y-51118007D01*
X60566618Y-51140470D01*
X57495864Y-51140470D01*
X57562908Y-51103184D01*
X57857808Y-50968613D01*
X58192387Y-50841378D01*
X58566096Y-50721751D01*
X58626789Y-50704109D01*
X58734307Y-50674326D01*
X58859647Y-50641348D01*
X58995748Y-50606850D01*
X59135552Y-50572504D01*
X59271999Y-50539985D01*
X59398030Y-50510966D01*
X59506586Y-50487122D01*
X59590607Y-50470125D01*
X59643034Y-50461649D01*
X59652096Y-50461009D01*
X59691100Y-50456094D01*
X59709841Y-50439183D01*
X59707319Y-50405286D01*
X59682531Y-50349412D01*
X59634477Y-50266573D01*
X59602902Y-50215844D01*
X59349314Y-49797859D01*
X59128486Y-49400756D01*
X59020295Y-49184366D01*
X60242927Y-49184366D01*
X60270018Y-49373990D01*
X60325474Y-49585920D01*
X60375514Y-49731392D01*
X60427104Y-49862624D01*
X60480549Y-49986394D01*
X60532824Y-50096776D01*
X60580901Y-50187839D01*
X60621753Y-50253655D01*
X60652352Y-50288295D01*
X60661835Y-50292133D01*
X60693917Y-50290029D01*
X60759773Y-50284146D01*
X60851093Y-50275279D01*
X60959565Y-50264220D01*
X61012917Y-50258617D01*
X61125844Y-50246300D01*
X61224770Y-50234854D01*
X61301591Y-50225268D01*
X61348203Y-50218529D01*
X61357359Y-50216629D01*
X61371508Y-50202335D01*
X61365915Y-50167615D01*
X61350943Y-50128453D01*
X61325027Y-50055841D01*
X61294084Y-49952955D01*
X61261003Y-49831111D01*
X61228674Y-49701621D01*
X61199987Y-49575799D01*
X61199019Y-49570953D01*
X62055862Y-49570953D01*
X62058200Y-49720001D01*
X62069959Y-49866629D01*
X62090897Y-49996329D01*
X62091615Y-49999588D01*
X62127753Y-50162018D01*
X62311168Y-50151032D01*
X62393712Y-50146642D01*
X62507391Y-50141370D01*
X62641031Y-50135695D01*
X62783455Y-50130095D01*
X62894103Y-50126064D01*
X63293622Y-50112083D01*
X63095186Y-49941957D01*
X62996509Y-49859237D01*
X62884897Y-49768821D01*
X62765315Y-49674414D01*
X62755087Y-49666513D01*
X63836721Y-49666513D01*
X64073757Y-49889298D01*
X64159227Y-49967865D01*
X64237057Y-50036155D01*
X64300718Y-50088679D01*
X64343678Y-50119949D01*
X64355188Y-50125848D01*
X64400634Y-50133849D01*
X64470231Y-50139767D01*
X64522251Y-50141723D01*
X64644918Y-50143833D01*
X64633053Y-50075041D01*
X64600022Y-49887728D01*
X64566143Y-49703209D01*
X64533199Y-49530767D01*
X64502969Y-49379685D01*
X64477234Y-49259244D01*
X64472714Y-49239348D01*
X64449051Y-49136583D01*
X65251747Y-49136583D01*
X65263303Y-49253916D01*
X65281384Y-49434156D01*
X65296549Y-49576322D01*
X65309467Y-49684519D01*
X65320808Y-49762856D01*
X65331241Y-49815440D01*
X65341435Y-49846376D01*
X65352058Y-49859773D01*
X65362098Y-49860380D01*
X65394793Y-49849261D01*
X65457503Y-49827747D01*
X65540232Y-49799273D01*
X65606083Y-49776561D01*
X65882207Y-49692391D01*
X66142777Y-49637185D01*
X66400608Y-49608484D01*
X66505667Y-49603879D01*
X66770250Y-49597049D01*
X66794676Y-49494732D01*
X66813311Y-49381195D01*
X66820194Y-49257097D01*
X66815079Y-49140229D01*
X66800727Y-49058463D01*
X66749931Y-48945253D01*
X66669312Y-48860629D01*
X66560315Y-48804636D01*
X66424387Y-48777322D01*
X66262971Y-48778734D01*
X66077515Y-48808918D01*
X65869462Y-48867922D01*
X65640258Y-48955791D01*
X65505665Y-49016459D01*
X65251747Y-49136583D01*
X64449051Y-49136583D01*
X64427720Y-49043947D01*
X64360735Y-49078518D01*
X64300141Y-49120019D01*
X64223208Y-49187561D01*
X64138091Y-49272656D01*
X64052946Y-49366818D01*
X63975930Y-49461561D01*
X63927366Y-49529465D01*
X63836721Y-49666513D01*
X62755087Y-49666513D01*
X62642730Y-49579725D01*
X62522107Y-49488460D01*
X62408414Y-49404327D01*
X62306616Y-49331034D01*
X62221680Y-49272288D01*
X62158571Y-49231797D01*
X62122256Y-49213267D01*
X62118056Y-49212500D01*
X62107554Y-49231184D01*
X62092015Y-49279277D01*
X62080409Y-49323625D01*
X62063185Y-49433992D01*
X62055862Y-49570953D01*
X61199019Y-49570953D01*
X61177831Y-49464959D01*
X61170770Y-49423036D01*
X61161669Y-49337670D01*
X61155402Y-49224986D01*
X61152554Y-49099939D01*
X61153559Y-48982872D01*
X61161083Y-48702588D01*
X61044667Y-48666502D01*
X60967491Y-48650816D01*
X62690581Y-48650816D01*
X62803168Y-48746450D01*
X62868767Y-48802235D01*
X62953365Y-48874265D01*
X63043762Y-48951298D01*
X63094730Y-48994764D01*
X63273706Y-49147444D01*
X63323345Y-49040305D01*
X63355851Y-48975309D01*
X63402799Y-48887862D01*
X63456700Y-48791723D01*
X63488955Y-48736112D01*
X63564605Y-48616489D01*
X63653095Y-48490805D01*
X63747315Y-48368034D01*
X63840152Y-48257148D01*
X63924495Y-48167121D01*
X63979031Y-48117776D01*
X64058433Y-48054078D01*
X63988843Y-47945631D01*
X63934650Y-47872325D01*
X63864506Y-47791958D01*
X63806317Y-47733968D01*
X63687212Y-47646423D01*
X63568031Y-47600816D01*
X63449351Y-47596755D01*
X63331751Y-47633849D01*
X63215810Y-47711708D01*
X63102106Y-47829940D01*
X62991218Y-47988153D01*
X62883726Y-48185959D01*
X62780206Y-48422964D01*
X62777847Y-48428950D01*
X62690581Y-48650816D01*
X60967491Y-48650816D01*
X60922619Y-48641696D01*
X60762638Y-48630900D01*
X60715037Y-48630416D01*
X60615089Y-48631354D01*
X60546171Y-48635589D01*
X60496998Y-48645250D01*
X60456284Y-48662469D01*
X60416720Y-48686736D01*
X60331097Y-48768233D01*
X60273541Y-48879597D01*
X60244126Y-49018938D01*
X60242927Y-49184366D01*
X59020295Y-49184366D01*
X58940704Y-49025181D01*
X58786256Y-48671783D01*
X58665429Y-48341208D01*
X58578510Y-48034103D01*
X58533453Y-47804916D01*
X58513513Y-47583862D01*
X58524820Y-47387033D01*
X58566859Y-47215793D01*
X58639116Y-47071502D01*
X58741076Y-46955522D01*
X58872224Y-46869216D01*
X58890335Y-46860721D01*
X58999739Y-46827677D01*
X59138776Y-46810895D01*
X59298045Y-46810248D01*
X59468147Y-46825610D01*
X59639681Y-46856856D01*
X59698320Y-46871522D01*
X59968924Y-46956794D01*
X60255815Y-47071481D01*
X60560771Y-47216493D01*
X60885575Y-47392741D01*
X61232008Y-47601133D01*
X61601850Y-47842581D01*
X61611749Y-47849277D01*
X61728423Y-47926627D01*
X61823243Y-47986112D01*
X61892866Y-48025788D01*
X61933950Y-48043709D01*
X61943874Y-48042494D01*
X61952176Y-48008860D01*
X61965048Y-47948159D01*
X61976602Y-47889583D01*
X62000394Y-47776248D01*
X62033574Y-47633517D01*
X62073266Y-47472512D01*
X62116596Y-47304354D01*
X62160688Y-47140166D01*
X62202669Y-46991071D01*
X62239663Y-46868189D01*
X62244633Y-46852615D01*
X62356822Y-46531074D01*
X62475941Y-46240130D01*
X62600938Y-45981381D01*
X62730764Y-45756425D01*
X62864367Y-45566858D01*
X63000697Y-45414278D01*
X63138702Y-45300282D01*
X63277332Y-45226468D01*
X63324788Y-45210706D01*
X63447461Y-45193313D01*
X63583332Y-45201365D01*
D14*
X70167500Y-68961000D03*
X73469500Y-88519000D03*
X73469500Y-85979000D03*
X80454500Y-88900000D03*
X82994500Y-88900000D03*
D15*
X126047500Y-85598000D03*
D16*
X103695500Y-85598000D03*
D17*
X62801500Y-78127860D03*
X62801500Y-75288140D03*
D18*
X128714500Y-113411000D03*
D19*
X138874500Y-113411000D03*
D17*
X89748598Y-102836482D03*
X89748598Y-105676202D03*
X95758000Y-102379780D03*
X95758000Y-105219500D03*
D20*
X132524500Y-85598000D03*
D21*
X142684500Y-85598000D03*
D22*
X71916086Y-129155404D03*
X74456086Y-129155404D03*
X76996086Y-129155404D03*
X79536086Y-129155404D03*
X82076086Y-129155404D03*
X84616086Y-129155404D03*
X87156086Y-129155404D03*
X89696086Y-129155404D03*
X92236086Y-129155404D03*
X94776086Y-129155404D03*
X97316086Y-129155404D03*
X99856086Y-129155404D03*
X102396086Y-129155404D03*
X104936086Y-129155404D03*
X107476086Y-129155404D03*
X110016086Y-129155404D03*
D23*
X66416986Y-129155404D03*
X66416986Y-160156104D03*
X141415566Y-160156104D03*
X141415566Y-129155404D03*
D20*
X143319500Y-75618340D03*
D24*
X143319500Y-50617120D03*
D25*
X106875990Y-51338058D03*
D26*
X109415990Y-51338058D03*
D14*
X112463990Y-61498058D03*
X76644500Y-80899000D03*
X64960500Y-90932000D03*
D25*
X61023500Y-85344000D03*
D26*
X61023500Y-87884000D03*
D14*
X100076000Y-77533500D03*
D27*
X84351098Y-106709982D03*
D28*
X81811098Y-106709982D03*
X79271098Y-106709982D03*
X76731098Y-106709982D03*
D14*
X107823000Y-78549500D03*
X129159000Y-104775000D03*
X134683500Y-61722000D03*
X146431000Y-52641500D03*
X132524500Y-91059000D03*
X113220500Y-93980000D03*
D29*
X120840500Y-68199000D03*
X119570500Y-66929000D03*
X122110500Y-66929000D03*
D30*
X134683500Y-67945000D03*
X134683500Y-65405000D03*
X134683500Y-70485000D03*
D31*
X128587500Y-53467000D03*
X134175500Y-53467000D03*
X122999500Y-53467000D03*
D29*
X116874086Y-123122904D03*
X118144086Y-124392904D03*
X115604086Y-124392904D03*
D32*
X68977500Y-74168000D03*
X66277500Y-74168000D03*
D33*
X79271098Y-100740982D03*
X79271098Y-103440982D03*
D32*
X131983500Y-117665500D03*
X134683500Y-117665500D03*
D33*
X86700598Y-102836482D03*
X86700598Y-100136482D03*
D32*
X93853000Y-99504500D03*
X91153000Y-99504500D03*
D33*
X116874086Y-120027904D03*
X116874086Y-117327904D03*
D20*
X128841500Y-93980000D03*
X118681500Y-93980000D03*
D34*
X121475500Y-103578660D03*
X121475500Y-111178340D03*
D35*
X63309500Y-65913000D03*
D21*
X60769500Y-65913000D03*
D35*
X67269598Y-114837982D03*
D21*
X67269598Y-112297982D03*
D35*
X67206098Y-121441982D03*
D21*
X67206098Y-118901982D03*
D36*
X65689500Y-78105000D03*
X65689500Y-79375000D03*
X65689500Y-80645000D03*
X65689500Y-81915000D03*
X71089500Y-81915000D03*
X71089500Y-80645000D03*
X71089500Y-79375000D03*
X71089500Y-78105000D03*
D37*
X74191098Y-120425982D03*
X76731098Y-120425982D03*
X79271098Y-120425982D03*
X81811098Y-120425982D03*
X84351098Y-120425982D03*
X86891098Y-120425982D03*
X89431098Y-120425982D03*
X91971098Y-120425982D03*
X94511098Y-120425982D03*
X97051098Y-120425982D03*
X97051098Y-112805982D03*
X94511098Y-112805982D03*
X91971098Y-112805982D03*
X89431098Y-112805982D03*
X86891098Y-112805982D03*
X84351098Y-112805982D03*
X81811098Y-112805982D03*
X79271098Y-112805982D03*
X76731098Y-112805982D03*
X74191098Y-112805982D03*
D36*
X80421500Y-78105000D03*
X80421500Y-79375000D03*
X80421500Y-80645000D03*
X80421500Y-81915000D03*
X85821500Y-81915000D03*
X85821500Y-80645000D03*
X85821500Y-79375000D03*
X85821500Y-78105000D03*
X132364500Y-105727500D03*
X132364500Y-106997500D03*
X132364500Y-108267500D03*
X132364500Y-109537500D03*
X137764500Y-109537500D03*
X137764500Y-108267500D03*
X137764500Y-106997500D03*
X137764500Y-105727500D03*
D38*
X70373253Y-108749827D02*
X70727075Y-108396005D01*
X72295721Y-108396005D02*
X72649543Y-108749827D01*
D39*
X68135500Y-84582000D03*
X65635500Y-84582000D03*
X82994500Y-84582000D03*
X80494500Y-84582000D03*
D40*
X76731098Y-100760982D03*
X76731098Y-103260982D03*
M02*
