%TF.GenerationSoftware,KiCad,Pcbnew,4.0.1-stable*%
%TF.CreationDate,2016-02-04T12:17:51-06:00*%
%TF.ProjectId,GMCounter,474D436F756E7465722E6B696361645F,rev?*%
%TF.FileFunction,Copper,L1,Top,Signal*%
%FSLAX46Y46*%
G04 Gerber Fmt 4.6, Leading zero omitted, Abs format (unit mm)*
G04 Created by KiCad (PCBNEW 4.0.1-stable) date 4/02/2016 12:17:51*
%MOMM*%
G01*
G04 APERTURE LIST*
%ADD10C,0.100000*%
%ADD11C,1.000760*%
%ADD12C,1.501140*%
%ADD13R,1.600000X1.600000*%
%ADD14C,1.600000*%
%ADD15R,1.800860X1.597660*%
%ADD16C,1.699260*%
%ADD17R,1.699260X1.699260*%
%ADD18C,1.998980*%
%ADD19R,1.998980X1.998980*%
%ADD20C,2.301240*%
%ADD21R,2.032000X2.032000*%
%ADD22O,2.032000X2.032000*%
%ADD23R,1.727200X2.032000*%
%ADD24O,1.727200X2.032000*%
%ADD25C,1.524000*%
%ADD26O,3.500120X5.501640*%
%ADD27R,1.500000X1.300000*%
%ADD28R,1.300000X1.500000*%
%ADD29C,2.000000*%
%ADD30O,1.998980X1.998980*%
%ADD31R,1.550000X0.600000*%
%ADD32C,1.000760*%
%ADD33R,1.500000X1.250000*%
%ADD34R,1.250000X1.500000*%
%ADD35O,4.000500X2.999740*%
%ADD36R,2.235200X2.235200*%
%ADD37R,0.450000X1.450000*%
%ADD38R,3.657600X2.032000*%
%ADD39R,1.016000X2.032000*%
%ADD40C,0.600000*%
%ADD41C,0.600000*%
%ADD42C,0.160000*%
%ADD43C,0.300000*%
%ADD44C,0.254000*%
G04 APERTURE END LIST*
D10*
X152844500Y-42862500D02*
X152844500Y-136842500D01*
X53784500Y-42862500D02*
X152844500Y-42862500D01*
X53784500Y-136842500D02*
X53784500Y-42862500D01*
X152844500Y-136842500D02*
X53784500Y-136842500D01*
D11*
X86106000Y-118999000D03*
X87376000Y-120269000D03*
X84836000Y-120269000D03*
D12*
X71183500Y-67691000D03*
D13*
X127571500Y-87122000D03*
D14*
X105219500Y-87122000D03*
D15*
X63817500Y-76857860D03*
X63817500Y-74018140D03*
D16*
X84836000Y-123952000D03*
D17*
X94996000Y-123952000D03*
D15*
X91059000Y-110213140D03*
X91059000Y-113052860D03*
D18*
X134048500Y-87122000D03*
D19*
X144208500Y-87122000D03*
D18*
X144843500Y-77142340D03*
D20*
X144843500Y-52141120D03*
D21*
X108399990Y-52862058D03*
D22*
X110939990Y-52862058D03*
D12*
X113987990Y-63022058D03*
X85344000Y-71755000D03*
X58547000Y-78740000D03*
D21*
X62039500Y-84074000D03*
D22*
X62039500Y-86614000D03*
D12*
X101600000Y-79057500D03*
D23*
X84986098Y-110011982D03*
D24*
X82446098Y-110011982D03*
X79906098Y-110011982D03*
X77366098Y-110011982D03*
D12*
X110299500Y-72517000D03*
X106172000Y-111379000D03*
X136207500Y-63246000D03*
X147955000Y-54165500D03*
X134048500Y-92583000D03*
D11*
X122364500Y-69723000D03*
X121094500Y-68453000D03*
X123634500Y-68453000D03*
D25*
X136207500Y-69469000D03*
X136207500Y-66929000D03*
X136207500Y-72009000D03*
D26*
X130111500Y-54991000D03*
X135699500Y-54991000D03*
X124523500Y-54991000D03*
D27*
X69993500Y-72898000D03*
X67293500Y-72898000D03*
D28*
X79906098Y-104042982D03*
X79906098Y-106742982D03*
D27*
X92249000Y-127127000D03*
X94949000Y-127127000D03*
X91059000Y-106934000D03*
X88359000Y-106934000D03*
X82503000Y-117348000D03*
X79803000Y-117348000D03*
D18*
X130365500Y-95504000D03*
X120205500Y-95504000D03*
D29*
X99060000Y-112415320D03*
X99060000Y-120015000D03*
D30*
X64325500Y-64643000D03*
D19*
X61785500Y-64643000D03*
D30*
X60515500Y-117411500D03*
D19*
X60515500Y-119951500D03*
D30*
X60515500Y-102679500D03*
D19*
X60515500Y-105219500D03*
D31*
X66705500Y-76835000D03*
X66705500Y-78105000D03*
X66705500Y-79375000D03*
X66705500Y-80645000D03*
X72105500Y-80645000D03*
X72105500Y-79375000D03*
X72105500Y-78105000D03*
X72105500Y-76835000D03*
X109377500Y-112331500D03*
X109377500Y-113601500D03*
X109377500Y-114871500D03*
X109377500Y-116141500D03*
X114777500Y-116141500D03*
X114777500Y-114871500D03*
X114777500Y-113601500D03*
X114777500Y-112331500D03*
D32*
X69293753Y-117957327D02*
X69647575Y-117603505D01*
X71216221Y-117603505D02*
X71570043Y-117957327D01*
D33*
X69151500Y-83312000D03*
X66651500Y-83312000D03*
D34*
X66649600Y-124937200D03*
X66649600Y-127437200D03*
X77366098Y-104062982D03*
X77366098Y-106562982D03*
D33*
X113645000Y-119507000D03*
X111145000Y-119507000D03*
D35*
X127381000Y-116840000D03*
X127381000Y-121841260D03*
X127381000Y-111838740D03*
D36*
X115697000Y-96647000D03*
D18*
X74168000Y-88646000D03*
X73439020Y-90147140D03*
X76708000Y-88646000D03*
X77436980Y-87144860D03*
X86233000Y-82042000D03*
X84731860Y-81313020D03*
X86233000Y-84582000D03*
X87734140Y-85310980D03*
D37*
X70608000Y-125632000D03*
X71258000Y-125632000D03*
X71908000Y-125632000D03*
X72558000Y-125632000D03*
X73208000Y-125632000D03*
X73858000Y-125632000D03*
X74508000Y-125632000D03*
X75158000Y-125632000D03*
X75808000Y-125632000D03*
X76458000Y-125632000D03*
X76458000Y-119732000D03*
X75808000Y-119732000D03*
X75158000Y-119732000D03*
X74508000Y-119732000D03*
X73858000Y-119732000D03*
X73208000Y-119732000D03*
X72558000Y-119732000D03*
X71908000Y-119732000D03*
X71258000Y-119732000D03*
X70608000Y-119732000D03*
D38*
X78740000Y-68453000D03*
D39*
X78740000Y-75057000D03*
X81026000Y-75057000D03*
X76454000Y-75057000D03*
D36*
X98298000Y-97002600D03*
D12*
X78308200Y-63779400D03*
D23*
X65565020Y-132397500D03*
D24*
X68105020Y-132397500D03*
X70645020Y-132397500D03*
X73185020Y-132397500D03*
X75725020Y-132397500D03*
X78265020Y-132397500D03*
X80805020Y-132397500D03*
X83345020Y-132397500D03*
X85885020Y-132397500D03*
X88425020Y-132397500D03*
X90965020Y-132397500D03*
X93505020Y-132397500D03*
X96045020Y-132397500D03*
X98585020Y-132397500D03*
X101125020Y-132397500D03*
X103665020Y-132397500D03*
D40*
X114808000Y-109410500D03*
X73279000Y-74803000D03*
X89535000Y-118300500D03*
X75184000Y-107569000D03*
X83820000Y-87312500D03*
X78359000Y-96964500D03*
X94678500Y-79629000D03*
X70739000Y-127127000D03*
X90043000Y-127127000D03*
X71247000Y-124015500D03*
X78994000Y-124523500D03*
X76390500Y-127807010D03*
X87122000Y-127807010D03*
X79184500Y-121539000D03*
X91122500Y-121602500D03*
X103632000Y-129921000D03*
X67119500Y-121348500D03*
X72580500Y-122110500D03*
X65913000Y-115829253D03*
X68961000Y-126619000D03*
X92202000Y-89535000D03*
X85598000Y-115951000D03*
X112395000Y-114935000D03*
X81026000Y-122682000D03*
D41*
X120205500Y-95504000D02*
X117284500Y-92583000D01*
X117284500Y-92583000D02*
X117284500Y-59206568D01*
X111955989Y-53878057D02*
X110939990Y-52862058D01*
X117284500Y-59206568D02*
X111955989Y-53878057D01*
X115697000Y-96647000D02*
X119062500Y-96647000D01*
X119062500Y-96647000D02*
X120205500Y-95504000D01*
D42*
X68785040Y-134537520D02*
X99250500Y-134537520D01*
X101125020Y-132397500D02*
X101125020Y-132797500D01*
X101125020Y-132797500D02*
X99385000Y-134537520D01*
X99385000Y-134537520D02*
X99250500Y-134537520D01*
X68105020Y-132397500D02*
X68105020Y-133857500D01*
X68105020Y-133857500D02*
X68785040Y-134537520D01*
D43*
X114808000Y-109410500D02*
X114808000Y-112301000D01*
X114808000Y-112301000D02*
X114777500Y-112331500D01*
D42*
X114777500Y-112331500D02*
X113842500Y-112331500D01*
D41*
X72105500Y-76835000D02*
X72105500Y-78105000D01*
X73914000Y-80835500D02*
X73914000Y-78538500D01*
X73914000Y-78538500D02*
X73480500Y-78105000D01*
X73480500Y-78105000D02*
X72105500Y-78105000D01*
X69151500Y-83312000D02*
X71437500Y-83312000D01*
X71437500Y-83312000D02*
X73914000Y-80835500D01*
X69151500Y-83312000D02*
X69276500Y-83312000D01*
X69276500Y-83312000D02*
X74168000Y-88203500D01*
X74168000Y-88203500D02*
X74168000Y-88646000D01*
X144843500Y-77142340D02*
X141340840Y-77142340D01*
X141340840Y-77142340D02*
X136207500Y-72009000D01*
D43*
X72105500Y-76835000D02*
X72105500Y-75976500D01*
X72105500Y-75976500D02*
X73279000Y-74803000D01*
X69151500Y-83629500D02*
X69151500Y-83312000D01*
X81026000Y-75057000D02*
X82042000Y-75057000D01*
X82042000Y-75057000D02*
X85344000Y-71755000D01*
D42*
X66649600Y-127437200D02*
X66649600Y-129437080D01*
X66649600Y-129437080D02*
X67387520Y-130175000D01*
D41*
X98298000Y-97002600D02*
X98298000Y-94043500D01*
X98298000Y-94043500D02*
X105219500Y-87122000D01*
D42*
X69850000Y-114300000D02*
X73230480Y-114300000D01*
X73230480Y-114300000D02*
X77366098Y-110164382D01*
X77366098Y-110164382D02*
X77366098Y-110011982D01*
X67691000Y-116459000D02*
X69850000Y-114300000D01*
X67691000Y-118364000D02*
X67691000Y-116459000D01*
X69059000Y-119732000D02*
X67691000Y-118364000D01*
X70608000Y-119732000D02*
X69059000Y-119732000D01*
X60515500Y-105219500D02*
X60515500Y-106378990D01*
X60515500Y-106378990D02*
X59136009Y-107758481D01*
X59136009Y-107758481D02*
X59136009Y-119731499D01*
X59136009Y-119731499D02*
X59356010Y-119951500D01*
X59356010Y-119951500D02*
X60515500Y-119951500D01*
X60515500Y-119951500D02*
X60515500Y-128407980D01*
X60515500Y-128407980D02*
X64505020Y-132397500D01*
X64505020Y-132397500D02*
X65565020Y-132397500D01*
X84836000Y-120269000D02*
X85716381Y-121149381D01*
X89535000Y-119412965D02*
X89535000Y-118300500D01*
X85716381Y-121149381D02*
X87798584Y-121149381D01*
X87798584Y-121149381D02*
X89535000Y-119412965D01*
X67387520Y-130175000D02*
X68822520Y-130175000D01*
X68822520Y-130175000D02*
X70645020Y-131997500D01*
X70645020Y-131997500D02*
X70645020Y-132397500D01*
X65565020Y-131997500D02*
X67387520Y-130175000D01*
X65565020Y-132397500D02*
X65565020Y-131997500D01*
X72654823Y-134077510D02*
X74930000Y-134077510D01*
X74930000Y-134077510D02*
X79525010Y-134077510D01*
X75725020Y-132397500D02*
X75725020Y-133857500D01*
X75725020Y-133857500D02*
X75505010Y-134077510D01*
X75505010Y-134077510D02*
X74930000Y-134077510D01*
X70645020Y-132397500D02*
X70974813Y-132397500D01*
X70974813Y-132397500D02*
X72654823Y-134077510D01*
X79525010Y-134077510D02*
X80805020Y-132797500D01*
X80805020Y-132797500D02*
X80805020Y-132397500D01*
X85885020Y-132397500D02*
X88425020Y-132397500D01*
X83345020Y-132397500D02*
X85885020Y-132397500D01*
X80805020Y-132397500D02*
X83345020Y-132397500D01*
D41*
X76708000Y-88646000D02*
X75708511Y-89645489D01*
X75708511Y-89645489D02*
X75708511Y-90244897D01*
X75708511Y-90244897D02*
X74206777Y-91746631D01*
X74206777Y-91746631D02*
X67172131Y-91746631D01*
X67172131Y-91746631D02*
X63055499Y-87629999D01*
X63055499Y-87629999D02*
X62039500Y-86614000D01*
X66705500Y-80645000D02*
X66705500Y-79375000D01*
X66705500Y-80645000D02*
X66705500Y-83258000D01*
X66705500Y-83258000D02*
X66651500Y-83312000D01*
X62039500Y-86614000D02*
X63476340Y-86614000D01*
X63476340Y-86614000D02*
X66651500Y-83438840D01*
X66651500Y-83438840D02*
X66651500Y-83312000D01*
X76367000Y-79248000D02*
X76367000Y-80473000D01*
X76367000Y-80473000D02*
X79999840Y-84105840D01*
X79999840Y-84105840D02*
X79999840Y-84582000D01*
X76454000Y-75057000D02*
X76454000Y-79161000D01*
X76454000Y-79161000D02*
X76367000Y-79248000D01*
X86233000Y-84582000D02*
X79999840Y-84582000D01*
X79999840Y-84582000D02*
X77436980Y-87144860D01*
X105219500Y-87122000D02*
X89545160Y-87122000D01*
X89545160Y-87122000D02*
X87734140Y-85310980D01*
X124523500Y-54991000D02*
X115460614Y-54991000D01*
X115460614Y-54991000D02*
X111715671Y-51246057D01*
X111715671Y-51246057D02*
X108399990Y-51246058D01*
X108399990Y-51246058D02*
X108399990Y-52862058D01*
D42*
X127381000Y-121841260D02*
X112694260Y-121841260D01*
X112694260Y-121841260D02*
X111145000Y-120292000D01*
X111145000Y-120292000D02*
X111145000Y-119507000D01*
D43*
X99060000Y-120015000D02*
X110637000Y-120015000D01*
X110637000Y-120015000D02*
X111145000Y-119507000D01*
D42*
X84836000Y-120269000D02*
X84836000Y-120976644D01*
X84836000Y-120976644D02*
X84836000Y-123952000D01*
X88359000Y-106934000D02*
X87449000Y-106934000D01*
X83427981Y-102912981D02*
X76457097Y-102912981D01*
X87449000Y-106934000D02*
X83427981Y-102912981D01*
X76457097Y-102912981D02*
X75184000Y-104186078D01*
X75184000Y-104186078D02*
X75184000Y-107144736D01*
X75184000Y-107144736D02*
X75184000Y-107569000D01*
X77366098Y-106562982D02*
X76190018Y-106562982D01*
X76190018Y-106562982D02*
X75184000Y-107569000D01*
D43*
X111145000Y-119507000D02*
X111020000Y-119507000D01*
X111020000Y-119507000D02*
X109377500Y-117864500D01*
X109377500Y-117864500D02*
X109377500Y-116741500D01*
X109377500Y-116741500D02*
X109377500Y-116141500D01*
X76492000Y-79248000D02*
X76367000Y-79248000D01*
X66651500Y-80699000D02*
X66705500Y-80645000D01*
D42*
X70608000Y-125632000D02*
X67344400Y-125632000D01*
X67344400Y-125632000D02*
X66649600Y-124937200D01*
X70608000Y-125632000D02*
X70608000Y-124747000D01*
X68780757Y-120660257D02*
X67310000Y-119189500D01*
X70608000Y-124747000D02*
X68780757Y-122919757D01*
X72746599Y-106362500D02*
X74485500Y-108101401D01*
X68780757Y-122919757D02*
X68780757Y-120660257D01*
X74485500Y-108101401D02*
X78147917Y-108101401D01*
X67310000Y-119189500D02*
X67310000Y-107442000D01*
X67310000Y-107442000D02*
X68389500Y-106362500D01*
X68389500Y-106362500D02*
X72746599Y-106362500D01*
X78147917Y-108101401D02*
X79906098Y-109859582D01*
X79906098Y-109859582D02*
X79906098Y-110011982D01*
D43*
X78359000Y-96964500D02*
X83820000Y-91503500D01*
X83820000Y-91503500D02*
X83820000Y-87312500D01*
D41*
X86233000Y-82042000D02*
X92265500Y-82042000D01*
X92265500Y-82042000D02*
X94678500Y-79629000D01*
D42*
X127381000Y-111838740D02*
X129541250Y-111838740D01*
X129541250Y-111838740D02*
X129761260Y-112058750D01*
X129761260Y-112058750D02*
X129761260Y-122619931D01*
X92349000Y-127127000D02*
X92249000Y-127127000D01*
X129761260Y-122619931D02*
X124224190Y-128157001D01*
X124224190Y-128157001D02*
X93379001Y-128157001D01*
X93379001Y-128157001D02*
X92349000Y-127127000D01*
X70739000Y-127127000D02*
X70608000Y-126996000D01*
X70608000Y-126996000D02*
X70608000Y-125632000D01*
X92249000Y-127127000D02*
X90043000Y-127127000D01*
X70652999Y-125676999D02*
X70608000Y-125632000D01*
X79906098Y-106742982D02*
X79906098Y-107652982D01*
X79906098Y-107652982D02*
X79906098Y-110011982D01*
D43*
X77978000Y-72898000D02*
X78740000Y-73660000D01*
X78740000Y-73660000D02*
X78740000Y-75057000D01*
X69993500Y-72898000D02*
X77978000Y-72898000D01*
X69993500Y-72898000D02*
X69993500Y-68881000D01*
X69993500Y-68881000D02*
X71183500Y-67691000D01*
X84731860Y-81313020D02*
X80007020Y-81313020D01*
X80007020Y-81313020D02*
X78867000Y-80173000D01*
X78867000Y-80173000D02*
X78867000Y-79248000D01*
X78740000Y-75057000D02*
X78740000Y-79121000D01*
X78740000Y-79121000D02*
X78867000Y-79248000D01*
D42*
X84986098Y-110011982D02*
X84986098Y-110164382D01*
X84986098Y-110164382D02*
X83282478Y-111868002D01*
X83282478Y-111868002D02*
X77314050Y-111868002D01*
X77314050Y-111868002D02*
X73208000Y-115974052D01*
X73208000Y-115974052D02*
X73208000Y-119732000D01*
X79906098Y-104042982D02*
X80716098Y-104042982D01*
X80716098Y-104042982D02*
X84986098Y-108312982D01*
X84986098Y-108312982D02*
X84986098Y-108835982D01*
X84986098Y-108835982D02*
X84986098Y-110011982D01*
X79906098Y-104042982D02*
X77386098Y-104042982D01*
X77386098Y-104042982D02*
X77366098Y-104062982D01*
D41*
X134048500Y-87122000D02*
X134048500Y-92583000D01*
X134048500Y-87122000D02*
X127571500Y-87122000D01*
X130365500Y-95504000D02*
X131127500Y-95504000D01*
X131127500Y-95504000D02*
X134048500Y-92583000D01*
D43*
X66705500Y-78105000D02*
X63965810Y-78105000D01*
X63965810Y-78105000D02*
X63817500Y-77956690D01*
X63817500Y-77956690D02*
X63817500Y-76857860D01*
X65039240Y-72898000D02*
X67293500Y-72898000D01*
X63817500Y-74018140D02*
X63919100Y-74018140D01*
X63919100Y-74018140D02*
X65039240Y-72898000D01*
X109377500Y-113601500D02*
X110452500Y-113601500D01*
X94996000Y-122802370D02*
X94996000Y-123952000D01*
X110452500Y-113601500D02*
X110602501Y-113451499D01*
X110602501Y-113451499D02*
X110602501Y-111671499D01*
X110602501Y-111671499D02*
X108509422Y-109578420D01*
X94996000Y-114333318D02*
X94996000Y-122802370D01*
X108509422Y-109578420D02*
X99750898Y-109578420D01*
X99750898Y-109578420D02*
X94996000Y-114333318D01*
D42*
X94949000Y-127127000D02*
X94949000Y-123999000D01*
X94949000Y-123999000D02*
X94996000Y-123952000D01*
X91059000Y-110213140D02*
X91059000Y-109254310D01*
X91059000Y-109254310D02*
X91059000Y-106934000D01*
X71258000Y-124647998D02*
X71258000Y-124026500D01*
X71258000Y-124026500D02*
X71247000Y-124015500D01*
X71258000Y-124647998D02*
X71258000Y-124747000D01*
X71258000Y-124747000D02*
X71258000Y-125632000D01*
X80137893Y-125181631D02*
X79652131Y-125181631D01*
X79652131Y-125181631D02*
X78994000Y-124523500D01*
X91059000Y-113052860D02*
X91059000Y-119548855D01*
X91059000Y-119548855D02*
X85426224Y-125181631D01*
X85426224Y-125181631D02*
X80137893Y-125181631D01*
X91059000Y-113052860D02*
X90957400Y-113052860D01*
D41*
X144843500Y-52141120D02*
X143692881Y-53291739D01*
X143692881Y-53291739D02*
X138324499Y-53291739D01*
X138324499Y-53291739D02*
X136672930Y-51640170D01*
X136672930Y-51640170D02*
X132461570Y-51640170D01*
X130111500Y-53990240D02*
X130111500Y-54991000D01*
X132461570Y-51640170D02*
X130111500Y-53990240D01*
X144843500Y-52141120D02*
X145930620Y-52141120D01*
X145930620Y-52141120D02*
X147955000Y-54165500D01*
X144208500Y-87122000D02*
X144208500Y-85522510D01*
X144208500Y-85522510D02*
X147955000Y-81776010D01*
X147955000Y-81776010D02*
X147955000Y-55226966D01*
X147955000Y-55226966D02*
X147955000Y-54165500D01*
D42*
X73858000Y-125632000D02*
X73858000Y-131724520D01*
X73858000Y-131724520D02*
X73185020Y-132397500D01*
X76847536Y-129921000D02*
X76847536Y-130580016D01*
X76847536Y-130580016D02*
X78265020Y-131997500D01*
X78265020Y-131997500D02*
X78265020Y-132397500D01*
X74508000Y-125632000D02*
X74508000Y-127581464D01*
X74508000Y-127581464D02*
X76847536Y-129921000D01*
X89535000Y-129032000D02*
X90965020Y-130462020D01*
X90965020Y-130462020D02*
X90965020Y-132397500D01*
X76609088Y-129032000D02*
X89535000Y-129032000D01*
X75158000Y-125632000D02*
X75158000Y-127580912D01*
X75158000Y-127580912D02*
X76609088Y-129032000D01*
X76390500Y-127807010D02*
X76390500Y-127382746D01*
X76390500Y-127382746D02*
X75808000Y-126800246D01*
X75808000Y-126800246D02*
X75808000Y-126517000D01*
X75808000Y-126517000D02*
X75808000Y-125632000D01*
X87122000Y-127807010D02*
X86822001Y-127507011D01*
X86822001Y-127507011D02*
X78718011Y-127507011D01*
X78718011Y-127507011D02*
X76843000Y-125632000D01*
X76843000Y-125632000D02*
X76458000Y-125632000D01*
X76458000Y-119732000D02*
X77377500Y-119732000D01*
X77377500Y-119732000D02*
X79184500Y-121539000D01*
D43*
X103632000Y-129921000D02*
X91726998Y-129921000D01*
X91726998Y-129921000D02*
X89292999Y-127487001D01*
X89292999Y-127487001D02*
X89292999Y-123432001D01*
X89292999Y-123432001D02*
X91122500Y-121602500D01*
X61785500Y-64643000D02*
X61785500Y-75501500D01*
X61785500Y-75501500D02*
X58547000Y-78740000D01*
X62039500Y-84074000D02*
X62039500Y-82232500D01*
X62039500Y-82232500D02*
X58547000Y-78740000D01*
D42*
X72558000Y-119732000D02*
X72558000Y-115973500D01*
X82446098Y-110164382D02*
X82446098Y-110011982D01*
X72558000Y-115973500D02*
X77123508Y-111407992D01*
X77123508Y-111407992D02*
X81202488Y-111407992D01*
X81202488Y-111407992D02*
X82446098Y-110164382D01*
D41*
X136207500Y-69469000D02*
X124650500Y-69469000D01*
X124650500Y-69469000D02*
X123634500Y-68453000D01*
D42*
X86106000Y-118999000D02*
X84455000Y-117348000D01*
X84455000Y-117348000D02*
X82503000Y-117348000D01*
X79803000Y-117348000D02*
X76557998Y-117348000D01*
X76557998Y-117348000D02*
X75158000Y-118747998D01*
X75158000Y-118747998D02*
X75158000Y-118847000D01*
X75158000Y-118847000D02*
X75158000Y-119732000D01*
D43*
X99060000Y-112415320D02*
X101296891Y-110178429D01*
X101296891Y-110178429D02*
X106749429Y-110178429D01*
X106749429Y-110178429D02*
X108902500Y-112331500D01*
X108902500Y-112331500D02*
X109377500Y-112331500D01*
D41*
X72105500Y-79375000D02*
X72105500Y-80645000D01*
D43*
X72105500Y-79375000D02*
X71630500Y-79375000D01*
X71630500Y-79375000D02*
X68493501Y-76238001D01*
X68493501Y-76238001D02*
X68493501Y-68811001D01*
X65324989Y-65642489D02*
X64325500Y-64643000D01*
X68493501Y-68811001D02*
X65324989Y-65642489D01*
D42*
X72440800Y-129362200D02*
X73208000Y-128595000D01*
X73208000Y-128595000D02*
X73208000Y-125632000D01*
X69240400Y-129362200D02*
X72440800Y-129362200D01*
X68072000Y-128193800D02*
X69240400Y-129362200D01*
X68072000Y-126314200D02*
X68072000Y-128193800D01*
X60515500Y-117411500D02*
X62687200Y-119583200D01*
X62687200Y-119583200D02*
X62687200Y-124099722D01*
X64901678Y-126314200D02*
X68072000Y-126314200D01*
X62687200Y-124099722D02*
X64901678Y-126314200D01*
X73208000Y-125632000D02*
X73252999Y-125676999D01*
X61894991Y-116123991D02*
X67119500Y-121348500D01*
X72580500Y-122110500D02*
X72580500Y-123688402D01*
X72580500Y-123688402D02*
X71908000Y-124360902D01*
X71908000Y-124360902D02*
X71908000Y-124747000D01*
X71908000Y-124747000D02*
X71908000Y-125632000D01*
X60515500Y-102679500D02*
X61894991Y-104058991D01*
X61894991Y-104058991D02*
X61894991Y-116123991D01*
X101600000Y-79057500D02*
X109474000Y-86931500D01*
X109474000Y-93890322D02*
X99351322Y-104013000D01*
X99351322Y-104013000D02*
X90233500Y-104013000D01*
X109474000Y-86931500D02*
X109474000Y-93890322D01*
X90233500Y-104013000D02*
X89489001Y-104757499D01*
X89489001Y-104757499D02*
X89489001Y-108440499D01*
X89489001Y-108440499D02*
X87757000Y-110172500D01*
X87757000Y-110172500D02*
X87757000Y-118618000D01*
X84215001Y-118378001D02*
X76276999Y-118378001D01*
X87757000Y-118618000D02*
X86495619Y-119879381D01*
X86495619Y-119879381D02*
X85716381Y-119879381D01*
X85716381Y-119879381D02*
X84215001Y-118378001D01*
X76276999Y-118378001D02*
X75808000Y-118847000D01*
X75808000Y-118847000D02*
X75808000Y-119732000D01*
X69773800Y-128371600D02*
X68961000Y-127558800D01*
X68961000Y-127558800D02*
X68961000Y-126619000D01*
X71551800Y-128371600D02*
X69773800Y-128371600D01*
X72558000Y-127365400D02*
X71551800Y-128371600D01*
X72558000Y-126977500D02*
X72558000Y-127365400D01*
X72558000Y-126977500D02*
X72558000Y-125632000D01*
X65913000Y-104457500D02*
X65913000Y-115570000D01*
X65913000Y-115570000D02*
X65913000Y-115829253D01*
X92202000Y-89535000D02*
X89184526Y-89535000D01*
X89184526Y-89535000D02*
X78834026Y-99885500D01*
X78834026Y-99885500D02*
X70485000Y-99885500D01*
X70485000Y-99885500D02*
X65913000Y-104457500D01*
X74508000Y-119732000D02*
X74508000Y-118747446D01*
X74508000Y-118747446D02*
X77304446Y-115951000D01*
X77304446Y-115951000D02*
X85598000Y-115951000D01*
D43*
X106922569Y-113780569D02*
X108013500Y-114871500D01*
X108013500Y-114871500D02*
X109377500Y-114871500D01*
X106172000Y-111379000D02*
X106922569Y-112129569D01*
X106922569Y-112129569D02*
X106922569Y-113780569D01*
D42*
X71908000Y-119732000D02*
X71908000Y-118295284D01*
X71908000Y-118295284D02*
X71181198Y-117568482D01*
X69682598Y-117568482D02*
X69979482Y-117568482D01*
X69979482Y-117568482D02*
X71258000Y-118847000D01*
X71258000Y-118847000D02*
X71258000Y-119732000D01*
X71213001Y-119687001D02*
X71258000Y-119732000D01*
D41*
X135699500Y-54991000D02*
X135699500Y-62738000D01*
X135699500Y-62738000D02*
X136207500Y-63246000D01*
X136207500Y-66929000D02*
X136207500Y-63246000D01*
D42*
X127381000Y-116840000D02*
X115016000Y-116840000D01*
X115016000Y-116840000D02*
X114777500Y-116601500D01*
X114777500Y-116601500D02*
X114777500Y-116141500D01*
D43*
X113645000Y-119507000D02*
X114695000Y-119507000D01*
X114695000Y-119507000D02*
X114777500Y-119424500D01*
X114777500Y-119424500D02*
X114777500Y-116741500D01*
X114777500Y-116741500D02*
X114777500Y-116141500D01*
D42*
X112395000Y-114935000D02*
X114714000Y-114935000D01*
X114714000Y-114935000D02*
X114777500Y-114871500D01*
X73858000Y-119732000D02*
X73858000Y-120617000D01*
X73858000Y-120617000D02*
X75923000Y-122682000D01*
X75923000Y-122682000D02*
X81026000Y-122682000D01*
D43*
X114777500Y-113601500D02*
X114777500Y-114871500D01*
D44*
G36*
X152159500Y-136157500D02*
X54469500Y-136157500D01*
X54469500Y-132683250D01*
X64066420Y-132683250D01*
X64066420Y-133539810D01*
X64163093Y-133773199D01*
X64341722Y-133951827D01*
X64575111Y-134048500D01*
X65279270Y-134048500D01*
X65438020Y-133889750D01*
X65438020Y-132524500D01*
X64225170Y-132524500D01*
X64066420Y-132683250D01*
X54469500Y-132683250D01*
X54469500Y-131255190D01*
X64066420Y-131255190D01*
X64066420Y-132111750D01*
X64225170Y-132270500D01*
X65438020Y-132270500D01*
X65438020Y-130905250D01*
X65279270Y-130746500D01*
X64575111Y-130746500D01*
X64341722Y-130843173D01*
X64163093Y-131021801D01*
X64066420Y-131255190D01*
X54469500Y-131255190D01*
X54469500Y-127722950D01*
X65389600Y-127722950D01*
X65389600Y-128313509D01*
X65486273Y-128546898D01*
X65664901Y-128725527D01*
X65898290Y-128822200D01*
X66363850Y-128822200D01*
X66522600Y-128663450D01*
X66522600Y-127564200D01*
X65548350Y-127564200D01*
X65389600Y-127722950D01*
X54469500Y-127722950D01*
X54469500Y-120237250D01*
X58881010Y-120237250D01*
X58881010Y-121077299D01*
X58977683Y-121310688D01*
X59156311Y-121489317D01*
X59389700Y-121585990D01*
X60229750Y-121585990D01*
X60388500Y-121427240D01*
X60388500Y-120078500D01*
X59039760Y-120078500D01*
X58881010Y-120237250D01*
X54469500Y-120237250D01*
X54469500Y-105505250D01*
X58881010Y-105505250D01*
X58881010Y-106345299D01*
X58977683Y-106578688D01*
X59156311Y-106757317D01*
X59389700Y-106853990D01*
X60229750Y-106853990D01*
X60388500Y-106695240D01*
X60388500Y-105346500D01*
X59039760Y-105346500D01*
X58881010Y-105505250D01*
X54469500Y-105505250D01*
X54469500Y-102647478D01*
X58881010Y-102647478D01*
X58881010Y-102711522D01*
X59005428Y-103337014D01*
X59218513Y-103655918D01*
X59156311Y-103681683D01*
X58977683Y-103860312D01*
X58881010Y-104093701D01*
X58881010Y-104933750D01*
X59039760Y-105092500D01*
X60388500Y-105092500D01*
X60388500Y-105072500D01*
X60642500Y-105072500D01*
X60642500Y-105092500D01*
X60662500Y-105092500D01*
X60662500Y-105346500D01*
X60642500Y-105346500D01*
X60642500Y-106695240D01*
X60801250Y-106853990D01*
X61179991Y-106853990D01*
X61179991Y-115895464D01*
X61140992Y-115869406D01*
X60515500Y-115744988D01*
X59890008Y-115869406D01*
X59359741Y-116223719D01*
X59005428Y-116753986D01*
X58881010Y-117379478D01*
X58881010Y-117443522D01*
X59005428Y-118069014D01*
X59218513Y-118387918D01*
X59156311Y-118413683D01*
X58977683Y-118592312D01*
X58881010Y-118825701D01*
X58881010Y-119665750D01*
X59039760Y-119824500D01*
X60388500Y-119824500D01*
X60388500Y-119804500D01*
X60642500Y-119804500D01*
X60642500Y-119824500D01*
X60662500Y-119824500D01*
X60662500Y-120078500D01*
X60642500Y-120078500D01*
X60642500Y-121427240D01*
X60801250Y-121585990D01*
X61641300Y-121585990D01*
X61874689Y-121489317D01*
X61972200Y-121391805D01*
X61972200Y-124099722D01*
X62026626Y-124373341D01*
X62181619Y-124605303D01*
X64396097Y-126819781D01*
X64628059Y-126974774D01*
X64901678Y-127029200D01*
X65389600Y-127029200D01*
X65389600Y-127151450D01*
X65548350Y-127310200D01*
X66522600Y-127310200D01*
X66522600Y-127290200D01*
X66776600Y-127290200D01*
X66776600Y-127310200D01*
X66796600Y-127310200D01*
X66796600Y-127564200D01*
X66776600Y-127564200D01*
X66776600Y-128663450D01*
X66935350Y-128822200D01*
X67400910Y-128822200D01*
X67604789Y-128737751D01*
X68734819Y-129867781D01*
X68966781Y-130022774D01*
X69240400Y-130077200D01*
X72440800Y-130077200D01*
X72714419Y-130022774D01*
X72946381Y-129867781D01*
X73143000Y-129671162D01*
X73143000Y-130722513D01*
X72611531Y-130828229D01*
X72125350Y-131153085D01*
X71918559Y-131462569D01*
X71547056Y-131046768D01*
X71019811Y-130792791D01*
X71004046Y-130790142D01*
X70772020Y-130911283D01*
X70772020Y-132270500D01*
X70792020Y-132270500D01*
X70792020Y-132524500D01*
X70772020Y-132524500D01*
X70772020Y-132544500D01*
X70518020Y-132544500D01*
X70518020Y-132524500D01*
X70498020Y-132524500D01*
X70498020Y-132270500D01*
X70518020Y-132270500D01*
X70518020Y-130911283D01*
X70285994Y-130790142D01*
X70270229Y-130792791D01*
X69742984Y-131046768D01*
X69371481Y-131462569D01*
X69164690Y-131153085D01*
X68678509Y-130828229D01*
X68105020Y-130714155D01*
X67531531Y-130828229D01*
X67045350Y-131153085D01*
X67030520Y-131175280D01*
X66966947Y-131021801D01*
X66788318Y-130843173D01*
X66554929Y-130746500D01*
X65850770Y-130746500D01*
X65692020Y-130905250D01*
X65692020Y-132270500D01*
X65712020Y-132270500D01*
X65712020Y-132524500D01*
X65692020Y-132524500D01*
X65692020Y-133889750D01*
X65850770Y-134048500D01*
X66554929Y-134048500D01*
X66788318Y-133951827D01*
X66966947Y-133773199D01*
X67030520Y-133619720D01*
X67045350Y-133641915D01*
X67393396Y-133874472D01*
X67444446Y-134131119D01*
X67599439Y-134363081D01*
X68279459Y-135043102D01*
X68511422Y-135198095D01*
X68785040Y-135252520D01*
X99385000Y-135252520D01*
X99658619Y-135198094D01*
X99890581Y-135043101D01*
X100897995Y-134035687D01*
X101125020Y-134080845D01*
X101698509Y-133966771D01*
X102184690Y-133641915D01*
X102395020Y-133327134D01*
X102605350Y-133641915D01*
X103091531Y-133966771D01*
X103665020Y-134080845D01*
X104238509Y-133966771D01*
X104724690Y-133641915D01*
X105049546Y-133155734D01*
X105163620Y-132582245D01*
X105163620Y-132212755D01*
X105049546Y-131639266D01*
X104724690Y-131153085D01*
X104238509Y-130828229D01*
X103999723Y-130780732D01*
X104160943Y-130714117D01*
X104424192Y-130451327D01*
X104566838Y-130107799D01*
X104567162Y-129735833D01*
X104425117Y-129392057D01*
X104162327Y-129128808D01*
X103818799Y-128986162D01*
X103446833Y-128985838D01*
X103103057Y-129127883D01*
X103094926Y-129136000D01*
X92052156Y-129136000D01*
X91300373Y-128384217D01*
X91499000Y-128424440D01*
X92635277Y-128424440D01*
X92873419Y-128662582D01*
X92967623Y-128725527D01*
X93105382Y-128817575D01*
X93379001Y-128872001D01*
X124224190Y-128872001D01*
X124497809Y-128817575D01*
X124729771Y-128662582D01*
X130266841Y-123125513D01*
X130421834Y-122893550D01*
X130476260Y-122619931D01*
X130476260Y-112058750D01*
X130421834Y-111785131D01*
X130266841Y-111553169D01*
X130046831Y-111333159D01*
X129955123Y-111271881D01*
X129905371Y-111021761D01*
X129442589Y-110329159D01*
X128749987Y-109866377D01*
X127933008Y-109703870D01*
X126828992Y-109703870D01*
X126012013Y-109866377D01*
X125319411Y-110329159D01*
X124856629Y-111021761D01*
X124694122Y-111838740D01*
X124856629Y-112655719D01*
X125319411Y-113348321D01*
X126012013Y-113811103D01*
X126828992Y-113973610D01*
X127933008Y-113973610D01*
X128749987Y-113811103D01*
X129046260Y-113613140D01*
X129046260Y-115065600D01*
X128749987Y-114867637D01*
X127933008Y-114705130D01*
X126828992Y-114705130D01*
X126012013Y-114867637D01*
X125319411Y-115330419D01*
X124856629Y-116023021D01*
X124836344Y-116125000D01*
X116199940Y-116125000D01*
X116199940Y-115841500D01*
X116155662Y-115606183D01*
X116091822Y-115506972D01*
X116148931Y-115423390D01*
X116199940Y-115171500D01*
X116199940Y-114571500D01*
X116155662Y-114336183D01*
X116091822Y-114236972D01*
X116148931Y-114153390D01*
X116199940Y-113901500D01*
X116199940Y-113301500D01*
X116155662Y-113066183D01*
X116091822Y-112966972D01*
X116148931Y-112883390D01*
X116199940Y-112631500D01*
X116199940Y-112031500D01*
X116155662Y-111796183D01*
X116016590Y-111580059D01*
X115804390Y-111435069D01*
X115593000Y-111392261D01*
X115593000Y-109948006D01*
X115600192Y-109940827D01*
X115742838Y-109597299D01*
X115743162Y-109225333D01*
X115601117Y-108881557D01*
X115338327Y-108618308D01*
X114994799Y-108475662D01*
X114622833Y-108475338D01*
X114279057Y-108617383D01*
X114015808Y-108880173D01*
X113873162Y-109223701D01*
X113872838Y-109595667D01*
X114014883Y-109939443D01*
X114023000Y-109947574D01*
X114023000Y-111384060D01*
X114002500Y-111384060D01*
X113767183Y-111428338D01*
X113551059Y-111567410D01*
X113406069Y-111779610D01*
X113406045Y-111779730D01*
X113336919Y-111825919D01*
X113181926Y-112057881D01*
X113127500Y-112331500D01*
X113181926Y-112605119D01*
X113336919Y-112837081D01*
X113412852Y-112887818D01*
X113463178Y-112966028D01*
X113406069Y-113049610D01*
X113355060Y-113301500D01*
X113355060Y-113901500D01*
X113399338Y-114136817D01*
X113452865Y-114220000D01*
X113002384Y-114220000D01*
X112925327Y-114142808D01*
X112581799Y-114000162D01*
X112209833Y-113999838D01*
X111866057Y-114141883D01*
X111602808Y-114404673D01*
X111460162Y-114748201D01*
X111459838Y-115120167D01*
X111601883Y-115463943D01*
X111864673Y-115727192D01*
X112208201Y-115869838D01*
X112580167Y-115870162D01*
X112923943Y-115728117D01*
X113002196Y-115650000D01*
X113393840Y-115650000D01*
X113355060Y-115841500D01*
X113355060Y-116441500D01*
X113399338Y-116676817D01*
X113538410Y-116892941D01*
X113750610Y-117037931D01*
X113992500Y-117086915D01*
X113992500Y-118234560D01*
X112895000Y-118234560D01*
X112659683Y-118278838D01*
X112443559Y-118417910D01*
X112397031Y-118486006D01*
X112254698Y-118343673D01*
X112021309Y-118247000D01*
X111430750Y-118247000D01*
X111272000Y-118405750D01*
X111272000Y-119380000D01*
X111292000Y-119380000D01*
X111292000Y-119634000D01*
X111272000Y-119634000D01*
X111272000Y-120608250D01*
X111430750Y-120767000D01*
X112021309Y-120767000D01*
X112254698Y-120670327D01*
X112395936Y-120529090D01*
X112430910Y-120583441D01*
X112643110Y-120728431D01*
X112895000Y-120779440D01*
X114395000Y-120779440D01*
X114630317Y-120735162D01*
X114846441Y-120596090D01*
X114991431Y-120383890D01*
X115026323Y-120211588D01*
X115250079Y-120062079D01*
X115332579Y-119979579D01*
X115502745Y-119724906D01*
X115562501Y-119424500D01*
X115562500Y-119424495D01*
X115562500Y-117555000D01*
X124836344Y-117555000D01*
X124856629Y-117656979D01*
X125319411Y-118349581D01*
X126012013Y-118812363D01*
X126828992Y-118974870D01*
X127933008Y-118974870D01*
X128749987Y-118812363D01*
X129046260Y-118614400D01*
X129046260Y-120092219D01*
X128815692Y-119917498D01*
X128008380Y-119706390D01*
X127508000Y-119706390D01*
X127508000Y-121714260D01*
X127528000Y-121714260D01*
X127528000Y-121968260D01*
X127508000Y-121968260D01*
X127508000Y-123862028D01*
X123928028Y-127442001D01*
X96346440Y-127442001D01*
X96346440Y-126477000D01*
X96302162Y-126241683D01*
X96163090Y-126025559D01*
X95950890Y-125880569D01*
X95699000Y-125829560D01*
X95664000Y-125829560D01*
X95664000Y-125449070D01*
X95845630Y-125449070D01*
X96080947Y-125404792D01*
X96297071Y-125265720D01*
X96442061Y-125053520D01*
X96493070Y-124801630D01*
X96493070Y-123102370D01*
X96448792Y-122867053D01*
X96309720Y-122650929D01*
X96097520Y-122505939D01*
X95845630Y-122454930D01*
X95781000Y-122454930D01*
X95781000Y-122300072D01*
X124795635Y-122300072D01*
X124859656Y-122540907D01*
X125281236Y-123261039D01*
X125946308Y-123765022D01*
X126753620Y-123976130D01*
X127254000Y-123976130D01*
X127254000Y-121968260D01*
X124908585Y-121968260D01*
X124795635Y-122300072D01*
X95781000Y-122300072D01*
X95781000Y-121167532D01*
X98087073Y-121167532D01*
X98185736Y-121434387D01*
X98795461Y-121660908D01*
X99445460Y-121636856D01*
X99934264Y-121434387D01*
X99953467Y-121382448D01*
X124795635Y-121382448D01*
X124908585Y-121714260D01*
X127254000Y-121714260D01*
X127254000Y-119706390D01*
X126753620Y-119706390D01*
X125946308Y-119917498D01*
X125281236Y-120421481D01*
X124859656Y-121141613D01*
X124795635Y-121382448D01*
X99953467Y-121382448D01*
X100032927Y-121167532D01*
X99060000Y-120194605D01*
X98087073Y-121167532D01*
X95781000Y-121167532D01*
X95781000Y-119750461D01*
X97414092Y-119750461D01*
X97438144Y-120400460D01*
X97640613Y-120889264D01*
X97907468Y-120987927D01*
X98880395Y-120015000D01*
X99239605Y-120015000D01*
X100212532Y-120987927D01*
X100479387Y-120889264D01*
X100705908Y-120279539D01*
X100687896Y-119792750D01*
X109760000Y-119792750D01*
X109760000Y-120258310D01*
X109856673Y-120491699D01*
X110035302Y-120670327D01*
X110268691Y-120767000D01*
X110859250Y-120767000D01*
X111018000Y-120608250D01*
X111018000Y-119634000D01*
X109918750Y-119634000D01*
X109760000Y-119792750D01*
X100687896Y-119792750D01*
X100681856Y-119629540D01*
X100479387Y-119140736D01*
X100212532Y-119042073D01*
X99239605Y-120015000D01*
X98880395Y-120015000D01*
X97907468Y-119042073D01*
X97640613Y-119140736D01*
X97414092Y-119750461D01*
X95781000Y-119750461D01*
X95781000Y-118862468D01*
X98087073Y-118862468D01*
X99060000Y-119835395D01*
X100032927Y-118862468D01*
X99993449Y-118755690D01*
X109760000Y-118755690D01*
X109760000Y-119221250D01*
X109918750Y-119380000D01*
X111018000Y-119380000D01*
X111018000Y-118405750D01*
X110859250Y-118247000D01*
X110268691Y-118247000D01*
X110035302Y-118343673D01*
X109856673Y-118522301D01*
X109760000Y-118755690D01*
X99993449Y-118755690D01*
X99934264Y-118595613D01*
X99324539Y-118369092D01*
X98674540Y-118393144D01*
X98185736Y-118595613D01*
X98087073Y-118862468D01*
X95781000Y-118862468D01*
X95781000Y-116427250D01*
X107967500Y-116427250D01*
X107967500Y-116567810D01*
X108064173Y-116801199D01*
X108242802Y-116979827D01*
X108476191Y-117076500D01*
X109091750Y-117076500D01*
X109250500Y-116917750D01*
X109250500Y-116268500D01*
X109504500Y-116268500D01*
X109504500Y-116917750D01*
X109663250Y-117076500D01*
X110278809Y-117076500D01*
X110512198Y-116979827D01*
X110690827Y-116801199D01*
X110787500Y-116567810D01*
X110787500Y-116427250D01*
X110628750Y-116268500D01*
X109504500Y-116268500D01*
X109250500Y-116268500D01*
X108126250Y-116268500D01*
X107967500Y-116427250D01*
X95781000Y-116427250D01*
X95781000Y-114658476D01*
X97505310Y-112934166D01*
X97673106Y-113340263D01*
X98132637Y-113800598D01*
X98733352Y-114050036D01*
X99383795Y-114050604D01*
X99984943Y-113802214D01*
X100445278Y-113342683D01*
X100694716Y-112741968D01*
X100695284Y-112091525D01*
X100636418Y-111949060D01*
X101622049Y-110963429D01*
X104844287Y-110963429D01*
X104786671Y-111102184D01*
X104786190Y-111653398D01*
X104996686Y-112162837D01*
X105386113Y-112552944D01*
X105895184Y-112764329D01*
X106137569Y-112764541D01*
X106137569Y-113780569D01*
X106197324Y-114080976D01*
X106367490Y-114335648D01*
X107458421Y-115426579D01*
X107713094Y-115596745D01*
X107993461Y-115652514D01*
X107967500Y-115715190D01*
X107967500Y-115855750D01*
X108126250Y-116014500D01*
X109250500Y-116014500D01*
X109250500Y-115994500D01*
X109504500Y-115994500D01*
X109504500Y-116014500D01*
X110628750Y-116014500D01*
X110787500Y-115855750D01*
X110787500Y-115715190D01*
X110697694Y-115498378D01*
X110748931Y-115423390D01*
X110799940Y-115171500D01*
X110799940Y-114571500D01*
X110755662Y-114336183D01*
X110749965Y-114327330D01*
X110752907Y-114326745D01*
X111007579Y-114156579D01*
X111157580Y-114006578D01*
X111162083Y-113999838D01*
X111327746Y-113751905D01*
X111387501Y-113451499D01*
X111387501Y-111671499D01*
X111327746Y-111371093D01*
X111157580Y-111116420D01*
X109064501Y-109023341D01*
X108809829Y-108853175D01*
X108509422Y-108793420D01*
X99750898Y-108793420D01*
X99450491Y-108853175D01*
X99195819Y-109023341D01*
X94440921Y-113778239D01*
X94270755Y-114032911D01*
X94230259Y-114236499D01*
X94211000Y-114333318D01*
X94211000Y-122454930D01*
X94146370Y-122454930D01*
X93911053Y-122499208D01*
X93694929Y-122638280D01*
X93549939Y-122850480D01*
X93498930Y-123102370D01*
X93498930Y-124801630D01*
X93543208Y-125036947D01*
X93682280Y-125253071D01*
X93894480Y-125398061D01*
X94146370Y-125449070D01*
X94234000Y-125449070D01*
X94234000Y-125829560D01*
X94199000Y-125829560D01*
X93963683Y-125873838D01*
X93747559Y-126012910D01*
X93602569Y-126225110D01*
X93599919Y-126238197D01*
X93463090Y-126025559D01*
X93250890Y-125880569D01*
X92999000Y-125829560D01*
X91499000Y-125829560D01*
X91263683Y-125873838D01*
X91047559Y-126012910D01*
X90902569Y-126225110D01*
X90864723Y-126412000D01*
X90650384Y-126412000D01*
X90573327Y-126334808D01*
X90229799Y-126192162D01*
X90077999Y-126192030D01*
X90077999Y-123757159D01*
X91297505Y-122537653D01*
X91307667Y-122537662D01*
X91651443Y-122395617D01*
X91914692Y-122132827D01*
X92057338Y-121789299D01*
X92057662Y-121417333D01*
X91915617Y-121073557D01*
X91652827Y-120810308D01*
X91309299Y-120667662D01*
X90951667Y-120667350D01*
X91564581Y-120054436D01*
X91719574Y-119822474D01*
X91738981Y-119724906D01*
X91774000Y-119548855D01*
X91774000Y-114499130D01*
X91959430Y-114499130D01*
X92194747Y-114454852D01*
X92410871Y-114315780D01*
X92555861Y-114103580D01*
X92606870Y-113851690D01*
X92606870Y-112254030D01*
X92562592Y-112018713D01*
X92423520Y-111802589D01*
X92211320Y-111657599D01*
X92094634Y-111633970D01*
X92194747Y-111615132D01*
X92410871Y-111476060D01*
X92555861Y-111263860D01*
X92606870Y-111011970D01*
X92606870Y-109414310D01*
X92562592Y-109178993D01*
X92423520Y-108962869D01*
X92211320Y-108817879D01*
X91959430Y-108766870D01*
X91774000Y-108766870D01*
X91774000Y-108231440D01*
X91809000Y-108231440D01*
X92044317Y-108187162D01*
X92260441Y-108048090D01*
X92405431Y-107835890D01*
X92456440Y-107584000D01*
X92456440Y-106284000D01*
X92412162Y-106048683D01*
X92273090Y-105832559D01*
X92060890Y-105687569D01*
X91809000Y-105636560D01*
X90309000Y-105636560D01*
X90204001Y-105656317D01*
X90204001Y-105053661D01*
X90529663Y-104728000D01*
X99351322Y-104728000D01*
X99624941Y-104673574D01*
X99856903Y-104518581D01*
X109979582Y-94395903D01*
X110134575Y-94163940D01*
X110189000Y-93890322D01*
X110189000Y-86931500D01*
X110134574Y-86657881D01*
X110042032Y-86519383D01*
X109979582Y-86425919D01*
X102956766Y-79403104D01*
X102985329Y-79334316D01*
X102985810Y-78783102D01*
X102775314Y-78273663D01*
X102385887Y-77883556D01*
X101876816Y-77672171D01*
X101325602Y-77671690D01*
X100816163Y-77882186D01*
X100426056Y-78271613D01*
X100214671Y-78780684D01*
X100214190Y-79331898D01*
X100424686Y-79841337D01*
X100814113Y-80231444D01*
X101323184Y-80442829D01*
X101874398Y-80443310D01*
X101945337Y-80413999D01*
X108759000Y-87227663D01*
X108759000Y-93594159D01*
X99055160Y-103298000D01*
X90233500Y-103298000D01*
X89959882Y-103352425D01*
X89727919Y-103507418D01*
X88983420Y-104251918D01*
X88828427Y-104483880D01*
X88774001Y-104757499D01*
X88774001Y-105649000D01*
X88644750Y-105649000D01*
X88486000Y-105807750D01*
X88486000Y-106807000D01*
X88506000Y-106807000D01*
X88506000Y-107061000D01*
X88486000Y-107061000D01*
X88486000Y-108060250D01*
X88644750Y-108219000D01*
X88699337Y-108219000D01*
X87251419Y-109666919D01*
X87096426Y-109898881D01*
X87042000Y-110172500D01*
X87042000Y-118321838D01*
X87038141Y-118325697D01*
X86749981Y-118037033D01*
X86332832Y-117863818D01*
X85981674Y-117863512D01*
X84960581Y-116842419D01*
X84728619Y-116687426D01*
X84620903Y-116666000D01*
X84990616Y-116666000D01*
X85067673Y-116743192D01*
X85411201Y-116885838D01*
X85783167Y-116886162D01*
X86126943Y-116744117D01*
X86390192Y-116481327D01*
X86532838Y-116137799D01*
X86533162Y-115765833D01*
X86391117Y-115422057D01*
X86128327Y-115158808D01*
X85784799Y-115016162D01*
X85412833Y-115015838D01*
X85069057Y-115157883D01*
X84990804Y-115236000D01*
X77304446Y-115236000D01*
X77030827Y-115290426D01*
X76831834Y-115423390D01*
X76798865Y-115445419D01*
X74002419Y-118241865D01*
X73923777Y-118359560D01*
X73923000Y-118359560D01*
X73923000Y-116270214D01*
X77610213Y-112583002D01*
X83282478Y-112583002D01*
X83556097Y-112528576D01*
X83788059Y-112373583D01*
X84486220Y-111675422D01*
X85849698Y-111675422D01*
X86085015Y-111631144D01*
X86301139Y-111492072D01*
X86446129Y-111279872D01*
X86497138Y-111027982D01*
X86497138Y-108995982D01*
X86452860Y-108760665D01*
X86313788Y-108544541D01*
X86101588Y-108399551D01*
X85849698Y-108348542D01*
X85701098Y-108348542D01*
X85701098Y-108312982D01*
X85646672Y-108039363D01*
X85491679Y-107807401D01*
X84904028Y-107219750D01*
X86974000Y-107219750D01*
X86974000Y-107710310D01*
X87070673Y-107943699D01*
X87249302Y-108122327D01*
X87482691Y-108219000D01*
X88073250Y-108219000D01*
X88232000Y-108060250D01*
X88232000Y-107061000D01*
X87132750Y-107061000D01*
X86974000Y-107219750D01*
X84904028Y-107219750D01*
X83841968Y-106157690D01*
X86974000Y-106157690D01*
X86974000Y-106648250D01*
X87132750Y-106807000D01*
X88232000Y-106807000D01*
X88232000Y-105807750D01*
X88073250Y-105649000D01*
X87482691Y-105649000D01*
X87249302Y-105745673D01*
X87070673Y-105924301D01*
X86974000Y-106157690D01*
X83841968Y-106157690D01*
X81221679Y-103537401D01*
X81203538Y-103525279D01*
X81203538Y-103292982D01*
X81159260Y-103057665D01*
X81020188Y-102841541D01*
X80807988Y-102696551D01*
X80556098Y-102645542D01*
X79256098Y-102645542D01*
X79020781Y-102689820D01*
X78804657Y-102828892D01*
X78659667Y-103041092D01*
X78622196Y-103226131D01*
X78594260Y-103077665D01*
X78455188Y-102861541D01*
X78242988Y-102716551D01*
X77991098Y-102665542D01*
X76741098Y-102665542D01*
X76505781Y-102709820D01*
X76289657Y-102848892D01*
X76144667Y-103061092D01*
X76093658Y-103312982D01*
X76093658Y-104812982D01*
X76137936Y-105048299D01*
X76277008Y-105264423D01*
X76345104Y-105310951D01*
X76202771Y-105453284D01*
X76106098Y-105686673D01*
X76106098Y-106277232D01*
X76264848Y-106435982D01*
X77239098Y-106435982D01*
X77239098Y-106415982D01*
X77493098Y-106415982D01*
X77493098Y-106435982D01*
X77513098Y-106435982D01*
X77513098Y-106689982D01*
X77493098Y-106689982D01*
X77493098Y-106709982D01*
X77239098Y-106709982D01*
X77239098Y-106689982D01*
X76264848Y-106689982D01*
X76106098Y-106848732D01*
X76106098Y-107386401D01*
X74781663Y-107386401D01*
X73252180Y-105856919D01*
X73020218Y-105701926D01*
X72746599Y-105647500D01*
X68389500Y-105647500D01*
X68115882Y-105701925D01*
X67883919Y-105856918D01*
X66804419Y-106936419D01*
X66649426Y-107168381D01*
X66628000Y-107276097D01*
X66628000Y-104753662D01*
X70781163Y-100600500D01*
X78834026Y-100600500D01*
X79107645Y-100546074D01*
X79339607Y-100391081D01*
X82442338Y-97288350D01*
X96545400Y-97288350D01*
X96545400Y-98246510D01*
X96642073Y-98479899D01*
X96820702Y-98658527D01*
X97054091Y-98755200D01*
X98012250Y-98755200D01*
X98171000Y-98596450D01*
X98171000Y-97129600D01*
X98425000Y-97129600D01*
X98425000Y-98596450D01*
X98583750Y-98755200D01*
X99541909Y-98755200D01*
X99775298Y-98658527D01*
X99953927Y-98479899D01*
X100050600Y-98246510D01*
X100050600Y-97288350D01*
X99891850Y-97129600D01*
X98425000Y-97129600D01*
X98171000Y-97129600D01*
X96704150Y-97129600D01*
X96545400Y-97288350D01*
X82442338Y-97288350D01*
X83971998Y-95758690D01*
X96545400Y-95758690D01*
X96545400Y-96716850D01*
X96704150Y-96875600D01*
X98171000Y-96875600D01*
X98171000Y-95408750D01*
X98425000Y-95408750D01*
X98425000Y-96875600D01*
X99891850Y-96875600D01*
X100050600Y-96716850D01*
X100050600Y-95758690D01*
X99953927Y-95525301D01*
X99775298Y-95346673D01*
X99541909Y-95250000D01*
X98583750Y-95250000D01*
X98425000Y-95408750D01*
X98171000Y-95408750D01*
X98012250Y-95250000D01*
X97054091Y-95250000D01*
X96820702Y-95346673D01*
X96642073Y-95525301D01*
X96545400Y-95758690D01*
X83971998Y-95758690D01*
X89480689Y-90250000D01*
X91594616Y-90250000D01*
X91671673Y-90327192D01*
X92015201Y-90469838D01*
X92387167Y-90470162D01*
X92730943Y-90328117D01*
X92994192Y-90065327D01*
X93136838Y-89721799D01*
X93137162Y-89349833D01*
X92995117Y-89006057D01*
X92732327Y-88742808D01*
X92388799Y-88600162D01*
X92016833Y-88599838D01*
X91673057Y-88741883D01*
X91594804Y-88820000D01*
X89184526Y-88820000D01*
X88960080Y-88864645D01*
X88910907Y-88874426D01*
X88678944Y-89029419D01*
X78537864Y-99170500D01*
X70485000Y-99170500D01*
X70211381Y-99224926D01*
X69979418Y-99379919D01*
X65407419Y-103951919D01*
X65252426Y-104183881D01*
X65198000Y-104457500D01*
X65198000Y-115221869D01*
X65120808Y-115298926D01*
X64978162Y-115642454D01*
X64977838Y-116014420D01*
X65119883Y-116358196D01*
X65382673Y-116621445D01*
X65726201Y-116764091D01*
X66098167Y-116764415D01*
X66441943Y-116622370D01*
X66595000Y-116469580D01*
X66595000Y-119189500D01*
X66649426Y-119463119D01*
X66804419Y-119695081D01*
X68065757Y-120956420D01*
X68065757Y-122919757D01*
X68120183Y-123193376D01*
X68275176Y-123425338D01*
X69739143Y-124889305D01*
X69735560Y-124907000D01*
X69735560Y-124917000D01*
X67922040Y-124917000D01*
X67922040Y-124187200D01*
X67877762Y-123951883D01*
X67738690Y-123735759D01*
X67526490Y-123590769D01*
X67274600Y-123539760D01*
X66024600Y-123539760D01*
X65789283Y-123584038D01*
X65573159Y-123723110D01*
X65428169Y-123935310D01*
X65377160Y-124187200D01*
X65377160Y-125599200D01*
X65197840Y-125599200D01*
X63402200Y-123803560D01*
X63402200Y-119583200D01*
X63347774Y-119309581D01*
X63234955Y-119140736D01*
X63192782Y-119077619D01*
X62051886Y-117936724D01*
X62149990Y-117443522D01*
X62149990Y-117390152D01*
X66184433Y-121424596D01*
X66184338Y-121533667D01*
X66326383Y-121877443D01*
X66589173Y-122140692D01*
X66932701Y-122283338D01*
X67304667Y-122283662D01*
X67648443Y-122141617D01*
X67911692Y-121878827D01*
X68054338Y-121535299D01*
X68054662Y-121163333D01*
X67912617Y-120819557D01*
X67649827Y-120556308D01*
X67306299Y-120413662D01*
X67195729Y-120413566D01*
X62609991Y-115827829D01*
X62609991Y-104058991D01*
X62555565Y-103785372D01*
X62400572Y-103553410D01*
X62051886Y-103204724D01*
X62149990Y-102711522D01*
X62149990Y-102647478D01*
X62025572Y-102021986D01*
X61671259Y-101491719D01*
X61140992Y-101137406D01*
X60515500Y-101012988D01*
X59890008Y-101137406D01*
X59359741Y-101491719D01*
X59005428Y-102021986D01*
X58881010Y-102647478D01*
X54469500Y-102647478D01*
X54469500Y-97149667D01*
X77423838Y-97149667D01*
X77565883Y-97493443D01*
X77828673Y-97756692D01*
X78172201Y-97899338D01*
X78544167Y-97899662D01*
X78887943Y-97757617D01*
X79151192Y-97494827D01*
X79293838Y-97151299D01*
X79293848Y-97139810D01*
X84375079Y-92058579D01*
X84545245Y-91803907D01*
X84605000Y-91503500D01*
X84605000Y-88129745D01*
X104391361Y-88129745D01*
X104465495Y-88375864D01*
X105002723Y-88568965D01*
X105572954Y-88541778D01*
X105973505Y-88375864D01*
X106047639Y-88129745D01*
X105219500Y-87301605D01*
X104391361Y-88129745D01*
X84605000Y-88129745D01*
X84605000Y-87850006D01*
X84612192Y-87842827D01*
X84754838Y-87499299D01*
X84755162Y-87127333D01*
X84613117Y-86783557D01*
X84350327Y-86520308D01*
X84212660Y-86463143D01*
X86761583Y-86463143D01*
X86860182Y-86729945D01*
X87469722Y-86956381D01*
X88119517Y-86932321D01*
X88184937Y-86905223D01*
X103772535Y-86905223D01*
X103799722Y-87475454D01*
X103965636Y-87876005D01*
X104211755Y-87950139D01*
X105039895Y-87122000D01*
X105399105Y-87122000D01*
X106227245Y-87950139D01*
X106473364Y-87876005D01*
X106666465Y-87338777D01*
X106639278Y-86768546D01*
X106473364Y-86367995D01*
X106227245Y-86293861D01*
X105399105Y-87122000D01*
X105039895Y-87122000D01*
X104211755Y-86293861D01*
X103965636Y-86367995D01*
X103772535Y-86905223D01*
X88184937Y-86905223D01*
X88608098Y-86729945D01*
X88706697Y-86463143D01*
X87734140Y-85490585D01*
X86761583Y-86463143D01*
X84212660Y-86463143D01*
X84006799Y-86377662D01*
X83634833Y-86377338D01*
X83291057Y-86519383D01*
X83027808Y-86782173D01*
X82885162Y-87125701D01*
X82884838Y-87497667D01*
X83026883Y-87841443D01*
X83035000Y-87849574D01*
X83035000Y-91178342D01*
X78183995Y-96029347D01*
X78173833Y-96029338D01*
X77830057Y-96171383D01*
X77566808Y-96434173D01*
X77424162Y-96777701D01*
X77423838Y-97149667D01*
X54469500Y-97149667D01*
X54469500Y-86996944D01*
X60433525Y-86996944D01*
X60633115Y-87478818D01*
X61071121Y-87951188D01*
X61656554Y-88219983D01*
X61912500Y-88101367D01*
X61912500Y-86741000D01*
X62166500Y-86741000D01*
X62166500Y-88101367D01*
X62422446Y-88219983D01*
X63007879Y-87951188D01*
X63445885Y-87478818D01*
X63645475Y-86996944D01*
X63526336Y-86741000D01*
X62166500Y-86741000D01*
X61912500Y-86741000D01*
X60552664Y-86741000D01*
X60433525Y-86996944D01*
X54469500Y-86996944D01*
X54469500Y-79014398D01*
X57161190Y-79014398D01*
X57371686Y-79523837D01*
X57761113Y-79913944D01*
X58270184Y-80125329D01*
X58821398Y-80125810D01*
X58822285Y-80125443D01*
X61107402Y-82410560D01*
X61023500Y-82410560D01*
X60788183Y-82454838D01*
X60572059Y-82593910D01*
X60427069Y-82806110D01*
X60376060Y-83058000D01*
X60376060Y-85090000D01*
X60420338Y-85325317D01*
X60559410Y-85541441D01*
X60722448Y-85652840D01*
X60633115Y-85749182D01*
X60433525Y-86231056D01*
X60552664Y-86487000D01*
X61912500Y-86487000D01*
X61912500Y-86467000D01*
X62166500Y-86467000D01*
X62166500Y-86487000D01*
X63526336Y-86487000D01*
X63645475Y-86231056D01*
X63445885Y-85749182D01*
X63355403Y-85651602D01*
X63506941Y-85554090D01*
X63651931Y-85341890D01*
X63702940Y-85090000D01*
X63702940Y-83597750D01*
X65266500Y-83597750D01*
X65266500Y-84063310D01*
X65363173Y-84296699D01*
X65541802Y-84475327D01*
X65775191Y-84572000D01*
X66365750Y-84572000D01*
X66524500Y-84413250D01*
X66524500Y-83439000D01*
X65425250Y-83439000D01*
X65266500Y-83597750D01*
X63702940Y-83597750D01*
X63702940Y-83058000D01*
X63658662Y-82822683D01*
X63519590Y-82606559D01*
X63452459Y-82560690D01*
X65266500Y-82560690D01*
X65266500Y-83026250D01*
X65425250Y-83185000D01*
X66524500Y-83185000D01*
X66524500Y-82210750D01*
X66365750Y-82052000D01*
X65775191Y-82052000D01*
X65541802Y-82148673D01*
X65363173Y-82327301D01*
X65266500Y-82560690D01*
X63452459Y-82560690D01*
X63307390Y-82461569D01*
X63055500Y-82410560D01*
X62824500Y-82410560D01*
X62824500Y-82232500D01*
X62764745Y-81932094D01*
X62594579Y-81677421D01*
X61847908Y-80930750D01*
X65295500Y-80930750D01*
X65295500Y-81071310D01*
X65392173Y-81304699D01*
X65570802Y-81483327D01*
X65804191Y-81580000D01*
X66419750Y-81580000D01*
X66578500Y-81421250D01*
X66578500Y-80772000D01*
X66832500Y-80772000D01*
X66832500Y-81421250D01*
X66991250Y-81580000D01*
X67606809Y-81580000D01*
X67840198Y-81483327D01*
X68018827Y-81304699D01*
X68115500Y-81071310D01*
X68115500Y-80930750D01*
X67956750Y-80772000D01*
X66832500Y-80772000D01*
X66578500Y-80772000D01*
X65454250Y-80772000D01*
X65295500Y-80930750D01*
X61847908Y-80930750D01*
X60577908Y-79660750D01*
X65295500Y-79660750D01*
X65295500Y-79801310D01*
X65381942Y-80010000D01*
X65295500Y-80218690D01*
X65295500Y-80359250D01*
X65454250Y-80518000D01*
X66578500Y-80518000D01*
X66578500Y-79502000D01*
X66832500Y-79502000D01*
X66832500Y-80518000D01*
X67956750Y-80518000D01*
X68115500Y-80359250D01*
X68115500Y-80218690D01*
X68029058Y-80010000D01*
X68115500Y-79801310D01*
X68115500Y-79660750D01*
X67956750Y-79502000D01*
X66832500Y-79502000D01*
X66578500Y-79502000D01*
X65454250Y-79502000D01*
X65295500Y-79660750D01*
X60577908Y-79660750D01*
X59932330Y-79015172D01*
X59932810Y-78465602D01*
X59932443Y-78464715D01*
X62269630Y-76127528D01*
X62269630Y-77656690D01*
X62313908Y-77892007D01*
X62452980Y-78108131D01*
X62665180Y-78253121D01*
X62917070Y-78304130D01*
X63123681Y-78304130D01*
X63262421Y-78511769D01*
X63410731Y-78660079D01*
X63665403Y-78830245D01*
X63965810Y-78890000D01*
X65319810Y-78890000D01*
X65295500Y-78948690D01*
X65295500Y-79089250D01*
X65454250Y-79248000D01*
X66578500Y-79248000D01*
X66578500Y-79228000D01*
X66832500Y-79228000D01*
X66832500Y-79248000D01*
X67956750Y-79248000D01*
X68115500Y-79089250D01*
X68115500Y-78948690D01*
X68025694Y-78731878D01*
X68076931Y-78656890D01*
X68127940Y-78405000D01*
X68127940Y-77805000D01*
X68083662Y-77569683D01*
X68019822Y-77470472D01*
X68076931Y-77386890D01*
X68127940Y-77135000D01*
X68127940Y-76982598D01*
X70683060Y-79537717D01*
X70683060Y-79675000D01*
X70727338Y-79910317D01*
X70791178Y-80009528D01*
X70734069Y-80093110D01*
X70683060Y-80345000D01*
X70683060Y-80945000D01*
X70727338Y-81180317D01*
X70866410Y-81396441D01*
X71078610Y-81541431D01*
X71330500Y-81592440D01*
X71834770Y-81592440D01*
X71050210Y-82377000D01*
X70456605Y-82377000D01*
X70365590Y-82235559D01*
X70153390Y-82090569D01*
X69901500Y-82039560D01*
X68401500Y-82039560D01*
X68166183Y-82083838D01*
X67950059Y-82222910D01*
X67903531Y-82291006D01*
X67761198Y-82148673D01*
X67527809Y-82052000D01*
X66937250Y-82052000D01*
X66778500Y-82210750D01*
X66778500Y-83185000D01*
X66798500Y-83185000D01*
X66798500Y-83439000D01*
X66778500Y-83439000D01*
X66778500Y-84413250D01*
X66937250Y-84572000D01*
X67527809Y-84572000D01*
X67761198Y-84475327D01*
X67902436Y-84334090D01*
X67937410Y-84388441D01*
X68149610Y-84533431D01*
X68401500Y-84584440D01*
X69226650Y-84584440D01*
X72659333Y-88017123D01*
X72533794Y-88319453D01*
X72533415Y-88752807D01*
X72514365Y-88760678D01*
X72054174Y-89220067D01*
X71804814Y-89820593D01*
X71804246Y-90470834D01*
X72052558Y-91071795D01*
X72511947Y-91531986D01*
X73112473Y-91781346D01*
X73762714Y-91781914D01*
X74363675Y-91533602D01*
X74823866Y-91074213D01*
X75073226Y-90473687D01*
X75073605Y-90040333D01*
X75092655Y-90032462D01*
X75327362Y-89798163D01*
X75735443Y-89798163D01*
X75834042Y-90064965D01*
X76443582Y-90291401D01*
X77093377Y-90267341D01*
X77581958Y-90064965D01*
X77680557Y-89798163D01*
X76708000Y-88825605D01*
X75735443Y-89798163D01*
X75327362Y-89798163D01*
X75520401Y-89605461D01*
X75555837Y-89618557D01*
X76528395Y-88646000D01*
X75555837Y-87673443D01*
X75519901Y-87686724D01*
X75327351Y-87493837D01*
X75735443Y-87493837D01*
X75846607Y-87605001D01*
X76018015Y-88018818D01*
X76284817Y-88117417D01*
X76321920Y-88080314D01*
X76501526Y-88259920D01*
X76464423Y-88297023D01*
X76563022Y-88563825D01*
X76948707Y-88707102D01*
X77860163Y-89618557D01*
X78126965Y-89519958D01*
X78353401Y-88910418D01*
X78337869Y-88490951D01*
X78409537Y-88297023D01*
X78298373Y-88185859D01*
X78126965Y-87772042D01*
X77860163Y-87673443D01*
X77823060Y-87710546D01*
X77643454Y-87530940D01*
X77680557Y-87493837D01*
X77581958Y-87227035D01*
X77360753Y-87144860D01*
X77616585Y-87144860D01*
X78589143Y-88117417D01*
X78855945Y-88018818D01*
X79082381Y-87409278D01*
X79058321Y-86759483D01*
X78855945Y-86270902D01*
X78589143Y-86172303D01*
X77616585Y-87144860D01*
X77360753Y-87144860D01*
X77196273Y-87083758D01*
X76284817Y-86172303D01*
X76018015Y-86270902D01*
X75791579Y-86880442D01*
X75807111Y-87299909D01*
X75735443Y-87493837D01*
X75327351Y-87493837D01*
X75095073Y-87261154D01*
X74494547Y-87011794D01*
X74298413Y-87011623D01*
X73279487Y-85992697D01*
X76464423Y-85992697D01*
X77436980Y-86965255D01*
X78409537Y-85992697D01*
X78313994Y-85734163D01*
X85260443Y-85734163D01*
X85359042Y-86000965D01*
X85968582Y-86227401D01*
X86388049Y-86211869D01*
X86581977Y-86283537D01*
X86693141Y-86172373D01*
X87106958Y-86000965D01*
X87205557Y-85734163D01*
X87168454Y-85697060D01*
X87348060Y-85517454D01*
X87385163Y-85554557D01*
X87651965Y-85455958D01*
X87705822Y-85310980D01*
X87913745Y-85310980D01*
X88886303Y-86283537D01*
X89153105Y-86184938D01*
X89179362Y-86114255D01*
X104391361Y-86114255D01*
X105219500Y-86942395D01*
X106047639Y-86114255D01*
X105973505Y-85868136D01*
X105436277Y-85675035D01*
X104866046Y-85702222D01*
X104465495Y-85868136D01*
X104391361Y-86114255D01*
X89179362Y-86114255D01*
X89379541Y-85575398D01*
X89355481Y-84925603D01*
X89153105Y-84437022D01*
X88886303Y-84338423D01*
X87913745Y-85310980D01*
X87705822Y-85310980D01*
X87795242Y-85070273D01*
X88706697Y-84158817D01*
X88608098Y-83892015D01*
X87998558Y-83665579D01*
X87579091Y-83681111D01*
X87385163Y-83609443D01*
X87273999Y-83720607D01*
X86860182Y-83892015D01*
X86761583Y-84158817D01*
X86798686Y-84195920D01*
X86619080Y-84375526D01*
X86581977Y-84338423D01*
X86315175Y-84437022D01*
X86171898Y-84822707D01*
X85260443Y-85734163D01*
X78313994Y-85734163D01*
X78310938Y-85725895D01*
X77701398Y-85499459D01*
X77051603Y-85523519D01*
X76563022Y-85725895D01*
X76464423Y-85992697D01*
X73279487Y-85992697D01*
X71604372Y-84317582D01*
X84587599Y-84317582D01*
X84611659Y-84967377D01*
X84814035Y-85455958D01*
X85080837Y-85554557D01*
X86053395Y-84582000D01*
X85080837Y-83609443D01*
X84814035Y-83708042D01*
X84587599Y-84317582D01*
X71604372Y-84317582D01*
X71517814Y-84231024D01*
X71795309Y-84175827D01*
X72098645Y-83973145D01*
X74575145Y-81496645D01*
X74777827Y-81193309D01*
X74849000Y-80835500D01*
X74849000Y-78538505D01*
X74849001Y-78538500D01*
X74777827Y-78180692D01*
X74777827Y-78180691D01*
X74575145Y-77877355D01*
X74141645Y-77443855D01*
X73838309Y-77241173D01*
X73519290Y-77177716D01*
X73527940Y-77135000D01*
X73527940Y-76535000D01*
X73483662Y-76299683D01*
X73344590Y-76083559D01*
X73204392Y-75987766D01*
X73454005Y-75738153D01*
X73464167Y-75738162D01*
X73807943Y-75596117D01*
X74061752Y-75342750D01*
X75311000Y-75342750D01*
X75311000Y-76199310D01*
X75407673Y-76432699D01*
X75586302Y-76611327D01*
X75819691Y-76708000D01*
X76168250Y-76708000D01*
X76327000Y-76549250D01*
X76327000Y-75184000D01*
X75469750Y-75184000D01*
X75311000Y-75342750D01*
X74061752Y-75342750D01*
X74071192Y-75333327D01*
X74213838Y-74989799D01*
X74214162Y-74617833D01*
X74072117Y-74274057D01*
X73809327Y-74010808D01*
X73465799Y-73868162D01*
X73093833Y-73867838D01*
X72750057Y-74009883D01*
X72486808Y-74272673D01*
X72344162Y-74616201D01*
X72344152Y-74627690D01*
X71550421Y-75421421D01*
X71380255Y-75676093D01*
X71380255Y-75676094D01*
X71338191Y-75887560D01*
X71330500Y-75887560D01*
X71095183Y-75931838D01*
X70879059Y-76070910D01*
X70734069Y-76283110D01*
X70683060Y-76535000D01*
X70683060Y-77135000D01*
X70725336Y-77359679D01*
X69278501Y-75912843D01*
X69278501Y-74195440D01*
X70743500Y-74195440D01*
X70978817Y-74151162D01*
X71194941Y-74012090D01*
X71339931Y-73799890D01*
X71363602Y-73683000D01*
X75406969Y-73683000D01*
X75311000Y-73914690D01*
X75311000Y-74771250D01*
X75469750Y-74930000D01*
X76327000Y-74930000D01*
X76327000Y-74910000D01*
X76581000Y-74910000D01*
X76581000Y-74930000D01*
X76601000Y-74930000D01*
X76601000Y-75184000D01*
X76581000Y-75184000D01*
X76581000Y-76549250D01*
X76739750Y-76708000D01*
X77088309Y-76708000D01*
X77321698Y-76611327D01*
X77500327Y-76432699D01*
X77597000Y-76199310D01*
X77597000Y-76139113D01*
X77628838Y-76308317D01*
X77767910Y-76524441D01*
X77955000Y-76652274D01*
X77955000Y-79121000D01*
X78014755Y-79421407D01*
X78082000Y-79522046D01*
X78082000Y-80173000D01*
X78141755Y-80473407D01*
X78311921Y-80728079D01*
X79451941Y-81868099D01*
X79706614Y-82038265D01*
X80007020Y-82098020D01*
X83287694Y-82098020D01*
X83345398Y-82237675D01*
X83804787Y-82697866D01*
X84405313Y-82947226D01*
X84838667Y-82947605D01*
X84846538Y-82966655D01*
X85273539Y-83394401D01*
X85260443Y-83429837D01*
X86233000Y-84402395D01*
X87205557Y-83429837D01*
X87192276Y-83393901D01*
X87609905Y-82977000D01*
X92265500Y-82977000D01*
X92623309Y-82905827D01*
X92926645Y-82703145D01*
X95339354Y-80290436D01*
X95470692Y-80159327D01*
X95613338Y-79815799D01*
X95613662Y-79443833D01*
X95471617Y-79100057D01*
X95208827Y-78836808D01*
X94865299Y-78694162D01*
X94493333Y-78693838D01*
X94149557Y-78835883D01*
X93886308Y-79098673D01*
X93886145Y-79099065D01*
X91878210Y-81107000D01*
X87609135Y-81107000D01*
X87160073Y-80657154D01*
X86559547Y-80407794D01*
X86126193Y-80407415D01*
X86118322Y-80388365D01*
X85658933Y-79928174D01*
X85058407Y-79678814D01*
X84408166Y-79678246D01*
X83807205Y-79926558D01*
X83347014Y-80385947D01*
X83288020Y-80528020D01*
X80332178Y-80528020D01*
X79652000Y-79847842D01*
X79652000Y-79248000D01*
X79592245Y-78947594D01*
X79592245Y-78947593D01*
X79525000Y-78846954D01*
X79525000Y-76649340D01*
X79699441Y-76537090D01*
X79844431Y-76324890D01*
X79882543Y-76136686D01*
X79914838Y-76308317D01*
X80053910Y-76524441D01*
X80266110Y-76669431D01*
X80518000Y-76720440D01*
X81534000Y-76720440D01*
X81769317Y-76676162D01*
X81985441Y-76537090D01*
X82130431Y-76324890D01*
X82181440Y-76073000D01*
X82181440Y-75814264D01*
X82342407Y-75782245D01*
X82597079Y-75612079D01*
X85068828Y-73140330D01*
X85618398Y-73140810D01*
X86127837Y-72930314D01*
X86266995Y-72791398D01*
X108913690Y-72791398D01*
X109124186Y-73300837D01*
X109513613Y-73690944D01*
X110022684Y-73902329D01*
X110573898Y-73902810D01*
X111083337Y-73692314D01*
X111473444Y-73302887D01*
X111684829Y-72793816D01*
X111685310Y-72242602D01*
X111474814Y-71733163D01*
X111085387Y-71343056D01*
X110576316Y-71131671D01*
X110025102Y-71131190D01*
X109515663Y-71341686D01*
X109125556Y-71731113D01*
X108914171Y-72240184D01*
X108913690Y-72791398D01*
X86266995Y-72791398D01*
X86517944Y-72540887D01*
X86729329Y-72031816D01*
X86729810Y-71480602D01*
X86519314Y-70971163D01*
X86129887Y-70581056D01*
X85620816Y-70369671D01*
X85069602Y-70369190D01*
X84560163Y-70579686D01*
X84170056Y-70969113D01*
X83958671Y-71478184D01*
X83958190Y-72029398D01*
X83958557Y-72030285D01*
X82144446Y-73844396D01*
X82137162Y-73805683D01*
X81998090Y-73589559D01*
X81785890Y-73444569D01*
X81534000Y-73393560D01*
X80518000Y-73393560D01*
X80282683Y-73437838D01*
X80066559Y-73576910D01*
X79921569Y-73789110D01*
X79883457Y-73977314D01*
X79851162Y-73805683D01*
X79712090Y-73589559D01*
X79499890Y-73444569D01*
X79481403Y-73440825D01*
X79465245Y-73359594D01*
X79295079Y-73104921D01*
X78533079Y-72342921D01*
X78278407Y-72172755D01*
X77978000Y-72113000D01*
X71365538Y-72113000D01*
X71346662Y-72012683D01*
X71207590Y-71796559D01*
X70995390Y-71651569D01*
X70778500Y-71607648D01*
X70778500Y-69206158D01*
X70908328Y-69076330D01*
X71457898Y-69076810D01*
X71967337Y-68866314D01*
X72357444Y-68476887D01*
X72568829Y-67967816D01*
X72569292Y-67437000D01*
X76263760Y-67437000D01*
X76263760Y-69469000D01*
X76308038Y-69704317D01*
X76447110Y-69920441D01*
X76659310Y-70065431D01*
X76911200Y-70116440D01*
X80568800Y-70116440D01*
X80804117Y-70072162D01*
X81020241Y-69933090D01*
X81165231Y-69720890D01*
X81216240Y-69469000D01*
X81216240Y-67437000D01*
X81171962Y-67201683D01*
X81032890Y-66985559D01*
X80820690Y-66840569D01*
X80568800Y-66789560D01*
X76911200Y-66789560D01*
X76675883Y-66833838D01*
X76459759Y-66972910D01*
X76314769Y-67185110D01*
X76263760Y-67437000D01*
X72569292Y-67437000D01*
X72569310Y-67416602D01*
X72358814Y-66907163D01*
X71969387Y-66517056D01*
X71460316Y-66305671D01*
X70909102Y-66305190D01*
X70399663Y-66515686D01*
X70009556Y-66905113D01*
X69798171Y-67414184D01*
X69797690Y-67965398D01*
X69798057Y-67966285D01*
X69438421Y-68325921D01*
X69268255Y-68580593D01*
X69268255Y-68580594D01*
X69250463Y-68670041D01*
X69218746Y-68510595D01*
X69048580Y-68255922D01*
X65899707Y-65107049D01*
X65970463Y-64751330D01*
X77515875Y-64751330D01*
X77583935Y-64992331D01*
X78103234Y-65177167D01*
X78653738Y-65149205D01*
X79032465Y-64992331D01*
X79100525Y-64751330D01*
X78308200Y-63959005D01*
X77515875Y-64751330D01*
X65970463Y-64751330D01*
X65992012Y-64643000D01*
X65867594Y-64017508D01*
X65571542Y-63574434D01*
X76910433Y-63574434D01*
X76938395Y-64124938D01*
X77095269Y-64503665D01*
X77336270Y-64571725D01*
X78128595Y-63779400D01*
X78487805Y-63779400D01*
X79280130Y-64571725D01*
X79521131Y-64503665D01*
X79705967Y-63984366D01*
X79678005Y-63433862D01*
X79621090Y-63296456D01*
X112602180Y-63296456D01*
X112812676Y-63805895D01*
X113202103Y-64196002D01*
X113711174Y-64407387D01*
X114262388Y-64407868D01*
X114771827Y-64197372D01*
X115161934Y-63807945D01*
X115373319Y-63298874D01*
X115373800Y-62747660D01*
X115163304Y-62238221D01*
X114773877Y-61848114D01*
X114264806Y-61636729D01*
X113713592Y-61636248D01*
X113204153Y-61846744D01*
X112814046Y-62236171D01*
X112602661Y-62745242D01*
X112602180Y-63296456D01*
X79621090Y-63296456D01*
X79521131Y-63055135D01*
X79280130Y-62987075D01*
X78487805Y-63779400D01*
X78128595Y-63779400D01*
X77336270Y-62987075D01*
X77095269Y-63055135D01*
X76910433Y-63574434D01*
X65571542Y-63574434D01*
X65513281Y-63487241D01*
X64983014Y-63132928D01*
X64357522Y-63008510D01*
X64293478Y-63008510D01*
X63667986Y-63132928D01*
X63348423Y-63346453D01*
X63249080Y-63192069D01*
X63036880Y-63047079D01*
X62784990Y-62996070D01*
X60786010Y-62996070D01*
X60550693Y-63040348D01*
X60334569Y-63179420D01*
X60189579Y-63391620D01*
X60138570Y-63643510D01*
X60138570Y-65642490D01*
X60182848Y-65877807D01*
X60321920Y-66093931D01*
X60534120Y-66238921D01*
X60786010Y-66289930D01*
X61000500Y-66289930D01*
X61000500Y-75176342D01*
X58822172Y-77354670D01*
X58272602Y-77354190D01*
X57763163Y-77564686D01*
X57373056Y-77954113D01*
X57161671Y-78463184D01*
X57161190Y-79014398D01*
X54469500Y-79014398D01*
X54469500Y-62807470D01*
X77515875Y-62807470D01*
X78308200Y-63599795D01*
X79100525Y-62807470D01*
X79032465Y-62566469D01*
X78513166Y-62381633D01*
X77962662Y-62409595D01*
X77583935Y-62566469D01*
X77515875Y-62807470D01*
X54469500Y-62807470D01*
X54469500Y-53147808D01*
X106748990Y-53147808D01*
X106748990Y-54004367D01*
X106845663Y-54237756D01*
X107024291Y-54416385D01*
X107257680Y-54513058D01*
X108114240Y-54513058D01*
X108272990Y-54354308D01*
X108272990Y-52989058D01*
X106907740Y-52989058D01*
X106748990Y-53147808D01*
X54469500Y-53147808D01*
X54469500Y-51719749D01*
X106748990Y-51719749D01*
X106748990Y-52576308D01*
X106907740Y-52735058D01*
X108272990Y-52735058D01*
X108272990Y-51369808D01*
X108526990Y-51369808D01*
X108526990Y-52735058D01*
X108546990Y-52735058D01*
X108546990Y-52989058D01*
X108526990Y-52989058D01*
X108526990Y-54354308D01*
X108685740Y-54513058D01*
X109542300Y-54513058D01*
X109775689Y-54416385D01*
X109954317Y-54237756D01*
X109971989Y-54195092D01*
X110308180Y-54419728D01*
X110939990Y-54545403D01*
X111241142Y-54485500D01*
X116349500Y-59593858D01*
X116349500Y-92583000D01*
X116420673Y-92940809D01*
X116623355Y-93244145D01*
X118571281Y-95192071D01*
X118570827Y-95712000D01*
X117462040Y-95712000D01*
X117462040Y-95529400D01*
X117417762Y-95294083D01*
X117278690Y-95077959D01*
X117066490Y-94932969D01*
X116814600Y-94881960D01*
X114579400Y-94881960D01*
X114344083Y-94926238D01*
X114127959Y-95065310D01*
X113982969Y-95277510D01*
X113931960Y-95529400D01*
X113931960Y-97764600D01*
X113976238Y-97999917D01*
X114115310Y-98216041D01*
X114327510Y-98361031D01*
X114579400Y-98412040D01*
X116814600Y-98412040D01*
X117049917Y-98367762D01*
X117266041Y-98228690D01*
X117411031Y-98016490D01*
X117462040Y-97764600D01*
X117462040Y-97582000D01*
X119062500Y-97582000D01*
X119420309Y-97510827D01*
X119723645Y-97308145D01*
X119893571Y-97138219D01*
X120529194Y-97138774D01*
X121130155Y-96890462D01*
X121590346Y-96431073D01*
X121839706Y-95830547D01*
X121840274Y-95180306D01*
X121591962Y-94579345D01*
X121132573Y-94119154D01*
X120532047Y-93869794D01*
X119893026Y-93869236D01*
X118219500Y-92195710D01*
X118219500Y-86322000D01*
X126124060Y-86322000D01*
X126124060Y-87922000D01*
X126168338Y-88157317D01*
X126307410Y-88373441D01*
X126519610Y-88518431D01*
X126771500Y-88569440D01*
X128371500Y-88569440D01*
X128606817Y-88525162D01*
X128822941Y-88386090D01*
X128967931Y-88173890D01*
X128991602Y-88057000D01*
X132672365Y-88057000D01*
X133113500Y-88498905D01*
X133113500Y-91558586D01*
X132874556Y-91797113D01*
X132663171Y-92306184D01*
X132662874Y-92646336D01*
X131220135Y-94089075D01*
X130692047Y-93869794D01*
X130041806Y-93869226D01*
X129440845Y-94117538D01*
X128980654Y-94576927D01*
X128731294Y-95177453D01*
X128730726Y-95827694D01*
X128979038Y-96428655D01*
X129438427Y-96888846D01*
X130038953Y-97138206D01*
X130689194Y-97138774D01*
X131290155Y-96890462D01*
X131750346Y-96431073D01*
X131911983Y-96041807D01*
X133985275Y-93968515D01*
X134322898Y-93968810D01*
X134832337Y-93758314D01*
X135222444Y-93368887D01*
X135433829Y-92859816D01*
X135434310Y-92308602D01*
X135223814Y-91799163D01*
X134983500Y-91558429D01*
X134983500Y-88498135D01*
X135433346Y-88049073D01*
X135682706Y-87448547D01*
X135683274Y-86798306D01*
X135434962Y-86197345D01*
X134975573Y-85737154D01*
X134375047Y-85487794D01*
X133724806Y-85487226D01*
X133123845Y-85735538D01*
X132671595Y-86187000D01*
X128993538Y-86187000D01*
X128974662Y-86086683D01*
X128835590Y-85870559D01*
X128623390Y-85725569D01*
X128371500Y-85674560D01*
X126771500Y-85674560D01*
X126536183Y-85718838D01*
X126320059Y-85857910D01*
X126175069Y-86070110D01*
X126124060Y-86322000D01*
X118219500Y-86322000D01*
X118219500Y-69243381D01*
X120483724Y-69243381D01*
X120520918Y-69458532D01*
X120949380Y-69601491D01*
X121229243Y-69581683D01*
X121228924Y-69947850D01*
X121401411Y-70365301D01*
X121720519Y-70684967D01*
X122137668Y-70858182D01*
X122589350Y-70858576D01*
X123006801Y-70686089D01*
X123326467Y-70366981D01*
X123499682Y-69949832D01*
X123499952Y-69640742D01*
X123989355Y-70130145D01*
X124292691Y-70332827D01*
X124650500Y-70404000D01*
X135166935Y-70404000D01*
X135415130Y-70652629D01*
X135623012Y-70738949D01*
X135417197Y-70823990D01*
X135023871Y-71216630D01*
X134810743Y-71729900D01*
X134810258Y-72285661D01*
X135022490Y-72799303D01*
X135415130Y-73192629D01*
X135928400Y-73405757D01*
X136282276Y-73406066D01*
X140679695Y-77803485D01*
X140983031Y-78006167D01*
X141340840Y-78077340D01*
X143467365Y-78077340D01*
X143916427Y-78527186D01*
X144516953Y-78776546D01*
X145167194Y-78777114D01*
X145768155Y-78528802D01*
X146228346Y-78069413D01*
X146477706Y-77468887D01*
X146478274Y-76818646D01*
X146229962Y-76217685D01*
X145770573Y-75757494D01*
X145170047Y-75508134D01*
X144519806Y-75507566D01*
X143918845Y-75755878D01*
X143466595Y-76207340D01*
X141728130Y-76207340D01*
X137604435Y-72083645D01*
X137604742Y-71732339D01*
X137392510Y-71218697D01*
X136999870Y-70825371D01*
X136791988Y-70739051D01*
X136997803Y-70654010D01*
X137391129Y-70261370D01*
X137604257Y-69748100D01*
X137604742Y-69192339D01*
X137392510Y-68678697D01*
X136999870Y-68285371D01*
X136791988Y-68199051D01*
X136997803Y-68114010D01*
X137391129Y-67721370D01*
X137604257Y-67208100D01*
X137604742Y-66652339D01*
X137392510Y-66138697D01*
X137142500Y-65888250D01*
X137142500Y-64270414D01*
X137381444Y-64031887D01*
X137592829Y-63522816D01*
X137593310Y-62971602D01*
X137382814Y-62462163D01*
X136993387Y-62072056D01*
X136634500Y-61923033D01*
X136634500Y-58246715D01*
X137385992Y-57744584D01*
X137903008Y-56970815D01*
X138084560Y-56058092D01*
X138084560Y-54179012D01*
X138324499Y-54226739D01*
X143692881Y-54226739D01*
X144050690Y-54155566D01*
X144354026Y-53952884D01*
X144411664Y-53895246D01*
X144486760Y-53926429D01*
X145197123Y-53927049D01*
X145853651Y-53655777D01*
X145988437Y-53521227D01*
X146569485Y-54102275D01*
X146569190Y-54439898D01*
X146779686Y-54949337D01*
X147020000Y-55190071D01*
X147020000Y-81388720D01*
X143547355Y-84861365D01*
X143344673Y-85164701D01*
X143282936Y-85475070D01*
X143209010Y-85475070D01*
X142973693Y-85519348D01*
X142757569Y-85658420D01*
X142612579Y-85870620D01*
X142561570Y-86122510D01*
X142561570Y-88121490D01*
X142605848Y-88356807D01*
X142744920Y-88572931D01*
X142957120Y-88717921D01*
X143209010Y-88768930D01*
X145207990Y-88768930D01*
X145443307Y-88724652D01*
X145659431Y-88585580D01*
X145804421Y-88373380D01*
X145855430Y-88121490D01*
X145855430Y-86122510D01*
X145811152Y-85887193D01*
X145672080Y-85671069D01*
X145499886Y-85553414D01*
X148616145Y-82437155D01*
X148818827Y-82133819D01*
X148890000Y-81776010D01*
X148890000Y-55189914D01*
X149128944Y-54951387D01*
X149340329Y-54442316D01*
X149340810Y-53891102D01*
X149130314Y-53381663D01*
X148740887Y-52991556D01*
X148231816Y-52780171D01*
X147891664Y-52779874D01*
X146591765Y-51479975D01*
X146468268Y-51397457D01*
X146358157Y-51130969D01*
X145856293Y-50628228D01*
X145200240Y-50355811D01*
X144489877Y-50355191D01*
X143833349Y-50626463D01*
X143330608Y-51128327D01*
X143058191Y-51784380D01*
X143057691Y-52356739D01*
X138711789Y-52356739D01*
X137334075Y-50979025D01*
X137030739Y-50776343D01*
X136672930Y-50705170D01*
X132461570Y-50705170D01*
X132103761Y-50776343D01*
X131800425Y-50979025D01*
X131045100Y-51734350D01*
X131024223Y-51720400D01*
X130111500Y-51538848D01*
X129198777Y-51720400D01*
X128425008Y-52237416D01*
X127907992Y-53011185D01*
X127726440Y-53923908D01*
X127726440Y-56058092D01*
X127907992Y-56970815D01*
X128425008Y-57744584D01*
X129198777Y-58261600D01*
X130111500Y-58443152D01*
X131024223Y-58261600D01*
X131797992Y-57744584D01*
X132315008Y-56970815D01*
X132496560Y-56058092D01*
X132496560Y-53923908D01*
X132331240Y-53092790D01*
X132848860Y-52575170D01*
X133787328Y-52575170D01*
X133495992Y-53011185D01*
X133314440Y-53923908D01*
X133314440Y-56058092D01*
X133495992Y-56970815D01*
X134013008Y-57744584D01*
X134764500Y-58246715D01*
X134764500Y-62738000D01*
X134822120Y-63027674D01*
X134821690Y-63520398D01*
X135032186Y-64029837D01*
X135272500Y-64270571D01*
X135272500Y-65888435D01*
X135023871Y-66136630D01*
X134810743Y-66649900D01*
X134810258Y-67205661D01*
X135022490Y-67719303D01*
X135415130Y-68112629D01*
X135623012Y-68198949D01*
X135417197Y-68283990D01*
X135166750Y-68534000D01*
X125037790Y-68534000D01*
X124770043Y-68266253D01*
X124770076Y-68228150D01*
X124597589Y-67810699D01*
X124278481Y-67491033D01*
X123861332Y-67317818D01*
X123409650Y-67317424D01*
X122992199Y-67489911D01*
X122672533Y-67809019D01*
X122499318Y-68226168D01*
X122499003Y-68587737D01*
X122242240Y-68587513D01*
X122211102Y-68147565D01*
X122100032Y-67879418D01*
X121884881Y-67842224D01*
X121274105Y-68453000D01*
X121288248Y-68467143D01*
X121108643Y-68646748D01*
X121094500Y-68632605D01*
X120483724Y-69243381D01*
X118219500Y-69243381D01*
X118219500Y-68307880D01*
X119946009Y-68307880D01*
X119977898Y-68758435D01*
X120088968Y-69026582D01*
X120304119Y-69063776D01*
X120914895Y-68453000D01*
X120304119Y-67842224D01*
X120088968Y-67879418D01*
X119946009Y-68307880D01*
X118219500Y-68307880D01*
X118219500Y-67662619D01*
X120483724Y-67662619D01*
X121094500Y-68273395D01*
X121705276Y-67662619D01*
X121668082Y-67447468D01*
X121239620Y-67304509D01*
X120789065Y-67336398D01*
X120520918Y-67447468D01*
X120483724Y-67662619D01*
X118219500Y-67662619D01*
X118219500Y-59206573D01*
X118219501Y-59206568D01*
X118148327Y-58848760D01*
X118148327Y-58848759D01*
X117945645Y-58545423D01*
X114518222Y-55118000D01*
X122138440Y-55118000D01*
X122138440Y-56118760D01*
X122368593Y-57021816D01*
X122926811Y-57768055D01*
X123728110Y-58243869D01*
X124025487Y-58324246D01*
X124396500Y-58214445D01*
X124396500Y-55118000D01*
X124650500Y-55118000D01*
X124650500Y-58214445D01*
X125021513Y-58324246D01*
X125318890Y-58243869D01*
X126120189Y-57768055D01*
X126678407Y-57021816D01*
X126908560Y-56118760D01*
X126908560Y-55118000D01*
X124650500Y-55118000D01*
X124396500Y-55118000D01*
X122138440Y-55118000D01*
X114518222Y-55118000D01*
X113263462Y-53863240D01*
X122138440Y-53863240D01*
X122138440Y-54864000D01*
X124396500Y-54864000D01*
X124396500Y-51767555D01*
X124650500Y-51767555D01*
X124650500Y-54864000D01*
X126908560Y-54864000D01*
X126908560Y-53863240D01*
X126678407Y-52960184D01*
X126120189Y-52213945D01*
X125318890Y-51738131D01*
X125021513Y-51657754D01*
X124650500Y-51767555D01*
X124396500Y-51767555D01*
X124025487Y-51657754D01*
X123728110Y-51738131D01*
X122926811Y-52213945D01*
X122368593Y-52960184D01*
X122138440Y-53863240D01*
X113263462Y-53863240D01*
X112541820Y-53141598D01*
X112590990Y-52894403D01*
X112590990Y-52829713D01*
X112465315Y-52197903D01*
X112107423Y-51662280D01*
X111571800Y-51304388D01*
X110939990Y-51178713D01*
X110308180Y-51304388D01*
X109971989Y-51529024D01*
X109954317Y-51486360D01*
X109775689Y-51307731D01*
X109542300Y-51211058D01*
X108685740Y-51211058D01*
X108526990Y-51369808D01*
X108272990Y-51369808D01*
X108114240Y-51211058D01*
X107257680Y-51211058D01*
X107024291Y-51307731D01*
X106845663Y-51486360D01*
X106748990Y-51719749D01*
X54469500Y-51719749D01*
X54469500Y-43547500D01*
X152159500Y-43547500D01*
X152159500Y-136157500D01*
X152159500Y-136157500D01*
G37*
X152159500Y-136157500D02*
X54469500Y-136157500D01*
X54469500Y-132683250D01*
X64066420Y-132683250D01*
X64066420Y-133539810D01*
X64163093Y-133773199D01*
X64341722Y-133951827D01*
X64575111Y-134048500D01*
X65279270Y-134048500D01*
X65438020Y-133889750D01*
X65438020Y-132524500D01*
X64225170Y-132524500D01*
X64066420Y-132683250D01*
X54469500Y-132683250D01*
X54469500Y-131255190D01*
X64066420Y-131255190D01*
X64066420Y-132111750D01*
X64225170Y-132270500D01*
X65438020Y-132270500D01*
X65438020Y-130905250D01*
X65279270Y-130746500D01*
X64575111Y-130746500D01*
X64341722Y-130843173D01*
X64163093Y-131021801D01*
X64066420Y-131255190D01*
X54469500Y-131255190D01*
X54469500Y-127722950D01*
X65389600Y-127722950D01*
X65389600Y-128313509D01*
X65486273Y-128546898D01*
X65664901Y-128725527D01*
X65898290Y-128822200D01*
X66363850Y-128822200D01*
X66522600Y-128663450D01*
X66522600Y-127564200D01*
X65548350Y-127564200D01*
X65389600Y-127722950D01*
X54469500Y-127722950D01*
X54469500Y-120237250D01*
X58881010Y-120237250D01*
X58881010Y-121077299D01*
X58977683Y-121310688D01*
X59156311Y-121489317D01*
X59389700Y-121585990D01*
X60229750Y-121585990D01*
X60388500Y-121427240D01*
X60388500Y-120078500D01*
X59039760Y-120078500D01*
X58881010Y-120237250D01*
X54469500Y-120237250D01*
X54469500Y-105505250D01*
X58881010Y-105505250D01*
X58881010Y-106345299D01*
X58977683Y-106578688D01*
X59156311Y-106757317D01*
X59389700Y-106853990D01*
X60229750Y-106853990D01*
X60388500Y-106695240D01*
X60388500Y-105346500D01*
X59039760Y-105346500D01*
X58881010Y-105505250D01*
X54469500Y-105505250D01*
X54469500Y-102647478D01*
X58881010Y-102647478D01*
X58881010Y-102711522D01*
X59005428Y-103337014D01*
X59218513Y-103655918D01*
X59156311Y-103681683D01*
X58977683Y-103860312D01*
X58881010Y-104093701D01*
X58881010Y-104933750D01*
X59039760Y-105092500D01*
X60388500Y-105092500D01*
X60388500Y-105072500D01*
X60642500Y-105072500D01*
X60642500Y-105092500D01*
X60662500Y-105092500D01*
X60662500Y-105346500D01*
X60642500Y-105346500D01*
X60642500Y-106695240D01*
X60801250Y-106853990D01*
X61179991Y-106853990D01*
X61179991Y-115895464D01*
X61140992Y-115869406D01*
X60515500Y-115744988D01*
X59890008Y-115869406D01*
X59359741Y-116223719D01*
X59005428Y-116753986D01*
X58881010Y-117379478D01*
X58881010Y-117443522D01*
X59005428Y-118069014D01*
X59218513Y-118387918D01*
X59156311Y-118413683D01*
X58977683Y-118592312D01*
X58881010Y-118825701D01*
X58881010Y-119665750D01*
X59039760Y-119824500D01*
X60388500Y-119824500D01*
X60388500Y-119804500D01*
X60642500Y-119804500D01*
X60642500Y-119824500D01*
X60662500Y-119824500D01*
X60662500Y-120078500D01*
X60642500Y-120078500D01*
X60642500Y-121427240D01*
X60801250Y-121585990D01*
X61641300Y-121585990D01*
X61874689Y-121489317D01*
X61972200Y-121391805D01*
X61972200Y-124099722D01*
X62026626Y-124373341D01*
X62181619Y-124605303D01*
X64396097Y-126819781D01*
X64628059Y-126974774D01*
X64901678Y-127029200D01*
X65389600Y-127029200D01*
X65389600Y-127151450D01*
X65548350Y-127310200D01*
X66522600Y-127310200D01*
X66522600Y-127290200D01*
X66776600Y-127290200D01*
X66776600Y-127310200D01*
X66796600Y-127310200D01*
X66796600Y-127564200D01*
X66776600Y-127564200D01*
X66776600Y-128663450D01*
X66935350Y-128822200D01*
X67400910Y-128822200D01*
X67604789Y-128737751D01*
X68734819Y-129867781D01*
X68966781Y-130022774D01*
X69240400Y-130077200D01*
X72440800Y-130077200D01*
X72714419Y-130022774D01*
X72946381Y-129867781D01*
X73143000Y-129671162D01*
X73143000Y-130722513D01*
X72611531Y-130828229D01*
X72125350Y-131153085D01*
X71918559Y-131462569D01*
X71547056Y-131046768D01*
X71019811Y-130792791D01*
X71004046Y-130790142D01*
X70772020Y-130911283D01*
X70772020Y-132270500D01*
X70792020Y-132270500D01*
X70792020Y-132524500D01*
X70772020Y-132524500D01*
X70772020Y-132544500D01*
X70518020Y-132544500D01*
X70518020Y-132524500D01*
X70498020Y-132524500D01*
X70498020Y-132270500D01*
X70518020Y-132270500D01*
X70518020Y-130911283D01*
X70285994Y-130790142D01*
X70270229Y-130792791D01*
X69742984Y-131046768D01*
X69371481Y-131462569D01*
X69164690Y-131153085D01*
X68678509Y-130828229D01*
X68105020Y-130714155D01*
X67531531Y-130828229D01*
X67045350Y-131153085D01*
X67030520Y-131175280D01*
X66966947Y-131021801D01*
X66788318Y-130843173D01*
X66554929Y-130746500D01*
X65850770Y-130746500D01*
X65692020Y-130905250D01*
X65692020Y-132270500D01*
X65712020Y-132270500D01*
X65712020Y-132524500D01*
X65692020Y-132524500D01*
X65692020Y-133889750D01*
X65850770Y-134048500D01*
X66554929Y-134048500D01*
X66788318Y-133951827D01*
X66966947Y-133773199D01*
X67030520Y-133619720D01*
X67045350Y-133641915D01*
X67393396Y-133874472D01*
X67444446Y-134131119D01*
X67599439Y-134363081D01*
X68279459Y-135043102D01*
X68511422Y-135198095D01*
X68785040Y-135252520D01*
X99385000Y-135252520D01*
X99658619Y-135198094D01*
X99890581Y-135043101D01*
X100897995Y-134035687D01*
X101125020Y-134080845D01*
X101698509Y-133966771D01*
X102184690Y-133641915D01*
X102395020Y-133327134D01*
X102605350Y-133641915D01*
X103091531Y-133966771D01*
X103665020Y-134080845D01*
X104238509Y-133966771D01*
X104724690Y-133641915D01*
X105049546Y-133155734D01*
X105163620Y-132582245D01*
X105163620Y-132212755D01*
X105049546Y-131639266D01*
X104724690Y-131153085D01*
X104238509Y-130828229D01*
X103999723Y-130780732D01*
X104160943Y-130714117D01*
X104424192Y-130451327D01*
X104566838Y-130107799D01*
X104567162Y-129735833D01*
X104425117Y-129392057D01*
X104162327Y-129128808D01*
X103818799Y-128986162D01*
X103446833Y-128985838D01*
X103103057Y-129127883D01*
X103094926Y-129136000D01*
X92052156Y-129136000D01*
X91300373Y-128384217D01*
X91499000Y-128424440D01*
X92635277Y-128424440D01*
X92873419Y-128662582D01*
X92967623Y-128725527D01*
X93105382Y-128817575D01*
X93379001Y-128872001D01*
X124224190Y-128872001D01*
X124497809Y-128817575D01*
X124729771Y-128662582D01*
X130266841Y-123125513D01*
X130421834Y-122893550D01*
X130476260Y-122619931D01*
X130476260Y-112058750D01*
X130421834Y-111785131D01*
X130266841Y-111553169D01*
X130046831Y-111333159D01*
X129955123Y-111271881D01*
X129905371Y-111021761D01*
X129442589Y-110329159D01*
X128749987Y-109866377D01*
X127933008Y-109703870D01*
X126828992Y-109703870D01*
X126012013Y-109866377D01*
X125319411Y-110329159D01*
X124856629Y-111021761D01*
X124694122Y-111838740D01*
X124856629Y-112655719D01*
X125319411Y-113348321D01*
X126012013Y-113811103D01*
X126828992Y-113973610D01*
X127933008Y-113973610D01*
X128749987Y-113811103D01*
X129046260Y-113613140D01*
X129046260Y-115065600D01*
X128749987Y-114867637D01*
X127933008Y-114705130D01*
X126828992Y-114705130D01*
X126012013Y-114867637D01*
X125319411Y-115330419D01*
X124856629Y-116023021D01*
X124836344Y-116125000D01*
X116199940Y-116125000D01*
X116199940Y-115841500D01*
X116155662Y-115606183D01*
X116091822Y-115506972D01*
X116148931Y-115423390D01*
X116199940Y-115171500D01*
X116199940Y-114571500D01*
X116155662Y-114336183D01*
X116091822Y-114236972D01*
X116148931Y-114153390D01*
X116199940Y-113901500D01*
X116199940Y-113301500D01*
X116155662Y-113066183D01*
X116091822Y-112966972D01*
X116148931Y-112883390D01*
X116199940Y-112631500D01*
X116199940Y-112031500D01*
X116155662Y-111796183D01*
X116016590Y-111580059D01*
X115804390Y-111435069D01*
X115593000Y-111392261D01*
X115593000Y-109948006D01*
X115600192Y-109940827D01*
X115742838Y-109597299D01*
X115743162Y-109225333D01*
X115601117Y-108881557D01*
X115338327Y-108618308D01*
X114994799Y-108475662D01*
X114622833Y-108475338D01*
X114279057Y-108617383D01*
X114015808Y-108880173D01*
X113873162Y-109223701D01*
X113872838Y-109595667D01*
X114014883Y-109939443D01*
X114023000Y-109947574D01*
X114023000Y-111384060D01*
X114002500Y-111384060D01*
X113767183Y-111428338D01*
X113551059Y-111567410D01*
X113406069Y-111779610D01*
X113406045Y-111779730D01*
X113336919Y-111825919D01*
X113181926Y-112057881D01*
X113127500Y-112331500D01*
X113181926Y-112605119D01*
X113336919Y-112837081D01*
X113412852Y-112887818D01*
X113463178Y-112966028D01*
X113406069Y-113049610D01*
X113355060Y-113301500D01*
X113355060Y-113901500D01*
X113399338Y-114136817D01*
X113452865Y-114220000D01*
X113002384Y-114220000D01*
X112925327Y-114142808D01*
X112581799Y-114000162D01*
X112209833Y-113999838D01*
X111866057Y-114141883D01*
X111602808Y-114404673D01*
X111460162Y-114748201D01*
X111459838Y-115120167D01*
X111601883Y-115463943D01*
X111864673Y-115727192D01*
X112208201Y-115869838D01*
X112580167Y-115870162D01*
X112923943Y-115728117D01*
X113002196Y-115650000D01*
X113393840Y-115650000D01*
X113355060Y-115841500D01*
X113355060Y-116441500D01*
X113399338Y-116676817D01*
X113538410Y-116892941D01*
X113750610Y-117037931D01*
X113992500Y-117086915D01*
X113992500Y-118234560D01*
X112895000Y-118234560D01*
X112659683Y-118278838D01*
X112443559Y-118417910D01*
X112397031Y-118486006D01*
X112254698Y-118343673D01*
X112021309Y-118247000D01*
X111430750Y-118247000D01*
X111272000Y-118405750D01*
X111272000Y-119380000D01*
X111292000Y-119380000D01*
X111292000Y-119634000D01*
X111272000Y-119634000D01*
X111272000Y-120608250D01*
X111430750Y-120767000D01*
X112021309Y-120767000D01*
X112254698Y-120670327D01*
X112395936Y-120529090D01*
X112430910Y-120583441D01*
X112643110Y-120728431D01*
X112895000Y-120779440D01*
X114395000Y-120779440D01*
X114630317Y-120735162D01*
X114846441Y-120596090D01*
X114991431Y-120383890D01*
X115026323Y-120211588D01*
X115250079Y-120062079D01*
X115332579Y-119979579D01*
X115502745Y-119724906D01*
X115562501Y-119424500D01*
X115562500Y-119424495D01*
X115562500Y-117555000D01*
X124836344Y-117555000D01*
X124856629Y-117656979D01*
X125319411Y-118349581D01*
X126012013Y-118812363D01*
X126828992Y-118974870D01*
X127933008Y-118974870D01*
X128749987Y-118812363D01*
X129046260Y-118614400D01*
X129046260Y-120092219D01*
X128815692Y-119917498D01*
X128008380Y-119706390D01*
X127508000Y-119706390D01*
X127508000Y-121714260D01*
X127528000Y-121714260D01*
X127528000Y-121968260D01*
X127508000Y-121968260D01*
X127508000Y-123862028D01*
X123928028Y-127442001D01*
X96346440Y-127442001D01*
X96346440Y-126477000D01*
X96302162Y-126241683D01*
X96163090Y-126025559D01*
X95950890Y-125880569D01*
X95699000Y-125829560D01*
X95664000Y-125829560D01*
X95664000Y-125449070D01*
X95845630Y-125449070D01*
X96080947Y-125404792D01*
X96297071Y-125265720D01*
X96442061Y-125053520D01*
X96493070Y-124801630D01*
X96493070Y-123102370D01*
X96448792Y-122867053D01*
X96309720Y-122650929D01*
X96097520Y-122505939D01*
X95845630Y-122454930D01*
X95781000Y-122454930D01*
X95781000Y-122300072D01*
X124795635Y-122300072D01*
X124859656Y-122540907D01*
X125281236Y-123261039D01*
X125946308Y-123765022D01*
X126753620Y-123976130D01*
X127254000Y-123976130D01*
X127254000Y-121968260D01*
X124908585Y-121968260D01*
X124795635Y-122300072D01*
X95781000Y-122300072D01*
X95781000Y-121167532D01*
X98087073Y-121167532D01*
X98185736Y-121434387D01*
X98795461Y-121660908D01*
X99445460Y-121636856D01*
X99934264Y-121434387D01*
X99953467Y-121382448D01*
X124795635Y-121382448D01*
X124908585Y-121714260D01*
X127254000Y-121714260D01*
X127254000Y-119706390D01*
X126753620Y-119706390D01*
X125946308Y-119917498D01*
X125281236Y-120421481D01*
X124859656Y-121141613D01*
X124795635Y-121382448D01*
X99953467Y-121382448D01*
X100032927Y-121167532D01*
X99060000Y-120194605D01*
X98087073Y-121167532D01*
X95781000Y-121167532D01*
X95781000Y-119750461D01*
X97414092Y-119750461D01*
X97438144Y-120400460D01*
X97640613Y-120889264D01*
X97907468Y-120987927D01*
X98880395Y-120015000D01*
X99239605Y-120015000D01*
X100212532Y-120987927D01*
X100479387Y-120889264D01*
X100705908Y-120279539D01*
X100687896Y-119792750D01*
X109760000Y-119792750D01*
X109760000Y-120258310D01*
X109856673Y-120491699D01*
X110035302Y-120670327D01*
X110268691Y-120767000D01*
X110859250Y-120767000D01*
X111018000Y-120608250D01*
X111018000Y-119634000D01*
X109918750Y-119634000D01*
X109760000Y-119792750D01*
X100687896Y-119792750D01*
X100681856Y-119629540D01*
X100479387Y-119140736D01*
X100212532Y-119042073D01*
X99239605Y-120015000D01*
X98880395Y-120015000D01*
X97907468Y-119042073D01*
X97640613Y-119140736D01*
X97414092Y-119750461D01*
X95781000Y-119750461D01*
X95781000Y-118862468D01*
X98087073Y-118862468D01*
X99060000Y-119835395D01*
X100032927Y-118862468D01*
X99993449Y-118755690D01*
X109760000Y-118755690D01*
X109760000Y-119221250D01*
X109918750Y-119380000D01*
X111018000Y-119380000D01*
X111018000Y-118405750D01*
X110859250Y-118247000D01*
X110268691Y-118247000D01*
X110035302Y-118343673D01*
X109856673Y-118522301D01*
X109760000Y-118755690D01*
X99993449Y-118755690D01*
X99934264Y-118595613D01*
X99324539Y-118369092D01*
X98674540Y-118393144D01*
X98185736Y-118595613D01*
X98087073Y-118862468D01*
X95781000Y-118862468D01*
X95781000Y-116427250D01*
X107967500Y-116427250D01*
X107967500Y-116567810D01*
X108064173Y-116801199D01*
X108242802Y-116979827D01*
X108476191Y-117076500D01*
X109091750Y-117076500D01*
X109250500Y-116917750D01*
X109250500Y-116268500D01*
X109504500Y-116268500D01*
X109504500Y-116917750D01*
X109663250Y-117076500D01*
X110278809Y-117076500D01*
X110512198Y-116979827D01*
X110690827Y-116801199D01*
X110787500Y-116567810D01*
X110787500Y-116427250D01*
X110628750Y-116268500D01*
X109504500Y-116268500D01*
X109250500Y-116268500D01*
X108126250Y-116268500D01*
X107967500Y-116427250D01*
X95781000Y-116427250D01*
X95781000Y-114658476D01*
X97505310Y-112934166D01*
X97673106Y-113340263D01*
X98132637Y-113800598D01*
X98733352Y-114050036D01*
X99383795Y-114050604D01*
X99984943Y-113802214D01*
X100445278Y-113342683D01*
X100694716Y-112741968D01*
X100695284Y-112091525D01*
X100636418Y-111949060D01*
X101622049Y-110963429D01*
X104844287Y-110963429D01*
X104786671Y-111102184D01*
X104786190Y-111653398D01*
X104996686Y-112162837D01*
X105386113Y-112552944D01*
X105895184Y-112764329D01*
X106137569Y-112764541D01*
X106137569Y-113780569D01*
X106197324Y-114080976D01*
X106367490Y-114335648D01*
X107458421Y-115426579D01*
X107713094Y-115596745D01*
X107993461Y-115652514D01*
X107967500Y-115715190D01*
X107967500Y-115855750D01*
X108126250Y-116014500D01*
X109250500Y-116014500D01*
X109250500Y-115994500D01*
X109504500Y-115994500D01*
X109504500Y-116014500D01*
X110628750Y-116014500D01*
X110787500Y-115855750D01*
X110787500Y-115715190D01*
X110697694Y-115498378D01*
X110748931Y-115423390D01*
X110799940Y-115171500D01*
X110799940Y-114571500D01*
X110755662Y-114336183D01*
X110749965Y-114327330D01*
X110752907Y-114326745D01*
X111007579Y-114156579D01*
X111157580Y-114006578D01*
X111162083Y-113999838D01*
X111327746Y-113751905D01*
X111387501Y-113451499D01*
X111387501Y-111671499D01*
X111327746Y-111371093D01*
X111157580Y-111116420D01*
X109064501Y-109023341D01*
X108809829Y-108853175D01*
X108509422Y-108793420D01*
X99750898Y-108793420D01*
X99450491Y-108853175D01*
X99195819Y-109023341D01*
X94440921Y-113778239D01*
X94270755Y-114032911D01*
X94230259Y-114236499D01*
X94211000Y-114333318D01*
X94211000Y-122454930D01*
X94146370Y-122454930D01*
X93911053Y-122499208D01*
X93694929Y-122638280D01*
X93549939Y-122850480D01*
X93498930Y-123102370D01*
X93498930Y-124801630D01*
X93543208Y-125036947D01*
X93682280Y-125253071D01*
X93894480Y-125398061D01*
X94146370Y-125449070D01*
X94234000Y-125449070D01*
X94234000Y-125829560D01*
X94199000Y-125829560D01*
X93963683Y-125873838D01*
X93747559Y-126012910D01*
X93602569Y-126225110D01*
X93599919Y-126238197D01*
X93463090Y-126025559D01*
X93250890Y-125880569D01*
X92999000Y-125829560D01*
X91499000Y-125829560D01*
X91263683Y-125873838D01*
X91047559Y-126012910D01*
X90902569Y-126225110D01*
X90864723Y-126412000D01*
X90650384Y-126412000D01*
X90573327Y-126334808D01*
X90229799Y-126192162D01*
X90077999Y-126192030D01*
X90077999Y-123757159D01*
X91297505Y-122537653D01*
X91307667Y-122537662D01*
X91651443Y-122395617D01*
X91914692Y-122132827D01*
X92057338Y-121789299D01*
X92057662Y-121417333D01*
X91915617Y-121073557D01*
X91652827Y-120810308D01*
X91309299Y-120667662D01*
X90951667Y-120667350D01*
X91564581Y-120054436D01*
X91719574Y-119822474D01*
X91738981Y-119724906D01*
X91774000Y-119548855D01*
X91774000Y-114499130D01*
X91959430Y-114499130D01*
X92194747Y-114454852D01*
X92410871Y-114315780D01*
X92555861Y-114103580D01*
X92606870Y-113851690D01*
X92606870Y-112254030D01*
X92562592Y-112018713D01*
X92423520Y-111802589D01*
X92211320Y-111657599D01*
X92094634Y-111633970D01*
X92194747Y-111615132D01*
X92410871Y-111476060D01*
X92555861Y-111263860D01*
X92606870Y-111011970D01*
X92606870Y-109414310D01*
X92562592Y-109178993D01*
X92423520Y-108962869D01*
X92211320Y-108817879D01*
X91959430Y-108766870D01*
X91774000Y-108766870D01*
X91774000Y-108231440D01*
X91809000Y-108231440D01*
X92044317Y-108187162D01*
X92260441Y-108048090D01*
X92405431Y-107835890D01*
X92456440Y-107584000D01*
X92456440Y-106284000D01*
X92412162Y-106048683D01*
X92273090Y-105832559D01*
X92060890Y-105687569D01*
X91809000Y-105636560D01*
X90309000Y-105636560D01*
X90204001Y-105656317D01*
X90204001Y-105053661D01*
X90529663Y-104728000D01*
X99351322Y-104728000D01*
X99624941Y-104673574D01*
X99856903Y-104518581D01*
X109979582Y-94395903D01*
X110134575Y-94163940D01*
X110189000Y-93890322D01*
X110189000Y-86931500D01*
X110134574Y-86657881D01*
X110042032Y-86519383D01*
X109979582Y-86425919D01*
X102956766Y-79403104D01*
X102985329Y-79334316D01*
X102985810Y-78783102D01*
X102775314Y-78273663D01*
X102385887Y-77883556D01*
X101876816Y-77672171D01*
X101325602Y-77671690D01*
X100816163Y-77882186D01*
X100426056Y-78271613D01*
X100214671Y-78780684D01*
X100214190Y-79331898D01*
X100424686Y-79841337D01*
X100814113Y-80231444D01*
X101323184Y-80442829D01*
X101874398Y-80443310D01*
X101945337Y-80413999D01*
X108759000Y-87227663D01*
X108759000Y-93594159D01*
X99055160Y-103298000D01*
X90233500Y-103298000D01*
X89959882Y-103352425D01*
X89727919Y-103507418D01*
X88983420Y-104251918D01*
X88828427Y-104483880D01*
X88774001Y-104757499D01*
X88774001Y-105649000D01*
X88644750Y-105649000D01*
X88486000Y-105807750D01*
X88486000Y-106807000D01*
X88506000Y-106807000D01*
X88506000Y-107061000D01*
X88486000Y-107061000D01*
X88486000Y-108060250D01*
X88644750Y-108219000D01*
X88699337Y-108219000D01*
X87251419Y-109666919D01*
X87096426Y-109898881D01*
X87042000Y-110172500D01*
X87042000Y-118321838D01*
X87038141Y-118325697D01*
X86749981Y-118037033D01*
X86332832Y-117863818D01*
X85981674Y-117863512D01*
X84960581Y-116842419D01*
X84728619Y-116687426D01*
X84620903Y-116666000D01*
X84990616Y-116666000D01*
X85067673Y-116743192D01*
X85411201Y-116885838D01*
X85783167Y-116886162D01*
X86126943Y-116744117D01*
X86390192Y-116481327D01*
X86532838Y-116137799D01*
X86533162Y-115765833D01*
X86391117Y-115422057D01*
X86128327Y-115158808D01*
X85784799Y-115016162D01*
X85412833Y-115015838D01*
X85069057Y-115157883D01*
X84990804Y-115236000D01*
X77304446Y-115236000D01*
X77030827Y-115290426D01*
X76831834Y-115423390D01*
X76798865Y-115445419D01*
X74002419Y-118241865D01*
X73923777Y-118359560D01*
X73923000Y-118359560D01*
X73923000Y-116270214D01*
X77610213Y-112583002D01*
X83282478Y-112583002D01*
X83556097Y-112528576D01*
X83788059Y-112373583D01*
X84486220Y-111675422D01*
X85849698Y-111675422D01*
X86085015Y-111631144D01*
X86301139Y-111492072D01*
X86446129Y-111279872D01*
X86497138Y-111027982D01*
X86497138Y-108995982D01*
X86452860Y-108760665D01*
X86313788Y-108544541D01*
X86101588Y-108399551D01*
X85849698Y-108348542D01*
X85701098Y-108348542D01*
X85701098Y-108312982D01*
X85646672Y-108039363D01*
X85491679Y-107807401D01*
X84904028Y-107219750D01*
X86974000Y-107219750D01*
X86974000Y-107710310D01*
X87070673Y-107943699D01*
X87249302Y-108122327D01*
X87482691Y-108219000D01*
X88073250Y-108219000D01*
X88232000Y-108060250D01*
X88232000Y-107061000D01*
X87132750Y-107061000D01*
X86974000Y-107219750D01*
X84904028Y-107219750D01*
X83841968Y-106157690D01*
X86974000Y-106157690D01*
X86974000Y-106648250D01*
X87132750Y-106807000D01*
X88232000Y-106807000D01*
X88232000Y-105807750D01*
X88073250Y-105649000D01*
X87482691Y-105649000D01*
X87249302Y-105745673D01*
X87070673Y-105924301D01*
X86974000Y-106157690D01*
X83841968Y-106157690D01*
X81221679Y-103537401D01*
X81203538Y-103525279D01*
X81203538Y-103292982D01*
X81159260Y-103057665D01*
X81020188Y-102841541D01*
X80807988Y-102696551D01*
X80556098Y-102645542D01*
X79256098Y-102645542D01*
X79020781Y-102689820D01*
X78804657Y-102828892D01*
X78659667Y-103041092D01*
X78622196Y-103226131D01*
X78594260Y-103077665D01*
X78455188Y-102861541D01*
X78242988Y-102716551D01*
X77991098Y-102665542D01*
X76741098Y-102665542D01*
X76505781Y-102709820D01*
X76289657Y-102848892D01*
X76144667Y-103061092D01*
X76093658Y-103312982D01*
X76093658Y-104812982D01*
X76137936Y-105048299D01*
X76277008Y-105264423D01*
X76345104Y-105310951D01*
X76202771Y-105453284D01*
X76106098Y-105686673D01*
X76106098Y-106277232D01*
X76264848Y-106435982D01*
X77239098Y-106435982D01*
X77239098Y-106415982D01*
X77493098Y-106415982D01*
X77493098Y-106435982D01*
X77513098Y-106435982D01*
X77513098Y-106689982D01*
X77493098Y-106689982D01*
X77493098Y-106709982D01*
X77239098Y-106709982D01*
X77239098Y-106689982D01*
X76264848Y-106689982D01*
X76106098Y-106848732D01*
X76106098Y-107386401D01*
X74781663Y-107386401D01*
X73252180Y-105856919D01*
X73020218Y-105701926D01*
X72746599Y-105647500D01*
X68389500Y-105647500D01*
X68115882Y-105701925D01*
X67883919Y-105856918D01*
X66804419Y-106936419D01*
X66649426Y-107168381D01*
X66628000Y-107276097D01*
X66628000Y-104753662D01*
X70781163Y-100600500D01*
X78834026Y-100600500D01*
X79107645Y-100546074D01*
X79339607Y-100391081D01*
X82442338Y-97288350D01*
X96545400Y-97288350D01*
X96545400Y-98246510D01*
X96642073Y-98479899D01*
X96820702Y-98658527D01*
X97054091Y-98755200D01*
X98012250Y-98755200D01*
X98171000Y-98596450D01*
X98171000Y-97129600D01*
X98425000Y-97129600D01*
X98425000Y-98596450D01*
X98583750Y-98755200D01*
X99541909Y-98755200D01*
X99775298Y-98658527D01*
X99953927Y-98479899D01*
X100050600Y-98246510D01*
X100050600Y-97288350D01*
X99891850Y-97129600D01*
X98425000Y-97129600D01*
X98171000Y-97129600D01*
X96704150Y-97129600D01*
X96545400Y-97288350D01*
X82442338Y-97288350D01*
X83971998Y-95758690D01*
X96545400Y-95758690D01*
X96545400Y-96716850D01*
X96704150Y-96875600D01*
X98171000Y-96875600D01*
X98171000Y-95408750D01*
X98425000Y-95408750D01*
X98425000Y-96875600D01*
X99891850Y-96875600D01*
X100050600Y-96716850D01*
X100050600Y-95758690D01*
X99953927Y-95525301D01*
X99775298Y-95346673D01*
X99541909Y-95250000D01*
X98583750Y-95250000D01*
X98425000Y-95408750D01*
X98171000Y-95408750D01*
X98012250Y-95250000D01*
X97054091Y-95250000D01*
X96820702Y-95346673D01*
X96642073Y-95525301D01*
X96545400Y-95758690D01*
X83971998Y-95758690D01*
X89480689Y-90250000D01*
X91594616Y-90250000D01*
X91671673Y-90327192D01*
X92015201Y-90469838D01*
X92387167Y-90470162D01*
X92730943Y-90328117D01*
X92994192Y-90065327D01*
X93136838Y-89721799D01*
X93137162Y-89349833D01*
X92995117Y-89006057D01*
X92732327Y-88742808D01*
X92388799Y-88600162D01*
X92016833Y-88599838D01*
X91673057Y-88741883D01*
X91594804Y-88820000D01*
X89184526Y-88820000D01*
X88960080Y-88864645D01*
X88910907Y-88874426D01*
X88678944Y-89029419D01*
X78537864Y-99170500D01*
X70485000Y-99170500D01*
X70211381Y-99224926D01*
X69979418Y-99379919D01*
X65407419Y-103951919D01*
X65252426Y-104183881D01*
X65198000Y-104457500D01*
X65198000Y-115221869D01*
X65120808Y-115298926D01*
X64978162Y-115642454D01*
X64977838Y-116014420D01*
X65119883Y-116358196D01*
X65382673Y-116621445D01*
X65726201Y-116764091D01*
X66098167Y-116764415D01*
X66441943Y-116622370D01*
X66595000Y-116469580D01*
X66595000Y-119189500D01*
X66649426Y-119463119D01*
X66804419Y-119695081D01*
X68065757Y-120956420D01*
X68065757Y-122919757D01*
X68120183Y-123193376D01*
X68275176Y-123425338D01*
X69739143Y-124889305D01*
X69735560Y-124907000D01*
X69735560Y-124917000D01*
X67922040Y-124917000D01*
X67922040Y-124187200D01*
X67877762Y-123951883D01*
X67738690Y-123735759D01*
X67526490Y-123590769D01*
X67274600Y-123539760D01*
X66024600Y-123539760D01*
X65789283Y-123584038D01*
X65573159Y-123723110D01*
X65428169Y-123935310D01*
X65377160Y-124187200D01*
X65377160Y-125599200D01*
X65197840Y-125599200D01*
X63402200Y-123803560D01*
X63402200Y-119583200D01*
X63347774Y-119309581D01*
X63234955Y-119140736D01*
X63192782Y-119077619D01*
X62051886Y-117936724D01*
X62149990Y-117443522D01*
X62149990Y-117390152D01*
X66184433Y-121424596D01*
X66184338Y-121533667D01*
X66326383Y-121877443D01*
X66589173Y-122140692D01*
X66932701Y-122283338D01*
X67304667Y-122283662D01*
X67648443Y-122141617D01*
X67911692Y-121878827D01*
X68054338Y-121535299D01*
X68054662Y-121163333D01*
X67912617Y-120819557D01*
X67649827Y-120556308D01*
X67306299Y-120413662D01*
X67195729Y-120413566D01*
X62609991Y-115827829D01*
X62609991Y-104058991D01*
X62555565Y-103785372D01*
X62400572Y-103553410D01*
X62051886Y-103204724D01*
X62149990Y-102711522D01*
X62149990Y-102647478D01*
X62025572Y-102021986D01*
X61671259Y-101491719D01*
X61140992Y-101137406D01*
X60515500Y-101012988D01*
X59890008Y-101137406D01*
X59359741Y-101491719D01*
X59005428Y-102021986D01*
X58881010Y-102647478D01*
X54469500Y-102647478D01*
X54469500Y-97149667D01*
X77423838Y-97149667D01*
X77565883Y-97493443D01*
X77828673Y-97756692D01*
X78172201Y-97899338D01*
X78544167Y-97899662D01*
X78887943Y-97757617D01*
X79151192Y-97494827D01*
X79293838Y-97151299D01*
X79293848Y-97139810D01*
X84375079Y-92058579D01*
X84545245Y-91803907D01*
X84605000Y-91503500D01*
X84605000Y-88129745D01*
X104391361Y-88129745D01*
X104465495Y-88375864D01*
X105002723Y-88568965D01*
X105572954Y-88541778D01*
X105973505Y-88375864D01*
X106047639Y-88129745D01*
X105219500Y-87301605D01*
X104391361Y-88129745D01*
X84605000Y-88129745D01*
X84605000Y-87850006D01*
X84612192Y-87842827D01*
X84754838Y-87499299D01*
X84755162Y-87127333D01*
X84613117Y-86783557D01*
X84350327Y-86520308D01*
X84212660Y-86463143D01*
X86761583Y-86463143D01*
X86860182Y-86729945D01*
X87469722Y-86956381D01*
X88119517Y-86932321D01*
X88184937Y-86905223D01*
X103772535Y-86905223D01*
X103799722Y-87475454D01*
X103965636Y-87876005D01*
X104211755Y-87950139D01*
X105039895Y-87122000D01*
X105399105Y-87122000D01*
X106227245Y-87950139D01*
X106473364Y-87876005D01*
X106666465Y-87338777D01*
X106639278Y-86768546D01*
X106473364Y-86367995D01*
X106227245Y-86293861D01*
X105399105Y-87122000D01*
X105039895Y-87122000D01*
X104211755Y-86293861D01*
X103965636Y-86367995D01*
X103772535Y-86905223D01*
X88184937Y-86905223D01*
X88608098Y-86729945D01*
X88706697Y-86463143D01*
X87734140Y-85490585D01*
X86761583Y-86463143D01*
X84212660Y-86463143D01*
X84006799Y-86377662D01*
X83634833Y-86377338D01*
X83291057Y-86519383D01*
X83027808Y-86782173D01*
X82885162Y-87125701D01*
X82884838Y-87497667D01*
X83026883Y-87841443D01*
X83035000Y-87849574D01*
X83035000Y-91178342D01*
X78183995Y-96029347D01*
X78173833Y-96029338D01*
X77830057Y-96171383D01*
X77566808Y-96434173D01*
X77424162Y-96777701D01*
X77423838Y-97149667D01*
X54469500Y-97149667D01*
X54469500Y-86996944D01*
X60433525Y-86996944D01*
X60633115Y-87478818D01*
X61071121Y-87951188D01*
X61656554Y-88219983D01*
X61912500Y-88101367D01*
X61912500Y-86741000D01*
X62166500Y-86741000D01*
X62166500Y-88101367D01*
X62422446Y-88219983D01*
X63007879Y-87951188D01*
X63445885Y-87478818D01*
X63645475Y-86996944D01*
X63526336Y-86741000D01*
X62166500Y-86741000D01*
X61912500Y-86741000D01*
X60552664Y-86741000D01*
X60433525Y-86996944D01*
X54469500Y-86996944D01*
X54469500Y-79014398D01*
X57161190Y-79014398D01*
X57371686Y-79523837D01*
X57761113Y-79913944D01*
X58270184Y-80125329D01*
X58821398Y-80125810D01*
X58822285Y-80125443D01*
X61107402Y-82410560D01*
X61023500Y-82410560D01*
X60788183Y-82454838D01*
X60572059Y-82593910D01*
X60427069Y-82806110D01*
X60376060Y-83058000D01*
X60376060Y-85090000D01*
X60420338Y-85325317D01*
X60559410Y-85541441D01*
X60722448Y-85652840D01*
X60633115Y-85749182D01*
X60433525Y-86231056D01*
X60552664Y-86487000D01*
X61912500Y-86487000D01*
X61912500Y-86467000D01*
X62166500Y-86467000D01*
X62166500Y-86487000D01*
X63526336Y-86487000D01*
X63645475Y-86231056D01*
X63445885Y-85749182D01*
X63355403Y-85651602D01*
X63506941Y-85554090D01*
X63651931Y-85341890D01*
X63702940Y-85090000D01*
X63702940Y-83597750D01*
X65266500Y-83597750D01*
X65266500Y-84063310D01*
X65363173Y-84296699D01*
X65541802Y-84475327D01*
X65775191Y-84572000D01*
X66365750Y-84572000D01*
X66524500Y-84413250D01*
X66524500Y-83439000D01*
X65425250Y-83439000D01*
X65266500Y-83597750D01*
X63702940Y-83597750D01*
X63702940Y-83058000D01*
X63658662Y-82822683D01*
X63519590Y-82606559D01*
X63452459Y-82560690D01*
X65266500Y-82560690D01*
X65266500Y-83026250D01*
X65425250Y-83185000D01*
X66524500Y-83185000D01*
X66524500Y-82210750D01*
X66365750Y-82052000D01*
X65775191Y-82052000D01*
X65541802Y-82148673D01*
X65363173Y-82327301D01*
X65266500Y-82560690D01*
X63452459Y-82560690D01*
X63307390Y-82461569D01*
X63055500Y-82410560D01*
X62824500Y-82410560D01*
X62824500Y-82232500D01*
X62764745Y-81932094D01*
X62594579Y-81677421D01*
X61847908Y-80930750D01*
X65295500Y-80930750D01*
X65295500Y-81071310D01*
X65392173Y-81304699D01*
X65570802Y-81483327D01*
X65804191Y-81580000D01*
X66419750Y-81580000D01*
X66578500Y-81421250D01*
X66578500Y-80772000D01*
X66832500Y-80772000D01*
X66832500Y-81421250D01*
X66991250Y-81580000D01*
X67606809Y-81580000D01*
X67840198Y-81483327D01*
X68018827Y-81304699D01*
X68115500Y-81071310D01*
X68115500Y-80930750D01*
X67956750Y-80772000D01*
X66832500Y-80772000D01*
X66578500Y-80772000D01*
X65454250Y-80772000D01*
X65295500Y-80930750D01*
X61847908Y-80930750D01*
X60577908Y-79660750D01*
X65295500Y-79660750D01*
X65295500Y-79801310D01*
X65381942Y-80010000D01*
X65295500Y-80218690D01*
X65295500Y-80359250D01*
X65454250Y-80518000D01*
X66578500Y-80518000D01*
X66578500Y-79502000D01*
X66832500Y-79502000D01*
X66832500Y-80518000D01*
X67956750Y-80518000D01*
X68115500Y-80359250D01*
X68115500Y-80218690D01*
X68029058Y-80010000D01*
X68115500Y-79801310D01*
X68115500Y-79660750D01*
X67956750Y-79502000D01*
X66832500Y-79502000D01*
X66578500Y-79502000D01*
X65454250Y-79502000D01*
X65295500Y-79660750D01*
X60577908Y-79660750D01*
X59932330Y-79015172D01*
X59932810Y-78465602D01*
X59932443Y-78464715D01*
X62269630Y-76127528D01*
X62269630Y-77656690D01*
X62313908Y-77892007D01*
X62452980Y-78108131D01*
X62665180Y-78253121D01*
X62917070Y-78304130D01*
X63123681Y-78304130D01*
X63262421Y-78511769D01*
X63410731Y-78660079D01*
X63665403Y-78830245D01*
X63965810Y-78890000D01*
X65319810Y-78890000D01*
X65295500Y-78948690D01*
X65295500Y-79089250D01*
X65454250Y-79248000D01*
X66578500Y-79248000D01*
X66578500Y-79228000D01*
X66832500Y-79228000D01*
X66832500Y-79248000D01*
X67956750Y-79248000D01*
X68115500Y-79089250D01*
X68115500Y-78948690D01*
X68025694Y-78731878D01*
X68076931Y-78656890D01*
X68127940Y-78405000D01*
X68127940Y-77805000D01*
X68083662Y-77569683D01*
X68019822Y-77470472D01*
X68076931Y-77386890D01*
X68127940Y-77135000D01*
X68127940Y-76982598D01*
X70683060Y-79537717D01*
X70683060Y-79675000D01*
X70727338Y-79910317D01*
X70791178Y-80009528D01*
X70734069Y-80093110D01*
X70683060Y-80345000D01*
X70683060Y-80945000D01*
X70727338Y-81180317D01*
X70866410Y-81396441D01*
X71078610Y-81541431D01*
X71330500Y-81592440D01*
X71834770Y-81592440D01*
X71050210Y-82377000D01*
X70456605Y-82377000D01*
X70365590Y-82235559D01*
X70153390Y-82090569D01*
X69901500Y-82039560D01*
X68401500Y-82039560D01*
X68166183Y-82083838D01*
X67950059Y-82222910D01*
X67903531Y-82291006D01*
X67761198Y-82148673D01*
X67527809Y-82052000D01*
X66937250Y-82052000D01*
X66778500Y-82210750D01*
X66778500Y-83185000D01*
X66798500Y-83185000D01*
X66798500Y-83439000D01*
X66778500Y-83439000D01*
X66778500Y-84413250D01*
X66937250Y-84572000D01*
X67527809Y-84572000D01*
X67761198Y-84475327D01*
X67902436Y-84334090D01*
X67937410Y-84388441D01*
X68149610Y-84533431D01*
X68401500Y-84584440D01*
X69226650Y-84584440D01*
X72659333Y-88017123D01*
X72533794Y-88319453D01*
X72533415Y-88752807D01*
X72514365Y-88760678D01*
X72054174Y-89220067D01*
X71804814Y-89820593D01*
X71804246Y-90470834D01*
X72052558Y-91071795D01*
X72511947Y-91531986D01*
X73112473Y-91781346D01*
X73762714Y-91781914D01*
X74363675Y-91533602D01*
X74823866Y-91074213D01*
X75073226Y-90473687D01*
X75073605Y-90040333D01*
X75092655Y-90032462D01*
X75327362Y-89798163D01*
X75735443Y-89798163D01*
X75834042Y-90064965D01*
X76443582Y-90291401D01*
X77093377Y-90267341D01*
X77581958Y-90064965D01*
X77680557Y-89798163D01*
X76708000Y-88825605D01*
X75735443Y-89798163D01*
X75327362Y-89798163D01*
X75520401Y-89605461D01*
X75555837Y-89618557D01*
X76528395Y-88646000D01*
X75555837Y-87673443D01*
X75519901Y-87686724D01*
X75327351Y-87493837D01*
X75735443Y-87493837D01*
X75846607Y-87605001D01*
X76018015Y-88018818D01*
X76284817Y-88117417D01*
X76321920Y-88080314D01*
X76501526Y-88259920D01*
X76464423Y-88297023D01*
X76563022Y-88563825D01*
X76948707Y-88707102D01*
X77860163Y-89618557D01*
X78126965Y-89519958D01*
X78353401Y-88910418D01*
X78337869Y-88490951D01*
X78409537Y-88297023D01*
X78298373Y-88185859D01*
X78126965Y-87772042D01*
X77860163Y-87673443D01*
X77823060Y-87710546D01*
X77643454Y-87530940D01*
X77680557Y-87493837D01*
X77581958Y-87227035D01*
X77360753Y-87144860D01*
X77616585Y-87144860D01*
X78589143Y-88117417D01*
X78855945Y-88018818D01*
X79082381Y-87409278D01*
X79058321Y-86759483D01*
X78855945Y-86270902D01*
X78589143Y-86172303D01*
X77616585Y-87144860D01*
X77360753Y-87144860D01*
X77196273Y-87083758D01*
X76284817Y-86172303D01*
X76018015Y-86270902D01*
X75791579Y-86880442D01*
X75807111Y-87299909D01*
X75735443Y-87493837D01*
X75327351Y-87493837D01*
X75095073Y-87261154D01*
X74494547Y-87011794D01*
X74298413Y-87011623D01*
X73279487Y-85992697D01*
X76464423Y-85992697D01*
X77436980Y-86965255D01*
X78409537Y-85992697D01*
X78313994Y-85734163D01*
X85260443Y-85734163D01*
X85359042Y-86000965D01*
X85968582Y-86227401D01*
X86388049Y-86211869D01*
X86581977Y-86283537D01*
X86693141Y-86172373D01*
X87106958Y-86000965D01*
X87205557Y-85734163D01*
X87168454Y-85697060D01*
X87348060Y-85517454D01*
X87385163Y-85554557D01*
X87651965Y-85455958D01*
X87705822Y-85310980D01*
X87913745Y-85310980D01*
X88886303Y-86283537D01*
X89153105Y-86184938D01*
X89179362Y-86114255D01*
X104391361Y-86114255D01*
X105219500Y-86942395D01*
X106047639Y-86114255D01*
X105973505Y-85868136D01*
X105436277Y-85675035D01*
X104866046Y-85702222D01*
X104465495Y-85868136D01*
X104391361Y-86114255D01*
X89179362Y-86114255D01*
X89379541Y-85575398D01*
X89355481Y-84925603D01*
X89153105Y-84437022D01*
X88886303Y-84338423D01*
X87913745Y-85310980D01*
X87705822Y-85310980D01*
X87795242Y-85070273D01*
X88706697Y-84158817D01*
X88608098Y-83892015D01*
X87998558Y-83665579D01*
X87579091Y-83681111D01*
X87385163Y-83609443D01*
X87273999Y-83720607D01*
X86860182Y-83892015D01*
X86761583Y-84158817D01*
X86798686Y-84195920D01*
X86619080Y-84375526D01*
X86581977Y-84338423D01*
X86315175Y-84437022D01*
X86171898Y-84822707D01*
X85260443Y-85734163D01*
X78313994Y-85734163D01*
X78310938Y-85725895D01*
X77701398Y-85499459D01*
X77051603Y-85523519D01*
X76563022Y-85725895D01*
X76464423Y-85992697D01*
X73279487Y-85992697D01*
X71604372Y-84317582D01*
X84587599Y-84317582D01*
X84611659Y-84967377D01*
X84814035Y-85455958D01*
X85080837Y-85554557D01*
X86053395Y-84582000D01*
X85080837Y-83609443D01*
X84814035Y-83708042D01*
X84587599Y-84317582D01*
X71604372Y-84317582D01*
X71517814Y-84231024D01*
X71795309Y-84175827D01*
X72098645Y-83973145D01*
X74575145Y-81496645D01*
X74777827Y-81193309D01*
X74849000Y-80835500D01*
X74849000Y-78538505D01*
X74849001Y-78538500D01*
X74777827Y-78180692D01*
X74777827Y-78180691D01*
X74575145Y-77877355D01*
X74141645Y-77443855D01*
X73838309Y-77241173D01*
X73519290Y-77177716D01*
X73527940Y-77135000D01*
X73527940Y-76535000D01*
X73483662Y-76299683D01*
X73344590Y-76083559D01*
X73204392Y-75987766D01*
X73454005Y-75738153D01*
X73464167Y-75738162D01*
X73807943Y-75596117D01*
X74061752Y-75342750D01*
X75311000Y-75342750D01*
X75311000Y-76199310D01*
X75407673Y-76432699D01*
X75586302Y-76611327D01*
X75819691Y-76708000D01*
X76168250Y-76708000D01*
X76327000Y-76549250D01*
X76327000Y-75184000D01*
X75469750Y-75184000D01*
X75311000Y-75342750D01*
X74061752Y-75342750D01*
X74071192Y-75333327D01*
X74213838Y-74989799D01*
X74214162Y-74617833D01*
X74072117Y-74274057D01*
X73809327Y-74010808D01*
X73465799Y-73868162D01*
X73093833Y-73867838D01*
X72750057Y-74009883D01*
X72486808Y-74272673D01*
X72344162Y-74616201D01*
X72344152Y-74627690D01*
X71550421Y-75421421D01*
X71380255Y-75676093D01*
X71380255Y-75676094D01*
X71338191Y-75887560D01*
X71330500Y-75887560D01*
X71095183Y-75931838D01*
X70879059Y-76070910D01*
X70734069Y-76283110D01*
X70683060Y-76535000D01*
X70683060Y-77135000D01*
X70725336Y-77359679D01*
X69278501Y-75912843D01*
X69278501Y-74195440D01*
X70743500Y-74195440D01*
X70978817Y-74151162D01*
X71194941Y-74012090D01*
X71339931Y-73799890D01*
X71363602Y-73683000D01*
X75406969Y-73683000D01*
X75311000Y-73914690D01*
X75311000Y-74771250D01*
X75469750Y-74930000D01*
X76327000Y-74930000D01*
X76327000Y-74910000D01*
X76581000Y-74910000D01*
X76581000Y-74930000D01*
X76601000Y-74930000D01*
X76601000Y-75184000D01*
X76581000Y-75184000D01*
X76581000Y-76549250D01*
X76739750Y-76708000D01*
X77088309Y-76708000D01*
X77321698Y-76611327D01*
X77500327Y-76432699D01*
X77597000Y-76199310D01*
X77597000Y-76139113D01*
X77628838Y-76308317D01*
X77767910Y-76524441D01*
X77955000Y-76652274D01*
X77955000Y-79121000D01*
X78014755Y-79421407D01*
X78082000Y-79522046D01*
X78082000Y-80173000D01*
X78141755Y-80473407D01*
X78311921Y-80728079D01*
X79451941Y-81868099D01*
X79706614Y-82038265D01*
X80007020Y-82098020D01*
X83287694Y-82098020D01*
X83345398Y-82237675D01*
X83804787Y-82697866D01*
X84405313Y-82947226D01*
X84838667Y-82947605D01*
X84846538Y-82966655D01*
X85273539Y-83394401D01*
X85260443Y-83429837D01*
X86233000Y-84402395D01*
X87205557Y-83429837D01*
X87192276Y-83393901D01*
X87609905Y-82977000D01*
X92265500Y-82977000D01*
X92623309Y-82905827D01*
X92926645Y-82703145D01*
X95339354Y-80290436D01*
X95470692Y-80159327D01*
X95613338Y-79815799D01*
X95613662Y-79443833D01*
X95471617Y-79100057D01*
X95208827Y-78836808D01*
X94865299Y-78694162D01*
X94493333Y-78693838D01*
X94149557Y-78835883D01*
X93886308Y-79098673D01*
X93886145Y-79099065D01*
X91878210Y-81107000D01*
X87609135Y-81107000D01*
X87160073Y-80657154D01*
X86559547Y-80407794D01*
X86126193Y-80407415D01*
X86118322Y-80388365D01*
X85658933Y-79928174D01*
X85058407Y-79678814D01*
X84408166Y-79678246D01*
X83807205Y-79926558D01*
X83347014Y-80385947D01*
X83288020Y-80528020D01*
X80332178Y-80528020D01*
X79652000Y-79847842D01*
X79652000Y-79248000D01*
X79592245Y-78947594D01*
X79592245Y-78947593D01*
X79525000Y-78846954D01*
X79525000Y-76649340D01*
X79699441Y-76537090D01*
X79844431Y-76324890D01*
X79882543Y-76136686D01*
X79914838Y-76308317D01*
X80053910Y-76524441D01*
X80266110Y-76669431D01*
X80518000Y-76720440D01*
X81534000Y-76720440D01*
X81769317Y-76676162D01*
X81985441Y-76537090D01*
X82130431Y-76324890D01*
X82181440Y-76073000D01*
X82181440Y-75814264D01*
X82342407Y-75782245D01*
X82597079Y-75612079D01*
X85068828Y-73140330D01*
X85618398Y-73140810D01*
X86127837Y-72930314D01*
X86266995Y-72791398D01*
X108913690Y-72791398D01*
X109124186Y-73300837D01*
X109513613Y-73690944D01*
X110022684Y-73902329D01*
X110573898Y-73902810D01*
X111083337Y-73692314D01*
X111473444Y-73302887D01*
X111684829Y-72793816D01*
X111685310Y-72242602D01*
X111474814Y-71733163D01*
X111085387Y-71343056D01*
X110576316Y-71131671D01*
X110025102Y-71131190D01*
X109515663Y-71341686D01*
X109125556Y-71731113D01*
X108914171Y-72240184D01*
X108913690Y-72791398D01*
X86266995Y-72791398D01*
X86517944Y-72540887D01*
X86729329Y-72031816D01*
X86729810Y-71480602D01*
X86519314Y-70971163D01*
X86129887Y-70581056D01*
X85620816Y-70369671D01*
X85069602Y-70369190D01*
X84560163Y-70579686D01*
X84170056Y-70969113D01*
X83958671Y-71478184D01*
X83958190Y-72029398D01*
X83958557Y-72030285D01*
X82144446Y-73844396D01*
X82137162Y-73805683D01*
X81998090Y-73589559D01*
X81785890Y-73444569D01*
X81534000Y-73393560D01*
X80518000Y-73393560D01*
X80282683Y-73437838D01*
X80066559Y-73576910D01*
X79921569Y-73789110D01*
X79883457Y-73977314D01*
X79851162Y-73805683D01*
X79712090Y-73589559D01*
X79499890Y-73444569D01*
X79481403Y-73440825D01*
X79465245Y-73359594D01*
X79295079Y-73104921D01*
X78533079Y-72342921D01*
X78278407Y-72172755D01*
X77978000Y-72113000D01*
X71365538Y-72113000D01*
X71346662Y-72012683D01*
X71207590Y-71796559D01*
X70995390Y-71651569D01*
X70778500Y-71607648D01*
X70778500Y-69206158D01*
X70908328Y-69076330D01*
X71457898Y-69076810D01*
X71967337Y-68866314D01*
X72357444Y-68476887D01*
X72568829Y-67967816D01*
X72569292Y-67437000D01*
X76263760Y-67437000D01*
X76263760Y-69469000D01*
X76308038Y-69704317D01*
X76447110Y-69920441D01*
X76659310Y-70065431D01*
X76911200Y-70116440D01*
X80568800Y-70116440D01*
X80804117Y-70072162D01*
X81020241Y-69933090D01*
X81165231Y-69720890D01*
X81216240Y-69469000D01*
X81216240Y-67437000D01*
X81171962Y-67201683D01*
X81032890Y-66985559D01*
X80820690Y-66840569D01*
X80568800Y-66789560D01*
X76911200Y-66789560D01*
X76675883Y-66833838D01*
X76459759Y-66972910D01*
X76314769Y-67185110D01*
X76263760Y-67437000D01*
X72569292Y-67437000D01*
X72569310Y-67416602D01*
X72358814Y-66907163D01*
X71969387Y-66517056D01*
X71460316Y-66305671D01*
X70909102Y-66305190D01*
X70399663Y-66515686D01*
X70009556Y-66905113D01*
X69798171Y-67414184D01*
X69797690Y-67965398D01*
X69798057Y-67966285D01*
X69438421Y-68325921D01*
X69268255Y-68580593D01*
X69268255Y-68580594D01*
X69250463Y-68670041D01*
X69218746Y-68510595D01*
X69048580Y-68255922D01*
X65899707Y-65107049D01*
X65970463Y-64751330D01*
X77515875Y-64751330D01*
X77583935Y-64992331D01*
X78103234Y-65177167D01*
X78653738Y-65149205D01*
X79032465Y-64992331D01*
X79100525Y-64751330D01*
X78308200Y-63959005D01*
X77515875Y-64751330D01*
X65970463Y-64751330D01*
X65992012Y-64643000D01*
X65867594Y-64017508D01*
X65571542Y-63574434D01*
X76910433Y-63574434D01*
X76938395Y-64124938D01*
X77095269Y-64503665D01*
X77336270Y-64571725D01*
X78128595Y-63779400D01*
X78487805Y-63779400D01*
X79280130Y-64571725D01*
X79521131Y-64503665D01*
X79705967Y-63984366D01*
X79678005Y-63433862D01*
X79621090Y-63296456D01*
X112602180Y-63296456D01*
X112812676Y-63805895D01*
X113202103Y-64196002D01*
X113711174Y-64407387D01*
X114262388Y-64407868D01*
X114771827Y-64197372D01*
X115161934Y-63807945D01*
X115373319Y-63298874D01*
X115373800Y-62747660D01*
X115163304Y-62238221D01*
X114773877Y-61848114D01*
X114264806Y-61636729D01*
X113713592Y-61636248D01*
X113204153Y-61846744D01*
X112814046Y-62236171D01*
X112602661Y-62745242D01*
X112602180Y-63296456D01*
X79621090Y-63296456D01*
X79521131Y-63055135D01*
X79280130Y-62987075D01*
X78487805Y-63779400D01*
X78128595Y-63779400D01*
X77336270Y-62987075D01*
X77095269Y-63055135D01*
X76910433Y-63574434D01*
X65571542Y-63574434D01*
X65513281Y-63487241D01*
X64983014Y-63132928D01*
X64357522Y-63008510D01*
X64293478Y-63008510D01*
X63667986Y-63132928D01*
X63348423Y-63346453D01*
X63249080Y-63192069D01*
X63036880Y-63047079D01*
X62784990Y-62996070D01*
X60786010Y-62996070D01*
X60550693Y-63040348D01*
X60334569Y-63179420D01*
X60189579Y-63391620D01*
X60138570Y-63643510D01*
X60138570Y-65642490D01*
X60182848Y-65877807D01*
X60321920Y-66093931D01*
X60534120Y-66238921D01*
X60786010Y-66289930D01*
X61000500Y-66289930D01*
X61000500Y-75176342D01*
X58822172Y-77354670D01*
X58272602Y-77354190D01*
X57763163Y-77564686D01*
X57373056Y-77954113D01*
X57161671Y-78463184D01*
X57161190Y-79014398D01*
X54469500Y-79014398D01*
X54469500Y-62807470D01*
X77515875Y-62807470D01*
X78308200Y-63599795D01*
X79100525Y-62807470D01*
X79032465Y-62566469D01*
X78513166Y-62381633D01*
X77962662Y-62409595D01*
X77583935Y-62566469D01*
X77515875Y-62807470D01*
X54469500Y-62807470D01*
X54469500Y-53147808D01*
X106748990Y-53147808D01*
X106748990Y-54004367D01*
X106845663Y-54237756D01*
X107024291Y-54416385D01*
X107257680Y-54513058D01*
X108114240Y-54513058D01*
X108272990Y-54354308D01*
X108272990Y-52989058D01*
X106907740Y-52989058D01*
X106748990Y-53147808D01*
X54469500Y-53147808D01*
X54469500Y-51719749D01*
X106748990Y-51719749D01*
X106748990Y-52576308D01*
X106907740Y-52735058D01*
X108272990Y-52735058D01*
X108272990Y-51369808D01*
X108526990Y-51369808D01*
X108526990Y-52735058D01*
X108546990Y-52735058D01*
X108546990Y-52989058D01*
X108526990Y-52989058D01*
X108526990Y-54354308D01*
X108685740Y-54513058D01*
X109542300Y-54513058D01*
X109775689Y-54416385D01*
X109954317Y-54237756D01*
X109971989Y-54195092D01*
X110308180Y-54419728D01*
X110939990Y-54545403D01*
X111241142Y-54485500D01*
X116349500Y-59593858D01*
X116349500Y-92583000D01*
X116420673Y-92940809D01*
X116623355Y-93244145D01*
X118571281Y-95192071D01*
X118570827Y-95712000D01*
X117462040Y-95712000D01*
X117462040Y-95529400D01*
X117417762Y-95294083D01*
X117278690Y-95077959D01*
X117066490Y-94932969D01*
X116814600Y-94881960D01*
X114579400Y-94881960D01*
X114344083Y-94926238D01*
X114127959Y-95065310D01*
X113982969Y-95277510D01*
X113931960Y-95529400D01*
X113931960Y-97764600D01*
X113976238Y-97999917D01*
X114115310Y-98216041D01*
X114327510Y-98361031D01*
X114579400Y-98412040D01*
X116814600Y-98412040D01*
X117049917Y-98367762D01*
X117266041Y-98228690D01*
X117411031Y-98016490D01*
X117462040Y-97764600D01*
X117462040Y-97582000D01*
X119062500Y-97582000D01*
X119420309Y-97510827D01*
X119723645Y-97308145D01*
X119893571Y-97138219D01*
X120529194Y-97138774D01*
X121130155Y-96890462D01*
X121590346Y-96431073D01*
X121839706Y-95830547D01*
X121840274Y-95180306D01*
X121591962Y-94579345D01*
X121132573Y-94119154D01*
X120532047Y-93869794D01*
X119893026Y-93869236D01*
X118219500Y-92195710D01*
X118219500Y-86322000D01*
X126124060Y-86322000D01*
X126124060Y-87922000D01*
X126168338Y-88157317D01*
X126307410Y-88373441D01*
X126519610Y-88518431D01*
X126771500Y-88569440D01*
X128371500Y-88569440D01*
X128606817Y-88525162D01*
X128822941Y-88386090D01*
X128967931Y-88173890D01*
X128991602Y-88057000D01*
X132672365Y-88057000D01*
X133113500Y-88498905D01*
X133113500Y-91558586D01*
X132874556Y-91797113D01*
X132663171Y-92306184D01*
X132662874Y-92646336D01*
X131220135Y-94089075D01*
X130692047Y-93869794D01*
X130041806Y-93869226D01*
X129440845Y-94117538D01*
X128980654Y-94576927D01*
X128731294Y-95177453D01*
X128730726Y-95827694D01*
X128979038Y-96428655D01*
X129438427Y-96888846D01*
X130038953Y-97138206D01*
X130689194Y-97138774D01*
X131290155Y-96890462D01*
X131750346Y-96431073D01*
X131911983Y-96041807D01*
X133985275Y-93968515D01*
X134322898Y-93968810D01*
X134832337Y-93758314D01*
X135222444Y-93368887D01*
X135433829Y-92859816D01*
X135434310Y-92308602D01*
X135223814Y-91799163D01*
X134983500Y-91558429D01*
X134983500Y-88498135D01*
X135433346Y-88049073D01*
X135682706Y-87448547D01*
X135683274Y-86798306D01*
X135434962Y-86197345D01*
X134975573Y-85737154D01*
X134375047Y-85487794D01*
X133724806Y-85487226D01*
X133123845Y-85735538D01*
X132671595Y-86187000D01*
X128993538Y-86187000D01*
X128974662Y-86086683D01*
X128835590Y-85870559D01*
X128623390Y-85725569D01*
X128371500Y-85674560D01*
X126771500Y-85674560D01*
X126536183Y-85718838D01*
X126320059Y-85857910D01*
X126175069Y-86070110D01*
X126124060Y-86322000D01*
X118219500Y-86322000D01*
X118219500Y-69243381D01*
X120483724Y-69243381D01*
X120520918Y-69458532D01*
X120949380Y-69601491D01*
X121229243Y-69581683D01*
X121228924Y-69947850D01*
X121401411Y-70365301D01*
X121720519Y-70684967D01*
X122137668Y-70858182D01*
X122589350Y-70858576D01*
X123006801Y-70686089D01*
X123326467Y-70366981D01*
X123499682Y-69949832D01*
X123499952Y-69640742D01*
X123989355Y-70130145D01*
X124292691Y-70332827D01*
X124650500Y-70404000D01*
X135166935Y-70404000D01*
X135415130Y-70652629D01*
X135623012Y-70738949D01*
X135417197Y-70823990D01*
X135023871Y-71216630D01*
X134810743Y-71729900D01*
X134810258Y-72285661D01*
X135022490Y-72799303D01*
X135415130Y-73192629D01*
X135928400Y-73405757D01*
X136282276Y-73406066D01*
X140679695Y-77803485D01*
X140983031Y-78006167D01*
X141340840Y-78077340D01*
X143467365Y-78077340D01*
X143916427Y-78527186D01*
X144516953Y-78776546D01*
X145167194Y-78777114D01*
X145768155Y-78528802D01*
X146228346Y-78069413D01*
X146477706Y-77468887D01*
X146478274Y-76818646D01*
X146229962Y-76217685D01*
X145770573Y-75757494D01*
X145170047Y-75508134D01*
X144519806Y-75507566D01*
X143918845Y-75755878D01*
X143466595Y-76207340D01*
X141728130Y-76207340D01*
X137604435Y-72083645D01*
X137604742Y-71732339D01*
X137392510Y-71218697D01*
X136999870Y-70825371D01*
X136791988Y-70739051D01*
X136997803Y-70654010D01*
X137391129Y-70261370D01*
X137604257Y-69748100D01*
X137604742Y-69192339D01*
X137392510Y-68678697D01*
X136999870Y-68285371D01*
X136791988Y-68199051D01*
X136997803Y-68114010D01*
X137391129Y-67721370D01*
X137604257Y-67208100D01*
X137604742Y-66652339D01*
X137392510Y-66138697D01*
X137142500Y-65888250D01*
X137142500Y-64270414D01*
X137381444Y-64031887D01*
X137592829Y-63522816D01*
X137593310Y-62971602D01*
X137382814Y-62462163D01*
X136993387Y-62072056D01*
X136634500Y-61923033D01*
X136634500Y-58246715D01*
X137385992Y-57744584D01*
X137903008Y-56970815D01*
X138084560Y-56058092D01*
X138084560Y-54179012D01*
X138324499Y-54226739D01*
X143692881Y-54226739D01*
X144050690Y-54155566D01*
X144354026Y-53952884D01*
X144411664Y-53895246D01*
X144486760Y-53926429D01*
X145197123Y-53927049D01*
X145853651Y-53655777D01*
X145988437Y-53521227D01*
X146569485Y-54102275D01*
X146569190Y-54439898D01*
X146779686Y-54949337D01*
X147020000Y-55190071D01*
X147020000Y-81388720D01*
X143547355Y-84861365D01*
X143344673Y-85164701D01*
X143282936Y-85475070D01*
X143209010Y-85475070D01*
X142973693Y-85519348D01*
X142757569Y-85658420D01*
X142612579Y-85870620D01*
X142561570Y-86122510D01*
X142561570Y-88121490D01*
X142605848Y-88356807D01*
X142744920Y-88572931D01*
X142957120Y-88717921D01*
X143209010Y-88768930D01*
X145207990Y-88768930D01*
X145443307Y-88724652D01*
X145659431Y-88585580D01*
X145804421Y-88373380D01*
X145855430Y-88121490D01*
X145855430Y-86122510D01*
X145811152Y-85887193D01*
X145672080Y-85671069D01*
X145499886Y-85553414D01*
X148616145Y-82437155D01*
X148818827Y-82133819D01*
X148890000Y-81776010D01*
X148890000Y-55189914D01*
X149128944Y-54951387D01*
X149340329Y-54442316D01*
X149340810Y-53891102D01*
X149130314Y-53381663D01*
X148740887Y-52991556D01*
X148231816Y-52780171D01*
X147891664Y-52779874D01*
X146591765Y-51479975D01*
X146468268Y-51397457D01*
X146358157Y-51130969D01*
X145856293Y-50628228D01*
X145200240Y-50355811D01*
X144489877Y-50355191D01*
X143833349Y-50626463D01*
X143330608Y-51128327D01*
X143058191Y-51784380D01*
X143057691Y-52356739D01*
X138711789Y-52356739D01*
X137334075Y-50979025D01*
X137030739Y-50776343D01*
X136672930Y-50705170D01*
X132461570Y-50705170D01*
X132103761Y-50776343D01*
X131800425Y-50979025D01*
X131045100Y-51734350D01*
X131024223Y-51720400D01*
X130111500Y-51538848D01*
X129198777Y-51720400D01*
X128425008Y-52237416D01*
X127907992Y-53011185D01*
X127726440Y-53923908D01*
X127726440Y-56058092D01*
X127907992Y-56970815D01*
X128425008Y-57744584D01*
X129198777Y-58261600D01*
X130111500Y-58443152D01*
X131024223Y-58261600D01*
X131797992Y-57744584D01*
X132315008Y-56970815D01*
X132496560Y-56058092D01*
X132496560Y-53923908D01*
X132331240Y-53092790D01*
X132848860Y-52575170D01*
X133787328Y-52575170D01*
X133495992Y-53011185D01*
X133314440Y-53923908D01*
X133314440Y-56058092D01*
X133495992Y-56970815D01*
X134013008Y-57744584D01*
X134764500Y-58246715D01*
X134764500Y-62738000D01*
X134822120Y-63027674D01*
X134821690Y-63520398D01*
X135032186Y-64029837D01*
X135272500Y-64270571D01*
X135272500Y-65888435D01*
X135023871Y-66136630D01*
X134810743Y-66649900D01*
X134810258Y-67205661D01*
X135022490Y-67719303D01*
X135415130Y-68112629D01*
X135623012Y-68198949D01*
X135417197Y-68283990D01*
X135166750Y-68534000D01*
X125037790Y-68534000D01*
X124770043Y-68266253D01*
X124770076Y-68228150D01*
X124597589Y-67810699D01*
X124278481Y-67491033D01*
X123861332Y-67317818D01*
X123409650Y-67317424D01*
X122992199Y-67489911D01*
X122672533Y-67809019D01*
X122499318Y-68226168D01*
X122499003Y-68587737D01*
X122242240Y-68587513D01*
X122211102Y-68147565D01*
X122100032Y-67879418D01*
X121884881Y-67842224D01*
X121274105Y-68453000D01*
X121288248Y-68467143D01*
X121108643Y-68646748D01*
X121094500Y-68632605D01*
X120483724Y-69243381D01*
X118219500Y-69243381D01*
X118219500Y-68307880D01*
X119946009Y-68307880D01*
X119977898Y-68758435D01*
X120088968Y-69026582D01*
X120304119Y-69063776D01*
X120914895Y-68453000D01*
X120304119Y-67842224D01*
X120088968Y-67879418D01*
X119946009Y-68307880D01*
X118219500Y-68307880D01*
X118219500Y-67662619D01*
X120483724Y-67662619D01*
X121094500Y-68273395D01*
X121705276Y-67662619D01*
X121668082Y-67447468D01*
X121239620Y-67304509D01*
X120789065Y-67336398D01*
X120520918Y-67447468D01*
X120483724Y-67662619D01*
X118219500Y-67662619D01*
X118219500Y-59206573D01*
X118219501Y-59206568D01*
X118148327Y-58848760D01*
X118148327Y-58848759D01*
X117945645Y-58545423D01*
X114518222Y-55118000D01*
X122138440Y-55118000D01*
X122138440Y-56118760D01*
X122368593Y-57021816D01*
X122926811Y-57768055D01*
X123728110Y-58243869D01*
X124025487Y-58324246D01*
X124396500Y-58214445D01*
X124396500Y-55118000D01*
X124650500Y-55118000D01*
X124650500Y-58214445D01*
X125021513Y-58324246D01*
X125318890Y-58243869D01*
X126120189Y-57768055D01*
X126678407Y-57021816D01*
X126908560Y-56118760D01*
X126908560Y-55118000D01*
X124650500Y-55118000D01*
X124396500Y-55118000D01*
X122138440Y-55118000D01*
X114518222Y-55118000D01*
X113263462Y-53863240D01*
X122138440Y-53863240D01*
X122138440Y-54864000D01*
X124396500Y-54864000D01*
X124396500Y-51767555D01*
X124650500Y-51767555D01*
X124650500Y-54864000D01*
X126908560Y-54864000D01*
X126908560Y-53863240D01*
X126678407Y-52960184D01*
X126120189Y-52213945D01*
X125318890Y-51738131D01*
X125021513Y-51657754D01*
X124650500Y-51767555D01*
X124396500Y-51767555D01*
X124025487Y-51657754D01*
X123728110Y-51738131D01*
X122926811Y-52213945D01*
X122368593Y-52960184D01*
X122138440Y-53863240D01*
X113263462Y-53863240D01*
X112541820Y-53141598D01*
X112590990Y-52894403D01*
X112590990Y-52829713D01*
X112465315Y-52197903D01*
X112107423Y-51662280D01*
X111571800Y-51304388D01*
X110939990Y-51178713D01*
X110308180Y-51304388D01*
X109971989Y-51529024D01*
X109954317Y-51486360D01*
X109775689Y-51307731D01*
X109542300Y-51211058D01*
X108685740Y-51211058D01*
X108526990Y-51369808D01*
X108272990Y-51369808D01*
X108114240Y-51211058D01*
X107257680Y-51211058D01*
X107024291Y-51307731D01*
X106845663Y-51486360D01*
X106748990Y-51719749D01*
X54469500Y-51719749D01*
X54469500Y-43547500D01*
X152159500Y-43547500D01*
X152159500Y-136157500D01*
G36*
X76132536Y-130217163D02*
X76132536Y-130580016D01*
X76182812Y-130832773D01*
X76099811Y-130792791D01*
X76084046Y-130790142D01*
X75852020Y-130911283D01*
X75852020Y-132270500D01*
X75872020Y-132270500D01*
X75872020Y-132524500D01*
X75852020Y-132524500D01*
X75852020Y-132544500D01*
X75598020Y-132544500D01*
X75598020Y-132524500D01*
X75578020Y-132524500D01*
X75578020Y-132270500D01*
X75598020Y-132270500D01*
X75598020Y-130911283D01*
X75365994Y-130790142D01*
X75350229Y-130792791D01*
X74822984Y-131046768D01*
X74573000Y-131326560D01*
X74573000Y-128657626D01*
X76132536Y-130217163D01*
X76132536Y-130217163D01*
G37*
X76132536Y-130217163D02*
X76132536Y-130580016D01*
X76182812Y-130832773D01*
X76099811Y-130792791D01*
X76084046Y-130790142D01*
X75852020Y-130911283D01*
X75852020Y-132270500D01*
X75872020Y-132270500D01*
X75872020Y-132524500D01*
X75852020Y-132524500D01*
X75852020Y-132544500D01*
X75598020Y-132544500D01*
X75598020Y-132524500D01*
X75578020Y-132524500D01*
X75578020Y-132270500D01*
X75598020Y-132270500D01*
X75598020Y-130911283D01*
X75365994Y-130790142D01*
X75350229Y-130792791D01*
X74822984Y-131046768D01*
X74573000Y-131326560D01*
X74573000Y-128657626D01*
X76132536Y-130217163D01*
G36*
X90250020Y-130758183D02*
X90250020Y-130922784D01*
X89905350Y-131153085D01*
X89698559Y-131462569D01*
X89327056Y-131046768D01*
X88799811Y-130792791D01*
X88784046Y-130790142D01*
X88552020Y-130911283D01*
X88552020Y-132270500D01*
X88572020Y-132270500D01*
X88572020Y-132524500D01*
X88552020Y-132524500D01*
X88552020Y-132544500D01*
X88298020Y-132544500D01*
X88298020Y-132524500D01*
X86012020Y-132524500D01*
X86012020Y-132544500D01*
X85758020Y-132544500D01*
X85758020Y-132524500D01*
X83472020Y-132524500D01*
X83472020Y-132544500D01*
X83218020Y-132544500D01*
X83218020Y-132524500D01*
X80932020Y-132524500D01*
X80932020Y-132544500D01*
X80678020Y-132544500D01*
X80678020Y-132524500D01*
X80658020Y-132524500D01*
X80658020Y-132270500D01*
X80678020Y-132270500D01*
X80678020Y-130911283D01*
X80932020Y-130911283D01*
X80932020Y-132270500D01*
X83218020Y-132270500D01*
X83218020Y-130911283D01*
X83472020Y-130911283D01*
X83472020Y-132270500D01*
X85758020Y-132270500D01*
X85758020Y-130911283D01*
X86012020Y-130911283D01*
X86012020Y-132270500D01*
X88298020Y-132270500D01*
X88298020Y-130911283D01*
X88065994Y-130790142D01*
X88050229Y-130792791D01*
X87522984Y-131046768D01*
X87155020Y-131458608D01*
X86787056Y-131046768D01*
X86259811Y-130792791D01*
X86244046Y-130790142D01*
X86012020Y-130911283D01*
X85758020Y-130911283D01*
X85525994Y-130790142D01*
X85510229Y-130792791D01*
X84982984Y-131046768D01*
X84615020Y-131458608D01*
X84247056Y-131046768D01*
X83719811Y-130792791D01*
X83704046Y-130790142D01*
X83472020Y-130911283D01*
X83218020Y-130911283D01*
X82985994Y-130790142D01*
X82970229Y-130792791D01*
X82442984Y-131046768D01*
X82075020Y-131458608D01*
X81707056Y-131046768D01*
X81179811Y-130792791D01*
X81164046Y-130790142D01*
X80932020Y-130911283D01*
X80678020Y-130911283D01*
X80445994Y-130790142D01*
X80430229Y-130792791D01*
X79902984Y-131046768D01*
X79531481Y-131462569D01*
X79324690Y-131153085D01*
X78838509Y-130828229D01*
X78265020Y-130714155D01*
X78037995Y-130759313D01*
X77562536Y-130283854D01*
X77562536Y-129921000D01*
X77551400Y-129865016D01*
X77527926Y-129747000D01*
X89238838Y-129747000D01*
X90250020Y-130758183D01*
X90250020Y-130758183D01*
G37*
X90250020Y-130758183D02*
X90250020Y-130922784D01*
X89905350Y-131153085D01*
X89698559Y-131462569D01*
X89327056Y-131046768D01*
X88799811Y-130792791D01*
X88784046Y-130790142D01*
X88552020Y-130911283D01*
X88552020Y-132270500D01*
X88572020Y-132270500D01*
X88572020Y-132524500D01*
X88552020Y-132524500D01*
X88552020Y-132544500D01*
X88298020Y-132544500D01*
X88298020Y-132524500D01*
X86012020Y-132524500D01*
X86012020Y-132544500D01*
X85758020Y-132544500D01*
X85758020Y-132524500D01*
X83472020Y-132524500D01*
X83472020Y-132544500D01*
X83218020Y-132544500D01*
X83218020Y-132524500D01*
X80932020Y-132524500D01*
X80932020Y-132544500D01*
X80678020Y-132544500D01*
X80678020Y-132524500D01*
X80658020Y-132524500D01*
X80658020Y-132270500D01*
X80678020Y-132270500D01*
X80678020Y-130911283D01*
X80932020Y-130911283D01*
X80932020Y-132270500D01*
X83218020Y-132270500D01*
X83218020Y-130911283D01*
X83472020Y-130911283D01*
X83472020Y-132270500D01*
X85758020Y-132270500D01*
X85758020Y-130911283D01*
X86012020Y-130911283D01*
X86012020Y-132270500D01*
X88298020Y-132270500D01*
X88298020Y-130911283D01*
X88065994Y-130790142D01*
X88050229Y-130792791D01*
X87522984Y-131046768D01*
X87155020Y-131458608D01*
X86787056Y-131046768D01*
X86259811Y-130792791D01*
X86244046Y-130790142D01*
X86012020Y-130911283D01*
X85758020Y-130911283D01*
X85525994Y-130790142D01*
X85510229Y-130792791D01*
X84982984Y-131046768D01*
X84615020Y-131458608D01*
X84247056Y-131046768D01*
X83719811Y-130792791D01*
X83704046Y-130790142D01*
X83472020Y-130911283D01*
X83218020Y-130911283D01*
X82985994Y-130790142D01*
X82970229Y-130792791D01*
X82442984Y-131046768D01*
X82075020Y-131458608D01*
X81707056Y-131046768D01*
X81179811Y-130792791D01*
X81164046Y-130790142D01*
X80932020Y-130911283D01*
X80678020Y-130911283D01*
X80445994Y-130790142D01*
X80430229Y-130792791D01*
X79902984Y-131046768D01*
X79531481Y-131462569D01*
X79324690Y-131153085D01*
X78838509Y-130828229D01*
X78265020Y-130714155D01*
X78037995Y-130759313D01*
X77562536Y-130283854D01*
X77562536Y-129921000D01*
X77551400Y-129865016D01*
X77527926Y-129747000D01*
X89238838Y-129747000D01*
X90250020Y-130758183D01*
G36*
X73979918Y-108606982D02*
X74061136Y-108661250D01*
X74211881Y-108761975D01*
X74485500Y-108816401D01*
X76325440Y-108816401D01*
X76074144Y-109097662D01*
X75880914Y-109650069D01*
X76025174Y-109884982D01*
X77239098Y-109884982D01*
X77239098Y-109864982D01*
X77493098Y-109864982D01*
X77493098Y-109884982D01*
X77513098Y-109884982D01*
X77513098Y-110138982D01*
X77493098Y-110138982D01*
X77493098Y-110158982D01*
X77239098Y-110158982D01*
X77239098Y-110138982D01*
X76025174Y-110138982D01*
X75880914Y-110373895D01*
X76074144Y-110926302D01*
X76319464Y-111200874D01*
X72052419Y-115467919D01*
X71897426Y-115699881D01*
X71843000Y-115973500D01*
X71843000Y-116676664D01*
X71631518Y-116535357D01*
X71197027Y-116448931D01*
X70762536Y-116535357D01*
X70431898Y-116756282D01*
X70101260Y-116535357D01*
X69666769Y-116448931D01*
X69232278Y-116535357D01*
X68863934Y-116781476D01*
X68471724Y-117173686D01*
X68225605Y-117542030D01*
X68139179Y-117976521D01*
X68225605Y-118411012D01*
X68471724Y-118779356D01*
X68840068Y-119025475D01*
X69274559Y-119111901D01*
X69709050Y-119025475D01*
X69748000Y-118999450D01*
X69748000Y-119446250D01*
X69906750Y-119605000D01*
X70385560Y-119605000D01*
X70385560Y-119859000D01*
X69906750Y-119859000D01*
X69748000Y-120017750D01*
X69748000Y-120583309D01*
X69844673Y-120816698D01*
X70023301Y-120995327D01*
X70256690Y-121092000D01*
X70336750Y-121092000D01*
X70495500Y-120933250D01*
X70495500Y-120794359D01*
X70568910Y-120908441D01*
X70781110Y-121053431D01*
X70855808Y-121068558D01*
X70879250Y-121092000D01*
X70959310Y-121092000D01*
X70963335Y-121090333D01*
X71033000Y-121104440D01*
X71483000Y-121104440D01*
X71586671Y-121084933D01*
X71683000Y-121104440D01*
X72133000Y-121104440D01*
X72236671Y-121084933D01*
X72333000Y-121104440D01*
X72783000Y-121104440D01*
X72886671Y-121084933D01*
X72983000Y-121104440D01*
X73340297Y-121104440D01*
X73352419Y-121122581D01*
X75417419Y-123187581D01*
X75649381Y-123342574D01*
X75923000Y-123397000D01*
X80418616Y-123397000D01*
X80495673Y-123474192D01*
X80839201Y-123616838D01*
X81211167Y-123617162D01*
X81554943Y-123475117D01*
X81818192Y-123212327D01*
X81944431Y-122908310D01*
X83971915Y-122908310D01*
X84836000Y-123772395D01*
X85700085Y-122908310D01*
X85619858Y-122657047D01*
X85064633Y-122455650D01*
X84474601Y-122482059D01*
X84052142Y-122657047D01*
X83971915Y-122908310D01*
X81944431Y-122908310D01*
X81960838Y-122868799D01*
X81961162Y-122496833D01*
X81819117Y-122153057D01*
X81556327Y-121889808D01*
X81212799Y-121747162D01*
X80840833Y-121746838D01*
X80497057Y-121888883D01*
X80418804Y-121967000D01*
X80019182Y-121967000D01*
X80119338Y-121725799D01*
X80119662Y-121353833D01*
X79997998Y-121059381D01*
X84225224Y-121059381D01*
X84262418Y-121274532D01*
X84690880Y-121417491D01*
X85141435Y-121385602D01*
X85409582Y-121274532D01*
X85446776Y-121059381D01*
X84836000Y-120448605D01*
X84225224Y-121059381D01*
X79997998Y-121059381D01*
X79977617Y-121010057D01*
X79714827Y-120746808D01*
X79371299Y-120604162D01*
X79260728Y-120604066D01*
X78780542Y-120123880D01*
X83687509Y-120123880D01*
X83719398Y-120574435D01*
X83830468Y-120842582D01*
X84045619Y-120879776D01*
X84656395Y-120269000D01*
X84045619Y-119658224D01*
X83830468Y-119695418D01*
X83687509Y-120123880D01*
X78780542Y-120123880D01*
X77883081Y-119226419D01*
X77683408Y-119093001D01*
X83918839Y-119093001D01*
X84236902Y-119411064D01*
X84225224Y-119478619D01*
X84836000Y-120089395D01*
X84850143Y-120075253D01*
X85029748Y-120254858D01*
X85015605Y-120269000D01*
X85626381Y-120879776D01*
X85841532Y-120842582D01*
X85924346Y-120594381D01*
X86281963Y-120594381D01*
X86412911Y-120911301D01*
X86732019Y-121230967D01*
X87149168Y-121404182D01*
X87600850Y-121404576D01*
X88018301Y-121232089D01*
X88337967Y-120912981D01*
X88511182Y-120495832D01*
X88511576Y-120044150D01*
X88339089Y-119626699D01*
X88049529Y-119336633D01*
X88262581Y-119123581D01*
X88417574Y-118891619D01*
X88441334Y-118772168D01*
X88472000Y-118618000D01*
X88472000Y-110468662D01*
X89511130Y-109429533D01*
X89511130Y-111011970D01*
X89555408Y-111247287D01*
X89694480Y-111463411D01*
X89906680Y-111608401D01*
X90023366Y-111632030D01*
X89923253Y-111650868D01*
X89707129Y-111789940D01*
X89562139Y-112002140D01*
X89511130Y-112254030D01*
X89511130Y-113851690D01*
X89555408Y-114087007D01*
X89694480Y-114303131D01*
X89906680Y-114448121D01*
X90158570Y-114499130D01*
X90344000Y-114499130D01*
X90344000Y-119252693D01*
X86218117Y-123378576D01*
X86130953Y-123168142D01*
X85879690Y-123087915D01*
X85015605Y-123952000D01*
X85029748Y-123966143D01*
X84850143Y-124145748D01*
X84836000Y-124131605D01*
X84821858Y-124145748D01*
X84642253Y-123966143D01*
X84656395Y-123952000D01*
X83792310Y-123087915D01*
X83541047Y-123168142D01*
X83339650Y-123723367D01*
X83366059Y-124313399D01*
X83429530Y-124466631D01*
X79948293Y-124466631D01*
X79929067Y-124447405D01*
X79929162Y-124338333D01*
X79787117Y-123994557D01*
X79524327Y-123731308D01*
X79180799Y-123588662D01*
X78808833Y-123588338D01*
X78465057Y-123730383D01*
X78201808Y-123993173D01*
X78059162Y-124336701D01*
X78058838Y-124708667D01*
X78200883Y-125052443D01*
X78463673Y-125315692D01*
X78807201Y-125458338D01*
X78917772Y-125458434D01*
X79146550Y-125687212D01*
X79378512Y-125842205D01*
X79652131Y-125896631D01*
X85426224Y-125896631D01*
X85699843Y-125842205D01*
X85931805Y-125687212D01*
X88729513Y-122889504D01*
X88567754Y-123131594D01*
X88551695Y-123212327D01*
X88507999Y-123432001D01*
X88507999Y-127487001D01*
X88567754Y-127787408D01*
X88737920Y-128042080D01*
X89012840Y-128317000D01*
X87922637Y-128317000D01*
X88056838Y-127993809D01*
X88057162Y-127621843D01*
X87915117Y-127278067D01*
X87652327Y-127014818D01*
X87308799Y-126872172D01*
X87133907Y-126872020D01*
X87095620Y-126846437D01*
X86822001Y-126792011D01*
X79014173Y-126792011D01*
X77348581Y-125126419D01*
X77330440Y-125114297D01*
X77330440Y-124907000D01*
X77286162Y-124671683D01*
X77147090Y-124455559D01*
X76934890Y-124310569D01*
X76683000Y-124259560D01*
X76233000Y-124259560D01*
X76129329Y-124279067D01*
X76033000Y-124259560D01*
X75583000Y-124259560D01*
X75479329Y-124279067D01*
X75383000Y-124259560D01*
X74933000Y-124259560D01*
X74829329Y-124279067D01*
X74733000Y-124259560D01*
X74283000Y-124259560D01*
X74179329Y-124279067D01*
X74083000Y-124259560D01*
X73633000Y-124259560D01*
X73529329Y-124279067D01*
X73433000Y-124259560D01*
X73020505Y-124259560D01*
X73086082Y-124193983D01*
X73219334Y-123994557D01*
X73241074Y-123962021D01*
X73295500Y-123688402D01*
X73295500Y-122717884D01*
X73372692Y-122640827D01*
X73515338Y-122297299D01*
X73515662Y-121925333D01*
X73373617Y-121581557D01*
X73110827Y-121318308D01*
X72767299Y-121175662D01*
X72395333Y-121175338D01*
X72051557Y-121317383D01*
X71788308Y-121580173D01*
X71645662Y-121923701D01*
X71645338Y-122295667D01*
X71787383Y-122639443D01*
X71865500Y-122717696D01*
X71865500Y-123311635D01*
X71777327Y-123223308D01*
X71433799Y-123080662D01*
X71061833Y-123080338D01*
X70718057Y-123222383D01*
X70454808Y-123485173D01*
X70426209Y-123554047D01*
X69495757Y-122623595D01*
X69495757Y-120660257D01*
X69441331Y-120386638D01*
X69428421Y-120367317D01*
X69286338Y-120154675D01*
X68025000Y-118893338D01*
X68025000Y-107738162D01*
X68685663Y-107077500D01*
X72450437Y-107077500D01*
X73979918Y-108606982D01*
X73979918Y-108606982D01*
G37*
X73979918Y-108606982D02*
X74061136Y-108661250D01*
X74211881Y-108761975D01*
X74485500Y-108816401D01*
X76325440Y-108816401D01*
X76074144Y-109097662D01*
X75880914Y-109650069D01*
X76025174Y-109884982D01*
X77239098Y-109884982D01*
X77239098Y-109864982D01*
X77493098Y-109864982D01*
X77493098Y-109884982D01*
X77513098Y-109884982D01*
X77513098Y-110138982D01*
X77493098Y-110138982D01*
X77493098Y-110158982D01*
X77239098Y-110158982D01*
X77239098Y-110138982D01*
X76025174Y-110138982D01*
X75880914Y-110373895D01*
X76074144Y-110926302D01*
X76319464Y-111200874D01*
X72052419Y-115467919D01*
X71897426Y-115699881D01*
X71843000Y-115973500D01*
X71843000Y-116676664D01*
X71631518Y-116535357D01*
X71197027Y-116448931D01*
X70762536Y-116535357D01*
X70431898Y-116756282D01*
X70101260Y-116535357D01*
X69666769Y-116448931D01*
X69232278Y-116535357D01*
X68863934Y-116781476D01*
X68471724Y-117173686D01*
X68225605Y-117542030D01*
X68139179Y-117976521D01*
X68225605Y-118411012D01*
X68471724Y-118779356D01*
X68840068Y-119025475D01*
X69274559Y-119111901D01*
X69709050Y-119025475D01*
X69748000Y-118999450D01*
X69748000Y-119446250D01*
X69906750Y-119605000D01*
X70385560Y-119605000D01*
X70385560Y-119859000D01*
X69906750Y-119859000D01*
X69748000Y-120017750D01*
X69748000Y-120583309D01*
X69844673Y-120816698D01*
X70023301Y-120995327D01*
X70256690Y-121092000D01*
X70336750Y-121092000D01*
X70495500Y-120933250D01*
X70495500Y-120794359D01*
X70568910Y-120908441D01*
X70781110Y-121053431D01*
X70855808Y-121068558D01*
X70879250Y-121092000D01*
X70959310Y-121092000D01*
X70963335Y-121090333D01*
X71033000Y-121104440D01*
X71483000Y-121104440D01*
X71586671Y-121084933D01*
X71683000Y-121104440D01*
X72133000Y-121104440D01*
X72236671Y-121084933D01*
X72333000Y-121104440D01*
X72783000Y-121104440D01*
X72886671Y-121084933D01*
X72983000Y-121104440D01*
X73340297Y-121104440D01*
X73352419Y-121122581D01*
X75417419Y-123187581D01*
X75649381Y-123342574D01*
X75923000Y-123397000D01*
X80418616Y-123397000D01*
X80495673Y-123474192D01*
X80839201Y-123616838D01*
X81211167Y-123617162D01*
X81554943Y-123475117D01*
X81818192Y-123212327D01*
X81944431Y-122908310D01*
X83971915Y-122908310D01*
X84836000Y-123772395D01*
X85700085Y-122908310D01*
X85619858Y-122657047D01*
X85064633Y-122455650D01*
X84474601Y-122482059D01*
X84052142Y-122657047D01*
X83971915Y-122908310D01*
X81944431Y-122908310D01*
X81960838Y-122868799D01*
X81961162Y-122496833D01*
X81819117Y-122153057D01*
X81556327Y-121889808D01*
X81212799Y-121747162D01*
X80840833Y-121746838D01*
X80497057Y-121888883D01*
X80418804Y-121967000D01*
X80019182Y-121967000D01*
X80119338Y-121725799D01*
X80119662Y-121353833D01*
X79997998Y-121059381D01*
X84225224Y-121059381D01*
X84262418Y-121274532D01*
X84690880Y-121417491D01*
X85141435Y-121385602D01*
X85409582Y-121274532D01*
X85446776Y-121059381D01*
X84836000Y-120448605D01*
X84225224Y-121059381D01*
X79997998Y-121059381D01*
X79977617Y-121010057D01*
X79714827Y-120746808D01*
X79371299Y-120604162D01*
X79260728Y-120604066D01*
X78780542Y-120123880D01*
X83687509Y-120123880D01*
X83719398Y-120574435D01*
X83830468Y-120842582D01*
X84045619Y-120879776D01*
X84656395Y-120269000D01*
X84045619Y-119658224D01*
X83830468Y-119695418D01*
X83687509Y-120123880D01*
X78780542Y-120123880D01*
X77883081Y-119226419D01*
X77683408Y-119093001D01*
X83918839Y-119093001D01*
X84236902Y-119411064D01*
X84225224Y-119478619D01*
X84836000Y-120089395D01*
X84850143Y-120075253D01*
X85029748Y-120254858D01*
X85015605Y-120269000D01*
X85626381Y-120879776D01*
X85841532Y-120842582D01*
X85924346Y-120594381D01*
X86281963Y-120594381D01*
X86412911Y-120911301D01*
X86732019Y-121230967D01*
X87149168Y-121404182D01*
X87600850Y-121404576D01*
X88018301Y-121232089D01*
X88337967Y-120912981D01*
X88511182Y-120495832D01*
X88511576Y-120044150D01*
X88339089Y-119626699D01*
X88049529Y-119336633D01*
X88262581Y-119123581D01*
X88417574Y-118891619D01*
X88441334Y-118772168D01*
X88472000Y-118618000D01*
X88472000Y-110468662D01*
X89511130Y-109429533D01*
X89511130Y-111011970D01*
X89555408Y-111247287D01*
X89694480Y-111463411D01*
X89906680Y-111608401D01*
X90023366Y-111632030D01*
X89923253Y-111650868D01*
X89707129Y-111789940D01*
X89562139Y-112002140D01*
X89511130Y-112254030D01*
X89511130Y-113851690D01*
X89555408Y-114087007D01*
X89694480Y-114303131D01*
X89906680Y-114448121D01*
X90158570Y-114499130D01*
X90344000Y-114499130D01*
X90344000Y-119252693D01*
X86218117Y-123378576D01*
X86130953Y-123168142D01*
X85879690Y-123087915D01*
X85015605Y-123952000D01*
X85029748Y-123966143D01*
X84850143Y-124145748D01*
X84836000Y-124131605D01*
X84821858Y-124145748D01*
X84642253Y-123966143D01*
X84656395Y-123952000D01*
X83792310Y-123087915D01*
X83541047Y-123168142D01*
X83339650Y-123723367D01*
X83366059Y-124313399D01*
X83429530Y-124466631D01*
X79948293Y-124466631D01*
X79929067Y-124447405D01*
X79929162Y-124338333D01*
X79787117Y-123994557D01*
X79524327Y-123731308D01*
X79180799Y-123588662D01*
X78808833Y-123588338D01*
X78465057Y-123730383D01*
X78201808Y-123993173D01*
X78059162Y-124336701D01*
X78058838Y-124708667D01*
X78200883Y-125052443D01*
X78463673Y-125315692D01*
X78807201Y-125458338D01*
X78917772Y-125458434D01*
X79146550Y-125687212D01*
X79378512Y-125842205D01*
X79652131Y-125896631D01*
X85426224Y-125896631D01*
X85699843Y-125842205D01*
X85931805Y-125687212D01*
X88729513Y-122889504D01*
X88567754Y-123131594D01*
X88551695Y-123212327D01*
X88507999Y-123432001D01*
X88507999Y-127487001D01*
X88567754Y-127787408D01*
X88737920Y-128042080D01*
X89012840Y-128317000D01*
X87922637Y-128317000D01*
X88056838Y-127993809D01*
X88057162Y-127621843D01*
X87915117Y-127278067D01*
X87652327Y-127014818D01*
X87308799Y-126872172D01*
X87133907Y-126872020D01*
X87095620Y-126846437D01*
X86822001Y-126792011D01*
X79014173Y-126792011D01*
X77348581Y-125126419D01*
X77330440Y-125114297D01*
X77330440Y-124907000D01*
X77286162Y-124671683D01*
X77147090Y-124455559D01*
X76934890Y-124310569D01*
X76683000Y-124259560D01*
X76233000Y-124259560D01*
X76129329Y-124279067D01*
X76033000Y-124259560D01*
X75583000Y-124259560D01*
X75479329Y-124279067D01*
X75383000Y-124259560D01*
X74933000Y-124259560D01*
X74829329Y-124279067D01*
X74733000Y-124259560D01*
X74283000Y-124259560D01*
X74179329Y-124279067D01*
X74083000Y-124259560D01*
X73633000Y-124259560D01*
X73529329Y-124279067D01*
X73433000Y-124259560D01*
X73020505Y-124259560D01*
X73086082Y-124193983D01*
X73219334Y-123994557D01*
X73241074Y-123962021D01*
X73295500Y-123688402D01*
X73295500Y-122717884D01*
X73372692Y-122640827D01*
X73515338Y-122297299D01*
X73515662Y-121925333D01*
X73373617Y-121581557D01*
X73110827Y-121318308D01*
X72767299Y-121175662D01*
X72395333Y-121175338D01*
X72051557Y-121317383D01*
X71788308Y-121580173D01*
X71645662Y-121923701D01*
X71645338Y-122295667D01*
X71787383Y-122639443D01*
X71865500Y-122717696D01*
X71865500Y-123311635D01*
X71777327Y-123223308D01*
X71433799Y-123080662D01*
X71061833Y-123080338D01*
X70718057Y-123222383D01*
X70454808Y-123485173D01*
X70426209Y-123554047D01*
X69495757Y-122623595D01*
X69495757Y-120660257D01*
X69441331Y-120386638D01*
X69428421Y-120367317D01*
X69286338Y-120154675D01*
X68025000Y-118893338D01*
X68025000Y-107738162D01*
X68685663Y-107077500D01*
X72450437Y-107077500D01*
X73979918Y-108606982D01*
M02*
