M48
;DRILL file {KiCad 4.0.1-stable} date 4/02/2016 12:17:48
;FORMAT={-:-/ absolute / inch / decimal}
FMAT,2
INCH,TZ
T1C0.016
T2C0.024
T3C0.024
T4C0.028
T5C0.031
T6C0.032
T7C0.039
T8C0.040
T9C0.043
T10C0.043
T11C0.047
T12C0.050
T13C0.055
T14C0.059
%
G90
G05
M72
T1
X2.595Y-4.5602
X2.6425Y-4.7775
X2.715Y-4.985
X2.785Y-5.005
X2.805Y-4.8825
X2.8575Y-4.8075
X2.885Y-2.945
X2.96Y-4.235
X3.0075Y-5.0318
X3.085Y-3.8175
X3.11Y-4.9025
X3.1175Y-4.785
X3.19Y-4.83
X3.3Y-3.4375
X3.37Y-4.565
X3.43Y-5.0318
X3.525Y-4.6575
X3.545Y-5.005
X3.5875Y-4.7875
X3.63Y-3.525
X3.7275Y-3.135
X4.08Y-5.115
X4.425Y-4.525
X4.52Y-4.3075
T2
X2.7434Y-4.6287
X2.8024Y-4.6287
T3
X3.34Y-4.735
X3.39Y-4.685
X3.44Y-4.735
X4.7675Y-2.695
X4.8175Y-2.745
X4.8675Y-2.695
T4
X3.34Y-4.88
X3.74Y-4.88
T5
X5.3625Y-2.635
X5.3625Y-2.735
X5.3625Y-2.835
T6
X2.305Y-3.1
X2.8025Y-2.665
X3.083Y-2.511
X3.36Y-2.825
X4.Y-3.1125
X4.18Y-4.385
X4.3425Y-2.855
X4.4877Y-2.4812
X5.2775Y-3.645
X5.3625Y-2.49
X5.825Y-2.1325
T7
X2.8913Y-3.5491
X2.92Y-3.49
X3.02Y-3.49
X3.0487Y-3.4309
X3.3359Y-3.2013
X3.395Y-3.23
X3.395Y-3.33
X3.4541Y-3.3587
X3.9Y-4.4258
X3.9Y-4.725
X4.7325Y-3.76
X5.1325Y-3.76
X5.6775Y-3.43
X5.7025Y-3.0371
T8
X2.4425Y-3.31
X2.4425Y-3.41
X2.5813Y-5.2125
X2.6813Y-5.2125
X2.7813Y-5.2125
X2.8813Y-5.2125
X2.9813Y-5.2125
X3.0459Y-4.3312
X3.0813Y-5.2125
X3.1459Y-4.3312
X3.1813Y-5.2125
X3.2459Y-4.3312
X3.2813Y-5.2125
X3.3459Y-4.3312
X3.3813Y-5.2125
X3.4813Y-5.2125
X3.5813Y-5.2125
X3.6813Y-5.2125
X3.7813Y-5.2125
X3.87Y-3.819
X3.8813Y-5.2125
X3.9813Y-5.2125
X4.0813Y-5.2125
X4.2677Y-2.0812
X4.3677Y-2.0812
X4.555Y-3.805
T9
X2.3825Y-4.0425
X2.3825Y-4.1425
X2.3825Y-4.6225
X2.3825Y-4.7225
X2.4325Y-2.545
X2.5325Y-2.545
T10
X4.1425Y-3.43
X5.0225Y-3.43
T11
X5.7025Y-2.0528
T12
X5.2775Y-3.43
T13
X5.015Y-4.4031
X5.015Y-4.6
X5.015Y-4.7969
T14
X4.9025Y-2.165
X5.1225Y-2.165
X5.3425Y-2.165
T0
M30
