M48
;DRILL file {KiCad 4.0.0-rc2-stable} date 15/01/2016 11:30:46
;FORMAT={-:-/ absolute / inch / decimal}
FMAT,2
INCH,TZ
T1C0.016
T2C0.024
T3C0.024
T4C0.028
T5C0.028
T6C0.031
T7C0.032
T8C0.039
T9C0.040
T10C0.043
T11C0.043
T12C0.047
T13C0.047
T14C0.050
T15C0.059
T16C0.098
%
G90
G05
M72
T1
X2.9525Y-3.095
X3.0025Y-2.785
X3.2625Y-4.5925
X3.2925Y-3.79
X3.55Y-4.29
X3.7475Y-3.17
X3.8733Y-4.275
X3.9775Y-4.7125
X4.01Y-3.99
X4.125Y-4.265
X4.3Y-3.965
X4.32Y-3.6625
X4.4475Y-3.5125
X4.595Y-4.3
T2
X2.7859Y-4.2662
X2.8449Y-4.2662
T3
X4.5513Y-4.8974
X4.6013Y-4.8474
X4.6513Y-4.8974
X4.7075Y-2.635
X4.7575Y-2.685
X4.8075Y-2.635
T4
X4.0225Y-2.605
X4.2075Y-2.69
T5
X5.0675Y-4.465
X5.4675Y-4.465
T6
X2.9209Y-4.4412
X2.9209Y-4.7412
X3.0209Y-4.4412
X3.0209Y-4.7412
X3.1209Y-4.4412
X3.1209Y-4.7412
X3.2209Y-4.4412
X3.2209Y-4.7412
X3.3209Y-4.4412
X3.3209Y-4.7412
X3.4209Y-4.4412
X3.4209Y-4.7412
X3.5209Y-4.4412
X3.5209Y-4.7412
X3.6209Y-4.4412
X3.6209Y-4.7412
X3.7209Y-4.4412
X3.7209Y-4.7412
X3.8209Y-4.4412
X3.8209Y-4.7412
X5.3025Y-2.575
X5.3025Y-2.675
X5.3025Y-2.775
T7
X2.5575Y-3.58
X2.7625Y-2.715
X2.8925Y-3.385
X2.8925Y-3.485
X3.0175Y-3.185
X3.1675Y-3.5
X3.2675Y-3.5
X3.94Y-3.0525
X4.245Y-3.0925
X4.4277Y-2.4212
X4.4575Y-3.7
X5.085Y-4.125
X5.2175Y-3.585
X5.3025Y-2.43
X5.765Y-2.0725
T8
X4.6725Y-3.7
X4.7825Y-4.0779
X4.7825Y-4.3771
X5.0725Y-3.7
X5.6175Y-3.37
X5.6425Y-2.9771
T9
X2.4025Y-3.36
X2.4025Y-3.46
X3.0209Y-4.2012
X3.1209Y-4.2012
X3.2209Y-4.2012
X3.3209Y-4.2012
X4.2077Y-2.0212
X4.3077Y-2.0212
T10
X2.3925Y-2.595
X2.4925Y-2.595
X2.6459Y-4.6812
X2.6459Y-4.7812
X2.6484Y-4.4212
X2.6484Y-4.5212
T11
X4.0825Y-3.37
X4.9625Y-3.37
T12
X5.6425Y-1.9928
T13
X2.8313Y-5.0849
X2.9313Y-5.0849
X3.0313Y-5.0849
X3.1313Y-5.0849
X3.2313Y-5.0849
X3.3313Y-5.0849
X3.4313Y-5.0849
X3.5313Y-5.0849
X3.6313Y-5.0849
X3.7313Y-5.0849
X3.8313Y-5.0849
X3.9313Y-5.0849
X4.0313Y-5.0849
X4.1313Y-5.0849
X4.2313Y-5.0849
X4.3313Y-5.0849
T14
X5.2175Y-3.37
T15
X4.8425Y-2.105
X5.0625Y-2.105
X5.2825Y-2.105
T16
X2.6148Y-5.0849
X2.6148Y-6.3054
X5.5675Y-5.0849
X5.5675Y-6.3054
T0
M30
